<?xml version="1.0" encoding="UTF-8"?><svg xmlns="http://www.w3.org/2000/svg" xmlns:xlink="http://www.w3.org/1999/xlink" fill-opacity="1" color-rendering="auto" color-interpolation="auto" text-rendering="auto" stroke="black" stroke-linecap="square" width="184" stroke-miterlimit="10" shape-rendering="auto" stroke-opacity="1" fill="black" stroke-dasharray="none" font-weight="normal" stroke-width="1" height="102" font-family="'Dialog'" font-style="normal" stroke-linejoin="miter" font-size="12px" stroke-dashoffset="0" image-rendering="auto">
  <!--Generated by ySVG 2.5-->
  <defs id="genericDefs"/>
  <g>
    <defs id="defs1">
      <clipPath clipPathUnits="userSpaceOnUse" id="clipPath1">
        <path d="M0 0 L184 0 L184 102 L0 102 L0 0 Z"/>
      </clipPath>
      <clipPath clipPathUnits="userSpaceOnUse" id="clipPath2">
        <path d="M508 299 L692 299 L692 401 L508 401 L508 299 Z"/>
      </clipPath>
    </defs>
    <g fill="white" text-rendering="geometricPrecision" shape-rendering="geometricPrecision" transform="translate(-508,-299)" stroke="white">
      <rect x="508" width="184" height="102" y="299" clip-path="url(#clipPath2)" stroke="none"/>
    </g>
    <g fill="white" text-rendering="geometricPrecision" shape-rendering="geometricPrecision" transform="matrix(1,0,0,1,-508,-299)" stroke="white">
      <rect x="513.9171" y="304.8712" clip-path="url(#clipPath2)" width="79.8554" rx="4" ry="4" height="90.2285" stroke="none"/>
      <rect x="513.9171" y="304.8712" clip-path="url(#clipPath2)" fill="rgb(17,212,163)" width="79.8554" height="27.0993" stroke="none"/>
    </g>
    <g text-rendering="geometricPrecision" stroke-miterlimit="1.45" shape-rendering="geometricPrecision" font-family="'Fira Sans'" transform="matrix(1,0,0,1,-508,-299)" stroke-linecap="butt">
      <text x="541.5516" xml:space="preserve" y="316.0881" clip-path="url(#clipPath2)" stroke="none">PM1:</text>
      <line y2="318.4208" fill="none" x1="515.9171" clip-path="url(#clipPath2)" x2="591.7725" y1="318.4208"/>
      <text x="531.537" xml:space="preserve" y="327.6378" clip-path="url(#clipPath2)" stroke="none">PhilMod</text>
      <line y2="329.9705" fill="none" x1="515.9171" clip-path="url(#clipPath2)" x2="591.7725" y1="329.9705"/>
      <rect x="513.9171" y="304.8712" clip-path="url(#clipPath2)" fill="none" width="79.8554" rx="4" ry="4" height="90.2285"/>
      <circle fill="none" r="15" clip-path="url(#clipPath2)" cx="553.8448" cy="355.406"/>
      <text x="516.9171" xml:space="preserve" y="383.6229" clip-path="url(#clipPath2)" stroke="none">PM1.rightFork</text>
      <circle stroke-linecap="square" clip-path="url(#clipPath2)" r="5" cx="553.8448" cy="355.406" stroke="none" stroke-miterlimit="10"/>
    </g>
    <g fill="white" text-rendering="geometricPrecision" shape-rendering="geometricPrecision" transform="matrix(1,0,0,1,-508,-299)" stroke="white">
      <rect x="608.5475" y="304.8712" clip-path="url(#clipPath2)" width="78.4034" rx="4" ry="4" height="90.2285" stroke="none"/>
      <rect x="608.5475" y="304.8712" clip-path="url(#clipPath2)" fill="rgb(17,212,163)" width="78.4034" height="27.0993" stroke="none"/>
    </g>
    <g text-rendering="geometricPrecision" stroke-miterlimit="1.45" shape-rendering="geometricPrecision" font-family="'Fira Sans'" transform="matrix(1,0,0,1,-508,-299)" stroke-linecap="butt">
      <text x="635.0841" xml:space="preserve" y="316.0881" clip-path="url(#clipPath2)" stroke="none">PM2:</text>
      <line y2="318.4208" fill="none" x1="610.5475" clip-path="url(#clipPath2)" x2="684.9509" y1="318.4208"/>
      <text x="625.4414" xml:space="preserve" y="327.6378" clip-path="url(#clipPath2)" stroke="none">PhilMod</text>
      <line y2="329.9705" fill="none" x1="610.5475" clip-path="url(#clipPath2)" x2="684.9509" y1="329.9705"/>
      <rect x="608.5475" y="304.8712" clip-path="url(#clipPath2)" fill="none" width="78.4034" rx="4" ry="4" height="90.2285"/>
    </g>
    <g stroke-linecap="butt" transform="matrix(1,0,0,1,-508,-299)" fill="rgb(64,64,64)" text-rendering="geometricPrecision" shape-rendering="geometricPrecision" stroke-dasharray="6,2" stroke="rgb(64,64,64)" stroke-miterlimit="1.45">
      <circle fill="none" r="15" clip-path="url(#clipPath2)" cx="647.1623" cy="355.406"/>
      <text x="613.7187" y="383.6049" clip-path="url(#clipPath2)" font-family="'Fira Sans'" font-style="italic" stroke-dasharray="none" stroke="none" xml:space="preserve">PM2.leftFork</text>
      <path fill="none" d="M632.1624 355.406 L583.8448 355.406" clip-path="url(#clipPath2)"/>
      <path fill="white" d="M568.8448 355.406 L584.8448 361.406 L584.8448 349.406 Z" clip-path="url(#clipPath2)" stroke="none"/>
      <path fill="none" stroke-dasharray="none" d="M568.8448 355.406 L584.8448 361.406 L584.8448 349.406 Z" clip-path="url(#clipPath2)"/>
    </g>
  </g>
</svg>
