<?xml version="1.0" encoding="UTF-8"?><svg xmlns="http://www.w3.org/2000/svg" xmlns:xlink="http://www.w3.org/1999/xlink" fill-opacity="1" color-rendering="auto" color-interpolation="auto" text-rendering="auto" stroke="black" stroke-linecap="square" width="298" stroke-miterlimit="10" shape-rendering="auto" stroke-opacity="1" fill="black" stroke-dasharray="none" font-weight="normal" stroke-width="1" height="357" font-family="'Dialog'" font-style="normal" stroke-linejoin="miter" font-size="12px" stroke-dashoffset="0" image-rendering="auto">
  <!--Generated by ySVG 2.5-->
  <defs id="genericDefs"/>
  <g>
    <defs id="defs1">
      <clipPath clipPathUnits="userSpaceOnUse" id="clipPath1">
        <path d="M0 0 L298 0 L298 357 L0 357 L0 0 Z"/>
      </clipPath>
      <clipPath clipPathUnits="userSpaceOnUse" id="clipPath2">
        <path d="M234 281 L532 281 L532 638 L234 638 L234 281 Z"/>
      </clipPath>
      <clipPath clipPathUnits="userSpaceOnUse" id="clipPath3">
        <path d="M0 0 L0 39 L55 39 L55 0 Z"/>
      </clipPath>
      <clipPath clipPathUnits="userSpaceOnUse" id="clipPath4">
        <path d="M0 0 L0 39 L60 39 L60 0 Z"/>
      </clipPath>
      <clipPath clipPathUnits="userSpaceOnUse" id="clipPath5">
        <path d="M0 0 L0 26 L95 26 L95 0 Z"/>
      </clipPath>
      <clipPath clipPathUnits="userSpaceOnUse" id="clipPath6">
        <path d="M0 0 L0 39 L145 39 L145 0 Z"/>
      </clipPath>
    </defs>
    <g fill="white" text-rendering="geometricPrecision" shape-rendering="geometricPrecision" transform="translate(-234,-281)" stroke="white">
      <rect x="234" width="298" height="357" y="281" clip-path="url(#clipPath2)" stroke="none"/>
    </g>
    <g fill="white" text-rendering="geometricPrecision" shape-rendering="geometricPrecision" transform="matrix(1,0,0,1,-234,-281)" stroke="white">
      <rect x="239.0545" y="290.5594" clip-path="url(#clipPath2)" width="171.1422" rx="4" ry="4" height="64.2392" stroke="none"/>
      <rect x="239.0545" y="290.5594" clip-path="url(#clipPath2)" fill="silver" width="171.1422" height="15.5497" stroke="none"/>
    </g>
    <g text-rendering="geometricPrecision" stroke-miterlimit="1.45" shape-rendering="geometricPrecision" font-family="'Fira Sans'" transform="matrix(1,0,0,1,-234,-281)" stroke-linecap="butt">
      <text x="316.7519" xml:space="preserve" y="301.7763" clip-path="url(#clipPath2)" stroke="none">TM</text>
      <rect x="239.0545" y="290.5594" clip-path="url(#clipPath2)" fill="none" width="171.1422" rx="4" ry="4" height="64.2392"/>
      <path fill="none" d="M263.8963 313.8598 L278.8963 343.8598 L248.8963 343.8598 Z" clip-path="url(#clipPath2)" fill-rule="evenodd"/>
      <text x="282.8963" xml:space="preserve" y="326.527" clip-path="url(#clipPath2)" stroke="none">TM.totalThinkingTime</text>
      <text x="282.8963" xml:space="preserve" y="338.0767" clip-path="url(#clipPath2)" stroke="none">= #PM1.thinking</text>
      <path fill="none" d="M443.3523 290.5594 L458.3523 320.5594 L428.3523 320.5594 Z" clip-path="url(#clipPath2)" fill-rule="evenodd"/>
      <text x="462.3523" xml:space="preserve" y="297.4518" clip-path="url(#clipPath2)" stroke="none">P1.</text>
      <text x="462.3523" xml:space="preserve" y="309.0015" clip-path="url(#clipPath2)" stroke="none">hungryRate</text>
      <text x="462.3523" xml:space="preserve" y="320.5511" clip-path="url(#clipPath2)" stroke="none">= 0.5</text>
    </g>
    <g fill="rgb(153,153,153)" text-rendering="geometricPrecision" shape-rendering="geometricPrecision" transform="matrix(1,0,0,1,-234,-281)" stroke="rgb(153,153,153)">
      <path d="M443.3523 329.5577 L458.3523 359.5577 L428.3523 359.5577 Z" fill-rule="evenodd" clip-path="url(#clipPath2)" stroke="none"/>
    </g>
    <g text-rendering="geometricPrecision" stroke-miterlimit="1.45" shape-rendering="geometricPrecision" transform="matrix(1,0,0,1,-234,-281)" stroke-linecap="butt">
      <path fill="none" d="M443.3523 329.5577 L458.3523 359.5577 L428.3523 359.5577 Z" fill-rule="evenodd" clip-path="url(#clipPath2)"/>
      <text x="462.3523" xml:space="preserve" y="336.4502" clip-path="url(#clipPath2)" font-family="'Fira Sans'" stroke="none">P1.</text>
      <text x="462.3523" xml:space="preserve" y="347.9998" clip-path="url(#clipPath2)" font-family="'Fira Sans'" stroke="none">eatingRate</text>
      <text x="462.3523" xml:space="preserve" y="359.5495" clip-path="url(#clipPath2)" font-family="'Fira Sans'" stroke="none">= 3.0</text>
    </g>
    <g fill="white" text-rendering="geometricPrecision" shape-rendering="geometricPrecision" transform="matrix(1,0,0,1,-234,-281)" stroke="white">
      <rect x="239.0545" y="368.5561" clip-path="url(#clipPath2)" width="224.2622" rx="4" ry="4" height="264.0088" stroke="none"/>
      <rect x="239.0545" y="368.5561" clip-path="url(#clipPath2)" fill="silver" width="224.2622" height="15.5497" stroke="none"/>
    </g>
    <g text-rendering="geometricPrecision" stroke-miterlimit="1.45" shape-rendering="geometricPrecision" font-family="'Fira Sans'" transform="matrix(1,0,0,1,-234,-281)" stroke-linecap="butt">
      <text x="340.3315" xml:space="preserve" y="379.773" clip-path="url(#clipPath2)" stroke="none">PM1</text>
      <rect x="239.0545" y="368.5561" clip-path="url(#clipPath2)" fill="none" width="224.2622" rx="4" ry="4" height="264.0088"/>
      <circle fill="none" r="15" clip-path="url(#clipPath2)" cx="263.8963" cy="592.0649"/>
      <text x="265.7358" xml:space="preserve" y="574.7442" clip-path="url(#clipPath2)" stroke="none">PM1.thinking</text>
      <circle fill="none" r="15" clip-path="url(#clipPath2)" cx="352.1203" cy="475.3365"/>
      <text x="269.0515" xml:space="preserve" y="478.7786" clip-path="url(#clipPath2)" stroke="none">PM1.waiting</text>
      <circle fill="none" r="15" clip-path="url(#clipPath2)" cx="352.1203" cy="550.8221"/>
      <text x="274.4365" xml:space="preserve" y="554.2642" clip-path="url(#clipPath2)" stroke="none">PM1.eating</text>
      <rect fill="none" x="337.1203" width="30" height="15" y="426.5937" clip-path="url(#clipPath2)"/>
    </g>
    <g text-rendering="geometricPrecision" stroke-miterlimit="1.45" shape-rendering="geometricPrecision" font-family="'Fira Sans'" transform="matrix(1,0,0,1,-234,-281) translate(371,422)" stroke-linecap="butt">
      <text x="0" xml:space="preserve" y="10" clip-path="url(#clipPath3)" stroke="none">PM1.</text>
      <text x="24" xml:space="preserve" y="10" clip-path="url(#clipPath3)" stroke="none"> </text>
      <text x="0" xml:space="preserve" y="23" clip-path="url(#clipPath3)" stroke="none">getHungry</text>
      <text x="55" xml:space="preserve" y="23" clip-path="url(#clipPath3)" stroke="none"> </text>
      <text x="0" xml:space="preserve" y="36" clip-path="url(#clipPath3)" stroke="none">λ</text>
      <text x="6" xml:space="preserve" y="36" clip-path="url(#clipPath3)" stroke="none"> = 0.5</text>
      <text x="35" font-size="8px" y="36" clip-path="url(#clipPath3)" font-family="monospace" stroke="none" xml:space="preserve"> </text>
    </g>
    <g fill="rgb(153,153,153)" text-rendering="geometricPrecision" shape-rendering="geometricPrecision" transform="matrix(1,0,0,1,-234,-281)" stroke="rgb(153,153,153)">
      <rect x="337.1203" width="30" height="8" y="509.0793" clip-path="url(#clipPath2)" stroke="none"/>
    </g>
    <g text-rendering="geometricPrecision" stroke-miterlimit="1.45" shape-rendering="geometricPrecision" transform="matrix(1,0,0,1,-234,-281)" stroke-linecap="butt">
      <rect fill="none" x="337.1203" width="30" height="8" y="509.0793" clip-path="url(#clipPath2)"/>
    </g>
    <g text-rendering="geometricPrecision" stroke-miterlimit="1.45" shape-rendering="geometricPrecision" font-family="'Fira Sans'" transform="matrix(1,0,0,1,-234,-281) translate(273,493)" stroke-linecap="butt">
      <text x="36" xml:space="preserve" y="10" clip-path="url(#clipPath4)" stroke="none">PM1.</text>
      <text x="60" xml:space="preserve" y="10" clip-path="url(#clipPath4)" stroke="none"> </text>
      <text x="0" xml:space="preserve" y="23" clip-path="url(#clipPath4)" stroke="none">startEating</text>
      <text x="55" font-size="8px" y="23" clip-path="url(#clipPath4)" font-family="monospace" stroke="none" xml:space="preserve"> </text>
      <text x="60" xml:space="preserve" y="23" clip-path="url(#clipPath4)" stroke="none"> </text>
      <text x="3" xml:space="preserve" y="36" clip-path="url(#clipPath4)" stroke="none">w = 1, </text>
      <text x="35" xml:space="preserve" y="36" clip-path="url(#clipPath4)" stroke="none">π</text>
      <text x="42" xml:space="preserve" y="36" clip-path="url(#clipPath4)" stroke="none"> = 1</text>
    </g>
    <g text-rendering="geometricPrecision" stroke-miterlimit="1.45" shape-rendering="geometricPrecision" transform="matrix(1,0,0,1,-234,-281)" stroke-linecap="butt">
      <rect fill="none" x="337.1203" width="30" height="15" y="584.5649" clip-path="url(#clipPath2)"/>
    </g>
    <g text-rendering="geometricPrecision" stroke-miterlimit="1.45" shape-rendering="geometricPrecision" font-family="'Fira Sans'" transform="matrix(1,0,0,1,-234,-281) translate(304,603)" stroke-linecap="butt">
      <text x="0" xml:space="preserve" y="10" clip-path="url(#clipPath5)" stroke="none">PM1.finishEating</text>
      <text x="85" xml:space="preserve" y="10" clip-path="url(#clipPath5)" stroke="none"> </text>
      <text x="0" xml:space="preserve" y="23" clip-path="url(#clipPath5)" stroke="none">λ</text>
      <text x="6" xml:space="preserve" y="23" clip-path="url(#clipPath5)" stroke="none"> = P1.eatingRate</text>
      <text x="90" font-size="8px" y="23" clip-path="url(#clipPath5)" font-family="monospace" stroke="none" xml:space="preserve"> </text>
    </g>
    <g text-rendering="geometricPrecision" stroke-miterlimit="1.45" shape-rendering="geometricPrecision" transform="matrix(1,0,0,1,-234,-281)" stroke-linecap="butt">
      <circle fill="none" r="15" clip-path="url(#clipPath2)" cx="435.1807" cy="540.7371"/>
      <text x="394.6146" xml:space="preserve" y="538.4044" clip-path="url(#clipPath2)" font-family="'Fira Sans'" stroke="none">PM1.</text>
      <text x="369.9321" xml:space="preserve" y="549.954" clip-path="url(#clipPath2)" font-family="'Fira Sans'" stroke="none">rightFork</text>
      <path fill="none" d="M263.8963 391.8565 L278.8963 421.8565 L248.8963 421.8565 Z" clip-path="url(#clipPath2)" fill-rule="evenodd"/>
      <text x="290.0193" xml:space="preserve" y="404.5238" clip-path="url(#clipPath2)" font-family="'Fira Sans'" stroke="none">PM1.thinkingTime</text>
      <text x="290.0193" xml:space="preserve" y="416.0734" clip-path="url(#clipPath2)" font-family="'Fira Sans'" stroke="none">= #PM1.thinking</text>
      <circle stroke-linecap="square" clip-path="url(#clipPath2)" r="5" cx="263.8963" cy="592.0649" stroke="none" stroke-miterlimit="10"/>
      <circle stroke-linecap="square" clip-path="url(#clipPath2)" r="5" cx="435.1807" cy="540.8221" stroke="none" stroke-miterlimit="10"/>
    </g>
    <g fill="white" text-rendering="geometricPrecision" shape-rendering="geometricPrecision" transform="matrix(1,0,0,1,-234,-281)" stroke="white">
      <path d="M370.9059 463.4822 L511.4854 463.4822 L511.4854 478.4822 L526.4854 478.4822 L526.4854 504.3107 L370.9059 504.3107 Z" stroke="none" clip-path="url(#clipPath2)"/>
      <path d="M511.4854 463.4822 L511.4854 478.4822 L526.4854 478.4822 Z" clip-path="url(#clipPath2)" fill-rule="evenodd" stroke="none"/>
    </g>
    <g stroke-linecap="butt" transform="matrix(1,0,0,1,-234,-281)" fill="maroon" text-rendering="geometricPrecision" shape-rendering="geometricPrecision" stroke="maroon" stroke-miterlimit="1.45">
      <path fill="none" d="M370.9059 463.4822 L511.4854 463.4822 L511.4854 478.4822 L526.4854 478.4822 L526.4854 504.3107 L370.9059 504.3107 Z" clip-path="url(#clipPath2)"/>
      <path fill="none" d="M511.4854 463.4822 L511.4854 478.4822 L526.4854 478.4822 Z" clip-path="url(#clipPath2)" fill-rule="evenodd"/>
    </g>
    <g stroke-linecap="butt" transform="matrix(1,0,0,1,-234,-281) translate(376,464)" fill="maroon" text-rendering="geometricPrecision" font-family="'Fira Sans'" shape-rendering="geometricPrecision" stroke="maroon" font-weight="bold" stroke-miterlimit="1.45">
      <text x="29" xml:space="preserve" y="10" clip-path="url(#clipPath6)" stroke="none">Error:</text>
      <text x="60" xml:space="preserve" y="10" clip-path="url(#clipPath6)" font-weight="normal" stroke="none"> reference</text>
      <text x="116" xml:space="preserve" y="10" clip-path="url(#clipPath6)" font-weight="normal" stroke="none"> </text>
      <text x="13" y="23" clip-path="url(#clipPath6)" font-style="italic" stroke="none" font-weight="normal" xml:space="preserve">PM1.leftFork</text>
      <text x="81" xml:space="preserve" y="23" clip-path="url(#clipPath6)" font-weight="normal" stroke="none"> does not</text>
      <text x="131" xml:space="preserve" y="23" clip-path="url(#clipPath6)" font-weight="normal" stroke="none"> </text>
      <text x="0" xml:space="preserve" y="36" clip-path="url(#clipPath6)" font-weight="normal" stroke="none">point at a concrete symbol.</text>
    </g>
    <g text-rendering="geometricPrecision" stroke-miterlimit="1.45" shape-rendering="geometricPrecision" transform="matrix(1,0,0,1,-234,-281)" stroke-linecap="butt">
      <path fill="none" d="M263.8963 577.0649 L263.8963 444.0937 L264.5213 439.7187 L266.3963 436.5937 L269.5213 434.7187 L273.8963 434.0937 L329.1203 434.0937" clip-path="url(#clipPath2)"/>
      <path d="M337.1203 434.0937 L325.1203 429.0937 L328.1203 434.0937 L325.1203 439.0937 Z" clip-path="url(#clipPath2)" stroke="none"/>
      <path fill="none" d="M352.1203 441.5937 L352.1203 452.3365" clip-path="url(#clipPath2)"/>
      <path d="M352.1203 460.3365 L357.1203 448.3365 L352.1203 451.3365 L347.1203 448.3365 Z" clip-path="url(#clipPath2)" stroke="none"/>
      <path fill="none" d="M352.1203 490.3365 L352.1203 501.0793" clip-path="url(#clipPath2)"/>
      <path d="M352.1203 509.0793 L357.1203 497.0793 L352.1203 500.0793 L347.1203 497.0793 Z" clip-path="url(#clipPath2)" stroke="none"/>
      <path fill="none" d="M352.1203 517.0793 L352.1203 527.8221" clip-path="url(#clipPath2)"/>
      <path d="M352.1203 535.8221 L357.1203 523.8221 L352.1203 526.8221 L347.1203 523.8221 Z" clip-path="url(#clipPath2)" stroke="none"/>
      <path fill="none" d="M352.1203 565.8221 L352.1203 576.5649" clip-path="url(#clipPath2)"/>
      <path d="M352.1203 584.5649 L357.1203 572.5649 L352.1203 575.5649 L347.1203 572.5649 Z" clip-path="url(#clipPath2)" stroke="none"/>
      <path fill="none" d="M337.1203 592.0649 L286.8963 592.0649" clip-path="url(#clipPath2)"/>
      <path d="M278.8963 592.0649 L290.8963 597.0649 L287.8963 592.0649 L290.8963 587.0649 Z" clip-path="url(#clipPath2)" stroke="none"/>
      <path fill="none" d="M359.3706 584.5649 L365.1191 578.6184 L371.9306 574.1586 L380.8677 572.6719 L425.1808 572.6719 L432.6808 571.5551 L434.5558 570.159 L435.1808 568.2045 L435.1808 563.7371" clip-path="url(#clipPath2)"/>
      <path d="M435.1808 555.7371 L430.1808 567.7371 L435.1808 564.7371 L440.1808 567.7371 Z" clip-path="url(#clipPath2)" stroke="none"/>
      <path fill="none" d="M435.1808 525.7371 L435.1808 519.4082 L434.5558 516.6393 L432.6808 514.6615 L429.5558 513.4749 L425.1808 513.0793 L375.1203 513.0793" clip-path="url(#clipPath2)"/>
      <path d="M367.1203 513.0793 L379.1203 518.0793 L376.1203 513.0793 L379.1203 508.0793 Z" clip-path="url(#clipPath2)" stroke="none"/>
      <path fill="none" stroke-dasharray="6,2" d="M486.6841 463.4513 L486.6841 421.8982 L463.361 421.8982" clip-path="url(#clipPath2)" stroke="maroon"/>
    </g>
  </g>
</svg>
