<?xml version="1.0" encoding="UTF-8"?><svg xmlns="http://www.w3.org/2000/svg" xmlns:xlink="http://www.w3.org/1999/xlink" fill-opacity="1" color-rendering="auto" color-interpolation="auto" text-rendering="auto" stroke="black" stroke-linecap="square" width="300" stroke-miterlimit="10" shape-rendering="auto" stroke-opacity="1" fill="black" stroke-dasharray="none" font-weight="normal" stroke-width="1" height="357" font-family="'Dialog'" font-style="normal" stroke-linejoin="miter" font-size="12px" stroke-dashoffset="0" image-rendering="auto">
  <!--Generated by ySVG 2.5-->
  <defs id="genericDefs"/>
  <g>
    <defs id="defs1">
      <clipPath clipPathUnits="userSpaceOnUse" id="clipPath1">
        <path d="M0 0 L300 0 L300 357 L0 357 L0 0 Z"/>
      </clipPath>
      <clipPath clipPathUnits="userSpaceOnUse" id="clipPath2">
        <path d="M208 251 L508 251 L508 608 L208 608 L208 251 Z"/>
      </clipPath>
      <clipPath clipPathUnits="userSpaceOnUse" id="clipPath3">
        <path d="M0 0 L0 39 L58 39 L58 0 Z"/>
      </clipPath>
      <clipPath clipPathUnits="userSpaceOnUse" id="clipPath4">
        <path d="M0 0 L0 39 L60 39 L60 0 Z"/>
      </clipPath>
      <clipPath clipPathUnits="userSpaceOnUse" id="clipPath5">
        <path d="M0 0 L0 26 L95 26 L95 0 Z"/>
      </clipPath>
      <clipPath clipPathUnits="userSpaceOnUse" id="clipPath6">
        <path d="M0 0 L0 39 L145 39 L145 0 Z"/>
      </clipPath>
    </defs>
    <g fill="white" text-rendering="geometricPrecision" shape-rendering="geometricPrecision" transform="translate(-208,-251)" stroke="white">
      <rect x="208" width="300" height="357" y="251" clip-path="url(#clipPath2)" stroke="none"/>
    </g>
    <g fill="white" text-rendering="geometricPrecision" shape-rendering="geometricPrecision" transform="matrix(1,0,0,1,-208,-251)" stroke="white">
      <rect x="213.5272" y="260.7797" clip-path="url(#clipPath2)" width="171.1422" rx="4" ry="4" height="64.2392" stroke="none"/>
      <rect x="213.5272" y="260.7797" clip-path="url(#clipPath2)" fill="rgb(235,235,235)" width="171.1422" height="15.5497" stroke="none"/>
    </g>
    <g text-rendering="geometricPrecision" stroke-miterlimit="1.45" shape-rendering="geometricPrecision" font-family="'Fira Sans'" transform="matrix(1,0,0,1,-208,-251)" stroke-linecap="butt">
      <text x="291.2247" xml:space="preserve" y="271.9966" clip-path="url(#clipPath2)" stroke="none">TM</text>
      <line y2="274.3293" fill="none" x1="215.5272" clip-path="url(#clipPath2)" x2="382.6695" y1="274.3293"/>
      <rect x="213.5272" y="260.7797" clip-path="url(#clipPath2)" fill="none" width="171.1422" rx="4" ry="4" height="64.2392"/>
      <path fill="none" d="M238.3691 284.0801 L253.3691 314.0801 L223.3691 314.0801 Z" clip-path="url(#clipPath2)" fill-rule="evenodd"/>
      <text x="257.369" xml:space="preserve" y="296.7474" clip-path="url(#clipPath2)" stroke="none">TM.totalThinkingTime</text>
      <text x="257.369" xml:space="preserve" y="308.297" clip-path="url(#clipPath2)" stroke="none">= #PM1.thinking</text>
      <path fill="none" d="M417.825 260.7795 L432.8249 290.7796 L402.8251 290.7796 Z" clip-path="url(#clipPath2)" fill-rule="evenodd"/>
      <text x="436.825" xml:space="preserve" y="267.3483" clip-path="url(#clipPath2)" font-weight="bold" stroke="none">P1.</text>
      <text x="436.825" xml:space="preserve" y="279.1139" clip-path="url(#clipPath2)" font-weight="bold" stroke="none">hungryRate</text>
      <text x="436.825" xml:space="preserve" y="290.8794" clip-path="url(#clipPath2)" font-weight="bold" stroke="none">= 0.75</text>
    </g>
    <g fill="rgb(153,153,153)" text-rendering="geometricPrecision" shape-rendering="geometricPrecision" transform="matrix(1,0,0,1,-208,-251)" stroke="rgb(153,153,153)">
      <path d="M417.8253 299.778 L432.8251 329.778 L402.8253 329.778 Z" fill-rule="evenodd" clip-path="url(#clipPath2)" stroke="none"/>
    </g>
    <g text-rendering="geometricPrecision" stroke-miterlimit="1.45" shape-rendering="geometricPrecision" transform="matrix(1,0,0,1,-208,-251)" stroke-linecap="butt">
      <path fill="none" d="M417.8253 299.778 L432.8251 329.778 L402.8253 329.778 Z" fill-rule="evenodd" clip-path="url(#clipPath2)"/>
      <text x="436.825" xml:space="preserve" y="306.6705" clip-path="url(#clipPath2)" font-family="'Fira Sans'" stroke="none">P1.</text>
      <text x="436.825" xml:space="preserve" y="318.2202" clip-path="url(#clipPath2)" font-family="'Fira Sans'" stroke="none">eatingRate</text>
      <text x="436.825" xml:space="preserve" y="329.7698" clip-path="url(#clipPath2)" font-family="'Fira Sans'" stroke="none">= 3.0</text>
    </g>
    <g fill="white" text-rendering="geometricPrecision" shape-rendering="geometricPrecision" transform="matrix(1,0,0,1,-208,-251)" stroke="white">
      <rect x="213.5272" y="338.7764" clip-path="url(#clipPath2)" width="224.2622" rx="4" ry="4" height="264.0088" stroke="none"/>
      <rect x="213.5272" y="338.7764" clip-path="url(#clipPath2)" fill="rgb(235,235,235)" width="224.2622" height="15.5497" stroke="none"/>
    </g>
    <g text-rendering="geometricPrecision" stroke-miterlimit="1.45" shape-rendering="geometricPrecision" font-family="'Fira Sans'" transform="matrix(1,0,0,1,-208,-251)" stroke-linecap="butt">
      <text x="314.8043" xml:space="preserve" y="349.9933" clip-path="url(#clipPath2)" stroke="none">PM1</text>
      <line y2="352.3261" fill="none" x1="215.5272" clip-path="url(#clipPath2)" x2="435.7895" y1="352.3261"/>
      <rect x="213.5272" y="338.7764" clip-path="url(#clipPath2)" fill="none" width="224.2622" rx="4" ry="4" height="264.0088"/>
      <circle fill="none" r="15" clip-path="url(#clipPath2)" cx="238.369" cy="562.2852"/>
      <text x="240.2086" xml:space="preserve" y="544.9645" clip-path="url(#clipPath2)" stroke="none">PM1.thinking</text>
      <circle fill="none" r="15" clip-path="url(#clipPath2)" cx="326.593" cy="445.5568"/>
      <text x="243.5242" xml:space="preserve" y="448.9989" clip-path="url(#clipPath2)" stroke="none">PM1.waiting</text>
      <circle fill="none" r="15" clip-path="url(#clipPath2)" cx="326.593" cy="521.0424"/>
      <text x="248.9093" xml:space="preserve" y="524.4846" clip-path="url(#clipPath2)" stroke="none">PM1.eating</text>
      <rect fill="none" x="311.593" width="30" height="15" y="396.814" clip-path="url(#clipPath2)"/>
    </g>
    <g stroke-linecap="butt" transform="matrix(1,0,0,1,-208,-251) translate(345,392)" text-rendering="geometricPrecision" font-family="'Fira Sans'" shape-rendering="geometricPrecision" font-weight="bold" stroke-miterlimit="1.45">
      <text x="0" xml:space="preserve" y="10" clip-path="url(#clipPath3)" stroke="none">PM1.</text>
      <text x="24" xml:space="preserve" y="10" clip-path="url(#clipPath3)" stroke="none"> </text>
      <text x="0" xml:space="preserve" y="23" clip-path="url(#clipPath3)" stroke="none">getHungry</text>
      <text x="58" xml:space="preserve" y="23" clip-path="url(#clipPath3)" stroke="none"> </text>
      <text x="0" xml:space="preserve" y="36" clip-path="url(#clipPath3)" stroke="none">λ</text>
      <text x="6" xml:space="preserve" y="36" clip-path="url(#clipPath3)" stroke="none"> = 0.75</text>
      <text x="39" font-size="8px" y="36" clip-path="url(#clipPath3)" font-family="monospace" stroke="none" xml:space="preserve"> </text>
    </g>
    <g fill="rgb(153,153,153)" text-rendering="geometricPrecision" shape-rendering="geometricPrecision" transform="matrix(1,0,0,1,-208,-251)" stroke="rgb(153,153,153)">
      <rect x="311.593" width="30" height="8" y="479.2996" clip-path="url(#clipPath2)" stroke="none"/>
    </g>
    <g text-rendering="geometricPrecision" stroke-miterlimit="1.45" shape-rendering="geometricPrecision" transform="matrix(1,0,0,1,-208,-251)" stroke-linecap="butt">
      <rect fill="none" x="311.593" width="30" height="8" y="479.2996" clip-path="url(#clipPath2)"/>
    </g>
    <g text-rendering="geometricPrecision" stroke-miterlimit="1.45" shape-rendering="geometricPrecision" font-family="'Fira Sans'" transform="matrix(1,0,0,1,-208,-251) translate(247,463)" stroke-linecap="butt">
      <text x="36" xml:space="preserve" y="10" clip-path="url(#clipPath4)" stroke="none">PM1.</text>
      <text x="60" xml:space="preserve" y="10" clip-path="url(#clipPath4)" stroke="none"> </text>
      <text x="0" xml:space="preserve" y="23" clip-path="url(#clipPath4)" stroke="none">startEating</text>
      <text x="55" font-size="8px" y="23" clip-path="url(#clipPath4)" font-family="monospace" stroke="none" xml:space="preserve"> </text>
      <text x="60" xml:space="preserve" y="23" clip-path="url(#clipPath4)" stroke="none"> </text>
      <text x="3" xml:space="preserve" y="36" clip-path="url(#clipPath4)" stroke="none">w = 1, </text>
      <text x="35" xml:space="preserve" y="36" clip-path="url(#clipPath4)" stroke="none">π</text>
      <text x="42" xml:space="preserve" y="36" clip-path="url(#clipPath4)" stroke="none"> = 1</text>
    </g>
    <g text-rendering="geometricPrecision" stroke-miterlimit="1.45" shape-rendering="geometricPrecision" transform="matrix(1,0,0,1,-208,-251)" stroke-linecap="butt">
      <rect fill="none" x="311.593" width="30" height="15" y="554.7852" clip-path="url(#clipPath2)"/>
    </g>
    <g text-rendering="geometricPrecision" stroke-miterlimit="1.45" shape-rendering="geometricPrecision" font-family="'Fira Sans'" transform="matrix(1,0,0,1,-208,-251) translate(279,573)" stroke-linecap="butt">
      <text x="0" xml:space="preserve" y="10" clip-path="url(#clipPath5)" stroke="none">PM1.finishEating</text>
      <text x="85" xml:space="preserve" y="10" clip-path="url(#clipPath5)" stroke="none"> </text>
      <text x="0" xml:space="preserve" y="23" clip-path="url(#clipPath5)" stroke="none">λ</text>
      <text x="6" xml:space="preserve" y="23" clip-path="url(#clipPath5)" stroke="none"> = P1.eatingRate</text>
      <text x="90" font-size="8px" y="23" clip-path="url(#clipPath5)" font-family="monospace" stroke="none" xml:space="preserve"> </text>
    </g>
    <g text-rendering="geometricPrecision" stroke-miterlimit="1.45" shape-rendering="geometricPrecision" transform="matrix(1,0,0,1,-208,-251)" stroke-linecap="butt">
      <circle fill="none" r="15" clip-path="url(#clipPath2)" cx="409.6535" cy="510.9574"/>
      <text x="369.0873" xml:space="preserve" y="508.6247" clip-path="url(#clipPath2)" font-family="'Fira Sans'" stroke="none">PM1.</text>
      <text x="344.4049" xml:space="preserve" y="520.1743" clip-path="url(#clipPath2)" font-family="'Fira Sans'" stroke="none">rightFork</text>
      <path fill="none" d="M238.369 362.0768 L253.369 392.0768 L223.369 392.0768 Z" clip-path="url(#clipPath2)" fill-rule="evenodd"/>
      <text x="264.492" xml:space="preserve" y="374.7441" clip-path="url(#clipPath2)" font-family="'Fira Sans'" stroke="none">PM1.thinkingTime</text>
      <text x="264.492" xml:space="preserve" y="386.2937" clip-path="url(#clipPath2)" font-family="'Fira Sans'" stroke="none">= #PM1.thinking</text>
      <circle stroke-linecap="square" clip-path="url(#clipPath2)" r="5" cx="238.369" cy="562.2852" stroke="none" stroke-miterlimit="10"/>
      <circle stroke-linecap="square" clip-path="url(#clipPath2)" r="5" cx="409.6535" cy="511.0424" stroke="none" stroke-miterlimit="10"/>
    </g>
    <g fill="white" text-rendering="geometricPrecision" shape-rendering="geometricPrecision" transform="matrix(1,0,0,1,-208,-251)" stroke="white">
      <path d="M345.3786 433.7025 L485.9582 433.7025 L485.9582 448.7025 L500.9582 448.7025 L500.9582 474.531 L345.3786 474.531 Z" stroke="none" clip-path="url(#clipPath2)"/>
      <path d="M485.9582 433.7025 L485.9582 448.7025 L500.9582 448.7025 Z" clip-path="url(#clipPath2)" fill-rule="evenodd" stroke="none"/>
    </g>
    <g stroke-linecap="butt" transform="matrix(1,0,0,1,-208,-251)" fill="maroon" text-rendering="geometricPrecision" shape-rendering="geometricPrecision" stroke="maroon" stroke-miterlimit="1.45">
      <path fill="none" d="M345.3786 433.7025 L485.9582 433.7025 L485.9582 448.7025 L500.9582 448.7025 L500.9582 474.531 L345.3786 474.531 Z" clip-path="url(#clipPath2)"/>
      <path fill="none" d="M485.9582 433.7025 L485.9582 448.7025 L500.9582 448.7025 Z" clip-path="url(#clipPath2)" fill-rule="evenodd"/>
    </g>
    <g stroke-linecap="butt" transform="matrix(1,0,0,1,-208,-251) translate(350,434)" fill="maroon" text-rendering="geometricPrecision" font-family="'Fira Sans'" shape-rendering="geometricPrecision" stroke="maroon" font-weight="bold" stroke-miterlimit="1.45">
      <text x="29" xml:space="preserve" y="10" clip-path="url(#clipPath6)" stroke="none">Error:</text>
      <text x="60" xml:space="preserve" y="10" clip-path="url(#clipPath6)" font-weight="normal" stroke="none"> reference</text>
      <text x="116" xml:space="preserve" y="10" clip-path="url(#clipPath6)" font-weight="normal" stroke="none"> </text>
      <text x="13" y="23" clip-path="url(#clipPath6)" font-style="italic" stroke="none" font-weight="normal" xml:space="preserve">PM1.leftFork</text>
      <text x="81" xml:space="preserve" y="23" clip-path="url(#clipPath6)" font-weight="normal" stroke="none"> does not</text>
      <text x="131" xml:space="preserve" y="23" clip-path="url(#clipPath6)" font-weight="normal" stroke="none"> </text>
      <text x="0" xml:space="preserve" y="36" clip-path="url(#clipPath6)" font-weight="normal" stroke="none">point at a concrete symbol.</text>
    </g>
    <g text-rendering="geometricPrecision" stroke-miterlimit="1.45" shape-rendering="geometricPrecision" transform="matrix(1,0,0,1,-208,-251)" stroke-linecap="butt">
      <path fill="none" d="M238.369 547.2852 L238.369 414.314 L238.994 409.939 L240.869 406.814 L243.994 404.939 L248.369 404.314 L303.593 404.314" clip-path="url(#clipPath2)"/>
      <path d="M311.593 404.314 L299.593 399.314 L302.593 404.314 L299.593 409.314 Z" clip-path="url(#clipPath2)" stroke="none"/>
      <path fill="none" d="M326.593 411.814 L326.593 422.5568" clip-path="url(#clipPath2)"/>
      <path d="M326.593 430.5568 L331.593 418.5568 L326.593 421.5568 L321.593 418.5568 Z" clip-path="url(#clipPath2)" stroke="none"/>
      <path fill="none" d="M326.593 460.5568 L326.593 471.2996" clip-path="url(#clipPath2)"/>
      <path d="M326.593 479.2996 L331.593 467.2996 L326.593 470.2996 L321.593 467.2996 Z" clip-path="url(#clipPath2)" stroke="none"/>
      <path fill="none" d="M326.593 487.2996 L326.593 498.0424" clip-path="url(#clipPath2)"/>
      <path d="M326.593 506.0424 L331.593 494.0424 L326.593 497.0424 L321.593 494.0424 Z" clip-path="url(#clipPath2)" stroke="none"/>
      <path fill="none" d="M326.593 536.0424 L326.593 546.7852" clip-path="url(#clipPath2)"/>
      <path d="M326.593 554.7852 L331.593 542.7852 L326.593 545.7852 L321.593 542.7852 Z" clip-path="url(#clipPath2)" stroke="none"/>
      <path fill="none" d="M311.593 562.2852 L261.369 562.2852" clip-path="url(#clipPath2)"/>
      <path d="M253.369 562.2852 L265.369 567.2852 L262.369 562.2852 L265.369 557.2852 Z" clip-path="url(#clipPath2)" stroke="none"/>
      <path fill="none" d="M333.8434 554.7852 L339.5919 548.8387 L346.4033 544.3789 L355.3405 542.8923 L399.6535 542.8923 L407.1535 541.7754 L409.0285 540.3793 L409.6535 538.4248 L409.6535 533.9574" clip-path="url(#clipPath2)"/>
      <path d="M409.6535 525.9574 L404.6535 537.9574 L409.6535 534.9574 L414.6535 537.9574 Z" clip-path="url(#clipPath2)" stroke="none"/>
      <path fill="none" d="M409.6535 495.9574 L409.6535 489.6285 L409.0285 486.8596 L407.1535 484.8818 L404.0285 483.6952 L399.6535 483.2996 L349.593 483.2996" clip-path="url(#clipPath2)"/>
      <path d="M341.593 483.2996 L353.593 488.2996 L350.593 483.2996 L353.593 478.2996 Z" clip-path="url(#clipPath2)" stroke="none"/>
      <path fill="none" stroke-dasharray="6,2" d="M461.1569 433.6716 L461.1569 392.1185 L437.8337 392.1185" clip-path="url(#clipPath2)" stroke="maroon"/>
    </g>
  </g>
</svg>
