<?xml version="1.0" encoding="UTF-8"?><svg xmlns="http://www.w3.org/2000/svg" xmlns:xlink="http://www.w3.org/1999/xlink" fill-opacity="1" color-rendering="auto" color-interpolation="auto" text-rendering="auto" stroke="black" stroke-linecap="square" width="490" stroke-miterlimit="10" shape-rendering="auto" stroke-opacity="1" fill="black" stroke-dasharray="none" font-weight="normal" stroke-width="1" height="357" font-family="'Dialog'" font-style="normal" stroke-linejoin="miter" font-size="12px" stroke-dashoffset="0" image-rendering="auto">
  <!--Generated by ySVG 2.5-->
  <defs id="genericDefs"/>
  <g>
    <defs id="defs1">
      <clipPath clipPathUnits="userSpaceOnUse" id="clipPath1">
        <path d="M0 0 L490 0 L490 357 L0 357 L0 0 Z"/>
      </clipPath>
      <clipPath clipPathUnits="userSpaceOnUse" id="clipPath2">
        <path d="M208 251 L698 251 L698 608 L208 608 L208 251 Z"/>
      </clipPath>
      <clipPath clipPathUnits="userSpaceOnUse" id="clipPath3">
        <path d="M0 0 L0 39 L55 39 L55 0 Z"/>
      </clipPath>
      <clipPath clipPathUnits="userSpaceOnUse" id="clipPath4">
        <path d="M0 0 L0 39 L60 39 L60 0 Z"/>
      </clipPath>
      <clipPath clipPathUnits="userSpaceOnUse" id="clipPath5">
        <path d="M0 0 L0 26 L95 26 L95 0 Z"/>
      </clipPath>
      <clipPath clipPathUnits="userSpaceOnUse" id="clipPath6">
        <path d="M0 0 L0 26 L96 26 L96 0 Z"/>
      </clipPath>
    </defs>
    <g fill="white" text-rendering="geometricPrecision" shape-rendering="geometricPrecision" transform="translate(-208,-251)" stroke="white">
      <rect x="208" width="490" height="357" y="251" clip-path="url(#clipPath2)" stroke="none"/>
    </g>
    <g fill="white" text-rendering="geometricPrecision" shape-rendering="geometricPrecision" transform="matrix(1,0,0,1,-208,-251)" stroke="white">
      <rect x="213.5272" y="260.7797" clip-path="url(#clipPath2)" width="224.2622" rx="4" ry="4" height="64.2392" stroke="none"/>
      <rect x="213.5272" y="260.7797" clip-path="url(#clipPath2)" fill="rgb(235,235,235)" width="224.2622" height="15.5497" stroke="none"/>
    </g>
    <g text-rendering="geometricPrecision" stroke-miterlimit="1.45" shape-rendering="geometricPrecision" font-family="'Fira Sans'" transform="matrix(1,0,0,1,-208,-251)" stroke-linecap="butt">
      <text x="317.7847" xml:space="preserve" y="271.9966" clip-path="url(#clipPath2)" stroke="none">TM</text>
      <line y2="274.3293" fill="none" x1="215.5272" clip-path="url(#clipPath2)" x2="435.7895" y1="274.3293"/>
      <rect x="213.5272" y="260.7797" clip-path="url(#clipPath2)" fill="none" width="224.2622" rx="4" ry="4" height="64.2392"/>
      <path fill="none" d="M238.3691 284.0801 L253.3691 314.0801 L223.3691 314.0801 Z" clip-path="url(#clipPath2)" fill-rule="evenodd"/>
      <text x="257.369" xml:space="preserve" y="296.5315" clip-path="url(#clipPath2)" font-weight="bold" stroke="none">TM.totalThinkingTime</text>
      <text x="257.369" xml:space="preserve" y="308.297" clip-path="url(#clipPath2)" font-weight="bold" stroke="none">= #PM1.thinking + #PM2.thinking</text>
      <path fill="none" d="M495.2347 260.7797 L510.2347 290.7797 L480.2347 290.7797 Z" clip-path="url(#clipPath2)" fill-rule="evenodd"/>
      <text x="514.2348" xml:space="preserve" y="267.6721" clip-path="url(#clipPath2)" stroke="none">P1.</text>
      <text x="514.2348" xml:space="preserve" y="279.2218" clip-path="url(#clipPath2)" stroke="none">hungryRate</text>
      <text x="514.2348" xml:space="preserve" y="290.7715" clip-path="url(#clipPath2)" stroke="none">= 0.75</text>
    </g>
    <g fill="rgb(153,153,153)" text-rendering="geometricPrecision" shape-rendering="geometricPrecision" transform="matrix(1,0,0,1,-208,-251)" stroke="rgb(153,153,153)">
      <path d="M495.2347 299.778 L510.2347 329.778 L480.2347 329.778 Z" fill-rule="evenodd" clip-path="url(#clipPath2)" stroke="none"/>
    </g>
    <g text-rendering="geometricPrecision" stroke-miterlimit="1.45" shape-rendering="geometricPrecision" transform="matrix(1,0,0,1,-208,-251)" stroke-linecap="butt">
      <path fill="none" d="M495.2347 299.778 L510.2347 329.778 L480.2347 329.778 Z" fill-rule="evenodd" clip-path="url(#clipPath2)"/>
      <text x="514.2348" xml:space="preserve" y="306.6705" clip-path="url(#clipPath2)" font-family="'Fira Sans'" stroke="none">P1.</text>
      <text x="514.2348" xml:space="preserve" y="318.2202" clip-path="url(#clipPath2)" font-family="'Fira Sans'" stroke="none">eatingRate</text>
      <text x="514.2348" xml:space="preserve" y="329.7698" clip-path="url(#clipPath2)" font-family="'Fira Sans'" stroke="none">= 3.0</text>
    </g>
    <g fill="white" text-rendering="geometricPrecision" shape-rendering="geometricPrecision" transform="matrix(1,0,0,1,-208,-251)" stroke="white">
      <rect x="213.5272" y="338.7764" clip-path="url(#clipPath2)" width="224.2622" rx="4" ry="4" height="264.0088" stroke="none"/>
      <rect x="213.5272" y="338.7764" clip-path="url(#clipPath2)" fill="rgb(235,235,235)" width="224.2622" height="15.5497" stroke="none"/>
    </g>
    <g text-rendering="geometricPrecision" stroke-miterlimit="1.45" shape-rendering="geometricPrecision" font-family="'Fira Sans'" transform="matrix(1,0,0,1,-208,-251)" stroke-linecap="butt">
      <text x="314.8043" xml:space="preserve" y="349.9933" clip-path="url(#clipPath2)" stroke="none">PM1</text>
      <line y2="352.3261" fill="none" x1="215.5272" clip-path="url(#clipPath2)" x2="435.7895" y1="352.3261"/>
      <rect x="213.5272" y="338.7764" clip-path="url(#clipPath2)" fill="none" width="224.2622" rx="4" ry="4" height="264.0088"/>
      <circle fill="none" r="15" clip-path="url(#clipPath2)" cx="238.369" cy="562.2852"/>
      <text x="240.2086" xml:space="preserve" y="544.9645" clip-path="url(#clipPath2)" stroke="none">PM1.thinking</text>
      <circle fill="none" r="15" clip-path="url(#clipPath2)" cx="326.593" cy="445.5568"/>
      <text x="243.5242" xml:space="preserve" y="448.9989" clip-path="url(#clipPath2)" stroke="none">PM1.waiting</text>
      <circle fill="none" r="15" clip-path="url(#clipPath2)" cx="326.593" cy="521.0424"/>
      <text x="248.9093" xml:space="preserve" y="524.4846" clip-path="url(#clipPath2)" stroke="none">PM1.eating</text>
      <rect fill="none" x="311.593" width="30" height="15" y="396.814" clip-path="url(#clipPath2)"/>
    </g>
    <g text-rendering="geometricPrecision" stroke-miterlimit="1.45" shape-rendering="geometricPrecision" font-family="'Fira Sans'" transform="matrix(1,0,0,1,-208,-251) translate(345,392)" stroke-linecap="butt">
      <text x="0" xml:space="preserve" y="10" clip-path="url(#clipPath3)" stroke="none">PM1.</text>
      <text x="24" xml:space="preserve" y="10" clip-path="url(#clipPath3)" stroke="none"> </text>
      <text x="0" xml:space="preserve" y="23" clip-path="url(#clipPath3)" stroke="none">getHungry</text>
      <text x="55" xml:space="preserve" y="23" clip-path="url(#clipPath3)" stroke="none"> </text>
      <text x="0" xml:space="preserve" y="36" clip-path="url(#clipPath3)" stroke="none">λ</text>
      <text x="6" xml:space="preserve" y="36" clip-path="url(#clipPath3)" stroke="none"> = 0.75</text>
      <text x="40" font-size="8px" y="36" clip-path="url(#clipPath3)" font-family="monospace" stroke="none" xml:space="preserve"> </text>
    </g>
    <g fill="rgb(153,153,153)" text-rendering="geometricPrecision" shape-rendering="geometricPrecision" transform="matrix(1,0,0,1,-208,-251)" stroke="rgb(153,153,153)">
      <rect x="311.593" width="30" height="8" y="479.2996" clip-path="url(#clipPath2)" stroke="none"/>
    </g>
    <g text-rendering="geometricPrecision" stroke-miterlimit="1.45" shape-rendering="geometricPrecision" transform="matrix(1,0,0,1,-208,-251)" stroke-linecap="butt">
      <rect fill="none" x="311.593" width="30" height="8" y="479.2996" clip-path="url(#clipPath2)"/>
    </g>
    <g text-rendering="geometricPrecision" stroke-miterlimit="1.45" shape-rendering="geometricPrecision" font-family="'Fira Sans'" transform="matrix(1,0,0,1,-208,-251) translate(247,463)" stroke-linecap="butt">
      <text x="36" xml:space="preserve" y="10" clip-path="url(#clipPath4)" stroke="none">PM1.</text>
      <text x="60" xml:space="preserve" y="10" clip-path="url(#clipPath4)" stroke="none"> </text>
      <text x="0" xml:space="preserve" y="23" clip-path="url(#clipPath4)" stroke="none">startEating</text>
      <text x="55" font-size="8px" y="23" clip-path="url(#clipPath4)" font-family="monospace" stroke="none" xml:space="preserve"> </text>
      <text x="60" xml:space="preserve" y="23" clip-path="url(#clipPath4)" stroke="none"> </text>
      <text x="3" xml:space="preserve" y="36" clip-path="url(#clipPath4)" stroke="none">w = 1, </text>
      <text x="35" xml:space="preserve" y="36" clip-path="url(#clipPath4)" stroke="none">π</text>
      <text x="42" xml:space="preserve" y="36" clip-path="url(#clipPath4)" stroke="none"> = 1</text>
    </g>
    <g text-rendering="geometricPrecision" stroke-miterlimit="1.45" shape-rendering="geometricPrecision" transform="matrix(1,0,0,1,-208,-251)" stroke-linecap="butt">
      <rect fill="none" x="311.593" width="30" height="15" y="554.7852" clip-path="url(#clipPath2)"/>
    </g>
    <g text-rendering="geometricPrecision" stroke-miterlimit="1.45" shape-rendering="geometricPrecision" font-family="'Fira Sans'" transform="matrix(1,0,0,1,-208,-251) translate(279,573)" stroke-linecap="butt">
      <text x="0" xml:space="preserve" y="10" clip-path="url(#clipPath5)" stroke="none">PM1.finishEating</text>
      <text x="85" xml:space="preserve" y="10" clip-path="url(#clipPath5)" stroke="none"> </text>
      <text x="0" xml:space="preserve" y="23" clip-path="url(#clipPath5)" stroke="none">λ</text>
      <text x="6" xml:space="preserve" y="23" clip-path="url(#clipPath5)" stroke="none"> = P1.eatingRate</text>
      <text x="90" font-size="8px" y="23" clip-path="url(#clipPath5)" font-family="monospace" stroke="none" xml:space="preserve"> </text>
    </g>
    <g text-rendering="geometricPrecision" stroke-miterlimit="1.45" shape-rendering="geometricPrecision" transform="matrix(1,0,0,1,-208,-251)" stroke-linecap="butt">
      <circle fill="none" r="15" clip-path="url(#clipPath2)" cx="409.6535" cy="510.9574"/>
      <text x="369.0873" xml:space="preserve" y="508.6247" clip-path="url(#clipPath2)" font-family="'Fira Sans'" stroke="none">PM1.</text>
      <text x="344.4049" xml:space="preserve" y="520.1743" clip-path="url(#clipPath2)" font-family="'Fira Sans'" stroke="none">rightFork</text>
      <path fill="none" d="M238.369 362.0768 L253.369 392.0768 L223.369 392.0768 Z" clip-path="url(#clipPath2)" fill-rule="evenodd"/>
      <text x="264.492" xml:space="preserve" y="374.7441" clip-path="url(#clipPath2)" font-family="'Fira Sans'" stroke="none">PM1.thinkingTime</text>
      <text x="264.492" xml:space="preserve" y="386.2937" clip-path="url(#clipPath2)" font-family="'Fira Sans'" stroke="none">= #PM1.thinking</text>
      <circle stroke-linecap="square" clip-path="url(#clipPath2)" r="5" cx="238.369" cy="562.2852" stroke="none" stroke-miterlimit="10"/>
      <circle stroke-linecap="square" clip-path="url(#clipPath2)" r="5" cx="409.6535" cy="511.0424" stroke="none" stroke-miterlimit="10"/>
      <path fill="none" d="M238.369 547.2852 L238.369 414.314 L238.994 409.939 L240.869 406.814 L243.994 404.939 L248.369 404.314 L303.593 404.314" clip-path="url(#clipPath2)"/>
      <path d="M311.593 404.314 L299.593 399.314 L302.593 404.314 L299.593 409.314 Z" clip-path="url(#clipPath2)" stroke="none"/>
      <path fill="none" d="M326.593 411.814 L326.593 422.5568" clip-path="url(#clipPath2)"/>
      <path d="M326.593 430.5568 L331.593 418.5568 L326.593 421.5568 L321.593 418.5568 Z" clip-path="url(#clipPath2)" stroke="none"/>
      <path fill="none" d="M326.593 460.5568 L326.593 471.2996" clip-path="url(#clipPath2)"/>
      <path d="M326.593 479.2996 L331.593 467.2996 L326.593 470.2996 L321.593 467.2996 Z" clip-path="url(#clipPath2)" stroke="none"/>
      <path fill="none" d="M326.593 487.2996 L326.593 498.0424" clip-path="url(#clipPath2)"/>
      <path d="M326.593 506.0424 L331.593 494.0424 L326.593 497.0424 L321.593 494.0424 Z" clip-path="url(#clipPath2)" stroke="none"/>
      <path fill="none" d="M326.593 536.0424 L326.593 546.7852" clip-path="url(#clipPath2)"/>
      <path d="M326.593 554.7852 L331.593 542.7852 L326.593 545.7852 L321.593 542.7852 Z" clip-path="url(#clipPath2)" stroke="none"/>
      <path fill="none" d="M311.593 562.2852 L261.369 562.2852" clip-path="url(#clipPath2)"/>
      <path d="M253.369 562.2852 L265.369 567.2852 L262.369 562.2852 L265.369 557.2852 Z" clip-path="url(#clipPath2)" stroke="none"/>
      <path fill="none" d="M333.8434 554.7852 L339.5919 548.8387 L346.4033 544.3789 L355.3405 542.8923 L399.6535 542.8923 L407.1535 541.7754 L409.0285 540.3793 L409.6535 538.4248 L409.6535 533.9574" clip-path="url(#clipPath2)"/>
      <path d="M409.6535 525.9574 L404.6535 537.9574 L409.6535 534.9574 L414.6535 537.9574 Z" clip-path="url(#clipPath2)" stroke="none"/>
      <path fill="none" d="M409.6535 495.9574 L409.6535 489.6285 L409.0285 486.8596 L407.1535 484.8818 L404.0285 483.6952 L399.6535 483.2996 L349.593 483.2996" clip-path="url(#clipPath2)"/>
      <path d="M341.593 483.2996 L353.593 488.2996 L350.593 483.2996 L353.593 478.2996 Z" clip-path="url(#clipPath2)" stroke="none"/>
    </g>
    <g fill="white" text-rendering="geometricPrecision" shape-rendering="geometricPrecision" transform="matrix(1,0,0,1,-208,-251)" stroke="white">
      <rect x="467.7895" y="338.7764" clip-path="url(#clipPath2)" width="224.2622" rx="4" ry="4" height="263.9238" stroke="none"/>
      <rect x="467.7895" y="338.7764" clip-path="url(#clipPath2)" fill="rgb(235,235,235)" width="224.2622" height="15.5497" stroke="none"/>
    </g>
    <g text-rendering="geometricPrecision" stroke-miterlimit="1.45" shape-rendering="geometricPrecision" font-family="'Fira Sans'" transform="matrix(1,0,0,1,-208,-251)" stroke-linecap="butt">
      <text x="568.6948" xml:space="preserve" y="349.9933" clip-path="url(#clipPath2)" stroke="none">PM2</text>
      <line y2="352.3261" fill="none" x1="469.7895" clip-path="url(#clipPath2)" x2="690.0517" y1="352.3261"/>
      <rect x="467.7895" y="338.7764" clip-path="url(#clipPath2)" fill="none" width="224.2622" rx="4" ry="4" height="263.9238"/>
      <circle fill="none" r="15" clip-path="url(#clipPath2)" cx="665.8977" cy="562.2002"/>
      <text x="590.7439" xml:space="preserve" y="544.8795" clip-path="url(#clipPath2)" stroke="none">PM2.thinking</text>
      <circle fill="none" r="15" clip-path="url(#clipPath2)" cx="578.2953" cy="445.4718"/>
      <text x="597.2953" xml:space="preserve" y="448.9139" clip-path="url(#clipPath2)" stroke="none">PM2.waiting</text>
      <circle fill="none" r="15" clip-path="url(#clipPath2)" cx="578.2953" cy="520.9574"/>
      <text x="597.2953" xml:space="preserve" y="524.3995" clip-path="url(#clipPath2)" stroke="none">PM2.eating</text>
      <rect fill="none" x="563.2953" width="30" height="15" y="396.729" clip-path="url(#clipPath2)"/>
    </g>
    <g text-rendering="geometricPrecision" stroke-miterlimit="1.45" shape-rendering="geometricPrecision" font-family="'Fira Sans'" transform="matrix(1,0,0,1,-208,-251) translate(504,392)" stroke-linecap="butt">
      <text x="33" xml:space="preserve" y="10" clip-path="url(#clipPath3)" stroke="none">PM2</text>
      <text x="55" xml:space="preserve" y="10" clip-path="url(#clipPath3)" stroke="none"> </text>
      <text x="0" xml:space="preserve" y="23" clip-path="url(#clipPath3)" stroke="none">getHungry</text>
      <text x="55" xml:space="preserve" y="23" clip-path="url(#clipPath3)" stroke="none"> </text>
      <text x="9" xml:space="preserve" y="36" clip-path="url(#clipPath3)" stroke="none">λ</text>
      <text x="15" xml:space="preserve" y="36" clip-path="url(#clipPath3)" stroke="none"> = 0.45</text>
      <text x="50" font-size="8px" y="36" clip-path="url(#clipPath3)" font-family="monospace" stroke="none" xml:space="preserve"> </text>
    </g>
    <g fill="rgb(153,153,153)" text-rendering="geometricPrecision" shape-rendering="geometricPrecision" transform="matrix(1,0,0,1,-208,-251)" stroke="rgb(153,153,153)">
      <rect x="563.2953" width="30" height="8" y="479.2146" clip-path="url(#clipPath2)" stroke="none"/>
    </g>
    <g text-rendering="geometricPrecision" stroke-miterlimit="1.45" shape-rendering="geometricPrecision" transform="matrix(1,0,0,1,-208,-251)" stroke-linecap="butt">
      <rect fill="none" x="563.2953" width="30" height="8" y="479.2146" clip-path="url(#clipPath2)"/>
    </g>
    <g text-rendering="geometricPrecision" stroke-miterlimit="1.45" shape-rendering="geometricPrecision" font-family="'Fira Sans'" transform="matrix(1,0,0,1,-208,-251) translate(597,467)" stroke-linecap="butt">
      <text x="0" xml:space="preserve" y="10" clip-path="url(#clipPath4)" stroke="none">PM2.</text>
      <text x="25" xml:space="preserve" y="10" clip-path="url(#clipPath4)" stroke="none"> </text>
      <text x="0" xml:space="preserve" y="23" clip-path="url(#clipPath4)" stroke="none">startEating</text>
      <text x="55" font-size="8px" y="23" clip-path="url(#clipPath4)" font-family="monospace" stroke="none" xml:space="preserve"> </text>
      <text x="60" xml:space="preserve" y="23" clip-path="url(#clipPath4)" stroke="none"> </text>
      <text x="0" xml:space="preserve" y="36" clip-path="url(#clipPath4)" stroke="none">w = 1, </text>
      <text x="32" xml:space="preserve" y="36" clip-path="url(#clipPath4)" stroke="none">π</text>
      <text x="39" xml:space="preserve" y="36" clip-path="url(#clipPath4)" stroke="none"> = 1</text>
    </g>
    <g text-rendering="geometricPrecision" stroke-miterlimit="1.45" shape-rendering="geometricPrecision" transform="matrix(1,0,0,1,-208,-251)" stroke-linecap="butt">
      <rect fill="none" x="563.2953" width="30" height="15" y="554.7002" clip-path="url(#clipPath2)"/>
    </g>
    <g text-rendering="geometricPrecision" stroke-miterlimit="1.45" shape-rendering="geometricPrecision" font-family="'Fira Sans'" transform="matrix(1,0,0,1,-208,-251) translate(530,573)" stroke-linecap="butt">
      <text x="0" xml:space="preserve" y="10" clip-path="url(#clipPath6)" stroke="none">PM2.finishEating</text>
      <text x="86" xml:space="preserve" y="10" clip-path="url(#clipPath6)" stroke="none"> </text>
      <text x="0" xml:space="preserve" y="23" clip-path="url(#clipPath6)" stroke="none">λ</text>
      <text x="6" xml:space="preserve" y="23" clip-path="url(#clipPath6)" stroke="none"> = P2.eatingRate</text>
      <text x="91" font-size="8px" y="23" clip-path="url(#clipPath6)" font-family="monospace" stroke="none" xml:space="preserve"> </text>
    </g>
    <g text-rendering="geometricPrecision" stroke-miterlimit="1.45" shape-rendering="geometricPrecision" transform="matrix(1,0,0,1,-208,-251)" stroke-linecap="butt">
      <circle fill="none" r="15" clip-path="url(#clipPath2)" cx="495.2348" cy="510.8723"/>
      <text x="512.986" xml:space="preserve" y="508.5396" clip-path="url(#clipPath2)" font-family="'Fira Sans'" stroke="none">PM2.</text>
      <text x="512.986" xml:space="preserve" y="520.0893" clip-path="url(#clipPath2)" font-family="'Fira Sans'" stroke="none">rightFork</text>
      <path fill="none" d="M495.2349 361.9918 L510.2349 391.9918 L480.2349 391.9918 Z" clip-path="url(#clipPath2)" fill-rule="evenodd"/>
      <text x="520.6008" xml:space="preserve" y="375.2087" clip-path="url(#clipPath2)" font-family="'Fira Sans'" stroke="none">PM2.thinkingTime</text>
      <text x="520.6008" xml:space="preserve" y="386.7583" clip-path="url(#clipPath2)" font-family="'Fira Sans'" stroke="none">= #PM2.thinking</text>
      <circle stroke-linecap="square" clip-path="url(#clipPath2)" r="5" cx="665.8977" cy="562.2002" stroke="none" stroke-miterlimit="10"/>
      <circle stroke-linecap="square" clip-path="url(#clipPath2)" r="5" cx="495.2348" cy="510.9574" stroke="none" stroke-miterlimit="10"/>
      <path fill="none" d="M602.9789 260.7796 L617.9789 290.7796 L587.9789 290.7796 Z" clip-path="url(#clipPath2)" fill-rule="evenodd"/>
      <text x="621.9789" xml:space="preserve" y="267.6721" clip-path="url(#clipPath2)" font-family="'Fira Sans'" stroke="none">P2.</text>
      <text x="621.9789" xml:space="preserve" y="279.2218" clip-path="url(#clipPath2)" font-family="'Fira Sans'" stroke="none">hungryRate</text>
      <text x="621.9789" xml:space="preserve" y="290.7715" clip-path="url(#clipPath2)" font-family="'Fira Sans'" stroke="none">= 0.45</text>
    </g>
    <g fill="rgb(153,153,153)" text-rendering="geometricPrecision" shape-rendering="geometricPrecision" transform="matrix(1,0,0,1,-208,-251)" stroke="rgb(153,153,153)">
      <path d="M602.9789 299.778 L617.9789 329.778 L587.9789 329.778 Z" fill-rule="evenodd" clip-path="url(#clipPath2)" stroke="none"/>
    </g>
    <g text-rendering="geometricPrecision" stroke-miterlimit="1.45" shape-rendering="geometricPrecision" transform="matrix(1,0,0,1,-208,-251)" stroke-linecap="butt">
      <path fill="none" d="M602.9789 299.778 L617.9789 329.778 L587.9789 329.778 Z" fill-rule="evenodd" clip-path="url(#clipPath2)"/>
      <text x="621.9789" xml:space="preserve" y="306.6705" clip-path="url(#clipPath2)" font-family="'Fira Sans'" stroke="none">P2.</text>
      <text x="621.9789" xml:space="preserve" y="318.2202" clip-path="url(#clipPath2)" font-family="'Fira Sans'" stroke="none">eatingRate</text>
      <text x="621.9789" xml:space="preserve" y="329.7698" clip-path="url(#clipPath2)" font-family="'Fira Sans'" stroke="none">= 2.8</text>
      <path fill="none" d="M665.8977 547.2002 L665.8977 414.229 L665.2727 409.854 L663.3977 406.729 L660.2727 404.854 L655.8977 404.229 L601.2953 404.229" clip-path="url(#clipPath2)"/>
      <path d="M593.2953 404.229 L605.2953 409.229 L602.2953 404.229 L605.2953 399.229 Z" clip-path="url(#clipPath2)" stroke="none"/>
      <path fill="none" d="M578.2953 411.729 L578.2953 422.4718" clip-path="url(#clipPath2)"/>
      <path d="M578.2953 430.4718 L583.2953 418.4718 L578.2953 421.4718 L573.2953 418.4718 Z" clip-path="url(#clipPath2)" stroke="none"/>
      <path fill="none" d="M578.2953 460.4718 L578.2953 471.2146" clip-path="url(#clipPath2)"/>
      <path d="M578.2953 479.2146 L583.2953 467.2146 L578.2953 470.2146 L573.2953 467.2146 Z" clip-path="url(#clipPath2)" stroke="none"/>
      <path fill="none" d="M422.9366 503.9889 L486.3794 470.706 L495.5209 467.2217 L505.2348 466.0603 L551.8429 466.0603 L560.2277 466.9828 L565.3822 469.7505 L568.9214 473.4408" clip-path="url(#clipPath2)"/>
      <path d="M574.4589 479.2146 L569.7613 467.093 L568.2292 472.7191 L562.5441 474.0149 Z" clip-path="url(#clipPath2)" stroke="none"/>
      <path fill="none" d="M578.2953 487.2146 L578.2953 497.9574" clip-path="url(#clipPath2)"/>
      <path d="M578.2953 505.9574 L583.2953 493.9574 L578.2953 496.9574 L573.2953 493.9574 Z" clip-path="url(#clipPath2)" stroke="none"/>
      <path fill="none" d="M578.2953 535.9574 L578.2953 546.7002" clip-path="url(#clipPath2)"/>
      <path d="M578.2953 554.7002 L583.2953 542.7002 L578.2953 545.7002 L573.2953 542.7002 Z" clip-path="url(#clipPath2)" stroke="none"/>
      <path fill="none" d="M593.2953 562.2002 L642.8977 562.2002" clip-path="url(#clipPath2)"/>
      <path d="M650.8977 562.2002 L638.8977 557.2002 L641.8977 562.2002 L638.8977 567.2002 Z" clip-path="url(#clipPath2)" stroke="none"/>
      <path fill="none" d="M563.2953 562.2002 L505.2348 562.2002 L495.5899 560.9159 L486.6552 557.063 L429.3866 522.7728" clip-path="url(#clipPath2)"/>
      <path d="M422.5229 518.6631 L430.2499 529.1175 L430.2446 523.2865 L435.3871 520.5379 Z" clip-path="url(#clipPath2)" stroke="none"/>
      <path fill="none" d="M571.9324 554.7002 L566.8876 548.7537 L560.6039 544.2938 L551.8427 542.8072 L505.2348 542.8072 L497.7348 541.6903 L495.8598 540.2943 L495.2348 538.3397 L495.2348 533.8723" clip-path="url(#clipPath2)"/>
      <path d="M495.2348 525.8723 L490.2348 537.8723 L495.2348 534.8723 L500.2348 537.8723 Z" clip-path="url(#clipPath2)" stroke="none"/>
      <path fill="none" d="M341.593 562.2852 L399.6535 562.2852 L409.2965 560.9978 L418.2256 557.1356 L475.519 522.7166" clip-path="url(#clipPath2)"/>
      <path d="M482.3766 518.5969 L469.5153 520.4905 L474.6618 523.2316 L474.665 529.0626 Z" clip-path="url(#clipPath2)" stroke="none"/>
      <path fill="none" d="M495.2348 495.8723 L495.2348 489.5435 L495.8598 486.7746 L497.7348 484.7968 L500.8598 483.6101 L505.2348 483.2146 L555.2953 483.2146" clip-path="url(#clipPath2)"/>
      <path d="M563.2953 483.2146 L551.2953 478.2146 L554.2953 483.2146 L551.2953 488.2146 Z" clip-path="url(#clipPath2)" stroke="none"/>
      <path fill="none" d="M481.9628 503.8827 L418.5015 470.4609 L409.3655 466.9661 L399.6535 465.8011 L360.9456 465.8011 L351.9095 466.9049 L344.8011 470.2163 L338.6566 474.6314" clip-path="url(#clipPath2)"/>
      <path d="M332.1598 479.2996 L344.8226 476.3578 L339.4687 474.0479 L338.9873 468.2368 Z" clip-path="url(#clipPath2)" stroke="none"/>
    </g>
  </g>
</svg>
