<?xml version="1.0" encoding="UTF-8"?><svg xmlns="http://www.w3.org/2000/svg" xmlns:xlink="http://www.w3.org/1999/xlink" fill-opacity="1" color-rendering="auto" color-interpolation="auto" text-rendering="auto" stroke="black" stroke-linecap="square" width="587" stroke-miterlimit="10" shape-rendering="auto" stroke-opacity="1" fill="black" stroke-dasharray="none" font-weight="normal" stroke-width="1" height="170" font-family="'Dialog'" font-style="normal" stroke-linejoin="miter" font-size="12px" stroke-dashoffset="0" image-rendering="auto">
  <!--Generated by ySVG 2.5-->
  <defs id="genericDefs"/>
  <g>
    <defs id="defs1">
      <clipPath clipPathUnits="userSpaceOnUse" id="clipPath1">
        <path d="M0 0 L587 0 L587 170 L0 170 L0 0 Z"/>
      </clipPath>
      <clipPath clipPathUnits="userSpaceOnUse" id="clipPath2">
        <path d="M478 549 L1065 549 L1065 719 L478 719 L478 549 Z"/>
      </clipPath>
      <clipPath clipPathUnits="userSpaceOnUse" id="clipPath3">
        <path d="M478 656.9496 L478 719 L1065 719 L1065 656.9496 Z"/>
      </clipPath>
      <clipPath clipPathUnits="userSpaceOnUse" id="clipPath4">
        <path d="M478 549 L478 656.9496 L1065 656.9496 L1065 549 Z"/>
      </clipPath>
    </defs>
    <g fill="white" text-rendering="geometricPrecision" shape-rendering="geometricPrecision" transform="translate(-478,-549)" stroke="white">
      <rect x="478" width="587" height="170" y="549" clip-path="url(#clipPath2)" stroke="none"/>
    </g>
    <g fill="white" text-rendering="geometricPrecision" shape-rendering="geometricPrecision" transform="matrix(1,0,0,1,-478,-549)" stroke="white">
      <rect x="483.3507" y="637.4" clip-path="url(#clipPath3)" width="112.7023" rx="4" ry="4" height="49.2569" stroke="none"/>
      <rect x="483.3507" y="637.4" clip-path="url(#clipPath4)" fill="rgb(255,170,127)" width="112.7023" rx="4" ry="4" height="49.2569" stroke="none"/>
    </g>
    <g text-rendering="geometricPrecision" stroke-miterlimit="1.45" shape-rendering="geometricPrecision" transform="matrix(1,0,0,1,-478,-549)" stroke-linecap="butt">
      <rect x="483.3507" y="637.4" clip-path="url(#clipPath2)" fill="none" width="112.7023" rx="4" ry="4" height="49.2569"/>
      <line y2="656.9497" fill="none" x1="483.3507" clip-path="url(#clipPath2)" x2="596.053" y1="656.9497"/>
      <text x="518.5934" xml:space="preserve" y="650.6169" clip-path="url(#clipPath2)" font-family="'Fira Sans'" stroke="none">T: Table</text>
      <line y2="652.9497" fill="none" x1="518.5935" clip-path="url(#clipPath2)" x2="560.8103" y1="652.9497"/>
      <text x="487.3507" y="670.1666" clip-path="url(#clipPath2)" fill="rgb(64,64,64)" font-family="'Fira Sans'" stroke="none" xml:space="preserve">/totalThinkingTime</text>
      <text x="487.3507" y="681.7162" clip-path="url(#clipPath2)" fill="rgb(64,64,64)" font-family="'Fira Sans'" stroke="none" xml:space="preserve">: prop double</text>
    </g>
    <g stroke-linecap="butt" transform="matrix(1,0,0,1,-478,-549)" fill="rgb(64,64,64)" text-rendering="geometricPrecision" shape-rendering="geometricPrecision" stroke-dasharray="6,2" stroke="rgb(64,64,64)" stroke-miterlimit="1.45">
      <path fill="none" d="M693.3818 637.4 L708.3818 667.4 L678.3818 667.4 Z" fill-rule="evenodd" clip-path="url(#clipPath2)"/>
    </g>
    <g stroke-linecap="butt" transform="matrix(1,0,0,1,-478,-549)" fill="rgb(64,64,64)" text-rendering="geometricPrecision" font-family="'Fira Sans'" shape-rendering="geometricPrecision" font-style="italic" stroke="rgb(64,64,64)" stroke-miterlimit="1.45">
      <text x="639.4655" xml:space="preserve" y="631.0133" clip-path="url(#clipPath2)" stroke="none">T.totalThinkingTime</text>
    </g>
    <g text-rendering="geometricPrecision" stroke-miterlimit="1.45" shape-rendering="geometricPrecision" transform="matrix(1,0,0,1,-478,-549)" stroke-linecap="butt">
      <path fill="none" d="M850.9507 637.4 L865.9507 667.4 L835.9507 667.4 Z" fill-rule="evenodd" clip-path="url(#clipPath2)"/>
      <text x="797.1183" xml:space="preserve" y="619.5176" clip-path="url(#clipPath2)" font-family="'Fira Sans'" stroke="none">T.totalThinkingTime</text>
      <text x="783.8596" xml:space="preserve" y="631.0673" clip-path="url(#clipPath2)" font-family="'Fira Sans'" stroke="none">= #thinking1 + #thinking2</text>
      <text x="949.207" xml:space="preserve" y="624.5789" clip-path="url(#clipPath2)" font-family="'Fira Mono'" stroke="none">&lt;RewardConfig&gt;</text>
      <text x="949.207" xml:space="preserve" y="636.1045" clip-path="url(#clipPath2)" font-family="'Fira Mono'" stroke="none">&lt;Place&gt;</text>
      <text x="949.207" xml:space="preserve" y="647.6302" clip-path="url(#clipPath2)" font-family="'Fira Mono'" stroke="none">thinking1</text>
      <text x="949.207" xml:space="preserve" y="659.1558" clip-path="url(#clipPath2)" font-family="'Fira Mono'" stroke="none">&lt;/Place&gt;</text>
      <text x="949.207" xml:space="preserve" y="670.6815" clip-path="url(#clipPath2)" font-family="'Fira Mono'" stroke="none">&lt;Place&gt;</text>
      <text x="949.207" xml:space="preserve" y="682.2072" clip-path="url(#clipPath2)" font-family="'Fira Mono'" stroke="none">thinking2</text>
      <text x="949.207" xml:space="preserve" y="693.7328" clip-path="url(#clipPath2)" font-family="'Fira Mono'" stroke="none">&lt;/Place&gt;</text>
      <text x="949.207" xml:space="preserve" y="705.2585" clip-path="url(#clipPath2)" font-family="'Fira Mono'" stroke="none">&lt;/RewardConfig&gt;</text>
    </g>
    <g fill="white" text-rendering="geometricPrecision" shape-rendering="geometricPrecision" transform="matrix(1,0,0,1,-478,-549)" stroke="white">
      <rect x="493.1019" width="93.2" height="41.2" y="562.3514" clip-path="url(#clipPath2)" stroke="none"/>
    </g>
    <g text-rendering="geometricPrecision" stroke-miterlimit="1.45" shape-rendering="geometricPrecision" transform="matrix(1,0,0,1,-478,-549)" stroke-linecap="butt">
      <rect fill="none" x="493.1019" width="93.2" height="41.2" y="562.3514" clip-path="url(#clipPath2)"/>
      <text x="520.9622" xml:space="preserve" y="580.6187" clip-path="url(#clipPath2)" font-family="'Fira Sans'" stroke="none">Source</text>
      <text x="522.4194" xml:space="preserve" y="592.1683" clip-path="url(#clipPath2)" font-family="'Fira Sans'" stroke="none">model</text>
    </g>
    <g fill="white" text-rendering="geometricPrecision" shape-rendering="geometricPrecision" transform="matrix(1,0,0,1,-478,-549)" stroke="white">
      <rect x="646.7818" width="93.2" height="41.2" y="562.3514" clip-path="url(#clipPath2)" stroke="none"/>
    </g>
    <g text-rendering="geometricPrecision" stroke-miterlimit="1.45" shape-rendering="geometricPrecision" transform="matrix(1,0,0,1,-478,-549)" stroke-linecap="butt">
      <rect fill="none" x="646.7818" width="93.2" height="41.2" y="562.3514" clip-path="url(#clipPath2)"/>
      <text x="670.8102" xml:space="preserve" y="580.6187" clip-path="url(#clipPath2)" font-family="'Fira Sans'" stroke="none">Abstract</text>
      <text x="652.4724" xml:space="preserve" y="592.1683" clip-path="url(#clipPath2)" font-family="'Fira Sans'" stroke="none">analysis model</text>
    </g>
    <g fill="white" text-rendering="geometricPrecision" shape-rendering="geometricPrecision" transform="matrix(1,0,0,1,-478,-549)" stroke="white">
      <rect x="804.3507" width="93.2" height="41.2" y="562.3514" clip-path="url(#clipPath2)" stroke="none"/>
    </g>
    <g text-rendering="geometricPrecision" stroke-miterlimit="1.45" shape-rendering="geometricPrecision" transform="matrix(1,0,0,1,-478,-549)" stroke-linecap="butt">
      <rect fill="none" x="804.3507" width="93.2" height="41.2" y="562.3514" clip-path="url(#clipPath2)"/>
      <text x="826.6341" xml:space="preserve" y="580.6187" clip-path="url(#clipPath2)" font-family="'Fira Sans'" stroke="none">Concrete</text>
      <text x="810.0412" xml:space="preserve" y="592.1683" clip-path="url(#clipPath2)" font-family="'Fira Sans'" stroke="none">analysis model</text>
    </g>
    <g fill="white" text-rendering="geometricPrecision" shape-rendering="geometricPrecision" transform="matrix(1,0,0,1,-478,-549)" stroke="white">
      <rect x="958.5507" width="93.2" height="41.2" y="562.3514" clip-path="url(#clipPath2)" stroke="none"/>
    </g>
    <g text-rendering="geometricPrecision" stroke-miterlimit="1.45" shape-rendering="geometricPrecision" transform="matrix(1,0,0,1,-478,-549)" stroke-linecap="butt">
      <rect fill="none" x="958.5507" width="93.2" height="41.2" y="562.3514" clip-path="url(#clipPath2)"/>
      <text x="980.6062" xml:space="preserve" y="580.6187" clip-path="url(#clipPath2)" font-family="'Fira Sans'" stroke="none">Exported</text>
      <text x="989.8112" xml:space="preserve" y="592.1683" clip-path="url(#clipPath2)" font-family="'Fira Sans'" stroke="none">PNML</text>
    </g>
    <g fill="rgb(153,153,153)" text-rendering="geometricPrecision" shape-rendering="geometricPrecision" transform="matrix(1,0,0,1,-478,-549)" stroke="rgb(153,153,153)">
      <rect x="769.9818" width="1" height="158.9755" y="554.8514" clip-path="url(#clipPath2)" stroke="none"/>
      <rect stroke-linecap="butt" x="769.9818" y="554.8514" clip-path="url(#clipPath2)" fill="none" width="1" height="158.9755" stroke-miterlimit="1.45"/>
      <rect x="927.5507" width="1" height="158.9755" y="554.8514" clip-path="url(#clipPath2)" stroke="none"/>
      <rect stroke-linecap="butt" x="927.5507" y="554.8514" clip-path="url(#clipPath2)" fill="none" width="1" height="158.9755" stroke-miterlimit="1.45"/>
      <rect x="612.413" width="1" height="158.9755" y="554.8514" clip-path="url(#clipPath2)" stroke="none"/>
      <rect stroke-linecap="butt" x="612.413" y="554.8514" clip-path="url(#clipPath2)" fill="none" width="1" height="158.9755" stroke-miterlimit="1.45"/>
    </g>
    <g text-rendering="geometricPrecision" stroke-miterlimit="1.45" shape-rendering="geometricPrecision" transform="matrix(1,0,0,1,-478,-549)" stroke-linecap="butt">
      <path fill="none" d="M743.7952 678.2653 L758.7952 708.2653 L728.7952 708.2653 Z" fill-rule="evenodd" clip-path="url(#clipPath2)"/>
      <text x="620.9" xml:space="preserve" y="696.7074" clip-path="url(#clipPath2)" font-family="'Fira Sans'" stroke="none">sum(thingingTimes)</text>
      <path fill="none" stroke-dasharray="6,2" d="M596.0778 670.119 L631.4111 670.119 L631.4111 652.4 L677.9078 652.4" clip-path="url(#clipPath2)" stroke="blue"/>
      <path fill="blue" stroke-dasharray="6,2" d="M685.9078 652.4 L673.9078 647.4 L676.9078 652.4 L673.9078 657.4 Z" clip-path="url(#clipPath2)" stroke="none"/>
      <text x="619.6432" y="647.0681" clip-path="url(#clipPath2)" fill="blue" font-family="'Fira Sans'" stroke="none" xml:space="preserve">&lt;&lt;trace&gt;&gt;</text>
      <path fill="none" stroke-dasharray="6,2" d="M700.8833 652.4 L835.44 652.4" clip-path="url(#clipPath2)" stroke="blue"/>
      <path fill="blue" stroke-dasharray="6,2" d="M843.44 652.4 L831.44 647.4 L834.44 652.4 L831.44 657.4 Z" clip-path="url(#clipPath2)" stroke="none"/>
      <text x="777.5357" y="646.9734" clip-path="url(#clipPath2)" fill="blue" font-family="'Fira Sans'" stroke="none" xml:space="preserve">&lt;&lt;trace&gt;&gt;</text>
      <path fill="none" stroke-dasharray="6,2" d="M858.4876 652.4 L938.8236 652.4" clip-path="url(#clipPath2)" stroke="blue"/>
      <path fill="blue" stroke-dasharray="6,2" d="M946.8236 652.4 L934.8236 647.4 L937.8236 652.4 L934.8236 657.4 Z" clip-path="url(#clipPath2)" stroke="none"/>
      <text x="867.5357" y="646.9734" clip-path="url(#clipPath2)" fill="blue" font-family="'Fira Sans'" stroke="none" xml:space="preserve">&lt;&lt;trace&gt;&gt;</text>
    </g>
    <g text-rendering="geometricPrecision" stroke-miterlimit="1.45" shape-rendering="geometricPrecision" transform="matrix(1,0,0,1,-478,-549)" stroke-linecap="butt">
      <path fill="none" d="M631.7819 576.7014 L634.6318 581.4514 L586.3019 581.4514 L586.3019 584.4514 L634.6318 584.4514 L631.7819 589.2014 L646.7819 582.9514 L631.7819 576.7014 Z" clip-path="url(#clipPath2)"/>
    </g>
    <g text-rendering="geometricPrecision" stroke-miterlimit="1.45" shape-rendering="geometricPrecision" transform="matrix(1,0,0,1,-478,-549)" stroke-linecap="butt">
      <path fill="none" d="M789.3507 576.7014 L792.2007 581.4514 L739.9819 581.4514 L739.9819 584.4514 L792.2007 584.4514 L789.3507 589.2014 L804.3507 582.9514 L789.3507 576.7014 Z" clip-path="url(#clipPath2)"/>
    </g>
    <g text-rendering="geometricPrecision" stroke-miterlimit="1.45" shape-rendering="geometricPrecision" transform="matrix(1,0,0,1,-478,-549)" stroke-linecap="butt">
      <path fill="none" d="M943.5507 576.7014 L946.4007 581.4514 L897.5507 581.4514 L897.5507 584.4514 L946.4007 584.4514 L943.5507 589.2014 L958.5507 582.9514 L943.5507 576.7014 Z" clip-path="url(#clipPath2)"/>
    </g>
    <g stroke-linecap="butt" transform="matrix(1,0,0,1,-478,-549)" fill="rgb(64,64,64)" text-rendering="geometricPrecision" shape-rendering="geometricPrecision" stroke-dasharray="6,2" stroke="rgb(64,64,64)" stroke-miterlimit="1.45">
      <path fill="none" d="M703.845 658.2653 L723.4355 658.2653 L732.2167 673.361" clip-path="url(#clipPath2)"/>
      <path fill="white" d="M739.759 686.3268 L736.9002 669.4797 L726.5275 675.5135 Z" clip-path="url(#clipPath2)" stroke="none"/>
      <path fill="none" stroke-dasharray="none" d="M739.759 686.3268 L736.9002 669.4797 L726.5275 675.5135 Z" clip-path="url(#clipPath2)"/>
      <path fill="none" d="M751.3033 693.2653 L850.9507 693.2653 L850.9507 675.3653" clip-path="url(#clipPath2)" stroke="blue"/>
      <path fill="blue" d="M850.9507 667.3653 L845.9507 679.3653 L850.9507 676.3653 L855.9507 679.3653 Z" clip-path="url(#clipPath2)" stroke="none"/>
    </g>
    <g stroke-linecap="butt" transform="matrix(1,0,0,1,-478,-549)" fill="blue" text-rendering="geometricPrecision" font-family="'Fira Sans'" shape-rendering="geometricPrecision" stroke="blue" stroke-miterlimit="1.45">
      <text x="857.5357" xml:space="preserve" y="692.529" clip-path="url(#clipPath2)" stroke="none">&lt;&lt;trace&gt;&gt;</text>
    </g>
  </g>
</svg>
