<?xml version="1.0" encoding="UTF-8"?><svg xmlns="http://www.w3.org/2000/svg" xmlns:xlink="http://www.w3.org/1999/xlink" fill-opacity="1" color-rendering="auto" color-interpolation="auto" text-rendering="auto" stroke="black" stroke-linecap="square" width="597" stroke-miterlimit="10" shape-rendering="auto" stroke-opacity="1" fill="black" stroke-dasharray="none" font-weight="normal" stroke-width="1" height="570" font-family="'Dialog'" font-style="normal" stroke-linejoin="miter" font-size="12px" stroke-dashoffset="0" image-rendering="auto">
  <!--Generated by ySVG 2.5-->
  <defs id="genericDefs"/>
  <g>
    <defs id="defs1">
      <clipPath clipPathUnits="userSpaceOnUse" id="clipPath1">
        <path d="M0 0 L597 0 L597 570 L0 570 L0 0 Z"/>
      </clipPath>
      <clipPath clipPathUnits="userSpaceOnUse" id="clipPath2">
        <path d="M367 121 L964 121 L964 691 L367 691 L367 121 Z"/>
      </clipPath>
    </defs>
    <g fill="white" text-rendering="geometricPrecision" shape-rendering="geometricPrecision" transform="translate(-367,-121)" stroke="white">
      <rect x="367" width="597" height="570" y="121" clip-path="url(#clipPath2)" stroke="none"/>
    </g>
    <g fill="white" text-rendering="geometricPrecision" shape-rendering="geometricPrecision" transform="matrix(1,0,0,1,-367,-121)" stroke="white">
      <rect x="405.0216" width="147.4941" height="21.7062" y="126" clip-path="url(#clipPath2)" stroke="none"/>
    </g>
    <g text-rendering="geometricPrecision" stroke-miterlimit="1.45" shape-rendering="geometricPrecision" transform="matrix(1,0,0,1,-367,-121)" stroke-linecap="butt">
      <rect fill="none" x="405.0216" width="147.4941" height="21.7062" y="126" clip-path="url(#clipPath2)"/>
      <text x="436.3239" xml:space="preserve" y="140.2952" clip-path="url(#clipPath2)" font-family="'Fira Sans'" stroke="none">Goal Formalism</text>
    </g>
    <g fill="white" text-rendering="geometricPrecision" shape-rendering="geometricPrecision" transform="matrix(1,0,0,1,-367,-121)" stroke="white">
      <rect x="405.0216" width="147.4941" height="21.7062" y="305.3123" clip-path="url(#clipPath2)" stroke="none"/>
    </g>
    <g text-rendering="geometricPrecision" stroke-miterlimit="1.45" stroke-width="2" shape-rendering="geometricPrecision" transform="matrix(1,0,0,1,-367,-121)" stroke-linecap="butt">
      <rect fill="none" x="405.0216" width="147.4941" height="21.7062" y="305.3123" clip-path="url(#clipPath2)"/>
      <text x="408.979" y="319.4996" clip-path="url(#clipPath2)" font-family="'Fira Sans'" stroke="none" font-weight="bold" stroke-width="1" xml:space="preserve">RGSPN Analyis Formalism</text>
    </g>
    <g fill="white" text-rendering="geometricPrecision" shape-rendering="geometricPrecision" transform="matrix(1,0,0,1,-367,-121)" stroke="white">
      <rect x="405.0216" width="147.4941" height="21.7062" y="215.6562" clip-path="url(#clipPath2)" stroke="none"/>
    </g>
    <g text-rendering="geometricPrecision" stroke-miterlimit="1.45" shape-rendering="geometricPrecision" transform="matrix(1,0,0,1,-367,-121)" stroke-linecap="butt">
      <rect fill="none" x="405.0216" width="147.4941" height="21.7062" y="215.6562" clip-path="url(#clipPath2)"/>
      <text x="431.7125" xml:space="preserve" y="229.9514" clip-path="url(#clipPath2)" font-family="'Fira Sans'" stroke="none">Model Formalism</text>
    </g>
    <g fill="white" text-rendering="geometricPrecision" shape-rendering="geometricPrecision" transform="matrix(1,0,0,1,-367,-121)" stroke="white">
      <rect x="372.7993" width="90.9693" height="30" y="390.8216" clip-path="url(#clipPath2)" stroke="none"/>
    </g>
    <g text-rendering="geometricPrecision" stroke-miterlimit="1.45" shape-rendering="geometricPrecision" transform="matrix(1,0,0,1,-367,-121)" stroke-linecap="butt">
      <rect fill="none" x="372.7993" width="90.9693" height="30" y="390.8216" clip-path="url(#clipPath2)"/>
      <text x="385.1042" xml:space="preserve" y="403.4889" clip-path="url(#clipPath2)" font-family="'Fira Sans'" stroke="none">Solver Input</text>
      <text x="389.7336" xml:space="preserve" y="415.0386" clip-path="url(#clipPath2)" font-family="'Fira Sans'" stroke="none">Formalism</text>
    </g>
    <g fill="white" text-rendering="geometricPrecision" shape-rendering="geometricPrecision" transform="matrix(1,0,0,1,-367,-121)" stroke="white">
      <rect x="498.7686" width="90.9693" height="30" y="390.8216" clip-path="url(#clipPath2)" stroke="none"/>
    </g>
    <g text-rendering="geometricPrecision" stroke-miterlimit="1.45" shape-rendering="geometricPrecision" transform="matrix(1,0,0,1,-367,-121)" stroke-linecap="butt">
      <rect fill="none" x="498.7686" width="90.9693" height="30" y="390.8216" clip-path="url(#clipPath2)"/>
      <text x="511.0735" xml:space="preserve" y="403.4889" clip-path="url(#clipPath2)" font-family="'Fira Sans'" stroke="none">Solver Input</text>
      <text x="523.2289" xml:space="preserve" y="415.0386" clip-path="url(#clipPath2)" font-family="'Fira Sans'" stroke="none">Queries</text>
    </g>
    <g fill="white" text-rendering="geometricPrecision" shape-rendering="geometricPrecision" transform="matrix(1,0,0,1,-367,-121)" stroke="white">
      <rect x="405.0216" width="147.4941" height="21.7062" y="574.2809" clip-path="url(#clipPath2)" stroke="none"/>
    </g>
    <g text-rendering="geometricPrecision" stroke-miterlimit="1.45" shape-rendering="geometricPrecision" transform="matrix(1,0,0,1,-367,-121)" stroke-linecap="butt">
      <rect fill="none" x="405.0216" width="147.4941" height="21.7062" y="574.2809" clip-path="url(#clipPath2)"/>
      <text x="433.7874" xml:space="preserve" y="588.576" clip-path="url(#clipPath2)" font-family="'Fira Sans'" stroke="none">Trace Formalism</text>
    </g>
    <g fill="white" text-rendering="geometricPrecision" shape-rendering="geometricPrecision" transform="matrix(1,0,0,1,-367,-121)" stroke="white">
      <rect x="405.0216" width="147.4941" height="21.7062" y="663.937" clip-path="url(#clipPath2)" stroke="none"/>
    </g>
    <g text-rendering="geometricPrecision" stroke-miterlimit="1.45" shape-rendering="geometricPrecision" transform="matrix(1,0,0,1,-367,-121)" stroke-linecap="butt">
      <rect fill="none" x="405.0216" width="147.4941" height="21.7062" y="663.937" clip-path="url(#clipPath2)"/>
      <text x="425.7398" xml:space="preserve" y="678.2322" clip-path="url(#clipPath2)" font-family="'Fira Sans'" stroke="none">Solution Formalism</text>
    </g>
    <g fill="white" text-rendering="geometricPrecision" shape-rendering="geometricPrecision" transform="matrix(1,0,0,1,-367,-121)" stroke="white">
      <rect x="405.0216" width="147.4941" height="21.7062" y="484.6247" clip-path="url(#clipPath2)" stroke="none"/>
    </g>
    <g text-rendering="geometricPrecision" stroke-miterlimit="1.45" shape-rendering="geometricPrecision" transform="matrix(1,0,0,1,-367,-121)" stroke-linecap="butt">
      <rect fill="none" x="405.0216" width="147.4941" height="21.7062" y="484.6247" clip-path="url(#clipPath2)"/>
      <text x="410.9279" xml:space="preserve" y="498.9199" clip-path="url(#clipPath2)" font-family="'Fira Sans'" stroke="none">Solver Output Formalism</text>
    </g>
    <g fill="rgb(255,204,0)" text-rendering="geometricPrecision" shape-rendering="geometricPrecision" transform="matrix(1,0,0,1,-367,-121)" stroke="rgb(255,204,0)">
      <circle r="15" clip-path="url(#clipPath2)" cx="478.7686" cy="181.6812" stroke="none"/>
    </g>
    <g text-rendering="geometricPrecision" stroke-miterlimit="1.45" shape-rendering="geometricPrecision" transform="matrix(1,0,0,1,-367,-121)" stroke-linecap="butt">
      <circle fill="none" r="15" clip-path="url(#clipPath2)" cx="478.7686" cy="181.6812"/>
    </g>
    <g fill="rgb(255,204,0)" text-rendering="geometricPrecision" shape-rendering="geometricPrecision" transform="matrix(1,0,0,1,-367,-121)" stroke="rgb(255,204,0)">
      <rect x="403.4815" width="150.5743" height="13.5497" y="174.9064" clip-path="url(#clipPath2)" stroke="none"/>
    </g>
    <g text-rendering="geometricPrecision" stroke-miterlimit="1.45" shape-rendering="geometricPrecision" font-family="'Fira Sans'" transform="matrix(1,0,0,1,-367,-121)" stroke-linecap="butt">
      <text x="404.4814" xml:space="preserve" y="185.1233" clip-path="url(#clipPath2)" stroke="none">Create Candidate Solutions</text>
    </g>
    <g fill="rgb(255,204,0)" text-rendering="geometricPrecision" shape-rendering="geometricPrecision" transform="matrix(1,0,0,1,-367,-121)" stroke="rgb(255,204,0)">
      <circle r="15" clip-path="url(#clipPath2)" cx="478.7686" cy="271.3374" stroke="none"/>
    </g>
    <g text-rendering="geometricPrecision" stroke-miterlimit="1.45" stroke-width="2" shape-rendering="geometricPrecision" transform="matrix(1,0,0,1,-367,-121)" stroke-linecap="butt">
      <circle fill="none" r="15" clip-path="url(#clipPath2)" cx="478.7686" cy="271.3374"/>
    </g>
    <g fill="rgb(255,204,0)" text-rendering="geometricPrecision" shape-rendering="geometricPrecision" transform="matrix(1,0,0,1,-367,-121)" stroke="rgb(255,204,0)">
      <rect x="446.9516" width="63.6341" height="13.7655" y="264.4546" clip-path="url(#clipPath2)" stroke="none"/>
    </g>
    <g stroke-linecap="butt" transform="matrix(1,0,0,1,-367,-121)" text-rendering="geometricPrecision" font-family="'Fira Sans'" shape-rendering="geometricPrecision" font-weight="bold" stroke-miterlimit="1.45">
      <text x="447.9516" xml:space="preserve" y="274.6715" clip-path="url(#clipPath2)" stroke="none">To Analysis</text>
    </g>
    <g fill="rgb(255,204,0)" text-rendering="geometricPrecision" shape-rendering="geometricPrecision" transform="matrix(1,0,0,1,-367,-121)" stroke="rgb(255,204,0)">
      <circle r="15" clip-path="url(#clipPath2)" cx="478.7686" cy="360.9935" stroke="none"/>
    </g>
    <g text-rendering="geometricPrecision" stroke-miterlimit="1.45" shape-rendering="geometricPrecision" transform="matrix(1,0,0,1,-367,-121)" stroke-linecap="butt">
      <circle fill="none" r="15" clip-path="url(#clipPath2)" cx="478.7686" cy="360.9935"/>
    </g>
    <g fill="rgb(255,204,0)" text-rendering="geometricPrecision" shape-rendering="geometricPrecision" transform="matrix(1,0,0,1,-367,-121)" stroke="rgb(255,204,0)">
      <rect x="422.3471" width="112.8431" height="13.5497" y="354.2187" clip-path="url(#clipPath2)" stroke="none"/>
    </g>
    <g text-rendering="geometricPrecision" stroke-miterlimit="1.45" shape-rendering="geometricPrecision" font-family="'Fira Sans'" transform="matrix(1,0,0,1,-367,-121)" stroke-linecap="butt">
      <text x="423.3471" xml:space="preserve" y="364.4357" clip-path="url(#clipPath2)" stroke="none">To Solver Formalism</text>
    </g>
    <g fill="rgb(255,204,0)" text-rendering="geometricPrecision" shape-rendering="geometricPrecision" transform="matrix(1,0,0,1,-367,-121)" stroke="rgb(255,204,0)">
      <circle r="15" clip-path="url(#clipPath2)" cx="478.7686" cy="450.6497" stroke="none"/>
    </g>
    <g text-rendering="geometricPrecision" stroke-miterlimit="1.45" shape-rendering="geometricPrecision" transform="matrix(1,0,0,1,-367,-121)" stroke-linecap="butt">
      <circle fill="none" r="15" clip-path="url(#clipPath2)" cx="478.7686" cy="450.6497"/>
    </g>
    <g fill="rgb(255,204,0)" text-rendering="geometricPrecision" shape-rendering="geometricPrecision" transform="matrix(1,0,0,1,-367,-121)" stroke="rgb(255,204,0)">
      <rect x="432.7334" width="92.0705" height="13.5497" y="443.8749" clip-path="url(#clipPath2)" stroke="none"/>
    </g>
    <g text-rendering="geometricPrecision" stroke-miterlimit="1.45" shape-rendering="geometricPrecision" font-family="'Fira Sans'" transform="matrix(1,0,0,1,-367,-121)" stroke-linecap="butt">
      <text x="433.7334" xml:space="preserve" y="454.0918" clip-path="url(#clipPath2)" stroke="none">Execute Analysis</text>
    </g>
    <g fill="rgb(255,204,0)" text-rendering="geometricPrecision" shape-rendering="geometricPrecision" transform="matrix(1,0,0,1,-367,-121)" stroke="rgb(255,204,0)">
      <circle r="15" clip-path="url(#clipPath2)" cx="478.7686" cy="540.3059" stroke="none"/>
    </g>
    <g text-rendering="geometricPrecision" stroke-miterlimit="1.45" shape-rendering="geometricPrecision" transform="matrix(1,0,0,1,-367,-121)" stroke-linecap="butt">
      <circle fill="none" r="15" clip-path="url(#clipPath2)" cx="478.7686" cy="540.3059"/>
    </g>
    <g fill="rgb(255,204,0)" text-rendering="geometricPrecision" shape-rendering="geometricPrecision" transform="matrix(1,0,0,1,-367,-121)" stroke="rgb(255,204,0)">
      <rect x="414.0776" width="129.382" height="13.5497" y="533.5311" clip-path="url(#clipPath2)" stroke="none"/>
    </g>
    <g text-rendering="geometricPrecision" stroke-miterlimit="1.45" shape-rendering="geometricPrecision" font-family="'Fira Sans'" transform="matrix(1,0,0,1,-367,-121)" stroke-linecap="butt">
      <text x="415.0776" xml:space="preserve" y="543.748" clip-path="url(#clipPath2)" stroke="none">Interpret Solver Output</text>
    </g>
    <g fill="rgb(255,204,0)" text-rendering="geometricPrecision" shape-rendering="geometricPrecision" transform="matrix(1,0,0,1,-367,-121)" stroke="rgb(255,204,0)">
      <circle r="15" clip-path="url(#clipPath2)" cx="478.7686" cy="629.9621" stroke="none"/>
    </g>
    <g text-rendering="geometricPrecision" stroke-miterlimit="1.45" shape-rendering="geometricPrecision" transform="matrix(1,0,0,1,-367,-121)" stroke-linecap="butt">
      <circle fill="none" r="15" clip-path="url(#clipPath2)" cx="478.7686" cy="629.9621"/>
    </g>
    <g fill="rgb(255,204,0)" text-rendering="geometricPrecision" shape-rendering="geometricPrecision" transform="matrix(1,0,0,1,-367,-121)" stroke="rgb(255,204,0)">
      <rect x="403.8353" width="149.8667" height="13.5497" y="623.1872" clip-path="url(#clipPath2)" stroke="none"/>
    </g>
    <g text-rendering="geometricPrecision" stroke-miterlimit="1.45" shape-rendering="geometricPrecision" font-family="'Fira Sans'" transform="matrix(1,0,0,1,-367,-121)" stroke-linecap="butt">
      <text x="404.8353" xml:space="preserve" y="633.4042" clip-path="url(#clipPath2)" stroke="none">From Trace Representation</text>
    </g>
    <g fill="white" text-rendering="geometricPrecision" shape-rendering="geometricPrecision" transform="matrix(1,0,0,1,-367,-121)" stroke="white">
      <rect x="811.1969" width="147.4941" height="21.7062" y="126" clip-path="url(#clipPath2)" stroke="none"/>
    </g>
    <g text-rendering="geometricPrecision" stroke-miterlimit="1.45" shape-rendering="geometricPrecision" transform="matrix(1,0,0,1,-367,-121)" stroke-linecap="butt">
      <rect fill="none" x="811.1969" width="147.4941" height="21.7062" y="126" clip-path="url(#clipPath2)"/>
      <text x="839.471" xml:space="preserve" y="140.2952" clip-path="url(#clipPath2)" font-family="'Fira Sans'" stroke="none">: Goal Formalism</text>
      <line y2="142.6279" fill="none" x1="839.471" clip-path="url(#clipPath2)" x2="930.417" y1="142.6279"/>
    </g>
    <g fill="white" text-rendering="geometricPrecision" shape-rendering="geometricPrecision" transform="matrix(1,0,0,1,-367,-121)" stroke="white">
      <rect x="627.8222" width="147.4941" height="21.7062" y="126" clip-path="url(#clipPath2)" stroke="none"/>
    </g>
    <g text-rendering="geometricPrecision" stroke-miterlimit="1.45" shape-rendering="geometricPrecision" transform="matrix(1,0,0,1,-367,-121)" stroke-linecap="butt">
      <rect fill="none" x="627.8222" width="147.4941" height="21.7062" y="126" clip-path="url(#clipPath2)"/>
      <text x="651.4847" xml:space="preserve" y="140.2952" clip-path="url(#clipPath2)" font-family="'Fira Sans'" stroke="none">: Model Formalism</text>
      <line y2="142.6279" fill="none" x1="651.4848" clip-path="url(#clipPath2)" x2="751.6537" y1="142.6279"/>
    </g>
    <g fill="rgb(255,204,0)" text-rendering="geometricPrecision" shape-rendering="geometricPrecision" transform="matrix(1,0,0,1,-367,-121)" stroke="rgb(255,204,0)">
      <rect x="738.0695" y="166.6812" clip-path="url(#clipPath2)" width="110.3741" rx="4" ry="4" height="30" stroke="none"/>
    </g>
    <g text-rendering="geometricPrecision" stroke-miterlimit="1.45" shape-rendering="geometricPrecision" transform="matrix(1,0,0,1,-367,-121)" stroke-linecap="butt">
      <rect x="738.0695" y="166.6812" clip-path="url(#clipPath2)" fill="none" width="110.3741" rx="4" ry="4" height="30"/>
      <text x="746.2485" xml:space="preserve" y="179.3485" clip-path="url(#clipPath2)" font-family="'Fira Sans'" stroke="none">Create Candidate</text>
      <text x="767.5667" xml:space="preserve" y="190.8981" clip-path="url(#clipPath2)" font-family="'Fira Sans'" stroke="none">Solutions</text>
    </g>
    <g fill="white" text-rendering="geometricPrecision" shape-rendering="geometricPrecision" transform="matrix(1,0,0,1,-367,-121)" stroke="white">
      <rect x="627.8222" width="147.4941" height="21.7062" y="215.6562" clip-path="url(#clipPath2)" stroke="none"/>
    </g>
    <g text-rendering="geometricPrecision" stroke-miterlimit="1.45" shape-rendering="geometricPrecision" transform="matrix(1,0,0,1,-367,-121)" stroke-linecap="butt">
      <rect fill="none" x="627.8222" width="147.4941" height="21.7062" y="215.6562" clip-path="url(#clipPath2)"/>
      <text x="651.4847" xml:space="preserve" y="229.9514" clip-path="url(#clipPath2)" font-family="'Fira Sans'" stroke="none">: Model Formalism</text>
      <line y2="232.2841" fill="none" x1="651.4848" clip-path="url(#clipPath2)" x2="751.6537" y1="232.2841"/>
    </g>
    <g fill="rgb(255,204,0)" text-rendering="geometricPrecision" shape-rendering="geometricPrecision" transform="matrix(1,0,0,1,-367,-121)" stroke="rgb(255,204,0)">
      <rect x="738.0695" y="256.3374" clip-path="url(#clipPath2)" width="110.3741" rx="4" ry="4" height="30" stroke="none"/>
    </g>
    <g text-rendering="geometricPrecision" stroke-miterlimit="1.45" stroke-width="2" shape-rendering="geometricPrecision" transform="matrix(1,0,0,1,-367,-121)" stroke-linecap="butt">
      <rect x="738.0695" y="256.3374" clip-path="url(#clipPath2)" fill="none" width="110.3741" rx="4" ry="4" height="30"/>
      <text x="762.4396" y="274.6715" clip-path="url(#clipPath2)" font-family="'Fira Sans'" stroke="none" font-weight="bold" stroke-width="1" xml:space="preserve">To Analysis</text>
    </g>
    <g fill="white" text-rendering="geometricPrecision" shape-rendering="geometricPrecision" transform="matrix(1,0,0,1,-367,-121)" stroke="white">
      <rect x="627.8222" width="63.6541" height="21.7062" y="260.4843" clip-path="url(#clipPath2)" stroke="none"/>
    </g>
    <g text-rendering="geometricPrecision" stroke-miterlimit="1.45" stroke-width="2" shape-rendering="geometricPrecision" transform="matrix(1,0,0,1,-367,-121)" stroke-linecap="butt">
      <rect fill="none" x="627.8222" width="63.6541" height="21.7062" y="260.4843" clip-path="url(#clipPath2)"/>
      <text x="638.217" y="274.6715" clip-path="url(#clipPath2)" font-family="'Fira Sans'" stroke="none" font-weight="bold" stroke-width="1" xml:space="preserve">: RGSPN</text>
      <line clip-path="url(#clipPath2)" fill="none" x1="638.217" x2="681.0815" y1="277.2201" y2="277.2201" stroke-width="1"/>
    </g>
    <g fill="white" text-rendering="geometricPrecision" shape-rendering="geometricPrecision" transform="matrix(1,0,0,1,-367,-121)" stroke="white">
      <rect x="627.8222" width="63.6541" height="21.7062" y="304.2756" clip-path="url(#clipPath2)" stroke="none"/>
    </g>
    <g text-rendering="geometricPrecision" stroke-miterlimit="1.45" stroke-width="2" shape-rendering="geometricPrecision" transform="matrix(1,0,0,1,-367,-121)" stroke-linecap="butt">
      <rect fill="none" x="627.8222" width="63.6541" height="21.7062" y="304.2756" clip-path="url(#clipPath2)"/>
      <text x="638.217" y="318.4629" clip-path="url(#clipPath2)" font-family="'Fira Sans'" stroke="none" font-weight="bold" stroke-width="1" xml:space="preserve">: RGSPN</text>
      <line clip-path="url(#clipPath2)" fill="none" x1="638.217" x2="681.0815" y1="321.0115" y2="321.0115" stroke-width="1"/>
    </g>
    <g fill="rgb(255,204,0)" text-rendering="geometricPrecision" shape-rendering="geometricPrecision" transform="matrix(1,0,0,1,-367,-121)" stroke="rgb(255,204,0)">
      <rect x="738.0695" y="305.3123" clip-path="url(#clipPath2)" width="110.3741" rx="4" ry="4" height="30" stroke="none"/>
    </g>
    <g text-rendering="geometricPrecision" stroke-miterlimit="1.45" stroke-width="2" shape-rendering="geometricPrecision" transform="matrix(1,0,0,1,-367,-121)" stroke-linecap="butt">
      <rect x="738.0695" y="305.3123" clip-path="url(#clipPath2)" fill="none" width="110.3741" rx="4" ry="4" height="30"/>
      <text x="767.5787" y="317.7637" clip-path="url(#clipPath2)" font-family="'Fira Sans'" stroke="none" font-weight="bold" stroke-width="1" xml:space="preserve">To Solver</text>
      <text x="764.6403" y="329.5293" clip-path="url(#clipPath2)" font-family="'Fira Sans'" stroke="none" font-weight="bold" stroke-width="1" xml:space="preserve">Formalism</text>
    </g>
    <g fill="rgb(255,204,0)" text-rendering="geometricPrecision" shape-rendering="geometricPrecision" transform="matrix(1,0,0,1,-367,-121)" stroke="rgb(255,204,0)">
      <rect x="738.0695" y="390.8216" clip-path="url(#clipPath2)" width="110.3741" rx="4" ry="4" height="30" stroke="none"/>
    </g>
    <g text-rendering="geometricPrecision" stroke-miterlimit="1.45" shape-rendering="geometricPrecision" transform="matrix(1,0,0,1,-367,-121)" stroke-linecap="butt">
      <rect x="738.0695" y="390.8216" clip-path="url(#clipPath2)" fill="none" width="110.3741" rx="4" ry="4" height="30"/>
      <text x="748.2214" xml:space="preserve" y="409.2637" clip-path="url(#clipPath2)" font-family="'Fira Sans'" stroke="none">Execute Analysis</text>
    </g>
    <g fill="white" text-rendering="geometricPrecision" shape-rendering="geometricPrecision" transform="matrix(1,0,0,1,-367,-121)" stroke="white">
      <rect x="656.0846" width="90.9693" height="30" y="348.067" clip-path="url(#clipPath2)" stroke="none"/>
    </g>
    <g text-rendering="geometricPrecision" stroke-miterlimit="1.45" shape-rendering="geometricPrecision" transform="matrix(1,0,0,1,-367,-121)" stroke-linecap="butt">
      <rect fill="none" x="656.0846" width="90.9693" height="30" y="348.067" clip-path="url(#clipPath2)"/>
      <text x="665.3611" xml:space="preserve" y="360.7343" clip-path="url(#clipPath2)" font-family="'Fira Sans'" stroke="none">: Solver Input</text>
      <line y2="363.067" fill="none" x1="665.3611" clip-path="url(#clipPath2)" x2="737.7773" y1="363.067"/>
      <text x="673.0189" xml:space="preserve" y="372.2839" clip-path="url(#clipPath2)" font-family="'Fira Sans'" stroke="none">Formalism</text>
      <line y2="374.6166" fill="none" x1="665.3611" clip-path="url(#clipPath2)" x2="737.7773" y1="374.6166"/>
    </g>
    <g fill="white" text-rendering="geometricPrecision" shape-rendering="geometricPrecision" transform="matrix(1,0,0,1,-367,-121)" stroke="white">
      <rect x="627.8222" width="147.4941" height="21.7062" y="439.7966" clip-path="url(#clipPath2)" stroke="none"/>
    </g>
    <g text-rendering="geometricPrecision" stroke-miterlimit="1.45" shape-rendering="geometricPrecision" transform="matrix(1,0,0,1,-367,-121)" stroke-linecap="butt">
      <rect fill="none" x="627.8222" width="147.4941" height="21.7062" y="439.7966" clip-path="url(#clipPath2)"/>
      <text x="630.7002" xml:space="preserve" y="454.0918" clip-path="url(#clipPath2)" font-family="'Fira Sans'" stroke="none">: Solver Output Formalism</text>
      <line y2="456.4245" fill="none" x1="630.7002" clip-path="url(#clipPath2)" x2="772.4383" y1="456.4245"/>
    </g>
    <g fill="rgb(255,204,0)" text-rendering="geometricPrecision" shape-rendering="geometricPrecision" transform="matrix(1,0,0,1,-367,-121)" stroke="rgb(255,204,0)">
      <rect x="738.0695" y="480.4778" clip-path="url(#clipPath2)" width="110.3741" rx="4" ry="4" height="30" stroke="none"/>
    </g>
    <g text-rendering="geometricPrecision" stroke-miterlimit="1.45" shape-rendering="geometricPrecision" transform="matrix(1,0,0,1,-367,-121)" stroke-linecap="butt">
      <rect x="738.0695" y="480.4778" clip-path="url(#clipPath2)" fill="none" width="110.3741" rx="4" ry="4" height="30"/>
      <text x="768.856" xml:space="preserve" y="493.1451" clip-path="url(#clipPath2)" font-family="'Fira Sans'" stroke="none">Interpret</text>
      <text x="755.5554" xml:space="preserve" y="504.6947" clip-path="url(#clipPath2)" font-family="'Fira Sans'" stroke="none">Solver Output</text>
    </g>
    <g fill="white" text-rendering="geometricPrecision" shape-rendering="geometricPrecision" transform="matrix(1,0,0,1,-367,-121)" stroke="white">
      <rect x="627.8222" width="147.4941" height="21.7062" y="529.4528" clip-path="url(#clipPath2)" stroke="none"/>
    </g>
    <g text-rendering="geometricPrecision" stroke-miterlimit="1.45" shape-rendering="geometricPrecision" transform="matrix(1,0,0,1,-367,-121)" stroke-linecap="butt">
      <rect fill="none" x="627.8222" width="147.4941" height="21.7062" y="529.4528" clip-path="url(#clipPath2)"/>
      <text x="653.5596" xml:space="preserve" y="543.748" clip-path="url(#clipPath2)" font-family="'Fira Sans'" stroke="none">: Trace Formalism</text>
      <line y2="546.0807" fill="none" x1="653.5596" clip-path="url(#clipPath2)" x2="749.5788" y1="546.0807"/>
    </g>
    <g fill="white" text-rendering="geometricPrecision" shape-rendering="geometricPrecision" transform="matrix(1,0,0,1,-367,-121)" stroke="white">
      <rect x="839.4593" width="90.9693" height="30" y="348.067" clip-path="url(#clipPath2)" stroke="none"/>
    </g>
    <g text-rendering="geometricPrecision" stroke-miterlimit="1.45" shape-rendering="geometricPrecision" transform="matrix(1,0,0,1,-367,-121)" stroke-linecap="butt">
      <rect fill="none" x="839.4593" width="90.9693" height="30" y="348.067" clip-path="url(#clipPath2)"/>
      <text x="848.7359" xml:space="preserve" y="360.7343" clip-path="url(#clipPath2)" font-family="'Fira Sans'" stroke="none">: Solver Input</text>
      <line y2="363.067" fill="none" x1="848.7359" clip-path="url(#clipPath2)" x2="921.1521" y1="363.067"/>
      <text x="863.9196" xml:space="preserve" y="372.2839" clip-path="url(#clipPath2)" font-family="'Fira Sans'" stroke="none">Queries</text>
      <line y2="374.6166" fill="none" x1="848.7359" clip-path="url(#clipPath2)" x2="921.1521" y1="374.6166"/>
    </g>
    <g fill="rgb(255,204,0)" text-rendering="geometricPrecision" shape-rendering="geometricPrecision" transform="matrix(1,0,0,1,-367,-121)" stroke="rgb(255,204,0)">
      <rect x="738.0695" y="614.9621" clip-path="url(#clipPath2)" width="110.3741" rx="4" ry="4" height="30" stroke="none"/>
    </g>
    <g text-rendering="geometricPrecision" stroke-miterlimit="1.45" shape-rendering="geometricPrecision" transform="matrix(1,0,0,1,-367,-121)" stroke-linecap="butt">
      <rect x="738.0695" y="614.9621" clip-path="url(#clipPath2)" fill="none" width="110.3741" rx="4" ry="4" height="30"/>
      <text x="762.9253" xml:space="preserve" y="627.6293" clip-path="url(#clipPath2)" font-family="'Fira Sans'" stroke="none">From Trace</text>
      <text x="751.2437" xml:space="preserve" y="639.179" clip-path="url(#clipPath2)" font-family="'Fira Sans'" stroke="none">Representation</text>
    </g>
    <g fill="white" text-rendering="geometricPrecision" shape-rendering="geometricPrecision" transform="matrix(1,0,0,1,-367,-121)" stroke="white">
      <rect x="627.8222" width="147.4941" height="21.7062" y="663.937" clip-path="url(#clipPath2)" stroke="none"/>
    </g>
    <g text-rendering="geometricPrecision" stroke-miterlimit="1.45" shape-rendering="geometricPrecision" transform="matrix(1,0,0,1,-367,-121)" stroke-linecap="butt">
      <rect fill="none" x="627.8222" width="147.4941" height="21.7062" y="663.937" clip-path="url(#clipPath2)"/>
      <text x="645.512" xml:space="preserve" y="678.2322" clip-path="url(#clipPath2)" font-family="'Fira Sans'" stroke="none">: Solution Formalism</text>
      <line y2="680.565" fill="none" x1="645.512" clip-path="url(#clipPath2)" x2="757.6264" y1="680.565"/>
      <path fill="none" d="M769.6164 576.4936 L793.2566 552.8534 L816.8967 576.4936 L793.2566 600.1337 Z" clip-path="url(#clipPath2)" fill-rule="evenodd"/>
      <path fill="none" d="M478.7686 147.7062 L478.7686 158.6812" clip-path="url(#clipPath2)"/>
      <path d="M478.7686 166.6812 L483.7686 154.6812 L478.7686 157.6812 L473.7686 154.6812 Z" clip-path="url(#clipPath2)" stroke="none"/>
      <path fill="none" d="M470.5959 215.6744 L470.3633 215.3023 L468.262 209.6988 L467.5616 204.0952 L467.8721 201.6108 L467.9073 201.5172" clip-path="url(#clipPath2)"/>
      <path d="M470.0119 193.799 L462.031 204.0609 L467.6442 202.482 L471.6788 206.6917 Z" clip-path="url(#clipPath2)" stroke="none"/>
      <path fill="none" d="M487.5515 193.8951 L489.2752 198.4917 L489.9756 204.0952 L489.4767 208.0868 L489.4403 208.1799" clip-path="url(#clipPath2)"/>
      <path d="M486.9097 215.7691 L495.4489 205.967 L489.7567 207.2313 L485.9624 202.8037 Z" clip-path="url(#clipPath2)" stroke="none"/>
      <path fill="none" d="M478.7686 237.3624 L478.7686 248.3374" clip-path="url(#clipPath2)"/>
      <path d="M478.7686 256.3374 L483.7686 244.3374 L478.7686 247.3374 L473.7686 244.3374 Z" clip-path="url(#clipPath2)" stroke="none"/>
      <path fill="none" d="M478.7686 286.3374 L478.7686 297.3123" clip-path="url(#clipPath2)"/>
      <path d="M478.7686 305.3123 L483.7686 293.3123 L478.7686 296.3123 L473.7686 293.3123 Z" clip-path="url(#clipPath2)" stroke="none"/>
      <path fill="none" d="M478.7686 327.0186 L478.7686 337.9936" clip-path="url(#clipPath2)"/>
      <path d="M478.7686 345.9936 L483.7686 333.9936 L478.7686 336.9936 L473.7686 333.9936 Z" clip-path="url(#clipPath2)" stroke="none"/>
      <path fill="none" d="M466.7176 369.9251 L444.95 386.0581" clip-path="url(#clipPath2)"/>
      <path d="M438.5228 390.8216 L451.1408 387.6934 L445.7534 385.4627 L445.1865 379.6594 Z" clip-path="url(#clipPath2)" stroke="none"/>
      <path fill="none" d="M491.1462 369.4667 L515.74 386.3026" clip-path="url(#clipPath2)"/>
      <path d="M522.3414 390.8216 L515.2637 379.9172 L514.9148 385.7377 L509.6149 388.1689 Z" clip-path="url(#clipPath2)" stroke="none"/>
      <path fill="none" d="M522.3414 420.8216 L497.7476 437.6575" clip-path="url(#clipPath2)"/>
      <path d="M491.1462 442.1765 L503.8727 439.5239 L498.5728 437.0926 L498.2239 431.2721 Z" clip-path="url(#clipPath2)" stroke="none"/>
      <path fill="none" d="M438.5228 420.8216 L460.2904 436.9546" clip-path="url(#clipPath2)"/>
      <path d="M466.7176 441.7181 L460.054 430.5559 L459.487 436.3592 L454.0996 438.5899 Z" clip-path="url(#clipPath2)" stroke="none"/>
      <path fill="none" d="M478.7686 465.6497 L478.7686 476.6247" clip-path="url(#clipPath2)"/>
      <path d="M478.7686 484.6247 L483.7686 472.6247 L478.7686 475.6247 L473.7686 472.6247 Z" clip-path="url(#clipPath2)" stroke="none"/>
      <path fill="none" d="M478.7686 506.3309 L478.7686 517.3059" clip-path="url(#clipPath2)"/>
      <path d="M478.7686 525.3059 L483.7686 513.3059 L478.7686 516.3059 L473.7686 513.3059 Z" clip-path="url(#clipPath2)" stroke="none"/>
      <path fill="none" d="M478.7686 555.3059 L478.7686 566.2808" clip-path="url(#clipPath2)"/>
      <path d="M478.7686 574.2808 L483.7686 562.2808 L478.7686 565.2808 L473.7686 562.2808 Z" clip-path="url(#clipPath2)" stroke="none"/>
      <path fill="none" d="M478.7686 595.9871 L478.7686 606.962" clip-path="url(#clipPath2)"/>
      <path d="M478.7686 614.962 L483.7686 602.962 L478.7686 605.962 L473.7686 602.962 Z" clip-path="url(#clipPath2)" stroke="none"/>
      <path fill="none" d="M478.7686 644.962 L478.7686 655.937" clip-path="url(#clipPath2)"/>
      <path d="M478.7686 663.937 L483.7686 651.937 L478.7686 654.937 L473.7686 651.937 Z" clip-path="url(#clipPath2)" stroke="none"/>
      <path fill="none" stroke-dasharray="6,2" d="M723.7672 147.7062 L755.3627 163.154" clip-path="url(#clipPath2)" stroke="gray"/>
      <path fill="gray" stroke-dasharray="6,2" d="M762.5496 166.6679 L753.9653 156.9052 L754.4643 162.7147 L749.573 165.8889 Z" clip-path="url(#clipPath2)" stroke="none"/>
      <path fill="none" stroke-dasharray="6,2" d="M862.746 147.7062 L831.1506 163.154" clip-path="url(#clipPath2)" stroke="gray"/>
      <path fill="gray" stroke-dasharray="6,2" d="M823.9636 166.6679 L836.9402 165.8889 L832.049 162.7147 L832.5479 156.9052 Z" clip-path="url(#clipPath2)" stroke="none"/>
      <path fill="none" stroke-dasharray="6,2" d="M762.5897 196.675 L730.9542 212.1423" clip-path="url(#clipPath2)" stroke="gray"/>
      <path fill="gray" stroke-dasharray="6,2" d="M723.7672 215.6562 L736.7438 214.8772 L731.8525 211.703 L732.3515 205.8935 Z" clip-path="url(#clipPath2)" stroke="none"/>
      <path fill="none" d="M793.2566 196.6969 L793.2566 248.3582" clip-path="url(#clipPath2)"/>
      <path d="M793.2566 256.3582 L798.2566 244.3582 L793.2566 247.3582 L788.2566 244.3582 Z" clip-path="url(#clipPath2)" stroke="none"/>
      <path fill="none" stroke-dasharray="6,2" d="M723.7672 237.3624 L755.3627 252.8102" clip-path="url(#clipPath2)" stroke="gray"/>
      <path fill="gray" stroke-dasharray="6,2" d="M762.5496 256.324 L753.9653 246.5613 L754.4643 252.3709 L749.573 255.545 Z" clip-path="url(#clipPath2)" stroke="none"/>
      <path fill="none" stroke-dasharray="6,2" d="M691.4763 271.3374 L730.0428 271.3374" clip-path="url(#clipPath2)" stroke="gray"/>
      <path fill="gray" stroke-dasharray="6,2" d="M738.0428 271.3374 L726.0428 266.3374 L729.0428 271.3374 L726.0428 276.3374 Z" clip-path="url(#clipPath2)" stroke="none"/>
      <path fill="none" stroke-dasharray="6,2" d="M747.4922 286.3372 L699.0784 302.2054" clip-path="url(#clipPath2)" stroke="gray"/>
      <path fill="gray" stroke-dasharray="6,2" d="M691.4763 304.6971 L704.4367 305.7108 L700.0286 301.8939 L701.3221 296.2083 Z" clip-path="url(#clipPath2)" stroke="none"/>
      <path fill="none" d="M793.2566 286.3073 L793.2566 297.3355" clip-path="url(#clipPath2)"/>
      <path d="M793.2566 305.3355 L798.2566 293.3355 L793.2566 296.3355 L788.2566 293.3355 Z" clip-path="url(#clipPath2)" stroke="none"/>
      <path fill="none" stroke-dasharray="6,2" d="M691.4763 316.3636 L730.0488 317.86" clip-path="url(#clipPath2)" stroke="gray"/>
      <path fill="gray" stroke-dasharray="6,2" d="M738.0427 318.1702 L726.2456 312.7087 L729.0495 317.8213 L725.8579 322.7012 Z" clip-path="url(#clipPath2)" stroke="none"/>
      <path fill="none" stroke-dasharray="6,2" d="M884.944 147.7062 L884.944 299.1451 L855.5204 305.2863" clip-path="url(#clipPath2)" stroke="gray"/>
      <path fill="gray" stroke-dasharray="6,2" d="M847.6892 306.9207 L860.4576 309.3635 L856.4994 305.0819 L858.4146 299.5745 Z" clip-path="url(#clipPath2)" stroke="none"/>
      <path fill="none" d="M793.2566 335.3015 L793.2566 382.843" clip-path="url(#clipPath2)"/>
      <path d="M793.2566 390.843 L798.2566 378.843 L793.2566 381.843 L788.2566 378.843 Z" clip-path="url(#clipPath2)" stroke="none"/>
      <path fill="none" stroke-dasharray="6,2" d="M738.0562 327.1913 L701.5692 331.7383 L701.5692 340.067" clip-path="url(#clipPath2)" stroke="gray"/>
      <path fill="gray" stroke-dasharray="6,2" d="M701.5692 348.067 L706.5692 336.067 L701.5692 339.067 L696.5692 336.067 Z" clip-path="url(#clipPath2)" stroke="none"/>
      <path fill="none" stroke-dasharray="6,2" d="M701.5692 378.067 L701.5692 405.8216 L730.0562 405.8216" clip-path="url(#clipPath2)" stroke="gray"/>
      <path fill="gray" stroke-dasharray="6,2" d="M738.0562 405.8216 L726.0562 400.8216 L729.0562 405.8216 L726.0562 410.8216 Z" clip-path="url(#clipPath2)" stroke="none"/>
      <path fill="none" stroke-dasharray="6,2" d="M762.5897 420.8154 L730.9542 436.2827" clip-path="url(#clipPath2)" stroke="gray"/>
      <path fill="gray" stroke-dasharray="6,2" d="M723.7672 439.7966 L736.7438 439.0177 L731.8525 435.8435 L732.3515 430.0339 Z" clip-path="url(#clipPath2)" stroke="none"/>
      <path fill="none" stroke-dasharray="6,2" d="M723.7672 461.5028 L755.3627 476.9506" clip-path="url(#clipPath2)" stroke="gray"/>
      <path fill="gray" stroke-dasharray="6,2" d="M762.5496 480.4644 L753.9653 470.7018 L754.4643 476.5113 L749.573 479.6855 Z" clip-path="url(#clipPath2)" stroke="none"/>
      <path fill="none" d="M793.2566 420.8373 L793.2566 472.4987" clip-path="url(#clipPath2)"/>
      <path d="M793.2566 480.4987 L798.2566 468.4987 L793.2566 471.4987 L788.2566 468.4987 Z" clip-path="url(#clipPath2)" stroke="none"/>
      <path fill="none" stroke-dasharray="6,2" d="M762.5897 510.4716 L730.9542 525.9389" clip-path="url(#clipPath2)" stroke="gray"/>
      <path fill="gray" stroke-dasharray="6,2" d="M723.7672 529.4528 L736.7438 528.6739 L731.8526 525.4997 L732.3516 519.6901 Z" clip-path="url(#clipPath2)" stroke="none"/>
      <path fill="none" stroke-dasharray="6,2" d="M848.4571 320.3123 L884.944 320.3123 L884.944 340.067" clip-path="url(#clipPath2)" stroke="gray"/>
      <path fill="gray" stroke-dasharray="6,2" d="M884.944 348.067 L889.944 336.067 L884.944 339.067 L879.944 336.067 Z" clip-path="url(#clipPath2)" stroke="none"/>
      <path fill="none" stroke-dasharray="6,2" d="M884.944 378.067 L884.944 405.8216 L856.4571 405.8216" clip-path="url(#clipPath2)" stroke="gray"/>
      <path fill="gray" stroke-dasharray="6,2" d="M848.4571 405.8216 L860.4571 410.8216 L857.4571 405.8216 L860.4571 400.8216 Z" clip-path="url(#clipPath2)" stroke="none"/>
      <path fill="none" stroke-dasharray="6,2" d="M712.6682 551.159 L772.21 609.3817" clip-path="url(#clipPath2)" stroke="gray"/>
      <path fill="gray" stroke-dasharray="6,2" d="M777.9299 614.9749 L772.8458 603.0103 L771.4951 608.6826 L765.8544 610.16 Z" clip-path="url(#clipPath2)" stroke="none"/>
      <path fill="none" stroke-dasharray="6,2" d="M762.5897 644.9558 L730.9542 660.4232" clip-path="url(#clipPath2)" stroke="gray"/>
      <path fill="gray" stroke-dasharray="6,2" d="M723.7672 663.937 L736.7438 663.1581 L731.8526 659.9839 L732.3516 654.1744 Z" clip-path="url(#clipPath2)" stroke="none"/>
      <path fill="none" d="M793.2566 510.4706 L793.2566 544.8635" clip-path="url(#clipPath2)"/>
      <path d="M793.2566 552.8635 L798.2566 540.8635 L793.2566 543.8635 L788.2566 540.8635 Z" clip-path="url(#clipPath2)" stroke="none"/>
      <path fill="none" stroke-dasharray="6,2" d="M728.2914 551.159 L768.3123 567.4134" clip-path="url(#clipPath2)" stroke="gray"/>
      <path fill="gray" stroke-dasharray="6,2" d="M775.7242 570.4238 L766.4877 561.2758 L767.3857 567.0371 L762.7248 570.5407 Z" clip-path="url(#clipPath2)" stroke="none"/>
      <path fill="none" stroke-dasharray="6,2" d="M627.8221 315.1288 L619.7536 315.1288 L619.7536 576.494 L761.5997 576.494" clip-path="url(#clipPath2)" stroke="gray"/>
      <path fill="gray" stroke-dasharray="6,2" d="M769.5997 576.494 L757.5997 571.494 L760.5997 576.494 L757.5997 581.494 Z" clip-path="url(#clipPath2)" stroke="none"/>
      <path fill="none" d="M793.2566 600.1212 L793.2566 606.9542" clip-path="url(#clipPath2)"/>
      <path d="M793.2566 614.9542 L798.2566 602.9542 L793.2566 605.9542 L788.2566 602.9542 Z" clip-path="url(#clipPath2)" stroke="none"/>
      <path fill="none" d="M816.8787 576.494 L958.088 576.494 L958.088 175.1518 L856.4641 175.1518" clip-path="url(#clipPath2)"/>
      <path d="M848.4641 175.1518 L860.4641 180.1518 L857.4641 175.1518 L860.4641 170.1518 Z" clip-path="url(#clipPath2)" stroke="none"/>
      <path fill="none" stroke-dasharray="6,2" d="M810.7721 570.34 L951.3406 570.34 L951.3406 187.0187 L856.4538 187.0187" clip-path="url(#clipPath2)" stroke="gray"/>
      <path fill="gray" stroke-dasharray="6,2" d="M848.4538 187.0187 L860.4538 192.0187 L857.4538 187.0187 L860.4538 182.0187 Z" clip-path="url(#clipPath2)" stroke="none"/>
      <path fill="none" stroke-dasharray="6,2" d="M627.8221 226.5093 L614.2225 226.5093 L614.2225 581.92" clip-path="url(#clipPath2)" stroke="gray"/>
      <path fill="none" stroke-dasharray="6,2" d="M613.7225 581.92 L767.0182 581.92" clip-path="url(#clipPath2)" stroke="gray"/>
      <path fill="gray" stroke-dasharray="6,2" d="M775.0182 581.92 L763.0182 576.92 L766.0182 581.92 L763.0182 586.92 Z" clip-path="url(#clipPath2)" stroke="none"/>
      <path fill="none" stroke-dasharray="6,2" d="M614.7225 581.92 L614.7225 629.962 L730.0313 629.962" clip-path="url(#clipPath2)" stroke="gray"/>
      <path fill="gray" stroke-dasharray="6,2" d="M738.0313 629.962 L726.0313 624.962 L729.0313 629.962 L726.0313 634.962 Z" clip-path="url(#clipPath2)" stroke="none"/>
    </g>
  </g>
</svg>
