<?xml version="1.0" encoding="UTF-8"?><svg xmlns="http://www.w3.org/2000/svg" xmlns:xlink="http://www.w3.org/1999/xlink" fill-opacity="1" color-rendering="auto" color-interpolation="auto" text-rendering="auto" stroke="black" stroke-linecap="square" width="468" stroke-miterlimit="10" shape-rendering="auto" stroke-opacity="1" fill="black" stroke-dasharray="none" font-weight="normal" stroke-width="1" height="205" font-family="'Dialog'" font-style="normal" stroke-linejoin="miter" font-size="12px" stroke-dashoffset="0" image-rendering="auto">
  <!--Generated by ySVG 2.5-->
  <defs id="genericDefs"/>
  <g>
    <defs id="defs1">
      <clipPath clipPathUnits="userSpaceOnUse" id="clipPath1">
        <path d="M0 0 L468 0 L468 205 L0 205 L0 0 Z"/>
      </clipPath>
      <clipPath clipPathUnits="userSpaceOnUse" id="clipPath2">
        <path d="M218 391 L686 391 L686 596 L218 596 L218 391 Z"/>
      </clipPath>
      <clipPath clipPathUnits="userSpaceOnUse" id="clipPath3">
        <path d="M0 0 L0 26 L61 26 L61 0 Z"/>
      </clipPath>
      <clipPath clipPathUnits="userSpaceOnUse" id="clipPath4">
        <path d="M0 0 L0 26 L66 26 L66 0 Z"/>
      </clipPath>
      <clipPath clipPathUnits="userSpaceOnUse" id="clipPath5">
        <path d="M0 0 L0 15 L109 15 L109 0 Z"/>
      </clipPath>
      <clipPath clipPathUnits="userSpaceOnUse" id="clipPath6">
        <path d="M0 0 L0 26 L60 26 L60 0 Z"/>
      </clipPath>
      <clipPath clipPathUnits="userSpaceOnUse" id="clipPath7">
        <path d="M0 0 L0 26 L65 26 L65 0 Z"/>
      </clipPath>
      <clipPath clipPathUnits="userSpaceOnUse" id="clipPath8">
        <path d="M0 0 L0 15 L108 15 L108 0 Z"/>
      </clipPath>
    </defs>
    <g fill="white" text-rendering="geometricPrecision" shape-rendering="geometricPrecision" transform="translate(-218,-391)" stroke="white">
      <rect x="218" width="468" height="205" y="391" clip-path="url(#clipPath2)" stroke="none"/>
    </g>
    <g text-rendering="geometricPrecision" stroke-miterlimit="1.45" shape-rendering="geometricPrecision" transform="matrix(1,0,0,1,-218,-391)" stroke-linecap="butt">
      <circle fill="none" r="15" clip-path="url(#clipPath2)" cx="665.8977" cy="562.2002"/>
      <text x="604.1435" xml:space="preserve" y="550.6423" clip-path="url(#clipPath2)" font-family="'Fira Sans'" stroke="none">thinking2</text>
      <circle fill="none" r="15" clip-path="url(#clipPath2)" cx="578.2953" cy="445.4718"/>
      <text x="597.2953" xml:space="preserve" y="448.9139" clip-path="url(#clipPath2)" font-family="'Fira Sans'" stroke="none">waiting2</text>
      <circle fill="none" r="15" clip-path="url(#clipPath2)" cx="578.2953" cy="520.9574"/>
      <text x="597.2953" xml:space="preserve" y="524.3995" clip-path="url(#clipPath2)" font-family="'Fira Sans'" stroke="none">eating2</text>
      <rect fill="none" x="563.2953" width="30" height="15" y="396.729" clip-path="url(#clipPath2)"/>
    </g>
    <g text-rendering="geometricPrecision" stroke-miterlimit="1.45" shape-rendering="geometricPrecision" font-family="'Fira Sans'" transform="matrix(1,0,0,1,-218,-391) translate(498,398)" stroke-linecap="butt">
      <text x="0" xml:space="preserve" y="10" clip-path="url(#clipPath3)" stroke="none">getHungry2</text>
      <text x="61" xml:space="preserve" y="10" clip-path="url(#clipPath3)" stroke="none"> </text>
      <text x="15" xml:space="preserve" y="23" clip-path="url(#clipPath3)" stroke="none">λ</text>
      <text x="21" xml:space="preserve" y="23" clip-path="url(#clipPath3)" stroke="none"> = 0.45</text>
      <text x="56" font-size="8px" y="23" clip-path="url(#clipPath3)" font-family="monospace" stroke="none" xml:space="preserve"> </text>
    </g>
    <g fill="rgb(153,153,153)" text-rendering="geometricPrecision" shape-rendering="geometricPrecision" transform="matrix(1,0,0,1,-218,-391)" stroke="rgb(153,153,153)">
      <rect x="563.2953" width="30" height="8" y="479.2146" clip-path="url(#clipPath2)" stroke="none"/>
    </g>
    <g text-rendering="geometricPrecision" stroke-miterlimit="1.45" shape-rendering="geometricPrecision" transform="matrix(1,0,0,1,-218,-391)" stroke-linecap="butt">
      <rect fill="none" x="563.2953" width="30" height="8" y="479.2146" clip-path="url(#clipPath2)"/>
    </g>
    <g text-rendering="geometricPrecision" stroke-miterlimit="1.45" shape-rendering="geometricPrecision" font-family="'Fira Sans'" transform="matrix(1,0,0,1,-218,-391) translate(597,470)" stroke-linecap="butt">
      <text x="0" xml:space="preserve" y="10" clip-path="url(#clipPath4)" stroke="none">startEating2</text>
      <text x="61" font-size="8px" y="10" clip-path="url(#clipPath4)" font-family="monospace" stroke="none" xml:space="preserve"> </text>
      <text x="66" xml:space="preserve" y="10" clip-path="url(#clipPath4)" stroke="none"> </text>
      <text x="0" xml:space="preserve" y="23" clip-path="url(#clipPath4)" stroke="none">λ</text>
      <text x="6" xml:space="preserve" y="23" clip-path="url(#clipPath4)" stroke="none"> = 1, </text>
      <text x="30" xml:space="preserve" y="23" clip-path="url(#clipPath4)" stroke="none">π</text>
      <text x="37" xml:space="preserve" y="23" clip-path="url(#clipPath4)" stroke="none"> = 1</text>
    </g>
    <g text-rendering="geometricPrecision" stroke-miterlimit="1.45" shape-rendering="geometricPrecision" transform="matrix(1,0,0,1,-218,-391)" stroke-linecap="butt">
      <rect fill="none" x="563.2953" width="30" height="15" y="554.7002" clip-path="url(#clipPath2)"/>
    </g>
    <g text-rendering="geometricPrecision" stroke-miterlimit="1.45" shape-rendering="geometricPrecision" font-family="'Fira Sans'" transform="matrix(1,0,0,1,-218,-391) translate(523,573)" stroke-linecap="butt">
      <text x="0" xml:space="preserve" y="12" clip-path="url(#clipPath5)" stroke="none">finishEating2</text>
      <text x="67" xml:space="preserve" y="12" clip-path="url(#clipPath5)" font-family="monospace" stroke="none"> </text>
      <text x="74" xml:space="preserve" y="12" clip-path="url(#clipPath5)" stroke="none">λ</text>
      <text x="80" xml:space="preserve" y="12" clip-path="url(#clipPath5)" stroke="none"> = 2.8</text>
    </g>
    <g text-rendering="geometricPrecision" stroke-miterlimit="1.45" shape-rendering="geometricPrecision" transform="matrix(1,0,0,1,-218,-391)" stroke-linecap="butt">
      <circle fill="none" r="15" clip-path="url(#clipPath2)" cx="495.2348" cy="510.8723"/>
      <text x="516.2348" xml:space="preserve" y="514.3145" clip-path="url(#clipPath2)" font-family="'Fira Sans'" stroke="none">fork2</text>
      <circle stroke-linecap="square" clip-path="url(#clipPath2)" r="5" cx="665.8977" cy="562.2002" stroke="none" stroke-miterlimit="10"/>
      <circle stroke-linecap="square" clip-path="url(#clipPath2)" r="5" cx="495.2348" cy="510.9574" stroke="none" stroke-miterlimit="10"/>
      <circle fill="none" r="15" clip-path="url(#clipPath2)" cx="238.369" cy="562.2852"/>
      <text x="249.738" xml:space="preserve" y="550.7274" clip-path="url(#clipPath2)" font-family="'Fira Sans'" stroke="none">thinking1</text>
      <circle fill="none" r="15" clip-path="url(#clipPath2)" cx="326.593" cy="445.5568"/>
      <text x="262.9176" xml:space="preserve" y="448.9989" clip-path="url(#clipPath2)" font-family="'Fira Sans'" stroke="none">waiting1</text>
      <circle fill="none" r="15" clip-path="url(#clipPath2)" cx="326.593" cy="521.0424"/>
      <text x="268.3026" xml:space="preserve" y="524.4846" clip-path="url(#clipPath2)" font-family="'Fira Sans'" stroke="none">eating1</text>
      <rect fill="none" x="311.593" width="30" height="15" y="396.814" clip-path="url(#clipPath2)"/>
    </g>
    <g text-rendering="geometricPrecision" stroke-miterlimit="1.45" shape-rendering="geometricPrecision" font-family="'Fira Sans'" transform="matrix(1,0,0,1,-218,-391) translate(345,398)" stroke-linecap="butt">
      <text x="0" xml:space="preserve" y="10" clip-path="url(#clipPath6)" stroke="none">getHungry1</text>
      <text x="60" xml:space="preserve" y="10" clip-path="url(#clipPath6)" stroke="none"> </text>
      <text x="0" xml:space="preserve" y="23" clip-path="url(#clipPath6)" stroke="none">λ</text>
      <text x="6" xml:space="preserve" y="23" clip-path="url(#clipPath6)" stroke="none"> = 0.5</text>
      <text x="35" font-size="8px" y="23" clip-path="url(#clipPath6)" font-family="monospace" stroke="none" xml:space="preserve"> </text>
    </g>
    <g fill="rgb(153,153,153)" text-rendering="geometricPrecision" shape-rendering="geometricPrecision" transform="matrix(1,0,0,1,-218,-391)" stroke="rgb(153,153,153)">
      <rect x="311.593" width="30" height="8" y="479.2996" clip-path="url(#clipPath2)" stroke="none"/>
    </g>
    <g text-rendering="geometricPrecision" stroke-miterlimit="1.45" shape-rendering="geometricPrecision" transform="matrix(1,0,0,1,-218,-391)" stroke-linecap="butt">
      <rect fill="none" x="311.593" width="30" height="8" y="479.2996" clip-path="url(#clipPath2)"/>
    </g>
    <g text-rendering="geometricPrecision" stroke-miterlimit="1.45" shape-rendering="geometricPrecision" font-family="'Fira Sans'" transform="matrix(1,0,0,1,-218,-391) translate(242,470)" stroke-linecap="butt">
      <text x="0" xml:space="preserve" y="10" clip-path="url(#clipPath7)" stroke="none">startEating1</text>
      <text x="60" font-size="8px" y="10" clip-path="url(#clipPath7)" font-family="monospace" stroke="none" xml:space="preserve"> </text>
      <text x="65" xml:space="preserve" y="10" clip-path="url(#clipPath7)" stroke="none"> </text>
      <text x="10" xml:space="preserve" y="23" clip-path="url(#clipPath7)" stroke="none">λ</text>
      <text x="16" xml:space="preserve" y="23" clip-path="url(#clipPath7)" stroke="none"> = 1, </text>
      <text x="40" xml:space="preserve" y="23" clip-path="url(#clipPath7)" stroke="none">π</text>
      <text x="47" xml:space="preserve" y="23" clip-path="url(#clipPath7)" stroke="none"> = 1</text>
    </g>
    <g text-rendering="geometricPrecision" stroke-miterlimit="1.45" shape-rendering="geometricPrecision" transform="matrix(1,0,0,1,-218,-391)" stroke-linecap="butt">
      <rect fill="none" x="311.593" width="30" height="15" y="554.7852" clip-path="url(#clipPath2)"/>
    </g>
    <g text-rendering="geometricPrecision" stroke-miterlimit="1.45" shape-rendering="geometricPrecision" font-family="'Fira Sans'" transform="matrix(1,0,0,1,-218,-391) translate(272,573)" stroke-linecap="butt">
      <text x="0" xml:space="preserve" y="12" clip-path="url(#clipPath8)" stroke="none">finishEating1</text>
      <text x="66" xml:space="preserve" y="12" clip-path="url(#clipPath8)" font-family="monospace" stroke="none"> </text>
      <text x="73" xml:space="preserve" y="12" clip-path="url(#clipPath8)" stroke="none">λ</text>
      <text x="79" xml:space="preserve" y="12" clip-path="url(#clipPath8)" stroke="none"> = 3.0</text>
    </g>
    <g text-rendering="geometricPrecision" stroke-miterlimit="1.45" shape-rendering="geometricPrecision" transform="matrix(1,0,0,1,-218,-391)" stroke-linecap="butt">
      <circle fill="none" r="15" clip-path="url(#clipPath2)" cx="409.6535" cy="510.9574"/>
      <text x="361.6683" xml:space="preserve" y="514.3995" clip-path="url(#clipPath2)" font-family="'Fira Sans'" stroke="none">fork1</text>
      <circle stroke-linecap="square" clip-path="url(#clipPath2)" r="5" cx="238.369" cy="562.2852" stroke="none" stroke-miterlimit="10"/>
      <circle stroke-linecap="square" clip-path="url(#clipPath2)" r="5" cx="409.6535" cy="511.0424" stroke="none" stroke-miterlimit="10"/>
      <path fill="none" d="M665.8977 547.2002 L665.8977 414.229 L665.2727 409.854 L663.3977 406.729 L660.2727 404.854 L655.8977 404.229 L601.2953 404.229" clip-path="url(#clipPath2)"/>
      <path d="M593.2953 404.229 L605.2953 409.229 L602.2953 404.229 L605.2953 399.229 Z" clip-path="url(#clipPath2)" stroke="none"/>
      <path fill="none" d="M578.2953 411.729 L578.2953 422.4718" clip-path="url(#clipPath2)"/>
      <path d="M578.2953 430.4718 L583.2953 418.4718 L578.2953 421.4718 L573.2953 418.4718 Z" clip-path="url(#clipPath2)" stroke="none"/>
      <path fill="none" d="M578.2953 460.4718 L578.2953 471.2146" clip-path="url(#clipPath2)"/>
      <path d="M578.2953 479.2146 L583.2953 467.2146 L578.2953 470.2146 L573.2953 467.2146 Z" clip-path="url(#clipPath2)" stroke="none"/>
      <path fill="none" d="M578.2953 487.2146 L578.2953 497.9574" clip-path="url(#clipPath2)"/>
      <path d="M578.2953 505.9574 L583.2953 493.9574 L578.2953 496.9574 L573.2953 493.9574 Z" clip-path="url(#clipPath2)" stroke="none"/>
      <path fill="none" d="M578.2953 535.9574 L578.2953 546.7002" clip-path="url(#clipPath2)"/>
      <path d="M578.2953 554.7002 L583.2953 542.7002 L578.2953 545.7002 L573.2953 542.7002 Z" clip-path="url(#clipPath2)" stroke="none"/>
      <path fill="none" d="M593.2953 562.2002 L642.8977 562.2002" clip-path="url(#clipPath2)"/>
      <path d="M650.8977 562.2002 L638.8977 557.2002 L641.8977 562.2002 L638.8977 567.2002 Z" clip-path="url(#clipPath2)" stroke="none"/>
      <path fill="none" d="M571.9324 554.7002 L566.8876 548.7537 L560.6039 544.2938 L551.8427 542.8072 L505.2348 542.8072 L497.7348 541.6903 L495.8598 540.2943 L495.2348 538.3397 L495.2348 533.8723" clip-path="url(#clipPath2)"/>
      <path d="M495.2348 525.8723 L490.2348 537.8723 L495.2348 534.8723 L500.2348 537.8723 Z" clip-path="url(#clipPath2)" stroke="none"/>
      <path fill="none" d="M495.2348 495.8723 L495.2348 489.5435 L495.8598 486.7746 L497.7348 484.7968 L500.8598 483.6101 L505.2348 483.2146 L555.2953 483.2146" clip-path="url(#clipPath2)"/>
      <path d="M563.2953 483.2146 L551.2953 478.2146 L554.2953 483.2146 L551.2953 488.2146 Z" clip-path="url(#clipPath2)" stroke="none"/>
      <path fill="none" d="M238.369 547.2852 L238.369 414.314 L238.994 409.939 L240.869 406.814 L243.994 404.939 L248.369 404.314 L303.593 404.314" clip-path="url(#clipPath2)"/>
      <path d="M311.593 404.314 L299.593 399.314 L302.593 404.314 L299.593 409.314 Z" clip-path="url(#clipPath2)" stroke="none"/>
      <path fill="none" d="M326.593 411.814 L326.593 422.5568" clip-path="url(#clipPath2)"/>
      <path d="M326.593 430.5568 L331.593 418.5568 L326.593 421.5568 L321.593 418.5568 Z" clip-path="url(#clipPath2)" stroke="none"/>
      <path fill="none" d="M326.593 460.5568 L326.593 471.2996" clip-path="url(#clipPath2)"/>
      <path d="M326.593 479.2996 L331.593 467.2996 L326.593 470.2996 L321.593 467.2996 Z" clip-path="url(#clipPath2)" stroke="none"/>
      <path fill="none" d="M481.9628 503.8827 L418.5015 470.4609 L409.3655 466.9661 L399.6535 465.8011 L360.9456 465.8011 L351.9095 466.9049 L344.8011 470.2163 L338.6566 474.6314" clip-path="url(#clipPath2)"/>
      <path d="M332.1598 479.2996 L344.8226 476.3578 L339.4687 474.0479 L338.9873 468.2368 Z" clip-path="url(#clipPath2)" stroke="none"/>
      <path fill="none" d="M326.593 487.2996 L326.593 498.0424" clip-path="url(#clipPath2)"/>
      <path d="M326.593 506.0424 L331.593 494.0424 L326.593 497.0424 L321.593 494.0424 Z" clip-path="url(#clipPath2)" stroke="none"/>
      <path fill="none" d="M326.593 536.0424 L326.593 546.7852" clip-path="url(#clipPath2)"/>
      <path d="M326.593 554.7852 L331.593 542.7852 L326.593 545.7852 L321.593 542.7852 Z" clip-path="url(#clipPath2)" stroke="none"/>
      <path fill="none" d="M311.593 562.2852 L261.369 562.2852" clip-path="url(#clipPath2)"/>
      <path d="M253.369 562.2852 L265.369 567.2852 L262.369 562.2852 L265.369 557.2852 Z" clip-path="url(#clipPath2)" stroke="none"/>
      <path fill="none" d="M341.593 562.2852 L399.6535 562.2852 L409.2965 560.9978 L418.2256 557.1356 L475.519 522.7166" clip-path="url(#clipPath2)"/>
      <path d="M482.3766 518.5969 L469.5153 520.4905 L474.6618 523.2316 L474.665 529.0626 Z" clip-path="url(#clipPath2)" stroke="none"/>
      <path fill="none" d="M333.8434 554.7852 L339.5919 548.8387 L346.4033 544.3789 L355.3405 542.8923 L399.6535 542.8923 L407.1535 541.7754 L409.0285 540.3793 L409.6535 538.4248 L409.6535 533.9574" clip-path="url(#clipPath2)"/>
      <path d="M409.6535 525.9574 L404.6535 537.9574 L409.6535 534.9574 L414.6535 537.9574 Z" clip-path="url(#clipPath2)" stroke="none"/>
      <path fill="none" d="M563.2953 562.2002 L505.2348 562.2002 L495.5899 560.9159 L486.6552 557.063 L429.3866 522.7728" clip-path="url(#clipPath2)"/>
      <path d="M422.5229 518.6631 L430.2499 529.1175 L430.2446 523.2865 L435.3871 520.5379 Z" clip-path="url(#clipPath2)" stroke="none"/>
      <path fill="none" d="M409.6535 495.9574 L409.6535 489.6285 L409.0285 486.8596 L407.1535 484.8818 L404.0285 483.6952 L399.6535 483.2996 L349.593 483.2996" clip-path="url(#clipPath2)"/>
      <path d="M341.593 483.2996 L353.593 488.2996 L350.593 483.2996 L353.593 478.2996 Z" clip-path="url(#clipPath2)" stroke="none"/>
      <path fill="none" d="M422.9366 503.9889 L486.3794 470.706 L495.5209 467.2217 L505.2348 466.0603 L551.8429 466.0603 L560.2277 466.9828 L565.3822 469.7505 L568.9214 473.4408" clip-path="url(#clipPath2)"/>
      <path d="M574.4589 479.2146 L569.7613 467.093 L568.2292 472.7191 L562.5441 474.0149 Z" clip-path="url(#clipPath2)" stroke="none"/>
    </g>
  </g>
</svg>
