<?xml version="1.0" encoding="UTF-8"?><svg xmlns="http://www.w3.org/2000/svg" xmlns:xlink="http://www.w3.org/1999/xlink" fill-opacity="1" color-rendering="auto" color-interpolation="auto" text-rendering="auto" stroke="black" stroke-linecap="square" width="568" stroke-miterlimit="10" shape-rendering="auto" stroke-opacity="1" fill="black" stroke-dasharray="none" font-weight="normal" stroke-width="1" height="217" font-family="'Dialog'" font-style="normal" stroke-linejoin="miter" font-size="12px" stroke-dashoffset="0" image-rendering="auto">
  <!--Generated by ySVG 2.5-->
  <defs id="genericDefs"/>
  <g>
    <defs id="defs1">
      <clipPath clipPathUnits="userSpaceOnUse" id="clipPath1">
        <path d="M0 0 L568 0 L568 217 L0 217 L0 0 Z"/>
      </clipPath>
      <clipPath clipPathUnits="userSpaceOnUse" id="clipPath2">
        <path d="M492 703 L1060 703 L1060 920 L492 920 L492 703 Z"/>
      </clipPath>
    </defs>
    <g fill="white" text-rendering="geometricPrecision" shape-rendering="geometricPrecision" transform="translate(-492,-703)" stroke="white">
      <rect x="492" width="568" height="217" y="703" clip-path="url(#clipPath2)" stroke="none"/>
    </g>
    <g fill="rgb(237,221,252)" text-rendering="geometricPrecision" shape-rendering="geometricPrecision" transform="matrix(1,0,0,1,-492,-703)" stroke="rgb(237,221,252)">
      <rect x="497.3363" y="772.0093" clip-path="url(#clipPath2)" width="109.2" rx="4" ry="4" height="142.8" stroke="none"/>
    </g>
    <g text-rendering="geometricPrecision" stroke-miterlimit="1.45" shape-rendering="geometricPrecision" transform="matrix(1,0,0,1,-492,-703)" stroke-linecap="butt">
      <rect x="497.3363" y="772.0093" clip-path="url(#clipPath2)" fill="none" width="109.2" rx="4" ry="4" height="142.8"/>
      <text x="515.4464" xml:space="preserve" y="841.0766" clip-path="url(#clipPath2)" font-family="'Fira Sans'" stroke="none">Design-space</text>
      <text x="520.4596" xml:space="preserve" y="852.6263" clip-path="url(#clipPath2)" font-family="'Fira Sans'" stroke="none">exploration</text>
    </g>
    <g fill="rgb(222,251,251)" text-rendering="geometricPrecision" shape-rendering="geometricPrecision" transform="matrix(1,0,0,1,-492,-703)" stroke="rgb(222,251,251)">
      <rect x="945.0498" y="772.0093" clip-path="url(#clipPath2)" width="109.2" rx="4" ry="4" height="142.8" stroke="none"/>
    </g>
    <g text-rendering="geometricPrecision" stroke-miterlimit="1.45" shape-rendering="geometricPrecision" transform="matrix(1,0,0,1,-492,-703)" stroke-linecap="butt">
      <rect x="945.0498" y="772.0093" clip-path="url(#clipPath2)" fill="none" width="109.2" rx="4" ry="4" height="142.8"/>
      <text x="971.5493" xml:space="preserve" y="841.0766" clip-path="url(#clipPath2)" font-family="'Fira Sans'" stroke="none">Stochastic</text>
      <text x="977.6119" xml:space="preserve" y="852.6263" clip-path="url(#clipPath2)" font-family="'Fira Sans'" stroke="none">analysis</text>
    </g>
    <g fill="rgb(251,223,197)" text-rendering="geometricPrecision" shape-rendering="geometricPrecision" transform="matrix(1,0,0,1,-492,-703)" stroke="rgb(251,223,197)">
      <rect x="721.1931" y="772.0093" clip-path="url(#clipPath2)" width="109.2" rx="4" ry="4" height="142.8" stroke="none"/>
    </g>
    <g text-rendering="geometricPrecision" stroke-miterlimit="1.45" stroke-width="2" shape-rendering="geometricPrecision" transform="matrix(1,0,0,1,-492,-703)" stroke-linecap="butt">
      <rect x="721.1931" y="772.0093" clip-path="url(#clipPath2)" fill="none" width="109.2" rx="4" ry="4" height="142.8"/>
      <text x="742.7452" y="840.8607" clip-path="url(#clipPath2)" font-family="'Fira Sans'" stroke="none" font-weight="bold" stroke-width="1" xml:space="preserve">Incremental</text>
      <text x="744.5203" y="852.6263" clip-path="url(#clipPath2)" font-family="'Fira Sans'" stroke="none" font-weight="bold" stroke-width="1" xml:space="preserve">view model</text>
    </g>
    <g fill="rgb(255,170,127)" text-rendering="geometricPrecision" shape-rendering="geometricPrecision" transform="matrix(1,0,0,1,-492,-703)" stroke="rgb(255,170,127)">
      <rect x="729.1931" width="93.2" height="41.2" y="779.9421" clip-path="url(#clipPath2)" stroke="none"/>
    </g>
    <g text-rendering="geometricPrecision" stroke-miterlimit="1.45" stroke-width="2" shape-rendering="geometricPrecision" transform="matrix(1,0,0,1,-492,-703)" stroke-linecap="butt">
      <rect fill="none" x="729.1931" width="93.2" height="41.2" y="779.9421" clip-path="url(#clipPath2)"/>
      <text x="753.1375" y="797.9935" clip-path="url(#clipPath2)" font-family="'Fira Sans'" stroke="none" font-weight="bold" stroke-width="1" xml:space="preserve">Analysis</text>
      <text x="758.5226" y="809.7591" clip-path="url(#clipPath2)" font-family="'Fira Sans'" stroke="none" font-weight="bold" stroke-width="1" xml:space="preserve">model</text>
    </g>
    <g fill="rgb(255,170,127)" text-rendering="geometricPrecision" shape-rendering="geometricPrecision" transform="matrix(1,0,0,1,-492,-703)" stroke="rgb(255,170,127)">
      <rect x="729.1931" width="93.2" height="41.2" y="864.2987" clip-path="url(#clipPath2)" stroke="none"/>
    </g>
    <g text-rendering="geometricPrecision" stroke-miterlimit="1.45" shape-rendering="geometricPrecision" transform="matrix(1,0,0,1,-492,-703)" stroke-linecap="butt">
      <rect fill="none" x="729.1931" width="93.2" height="41.2" y="864.2987" clip-path="url(#clipPath2)"/>
      <text x="753.5813" xml:space="preserve" y="882.566" clip-path="url(#clipPath2)" font-family="'Fira Sans'" stroke="none">Analysis</text>
      <text x="757.1673" xml:space="preserve" y="894.1156" clip-path="url(#clipPath2)" font-family="'Fira Sans'" stroke="none">results</text>
    </g>
    <g fill="rgb(229,203,255)" text-rendering="geometricPrecision" shape-rendering="geometricPrecision" transform="matrix(1,0,0,1,-492,-703)" stroke="rgb(229,203,255)">
      <rect x="559.1861" width="93.2" height="41.2" y="779.9421" clip-path="url(#clipPath2)" stroke="none"/>
    </g>
    <g text-rendering="geometricPrecision" stroke-miterlimit="1.45" shape-rendering="geometricPrecision" transform="matrix(1,0,0,1,-492,-703)" stroke-linecap="butt">
      <rect fill="none" x="559.1861" width="93.2" height="41.2" y="779.9421" clip-path="url(#clipPath2)"/>
      <text x="573.5059" xml:space="preserve" y="798.2094" clip-path="url(#clipPath2)" font-family="'Fira Sans'" stroke="none">Engineering</text>
      <text x="588.5037" xml:space="preserve" y="809.7591" clip-path="url(#clipPath2)" font-family="'Fira Sans'" stroke="none">model</text>
    </g>
    <g fill="rgb(229,203,255)" text-rendering="geometricPrecision" shape-rendering="geometricPrecision" transform="matrix(1,0,0,1,-492,-703)" stroke="rgb(229,203,255)">
      <rect x="559.1861" width="93.2" height="41.2" y="864.2987" clip-path="url(#clipPath2)" stroke="none"/>
    </g>
    <g text-rendering="geometricPrecision" stroke-miterlimit="1.45" shape-rendering="geometricPrecision" transform="matrix(1,0,0,1,-492,-703)" stroke-linecap="butt">
      <rect fill="none" x="559.1861" width="93.2" height="41.2" y="864.2987" clip-path="url(#clipPath2)"/>
      <text x="578.729" xml:space="preserve" y="882.566" clip-path="url(#clipPath2)" font-family="'Fira Sans'" stroke="none">Goals and</text>
      <text x="575.191" xml:space="preserve" y="894.1156" clip-path="url(#clipPath2)" font-family="'Fira Sans'" stroke="none">constraints</text>
    </g>
    <g fill="rgb(193,254,254)" text-rendering="geometricPrecision" shape-rendering="geometricPrecision" transform="matrix(1,0,0,1,-492,-703)" stroke="rgb(193,254,254)">
      <rect x="899.2" width="93.2" height="41.2" y="779.9421" clip-path="url(#clipPath2)" stroke="none"/>
    </g>
    <g text-rendering="geometricPrecision" stroke-miterlimit="1.45" shape-rendering="geometricPrecision" transform="matrix(1,0,0,1,-492,-703)" stroke-linecap="butt">
      <rect fill="none" x="899.2" width="93.2" height="41.2" y="779.9421" clip-path="url(#clipPath2)"/>
      <text x="931.3" xml:space="preserve" y="798.2094" clip-path="url(#clipPath2)" font-family="'Fira Sans'" stroke="none">Input</text>
      <text x="918.1852" xml:space="preserve" y="809.7591" clip-path="url(#clipPath2)" font-family="'Fira Sans'" stroke="none">formalism</text>
    </g>
    <g fill="rgb(193,254,254)" text-rendering="geometricPrecision" shape-rendering="geometricPrecision" transform="matrix(1,0,0,1,-492,-703)" stroke="rgb(193,254,254)">
      <rect x="899.2" width="93.2" height="41.2" y="864.2987" clip-path="url(#clipPath2)" stroke="none"/>
    </g>
    <g text-rendering="geometricPrecision" stroke-miterlimit="1.45" shape-rendering="geometricPrecision" transform="matrix(1,0,0,1,-492,-703)" stroke-linecap="butt">
      <rect fill="none" x="899.2" width="93.2" height="41.2" y="864.2987" clip-path="url(#clipPath2)"/>
      <text x="926.7784" xml:space="preserve" y="882.566" clip-path="url(#clipPath2)" font-family="'Fira Sans'" stroke="none">Output</text>
      <text x="918.1852" xml:space="preserve" y="894.1156" clip-path="url(#clipPath2)" font-family="'Fira Sans'" stroke="none">formalism</text>
    </g>
    <g fill="rgb(255,170,127)" text-rendering="geometricPrecision" shape-rendering="geometricPrecision" transform="matrix(1,0,0,1,-492,-703)" stroke="rgb(255,170,127)">
      <path d="M722.121 729.3422 L732.8554 708.7421 L818.7307 708.7421 L829.4651 729.3422 L818.7307 749.9421 L732.8554 749.9421 Z" fill-rule="evenodd" clip-path="url(#clipPath2)" stroke="none"/>
    </g>
    <g text-rendering="geometricPrecision" stroke-miterlimit="1.45" stroke-width="2" shape-rendering="geometricPrecision" transform="matrix(1,0,0,1,-492,-703)" stroke-linecap="butt">
      <path fill="none" d="M722.121 729.3422 L732.8554 708.7421 L818.7307 708.7421 L829.4651 729.3422 L818.7307 749.9421 L732.8554 749.9421 Z" fill-rule="evenodd" clip-path="url(#clipPath2)"/>
      <text x="733.1445" y="726.7935" clip-path="url(#clipPath2)" font-family="'Fira Sans'" stroke="none" font-weight="bold" stroke-width="1" xml:space="preserve">Transformation</text>
      <text x="740.4785" y="738.5591" clip-path="url(#clipPath2)" font-family="'Fira Sans'" stroke="none" font-weight="bold" stroke-width="1" xml:space="preserve">specification</text>
      <path fill="none" d="M614.9869 772.0804 L614.9979 771.981 L614.9905 771.8909 L614.2997 768.8777 L613.3148 765.9287 L612.0353 763.0667 L610.4609 760.3144 L608.5913 757.6946 L606.4262 755.2302 L604.0238 752.9963 L601.4579 751.0535 L598.7512 749.402 L595.9265 748.0421 L593.0065 746.9742 L590.014 746.1987 L583.9027 745.5257 L577.7749 746.0258 L574.7617 746.7166 L571.8127 747.7015 L568.9507 748.981 L566.1984 750.5554 L563.5787 752.425 L561.1142 754.5901 L558.8803 756.9925 L556.9375 759.5584 L555.286 762.2651 L553.9261 765.0898 L552.8583 768.0099 L552.0827 771.0023 L551.4097 777.1136 L551.9099 783.2414 L552.6006 786.2546 L553.5856 789.2036 L554.8651 792.0656 L556.4395 794.8179 L558.3091 797.4376 L559.1718 798.4196" stroke-width="1" clip-path="url(#clipPath2)"/>
      <path d="M615.2786 780.0751 L619.8378 767.9008 L614.9504 771.0811 L609.8444 768.2654 Z" stroke-width="1" clip-path="url(#clipPath2)" stroke="none"/>
      <text x="511.3009" y="739.1007" clip-path="url(#clipPath2)" font-family="'Fira Sans'" stroke="none" stroke-width="1" xml:space="preserve">derive</text>
      <text x="501.2084" y="750.6503" clip-path="url(#clipPath2)" font-family="'Fira Sans'" stroke="none" stroke-width="1" xml:space="preserve">candidate</text>
      <text x="507.6309" y="762.2" clip-path="url(#clipPath2)" font-family="'Fira Sans'" stroke="none" stroke-width="1" xml:space="preserve">designs</text>
      <path fill="none" d="M652.3862 800.5421 L721.1931 800.5421" stroke-width="1" clip-path="url(#clipPath2)"/>
      <path d="M729.1931 800.5421 L717.1931 795.5421 L720.1931 800.5421 L717.1931 805.5421 Z" stroke-width="1" clip-path="url(#clipPath2)" stroke="none"/>
      <text x="659.3862" y="792.0002" clip-path="url(#clipPath2)" font-family="'Fira Sans'" stroke="none" stroke-width="1" xml:space="preserve">transform</text>
      <path fill="none" d="M729.1931 884.8987 L660.3862 884.8987" stroke-width="1" clip-path="url(#clipPath2)"/>
      <path d="M652.3862 884.8987 L664.3862 889.8987 L661.3862 884.8987 L664.3862 879.8987 Z" stroke-width="1" clip-path="url(#clipPath2)" stroke="none"/>
      <text x="666.467" y="876.7728" clip-path="url(#clipPath2)" font-family="'Fira Sans'" stroke="none" stroke-width="1" xml:space="preserve">interpret</text>
      <path fill="none" stroke-dasharray="6,2" d="M559.1627 884.8884 L535.1757 874.3541 L518.0253 863.8096 L512.0226 858.5372 L507.7351 853.265 L505.1625 847.9927 L504.305 842.7204 L505.1625 837.4481 L507.7351 832.1758 L512.0226 826.9036 L518.0253 821.6312 L535.1757 811.0867 L551.838 803.7692" stroke-width="1" clip-path="url(#clipPath2)"/>
      <path stroke-dasharray="6,2" d="M559.1627 800.5524 L546.1651 800.7996 L550.9224 804.1713 L550.1861 809.9556 Z" stroke-width="1" clip-path="url(#clipPath2)" stroke="none"/>
      <path fill="none" d="M822.3931 800.5421 L891.2 800.5421" stroke-width="1" clip-path="url(#clipPath2)"/>
      <path d="M899.2 800.5421 L887.2 795.5421 L890.2 800.5421 L887.2 805.5421 Z" stroke-width="1" clip-path="url(#clipPath2)" stroke="none"/>
      <text x="844.5823" y="792.5123" clip-path="url(#clipPath2)" font-family="'Fira Sans'" stroke="none" stroke-width="1" xml:space="preserve">export</text>
      <path fill="none" stroke-dasharray="6,2" d="M992.4 800.5421 L1016.2425 811.0867 L1033.2728 821.6312 L1039.2334 826.9036 L1043.491 832.1758 L1046.0455 837.4481 L1046.8971 842.7204 L1046.0455 847.9927 L1043.491 853.265 L1039.2334 858.5372 L1033.2728 863.8096 L1016.2425 874.3541 L999.7164 881.6629" stroke-width="1" clip-path="url(#clipPath2)"/>
      <path stroke-dasharray="6,2" d="M992.4 884.8987 L1005.397 884.6178 L1000.631 881.2584 L1001.3523 875.4723 Z" stroke-width="1" clip-path="url(#clipPath2)" stroke="none"/>
      <path fill="none" d="M899.2 884.8987 L830.3931 884.8987" stroke-width="1" clip-path="url(#clipPath2)"/>
      <path d="M822.3931 884.8987 L834.3931 889.8987 L831.3931 884.8987 L834.3931 879.8987 Z" stroke-width="1" clip-path="url(#clipPath2)" stroke="none"/>
      <text x="849.2389" y="877.7919" clip-path="url(#clipPath2)" font-family="'Fira Sans'" stroke="none" stroke-width="1" xml:space="preserve">parse</text>
    </g>
    <g text-rendering="geometricPrecision" stroke-miterlimit="1.45" shape-rendering="geometricPrecision" transform="matrix(1,0,0,1,-492,-703)" stroke-linecap="butt">
      <path fill="none" d="M774.2931 749.9221 L774.2931 759.8201 L769.5431 756.9702 L775.7931 771.9702 L782.0431 756.9702 L777.2931 759.8201 L777.2931 749.9221 Z" clip-path="url(#clipPath2)"/>
    </g>
  </g>
</svg>
