<?xml version="1.0" encoding="UTF-8"?><svg xmlns="http://www.w3.org/2000/svg" xmlns:xlink="http://www.w3.org/1999/xlink" fill-opacity="1" color-rendering="auto" color-interpolation="auto" text-rendering="auto" stroke="black" stroke-linecap="square" width="261" stroke-miterlimit="10" shape-rendering="auto" stroke-opacity="1" fill="black" stroke-dasharray="none" font-weight="normal" stroke-width="1" height="239" font-family="'Dialog'" font-style="normal" stroke-linejoin="miter" font-size="12px" stroke-dashoffset="0" image-rendering="auto">
  <!--Generated by ySVG 2.5-->
  <defs id="genericDefs"/>
  <g>
    <defs id="defs1">
      <clipPath clipPathUnits="userSpaceOnUse" id="clipPath1">
        <path d="M0 0 L261 0 L261 239 L0 239 L0 0 Z"/>
      </clipPath>
      <clipPath clipPathUnits="userSpaceOnUse" id="clipPath2">
        <path d="M501 296 L762 296 L762 535 L501 535 L501 296 Z"/>
      </clipPath>
      <clipPath clipPathUnits="userSpaceOnUse" id="clipPath3">
        <path d="M0 0 L0 28 L87 28 L87 0 Z"/>
      </clipPath>
      <clipPath clipPathUnits="userSpaceOnUse" id="clipPath4">
        <path d="M0 0 L0 28 L62 28 L62 0 Z"/>
      </clipPath>
      <clipPath clipPathUnits="userSpaceOnUse" id="clipPath5">
        <path d="M0 0 L0 28 L83 28 L83 0 Z"/>
      </clipPath>
    </defs>
    <g fill="white" text-rendering="geometricPrecision" shape-rendering="geometricPrecision" transform="translate(-501,-296)" stroke="white">
      <rect x="501" width="261" height="239" y="296" clip-path="url(#clipPath2)" stroke="none"/>
    </g>
    <g fill="white" text-rendering="geometricPrecision" shape-rendering="geometricPrecision" transform="matrix(1,0,0,1,-501,-296)" stroke="white">
      <rect x="506.8112" y="301.0608" clip-path="url(#clipPath2)" width="249.2504" rx="4" ry="4" height="228.6137" stroke="none"/>
      <rect x="506.8112" y="301.0608" clip-path="url(#clipPath2)" fill="rgb(17,212,163)" width="249.2504" height="15.5497" stroke="none"/>
    </g>
    <g text-rendering="geometricPrecision" stroke-miterlimit="1.45" shape-rendering="geometricPrecision" font-family="'Fira Sans'" transform="matrix(1,0,0,1,-501,-296)" stroke-linecap="butt">
      <text x="609.1287" xml:space="preserve" y="312.2778" clip-path="url(#clipPath2)" stroke="none">PhilMod</text>
      <rect x="506.8112" y="301.0608" clip-path="url(#clipPath2)" fill="none" width="249.2504" rx="4" ry="4" height="228.6137"/>
      <circle fill="none" r="15" clip-path="url(#clipPath2)" cx="577.4032" cy="506.5408"/>
      <text x="511.8477" xml:space="preserve" y="509.9829" clip-path="url(#clipPath2)" stroke="none">thinking</text>
      <circle fill="none" r="15" clip-path="url(#clipPath2)" cx="637.4032" cy="389.8124"/>
      <text x="656.4032" xml:space="preserve" y="393.2545" clip-path="url(#clipPath2)" stroke="none">waiting</text>
      <circle fill="none" r="15" clip-path="url(#clipPath2)" cx="637.4032" cy="465.298"/>
      <text x="656.4032" xml:space="preserve" y="468.7401" clip-path="url(#clipPath2)" stroke="none">eating</text>
      <rect fill="none" x="622.4032" width="30" height="15" y="341.0696" clip-path="url(#clipPath2)"/>
    </g>
    <g text-rendering="geometricPrecision" stroke-miterlimit="1.45" shape-rendering="geometricPrecision" font-family="'Fira Sans'" transform="matrix(1,0,0,1,-501,-296) translate(656,334)" stroke-linecap="butt">
      <text x="0" xml:space="preserve" y="10" clip-path="url(#clipPath3)" stroke="none">getHungry</text>
      <text x="55" xml:space="preserve" y="10" clip-path="url(#clipPath3)" stroke="none"> </text>
      <text x="0" xml:space="preserve" y="25" clip-path="url(#clipPath3)" stroke="none">λ</text>
      <text x="6" xml:space="preserve" y="25" clip-path="url(#clipPath3)" stroke="none"> = hungryRate</text>
      <text x="80" xml:space="preserve" y="25" clip-path="url(#clipPath3)" font-family="monospace" stroke="none"> </text>
    </g>
    <g fill="rgb(153,153,153)" text-rendering="geometricPrecision" shape-rendering="geometricPrecision" transform="matrix(1,0,0,1,-501,-296)" stroke="rgb(153,153,153)">
      <rect x="622.4032" width="30" height="8" y="423.5552" clip-path="url(#clipPath2)" stroke="none"/>
    </g>
    <g text-rendering="geometricPrecision" stroke-miterlimit="1.45" shape-rendering="geometricPrecision" transform="matrix(1,0,0,1,-501,-296)" stroke-linecap="butt">
      <rect fill="none" x="622.4032" width="30" height="8" y="423.5552" clip-path="url(#clipPath2)"/>
    </g>
    <g text-rendering="geometricPrecision" stroke-miterlimit="1.45" shape-rendering="geometricPrecision" font-family="'Fira Sans'" transform="matrix(1,0,0,1,-501,-296) translate(656,413)" stroke-linecap="butt">
      <text x="0" xml:space="preserve" y="12" clip-path="url(#clipPath4)" stroke="none">startEating</text>
      <text x="55" xml:space="preserve" y="12" clip-path="url(#clipPath4)" font-family="monospace" stroke="none"> </text>
      <text x="62" xml:space="preserve" y="12" clip-path="url(#clipPath4)" stroke="none"> </text>
      <text x="0" xml:space="preserve" y="25" clip-path="url(#clipPath4)" stroke="none">w = 1, </text>
      <text x="32" xml:space="preserve" y="25" clip-path="url(#clipPath4)" stroke="none">π</text>
      <text x="39" xml:space="preserve" y="25" clip-path="url(#clipPath4)" stroke="none"> = 1</text>
    </g>
    <g text-rendering="geometricPrecision" stroke-miterlimit="1.45" shape-rendering="geometricPrecision" transform="matrix(1,0,0,1,-501,-296)" stroke-linecap="butt">
      <rect fill="none" x="622.4032" width="30" height="15" y="499.0408" clip-path="url(#clipPath2)"/>
    </g>
    <g text-rendering="geometricPrecision" stroke-miterlimit="1.45" shape-rendering="geometricPrecision" font-family="'Fira Sans'" transform="matrix(1,0,0,1,-501,-296) translate(656,492)" stroke-linecap="butt">
      <text x="0" xml:space="preserve" y="10" clip-path="url(#clipPath5)" stroke="none">finishEating</text>
      <text x="61" xml:space="preserve" y="10" clip-path="url(#clipPath5)" stroke="none"> </text>
      <text x="0" xml:space="preserve" y="25" clip-path="url(#clipPath5)" stroke="none">λ</text>
      <text x="6" xml:space="preserve" y="25" clip-path="url(#clipPath5)" stroke="none"> = eatingRate</text>
      <text x="76" xml:space="preserve" y="25" clip-path="url(#clipPath5)" font-family="monospace" stroke="none"> </text>
    </g>
    <g stroke-linecap="butt" transform="matrix(1,0,0,1,-501,-296)" fill="rgb(64,64,64)" text-rendering="geometricPrecision" shape-rendering="geometricPrecision" stroke-dasharray="6,2" stroke="rgb(64,64,64)" stroke-miterlimit="1.45">
      <circle fill="none" r="15" clip-path="url(#clipPath2)" cx="736.068" cy="436.0126"/>
      <circle clip-path="url(#clipPath2)" fill="none" r="15" stroke-dasharray="none" cx="597.4032" cy="435.9275" stroke="black"/>
      <path fill="none" stroke-dasharray="none" d="M547.4032 336.2592 L562.4032 366.2592 L532.4032 366.2592 Z" clip-path="url(#clipPath2)" fill-rule="evenodd" stroke="black"/>
    </g>
    <g text-rendering="geometricPrecision" stroke-miterlimit="1.45" shape-rendering="geometricPrecision" font-family="'Fira Sans'" transform="matrix(1,0,0,1,-501,-296)" stroke-linecap="butt">
      <text x="510.9649" xml:space="preserve" y="329.9265" clip-path="url(#clipPath2)" stroke="none">thinkingTime = #thinking</text>
    </g>
    <g stroke-linecap="butt" transform="matrix(1,0,0,1,-501,-296)" fill="rgb(64,64,64)" text-rendering="geometricPrecision" shape-rendering="geometricPrecision" stroke-dasharray="6,2" stroke="rgb(64,64,64)" stroke-miterlimit="1.45">
      <path fill="none" d="M547.4032 396.2467 L562.4032 426.2467 L532.4032 426.2467 Z" fill-rule="evenodd" clip-path="url(#clipPath2)"/>
      <text x="509.8112" y="389.86" clip-path="url(#clipPath2)" font-family="'Fira Sans'" font-style="italic" stroke-dasharray="none" stroke="none" xml:space="preserve">hungryRate</text>
      <path fill="none" d="M547.4032 456.2342 L562.4032 486.2342 L532.4032 486.2342 Z" clip-path="url(#clipPath2)" fill-rule="evenodd"/>
      <text x="512.6282" y="449.8475" clip-path="url(#clipPath2)" font-family="'Fira Sans'" font-style="italic" stroke-dasharray="none" stroke="none" xml:space="preserve">eatingRate</text>
    </g>
    <g text-rendering="geometricPrecision" shape-rendering="geometricPrecision" transform="matrix(1,0,0,1,-501,-296)">
      <circle r="5" clip-path="url(#clipPath2)" cx="577.4032" cy="506.5408" stroke="none"/>
      <circle r="5" clip-path="url(#clipPath2)" cx="597.4032" cy="436.0126" stroke="none"/>
      <path fill="none" stroke-miterlimit="1.45" d="M577.4032 491.5408 L577.4032 358.5696 L578.0282 354.1946 L579.9032 351.0696 L583.0282 349.1946 L587.4032 348.5696 L614.4032 348.5696" clip-path="url(#clipPath2)" stroke-linecap="butt"/>
      <path stroke-miterlimit="1.45" d="M622.4032 348.5696 L610.4032 343.5696 L613.4032 348.5696 L610.4032 353.5696 Z" clip-path="url(#clipPath2)" stroke-linecap="butt" stroke="none"/>
      <path fill="none" stroke-miterlimit="1.45" d="M637.4032 356.0696 L637.4032 366.8124" clip-path="url(#clipPath2)" stroke-linecap="butt"/>
      <path stroke-miterlimit="1.45" d="M637.4032 374.8124 L642.4032 362.8124 L637.4032 365.8124 L632.4032 362.8124 Z" clip-path="url(#clipPath2)" stroke-linecap="butt" stroke="none"/>
      <path fill="none" stroke-miterlimit="1.45" d="M637.4032 404.8124 L637.4032 415.5552" clip-path="url(#clipPath2)" stroke-linecap="butt"/>
      <path stroke-miterlimit="1.45" d="M637.4032 423.5552 L642.4032 411.5552 L637.4032 414.5552 L632.4032 411.5552 Z" clip-path="url(#clipPath2)" stroke-linecap="butt" stroke="none"/>
      <path fill="none" stroke-miterlimit="1.45" d="M637.4032 431.5552 L637.4032 442.298" clip-path="url(#clipPath2)" stroke-linecap="butt"/>
      <path stroke-miterlimit="1.45" d="M637.4032 450.298 L642.4032 438.298 L637.4032 441.298 L632.4032 438.298 Z" clip-path="url(#clipPath2)" stroke-linecap="butt" stroke="none"/>
      <path fill="none" stroke-miterlimit="1.45" d="M637.4032 480.298 L637.4032 491.0408" clip-path="url(#clipPath2)" stroke-linecap="butt"/>
      <path stroke-miterlimit="1.45" d="M637.4032 499.0408 L642.4032 487.0408 L637.4032 490.0408 L632.4032 487.0408 Z" clip-path="url(#clipPath2)" stroke-linecap="butt" stroke="none"/>
      <path fill="none" stroke-miterlimit="1.45" d="M622.4032 506.5408 L600.4032 506.5408" clip-path="url(#clipPath2)" stroke-linecap="butt"/>
      <path stroke-miterlimit="1.45" d="M592.4032 506.5408 L604.4032 511.5408 L601.4032 506.5408 L604.4032 501.5408 Z" clip-path="url(#clipPath2)" stroke-linecap="butt" stroke="none"/>
      <path fill="none" stroke-miterlimit="1.45" d="M642.7029 499.0408 L646.649 493.4564 L649.0005 491.0132 L652.1086 489.2681 L660.5952 487.872 L726.068 487.872 L730.443 487.247 L733.568 485.372 L735.443 482.247 L736.068 477.872 L736.068 459.0125" clip-path="url(#clipPath2)" stroke-linecap="butt"/>
      <path stroke-miterlimit="1.45" d="M736.068 451.0125 L731.068 463.0125 L736.068 460.0125 L741.068 463.0125 Z" clip-path="url(#clipPath2)" stroke-linecap="butt" stroke="none"/>
    </g>
    <g stroke-linecap="butt" transform="matrix(1,0,0,1,-501,-296)" fill="white" text-rendering="geometricPrecision" shape-rendering="geometricPrecision" stroke="white" stroke-miterlimit="1.45">
      <rect x="696.8237" width="51.9525" height="13.5856" y="468.6872" clip-path="url(#clipPath2)" stroke="none"/>
    </g>
    <g stroke-linecap="butt" transform="matrix(1,0,0,1,-501,-296)" fill="rgb(64,64,64)" text-rendering="geometricPrecision" font-family="'Fira Sans'" shape-rendering="geometricPrecision" font-style="italic" stroke="rgb(64,64,64)" stroke-miterlimit="1.45">
      <text x="697.8237" xml:space="preserve" y="478.8861" clip-path="url(#clipPath2)" stroke="none">rightFork</text>
    </g>
    <g text-rendering="geometricPrecision" stroke-miterlimit="1.45" shape-rendering="geometricPrecision" transform="matrix(1,0,0,1,-501,-296)" stroke-linecap="butt">
      <path fill="none" d="M736.068 421.0125 L736.068 412.3956 L735.443 408.6257 L733.568 405.9329 L730.443 404.3172 L726.068 403.7787 L666.4384 403.7787 L657.5843 405.4701 L654.0166 407.5844 L651.0219 410.5443 L645.6053 417.31" clip-path="url(#clipPath2)"/>
      <path d="M640.6055 423.5552 L652.0085 417.3123 L646.2303 416.5294 L644.202 411.0626 Z" clip-path="url(#clipPath2)" stroke="none"/>
      <path fill="none" d="M632.3058 499.0408 L628.6122 493.6063 L626.3713 491.2287 L623.342 489.5305 L614.9186 488.1718 L607.4032 488.1718 L603.0282 487.5468 L599.9032 485.6718 L598.0282 482.5468 L597.4032 478.1718 L597.4032 458.9275" clip-path="url(#clipPath2)"/>
      <path d="M597.4032 450.9275 L592.4032 462.9275 L597.4032 459.9275 L602.4032 462.9275 Z" clip-path="url(#clipPath2)" stroke="none"/>
      <rect x="579.0116" y="471.2652" clip-path="url(#clipPath2)" fill="white" width="44.1208" height="13.5497" stroke="none"/>
      <text x="580.0116" xml:space="preserve" y="481.4821" clip-path="url(#clipPath2)" font-family="'Fira Sans'" stroke="none">leftFork</text>
      <path fill="none" d="M597.4032 420.9275 L597.4032 412.1988 L598.0282 408.38 L599.9032 405.6523 L603.0282 404.0157 L607.4032 403.4702 L607.8619 403.4702 L616.7689 405.2042 L620.4025 407.3718 L623.4897 410.4065 L629.1174 417.3428" clip-path="url(#clipPath2)"/>
      <path d="M634.1578 423.5552 L630.48 411.0863 L628.4874 416.5662 L622.7145 417.3868 Z" clip-path="url(#clipPath2)" stroke="none"/>
    </g>
  </g>
</svg>
