<?xml version="1.0" encoding="UTF-8"?><svg xmlns="http://www.w3.org/2000/svg" xmlns:xlink="http://www.w3.org/1999/xlink" fill-opacity="1" color-rendering="auto" color-interpolation="auto" text-rendering="auto" stroke="black" stroke-linecap="square" width="183" stroke-miterlimit="10" shape-rendering="auto" stroke-opacity="1" fill="black" stroke-dasharray="none" font-weight="normal" stroke-width="1" height="187" font-family="'Dialog'" font-style="normal" stroke-linejoin="miter" font-size="12px" stroke-dashoffset="0" image-rendering="auto">
  <!--Generated by ySVG 2.5-->
  <defs id="genericDefs"/>
  <g>
    <defs id="defs1">
      <clipPath clipPathUnits="userSpaceOnUse" id="clipPath1">
        <path d="M0 0 L183 0 L183 187 L0 187 L0 0 Z"/>
      </clipPath>
      <clipPath clipPathUnits="userSpaceOnUse" id="clipPath2">
        <path d="M501 389 L684 389 L684 576 L501 576 L501 389 Z"/>
      </clipPath>
      <clipPath clipPathUnits="userSpaceOnUse" id="clipPath3">
        <path d="M501 414.0031 L501 576 L684 576 L684 414.0031 Z"/>
      </clipPath>
      <clipPath clipPathUnits="userSpaceOnUse" id="clipPath4">
        <path d="M501 389 L501 414.0031 L684 414.0031 L684 389 Z"/>
      </clipPath>
      <clipPath clipPathUnits="userSpaceOnUse" id="clipPath5">
        <path d="M501 537.777 L501 576 L684 576 L684 537.777 Z"/>
      </clipPath>
      <clipPath clipPathUnits="userSpaceOnUse" id="clipPath6">
        <path d="M501 389 L501 537.777 L684 537.777 L684 389 Z"/>
      </clipPath>
    </defs>
    <g fill="white" text-rendering="geometricPrecision" shape-rendering="geometricPrecision" transform="translate(-501,-389)" stroke="white">
      <rect x="501" width="183" height="187" y="389" clip-path="url(#clipPath2)" stroke="none"/>
    </g>
    <g fill="rgb(255,170,127)" text-rendering="geometricPrecision" shape-rendering="geometricPrecision" transform="matrix(1,0,0,1,-501,-389)" stroke="rgb(255,170,127)">
      <rect x="563.9167" y="467.6737" clip-path="url(#clipPath2)" width="58.6938" rx="4" ry="4" height="30" stroke="none"/>
    </g>
    <g text-rendering="geometricPrecision" stroke-miterlimit="1.45" shape-rendering="geometricPrecision" transform="matrix(1,0,0,1,-501,-389)" stroke-linecap="butt">
      <rect x="563.9167" y="467.6737" clip-path="url(#clipPath2)" fill="none" width="58.6938" rx="4" ry="4" height="30"/>
      <text x="572.1552" xml:space="preserve" y="486.1158" clip-path="url(#clipPath2)" font-family="'Fira Sans'" stroke="none">T: Table</text>
      <line y2="488.4486" fill="none" x1="572.1552" clip-path="url(#clipPath2)" x2="614.372" y1="488.4486"/>
    </g>
    <g fill="white" text-rendering="geometricPrecision" shape-rendering="geometricPrecision" transform="matrix(1,0,0,1,-501,-389)" stroke="white">
      <rect x="541.6262" y="394.4535" clip-path="url(#clipPath3)" width="103.2747" rx="4" ry="4" height="52.6667" stroke="none"/>
      <rect x="541.6262" y="394.4535" clip-path="url(#clipPath4)" fill="rgb(17,212,163)" width="103.2747" rx="4" ry="4" height="52.6667" stroke="none"/>
    </g>
    <g text-rendering="geometricPrecision" stroke-miterlimit="1.45" shape-rendering="geometricPrecision" transform="matrix(1,0,0,1,-501,-389)" stroke-linecap="butt">
      <rect x="541.6262" y="394.4535" clip-path="url(#clipPath2)" fill="none" width="103.2747" rx="4" ry="4" height="52.6667"/>
      <line y2="414.0031" fill="none" x1="541.6262" clip-path="url(#clipPath2)" x2="644.9009" y1="414.0031"/>
      <text x="551.2147" xml:space="preserve" y="407.6704" clip-path="url(#clipPath2)" font-family="'Fira Sans'" stroke="none">P1: Philosopher</text>
      <line y2="410.0031" fill="none" x1="551.2147" clip-path="url(#clipPath2)" x2="635.3125" y1="410.0031"/>
      <text x="545.6262" xml:space="preserve" y="427.2201" clip-path="url(#clipPath2)" font-family="'Fira Sans'" stroke="none">eatingRate = 3</text>
      <text x="545.6262" xml:space="preserve" y="438.7697" clip-path="url(#clipPath2)" font-family="'Fira Sans'" stroke="none">hungryRate = 0.5</text>
    </g>
    <g fill="white" text-rendering="geometricPrecision" shape-rendering="geometricPrecision" transform="matrix(1,0,0,1,-501,-389)" stroke="white">
      <rect x="541.6262" y="518.2273" clip-path="url(#clipPath5)" width="103.2747" rx="4" ry="4" height="52.6667" stroke="none"/>
      <rect x="541.6262" y="518.2273" clip-path="url(#clipPath6)" fill="rgb(17,212,163)" width="103.2747" rx="4" ry="4" height="52.6667" stroke="none"/>
    </g>
    <g text-rendering="geometricPrecision" stroke-miterlimit="1.45" shape-rendering="geometricPrecision" transform="matrix(1,0,0,1,-501,-389)" stroke-linecap="butt">
      <rect x="541.6262" y="518.2273" clip-path="url(#clipPath2)" fill="none" width="103.2747" rx="4" ry="4" height="52.6667"/>
      <line y2="537.777" fill="none" x1="541.6262" clip-path="url(#clipPath2)" x2="644.9009" y1="537.777"/>
      <text x="550.8429" xml:space="preserve" y="531.4443" clip-path="url(#clipPath2)" font-family="'Fira Sans'" stroke="none">P2: Philosopher</text>
      <line y2="533.777" fill="none" x1="550.8429" clip-path="url(#clipPath2)" x2="635.6843" y1="533.777"/>
      <text x="545.6262" xml:space="preserve" y="550.9939" clip-path="url(#clipPath2)" font-family="'Fira Sans'" stroke="none">eatingRate = 2.8</text>
      <text x="545.6262" xml:space="preserve" y="562.5436" clip-path="url(#clipPath2)" font-family="'Fira Sans'" stroke="none">hungryRate = 0.45</text>
    </g>
    <g text-rendering="geometricPrecision" stroke-miterlimit="1.45" shape-rendering="geometricPrecision" transform="matrix(1,0,0,1,-501,-389)" stroke-linecap="butt">
      <path fill="none" d="M593.2636 460.6999 L593.2636 447.0889" clip-path="url(#clipPath2)"/>
      <path d="M593.2636 467.6999 L588.2636 460.6999 L593.2636 453.6999 L598.2636 460.6999 Z" clip-path="url(#clipPath2)" stroke="none"/>
      <path fill="none" d="M593.2636 504.6922 L593.2636 518.2429" clip-path="url(#clipPath2)"/>
      <path d="M593.2636 497.6922 L598.2636 504.6922 L593.2636 511.6922 L588.2636 504.6922 Z" clip-path="url(#clipPath2)" stroke="none"/>
      <path fill="none" d="M652.8795 420.7868 L664.0668 420.7868 L664.0668 549.997 L652.856 549.1362" clip-path="url(#clipPath2)"/>
      <path d="M644.8795 420.7868 L656.8795 425.7868 L653.8795 420.7868 L656.8795 415.7868 Z" clip-path="url(#clipPath2)" stroke="none"/>
      <path d="M644.8795 548.5237 L656.4614 554.4278 L653.853 549.2128 L657.2271 544.4572 Z" clip-path="url(#clipPath2)" stroke="none"/>
      <rect x="649.2639" y="429.188" clip-path="url(#clipPath2)" fill="white" width="29.6059" height="15.5497" stroke="none"/>
      <text x="651.2639" xml:space="preserve" y="440.4049" clip-path="url(#clipPath2)" font-family="'Fira Sans'" stroke="none">right</text>
      <rect x="652.8379" y="521.6491" clip-path="url(#clipPath2)" fill="white" width="22.4579" height="15.5497" stroke="none"/>
      <text x="654.8379" xml:space="preserve" y="532.866" clip-path="url(#clipPath2)" font-family="'Fira Sans'" stroke="none">left</text>
      <path fill="none" d="M533.6085 420.7868 L521.3469 420.7868 L521.3469 544.5607 L533.6085 544.5607" clip-path="url(#clipPath2)"/>
      <path d="M541.6085 420.7868 L529.6085 415.7868 L532.6085 420.7868 L529.6085 425.7868 Z" clip-path="url(#clipPath2)" stroke="none"/>
      <path d="M541.6085 544.5607 L529.6085 539.5607 L532.6085 544.5607 L529.6085 549.5607 Z" clip-path="url(#clipPath2)" stroke="none"/>
      <rect x="510.1179" y="428.3069" clip-path="url(#clipPath2)" fill="white" width="22.4579" height="15.5497" stroke="none"/>
      <text x="512.1179" xml:space="preserve" y="439.5238" clip-path="url(#clipPath2)" font-family="'Fira Sans'" stroke="none">left</text>
      <rect x="506.5439" y="519.716" clip-path="url(#clipPath2)" fill="white" width="29.6059" height="15.5497" stroke="none"/>
      <text x="508.5439" xml:space="preserve" y="530.9329" clip-path="url(#clipPath2)" font-family="'Fira Sans'" stroke="none">right</text>
    </g>
  </g>
</svg>
