<?xml version="1.0" encoding="UTF-8"?><svg xmlns="http://www.w3.org/2000/svg" xmlns:xlink="http://www.w3.org/1999/xlink" fill-opacity="1" color-rendering="auto" color-interpolation="auto" text-rendering="auto" stroke="black" stroke-linecap="square" width="181" stroke-miterlimit="10" shape-rendering="auto" stroke-opacity="1" fill="black" stroke-dasharray="none" font-weight="normal" stroke-width="1" height="169" font-family="'Dialog'" font-style="normal" stroke-linejoin="miter" font-size="12px" stroke-dashoffset="0" image-rendering="auto">
  <!--Generated by ySVG 2.5-->
  <defs id="genericDefs"/>
  <g>
    <defs id="defs1">
      <clipPath clipPathUnits="userSpaceOnUse" id="clipPath1">
        <path d="M0 0 L181 0 L181 169 L0 169 L0 0 Z"/>
      </clipPath>
      <clipPath clipPathUnits="userSpaceOnUse" id="clipPath2">
        <path d="M329 249 L510 249 L510 418 L329 418 L329 249 Z"/>
      </clipPath>
      <clipPath clipPathUnits="userSpaceOnUse" id="clipPath3">
        <path d="M329 379.5453 L329 418 L510 418 L510 379.5453 Z"/>
      </clipPath>
      <clipPath clipPathUnits="userSpaceOnUse" id="clipPath4">
        <path d="M329 249 L329 379.5453 L510 379.5453 L510 249 Z"/>
      </clipPath>
      <clipPath clipPathUnits="userSpaceOnUse" id="clipPath5">
        <path d="M329 274.545 L329 418 L510 418 L510 274.545 Z"/>
      </clipPath>
      <clipPath clipPathUnits="userSpaceOnUse" id="clipPath6">
        <path d="M329 249 L329 274.545 L510 274.545 L510 249 Z"/>
      </clipPath>
    </defs>
    <g fill="white" text-rendering="geometricPrecision" shape-rendering="geometricPrecision" transform="translate(-329,-249)" stroke="white">
      <rect x="329" width="181" height="169" y="249" clip-path="url(#clipPath2)" stroke="none"/>
    </g>
    <g fill="white" text-rendering="geometricPrecision" shape-rendering="geometricPrecision" transform="matrix(1,0,0,1,-329,-249)" stroke="white">
      <rect x="334.1889" y="359.9956" clip-path="url(#clipPath3)" width="117.8667" rx="4" ry="4" height="52.6667" stroke="none"/>
      <rect x="334.1889" y="359.9956" clip-path="url(#clipPath4)" fill="rgb(17,212,163)" width="117.8667" rx="4" ry="4" height="52.6667" stroke="none"/>
    </g>
    <g text-rendering="geometricPrecision" stroke-miterlimit="1.45" shape-rendering="geometricPrecision" transform="matrix(1,0,0,1,-329,-249)" stroke-linecap="butt">
      <rect x="334.1889" y="359.9956" clip-path="url(#clipPath2)" fill="none" width="117.8667" rx="4" ry="4" height="52.6667"/>
      <line y2="379.5453" fill="none" x1="334.1889" clip-path="url(#clipPath2)" x2="452.0556" y1="379.5453"/>
      <text x="360.1823" xml:space="preserve" y="373.2125" clip-path="url(#clipPath2)" font-family="'Fira Sans'" stroke="none">Philosopher</text>
      <text x="338.1889" xml:space="preserve" y="392.7622" clip-path="url(#clipPath2)" font-family="'Fira Sans'" stroke="none">eatingRate: double</text>
      <text x="338.1889" xml:space="preserve" y="404.3118" clip-path="url(#clipPath2)" font-family="'Fira Sans'" stroke="none">hungryRate: double</text>
    </g>
    <g fill="white" text-rendering="geometricPrecision" shape-rendering="geometricPrecision" transform="matrix(1,0,0,1,-329,-249)" stroke="white">
      <rect x="360.8556" y="254.9953" clip-path="url(#clipPath5)" width="64.5333" rx="4" ry="4" height="35.1667" stroke="none"/>
      <rect x="360.8556" y="254.9953" clip-path="url(#clipPath6)" fill="rgb(255,170,127)" width="64.5333" rx="4" ry="4" height="35.1667" stroke="none"/>
    </g>
    <g text-rendering="geometricPrecision" stroke-miterlimit="1.45" shape-rendering="geometricPrecision" transform="matrix(1,0,0,1,-329,-249)" stroke-linecap="butt">
      <rect x="360.8556" y="254.9953" clip-path="url(#clipPath2)" fill="none" width="64.5333" rx="4" ry="4" height="35.1667"/>
      <line y2="274.545" fill="none" x1="360.8556" clip-path="url(#clipPath2)" x2="425.3889" y1="274.545"/>
      <text x="378.1425" xml:space="preserve" y="268.2123" clip-path="url(#clipPath2)" font-family="'Fira Sans'" stroke="none">Table</text>
    </g>
    <g text-rendering="geometricPrecision" stroke-miterlimit="1.45" shape-rendering="geometricPrecision" transform="matrix(1,0,0,1,-329,-249)" stroke-linecap="butt">
      <path fill="none" d="M459.7412 404.2914 L459.8394 404.2723 L460.3936 404.0872 L463.4945 402.7106 L466.4502 401.0448 L469.2382 399.1012 L471.836 396.8909 L474.2212 394.4252 L476.3712 391.7156 L478.2637 388.7731 L479.8762 385.6092 L481.1862 382.2351 L482.1497 378.7462 L482.7451 375.2453 L482.9835 371.7549 L482.8764 368.2975 L482.435 364.8955 L481.6706 361.5714 L480.5944 358.3477 L479.2178 355.2468 L477.552 352.291 L475.6083 349.5031 L473.398 346.9053 L470.9324 344.5201 L468.2227 342.3701 L465.2803 340.4776 L462.1163 338.8651 L458.7422 337.555 L455.2533 336.5916 L451.7524 335.9962 L448.2621 335.7578 L444.8047 335.8649 L441.4027 336.3063 L438.0786 337.0707 L434.8548 338.1469 L431.7539 339.5235 L428.7982 341.1893 L426.0102 343.133 L423.4124 345.3433 L421.0273 347.8089 L418.8772 350.5186 L417.4584 352.7246 L417.4175 352.8159" clip-path="url(#clipPath2)"/>
    </g>
    <g text-rendering="geometricPrecision" stroke-miterlimit="1.45" shape-rendering="geometricPrecision" transform="matrix(1,0,0,1,-329,-249)" stroke-linecap="butt">
      <path d="M451.968 406.1825 L464.8098 408.2042 L460.7129 404.055 L462.4459 398.4876 Z" stroke="none" clip-path="url(#clipPath2)"/>
      <path d="M414.0301 360.0633 L423.6409 351.3093 L417.841 351.9099 L414.5817 347.075 Z" clip-path="url(#clipPath2)" stroke="none"/>
      <rect x="423.2177" y="333.5025" clip-path="url(#clipPath2)" fill="white" width="38.553" height="15.5497" stroke="none"/>
      <text x="425.2177" xml:space="preserve" y="344.7195" clip-path="url(#clipPath2)" font-family="'Fira Sans'" stroke="none">[1] left</text>
      <rect x="458.3357" y="374.4602" clip-path="url(#clipPath2)" fill="white" width="45.7011" height="15.5497" stroke="none"/>
      <text x="460.3357" xml:space="preserve" y="385.6772" clip-path="url(#clipPath2)" font-family="'Fira Sans'" stroke="none">[1] right</text>
      <path fill="none" d="M393.1223 297.1577 L393.1223 351.9852" clip-path="url(#clipPath2)"/>
      <path d="M393.1223 290.1577 L398.1223 297.1577 L393.1223 304.1577 L388.1223 297.1577 Z" clip-path="url(#clipPath2)" stroke="none"/>
      <path d="M393.1223 359.9852 L398.1223 347.9852 L393.1223 350.9852 L388.1223 347.9852 Z" clip-path="url(#clipPath2)" stroke="none"/>
      <rect x="340.9958" y="317.304" clip-path="url(#clipPath2)" fill="white" width="104.2529" height="15.5497" stroke="none"/>
      <text x="342.9958" xml:space="preserve" y="328.5209" clip-path="url(#clipPath2)" font-family="'Fira Sans'" stroke="none">[0..*] philosophers</text>
    </g>
  </g>
</svg>
