<?xml version="1.0" encoding="UTF-8"?><svg xmlns="http://www.w3.org/2000/svg" xmlns:xlink="http://www.w3.org/1999/xlink" fill-opacity="1" color-rendering="auto" color-interpolation="auto" text-rendering="auto" stroke="black" stroke-linecap="square" width="168" stroke-miterlimit="10" shape-rendering="auto" stroke-opacity="1" fill="black" stroke-dasharray="none" font-weight="normal" stroke-width="1" height="58" font-family="'Dialog'" font-style="normal" stroke-linejoin="miter" font-size="12px" stroke-dashoffset="0" image-rendering="auto">
  <!--Generated by ySVG 2.5-->
  <defs id="genericDefs"/>
  <g>
    <defs id="defs1">
      <clipPath clipPathUnits="userSpaceOnUse" id="clipPath1">
        <path d="M0 0 L168 0 L168 58 L0 58 L0 0 Z"/>
      </clipPath>
      <clipPath clipPathUnits="userSpaceOnUse" id="clipPath2">
        <path d="M493 346 L661 346 L661 404 L493 404 L493 346 Z"/>
      </clipPath>
    </defs>
    <g fill="white" text-rendering="geometricPrecision" shape-rendering="geometricPrecision" transform="translate(-493,-346)" stroke="white">
      <rect x="493" width="168" height="58" y="346" clip-path="url(#clipPath2)" stroke="none"/>
    </g>
    <g text-rendering="geometricPrecision" stroke-miterlimit="1.45" shape-rendering="geometricPrecision" transform="matrix(1,0,0,1,-493,-346)" stroke-linecap="butt">
      <path fill="none" d="M531.6279 351.1392 L546.6279 381.1392 L516.6279 381.1392 Z" fill-rule="evenodd" clip-path="url(#clipPath2)"/>
      <text x="500.373" xml:space="preserve" y="394.3561" clip-path="url(#clipPath2)" font-family="'Fira Sans'" stroke="none">hungryRate</text>
    </g>
    <g fill="rgb(153,153,153)" text-rendering="geometricPrecision" shape-rendering="geometricPrecision" transform="matrix(1,0,0,1,-493,-346)" stroke="rgb(153,153,153)">
      <path d="M623.7963 351.1392 L638.7963 381.1392 L608.7963 381.1392 Z" fill-rule="evenodd" clip-path="url(#clipPath2)" stroke="none"/>
    </g>
    <g text-rendering="geometricPrecision" stroke-miterlimit="1.45" shape-rendering="geometricPrecision" transform="matrix(1,0,0,1,-493,-346)" stroke-linecap="butt">
      <path fill="none" d="M623.7963 351.1392 L638.7963 381.1392 L608.7963 381.1392 Z" fill-rule="evenodd" clip-path="url(#clipPath2)"/>
      <text x="594.3945" xml:space="preserve" y="394.3561" clip-path="url(#clipPath2)" font-family="'Fira Sans'" stroke="none">eatingRate</text>
    </g>
  </g>
</svg>
