<?xml version="1.0" encoding="UTF-8"?><svg xmlns="http://www.w3.org/2000/svg" xmlns:xlink="http://www.w3.org/1999/xlink" fill-opacity="1" color-rendering="auto" color-interpolation="auto" text-rendering="auto" stroke="black" stroke-linecap="square" width="468" stroke-miterlimit="10" shape-rendering="auto" stroke-opacity="1" fill="black" stroke-dasharray="none" font-weight="normal" stroke-width="1" height="191" font-family="'Dialog'" font-style="normal" stroke-linejoin="miter" font-size="12px" stroke-dashoffset="0" image-rendering="auto">
  <!--Generated by ySVG 2.5-->
  <defs id="genericDefs"/>
  <g>
    <defs id="defs1">
      <clipPath clipPathUnits="userSpaceOnUse" id="clipPath1">
        <path d="M0 0 L468 0 L468 191 L0 191 L0 0 Z"/>
      </clipPath>
      <clipPath clipPathUnits="userSpaceOnUse" id="clipPath2">
        <path d="M218 395 L686 395 L686 586 L218 586 L218 395 Z"/>
      </clipPath>
    </defs>
    <g fill="white" text-rendering="geometricPrecision" shape-rendering="geometricPrecision" transform="translate(-218,-395)" stroke="white">
      <rect x="218" width="468" height="191" y="395" clip-path="url(#clipPath2)" stroke="none"/>
    </g>
    <g text-rendering="geometricPrecision" stroke-miterlimit="1.45" shape-rendering="geometricPrecision" transform="matrix(1,0,0,1,-218,-395)" stroke-linecap="butt">
      <circle fill="none" r="15" clip-path="url(#clipPath2)" cx="665.8977" cy="558.7002"/>
      <text x="604.1435" xml:space="preserve" y="547.1423" clip-path="url(#clipPath2)" font-family="'Fira Sans'" stroke="none">thinking2</text>
      <circle fill="none" r="15" clip-path="url(#clipPath2)" cx="578.2953" cy="445.4718"/>
      <text x="597.2953" xml:space="preserve" y="448.9139" clip-path="url(#clipPath2)" font-family="'Fira Sans'" stroke="none">waiting2</text>
      <circle fill="none" r="15" clip-path="url(#clipPath2)" cx="578.2953" cy="520.9574"/>
      <text x="597.2953" xml:space="preserve" y="524.3995" clip-path="url(#clipPath2)" font-family="'Fira Sans'" stroke="none">eating2</text>
      <rect fill="none" x="563.2953" width="30" height="8" y="403.814" clip-path="url(#clipPath2)"/>
      <text x="497.2654" xml:space="preserve" y="411.2561" clip-path="url(#clipPath2)" font-family="'Fira Sans'" stroke="none">getHungry2</text>
      <rect fill="none" x="563.2953" width="30" height="8" y="479.2146" clip-path="url(#clipPath2)"/>
      <text x="597.2953" xml:space="preserve" y="486.6567" clip-path="url(#clipPath2)" font-family="'Fira Sans'" stroke="none">startEating2</text>
      <rect fill="none" x="563.2953" width="30" height="8" y="554.7002" clip-path="url(#clipPath2)"/>
      <text x="543.1486" xml:space="preserve" y="575.9171" clip-path="url(#clipPath2)" font-family="'Fira Sans'" stroke="none">finishEating2</text>
      <circle fill="none" r="15" clip-path="url(#clipPath2)" cx="495.2348" cy="510.8723"/>
      <text x="516.2348" xml:space="preserve" y="514.3145" clip-path="url(#clipPath2)" font-family="'Fira Sans'" stroke="none">fork2</text>
      <circle stroke-linecap="square" clip-path="url(#clipPath2)" r="5" cx="665.8977" cy="558.7002" stroke="none" stroke-miterlimit="10"/>
      <circle stroke-linecap="square" clip-path="url(#clipPath2)" r="5" cx="495.2348" cy="510.9574" stroke="none" stroke-miterlimit="10"/>
      <circle fill="none" r="15" clip-path="url(#clipPath2)" cx="238.369" cy="558.7852"/>
      <text x="249.738" xml:space="preserve" y="547.2274" clip-path="url(#clipPath2)" font-family="'Fira Sans'" stroke="none">thinking1</text>
      <circle fill="none" r="15" clip-path="url(#clipPath2)" cx="326.593" cy="445.5568"/>
      <text x="262.9176" xml:space="preserve" y="448.9989" clip-path="url(#clipPath2)" font-family="'Fira Sans'" stroke="none">waiting1</text>
      <circle fill="none" r="15" clip-path="url(#clipPath2)" cx="326.593" cy="521.0424"/>
      <text x="268.3026" xml:space="preserve" y="524.4846" clip-path="url(#clipPath2)" font-family="'Fira Sans'" stroke="none">eating1</text>
      <rect fill="none" x="311.593" width="30" height="8" y="403.814" clip-path="url(#clipPath2)"/>
      <text x="345.593" xml:space="preserve" y="411.2561" clip-path="url(#clipPath2)" font-family="'Fira Sans'" stroke="none">getHungry1</text>
      <rect fill="none" x="311.593" width="30" height="8" y="479.2996" clip-path="url(#clipPath2)"/>
      <text x="243.0685" xml:space="preserve" y="486.7417" clip-path="url(#clipPath2)" font-family="'Fira Sans'" stroke="none">startEating1</text>
      <rect fill="none" x="311.593" width="30" height="8" y="554.7852" clip-path="url(#clipPath2)"/>
      <text x="291.8181" xml:space="preserve" y="576.0021" clip-path="url(#clipPath2)" font-family="'Fira Sans'" stroke="none">finishEating1</text>
      <circle fill="none" r="15" clip-path="url(#clipPath2)" cx="409.6535" cy="510.9574"/>
      <text x="361.6683" xml:space="preserve" y="514.3995" clip-path="url(#clipPath2)" font-family="'Fira Sans'" stroke="none">fork1</text>
      <circle stroke-linecap="square" clip-path="url(#clipPath2)" r="5" cx="238.369" cy="558.7852" stroke="none" stroke-miterlimit="10"/>
      <circle stroke-linecap="square" clip-path="url(#clipPath2)" r="5" cx="409.6535" cy="511.0424" stroke="none" stroke-miterlimit="10"/>
      <path fill="none" d="M665.8977 543.7002 L665.8977 417.814 L665.2727 413.439 L663.3977 410.314 L660.2727 408.439 L655.8977 407.814 L601.2953 407.814" clip-path="url(#clipPath2)"/>
      <path d="M593.2953 407.814 L605.2953 412.814 L602.2953 407.814 L605.2953 402.814 Z" clip-path="url(#clipPath2)" stroke="none"/>
      <path fill="none" d="M578.2953 411.814 L578.2953 422.4718" clip-path="url(#clipPath2)"/>
      <path d="M578.2953 430.4718 L583.2953 418.4718 L578.2953 421.4718 L573.2953 418.4718 Z" clip-path="url(#clipPath2)" stroke="none"/>
      <path fill="none" d="M578.2953 460.4718 L578.2953 471.2146" clip-path="url(#clipPath2)"/>
      <path d="M578.2953 479.2146 L583.2953 467.2146 L578.2953 470.2146 L573.2953 467.2146 Z" clip-path="url(#clipPath2)" stroke="none"/>
      <path fill="none" d="M578.2953 487.2146 L578.2953 497.9574" clip-path="url(#clipPath2)"/>
      <path d="M578.2953 505.9574 L583.2953 493.9574 L578.2953 496.9574 L573.2953 493.9574 Z" clip-path="url(#clipPath2)" stroke="none"/>
      <path fill="none" d="M578.2953 535.9574 L578.2953 546.7002" clip-path="url(#clipPath2)"/>
      <path d="M578.2953 554.7002 L583.2953 542.7002 L578.2953 545.7002 L573.2953 542.7002 Z" clip-path="url(#clipPath2)" stroke="none"/>
      <path fill="none" d="M593.2953 558.7002 L642.8977 558.7002" clip-path="url(#clipPath2)"/>
      <path d="M650.8977 558.7002 L638.8977 553.7002 L641.8977 558.7002 L638.8977 563.7002 Z" clip-path="url(#clipPath2)" stroke="none"/>
      <path fill="none" d="M574.1544 554.7002 L567.9985 548.7537 L560.8817 544.2938 L551.8427 542.8072 L505.2348 542.8072 L497.7348 541.6903 L495.8598 540.2943 L495.2348 538.3397 L495.2348 533.8723" clip-path="url(#clipPath2)"/>
      <path d="M495.2348 525.8723 L490.2348 537.8723 L495.2348 534.8723 L500.2348 537.8723 Z" clip-path="url(#clipPath2)" stroke="none"/>
      <path fill="none" d="M495.2348 495.8723 L495.2348 489.5435 L495.8598 486.7746 L497.7348 484.7968 L500.8598 483.6101 L505.2348 483.2146 L555.2953 483.2146" clip-path="url(#clipPath2)"/>
      <path d="M563.2953 483.2146 L551.2953 478.2146 L554.2953 483.2146 L551.2953 488.2146 Z" clip-path="url(#clipPath2)" stroke="none"/>
      <path fill="none" d="M238.369 543.7852 L238.369 417.814 L238.994 413.439 L240.869 410.314 L243.994 408.439 L248.369 407.814 L303.593 407.814" clip-path="url(#clipPath2)"/>
      <path d="M311.593 407.814 L299.593 402.814 L302.593 407.814 L299.593 412.814 Z" clip-path="url(#clipPath2)" stroke="none"/>
      <path fill="none" d="M326.593 411.814 L326.593 422.5568" clip-path="url(#clipPath2)"/>
      <path d="M326.593 430.5568 L331.593 418.5568 L326.593 421.5568 L321.593 418.5568 Z" clip-path="url(#clipPath2)" stroke="none"/>
      <path fill="none" d="M326.593 460.5568 L326.593 471.2996" clip-path="url(#clipPath2)"/>
      <path d="M326.593 479.2996 L331.593 467.2996 L326.593 470.2996 L321.593 467.2996 Z" clip-path="url(#clipPath2)" stroke="none"/>
      <path fill="none" d="M481.9628 503.8827 L418.5015 470.4609 L409.3655 466.9661 L399.6535 465.8011 L360.9456 465.8011 L351.9095 466.9049 L344.8011 470.2163 L338.6566 474.6314" clip-path="url(#clipPath2)"/>
      <path d="M332.1598 479.2996 L344.8226 476.3578 L339.4687 474.0479 L338.9873 468.2368 Z" clip-path="url(#clipPath2)" stroke="none"/>
      <path fill="none" d="M326.593 487.2996 L326.593 498.0424" clip-path="url(#clipPath2)"/>
      <path d="M326.593 506.0424 L331.593 494.0424 L326.593 497.0424 L321.593 494.0424 Z" clip-path="url(#clipPath2)" stroke="none"/>
      <path fill="none" d="M326.593 536.0424 L326.593 546.7852" clip-path="url(#clipPath2)"/>
      <path d="M326.593 554.7852 L331.593 542.7852 L326.593 545.7852 L321.593 542.7852 Z" clip-path="url(#clipPath2)" stroke="none"/>
      <path fill="none" d="M311.593 558.7852 L261.369 558.7852" clip-path="url(#clipPath2)"/>
      <path d="M253.369 558.7852 L265.369 563.7852 L262.369 558.7852 L265.369 553.7852 Z" clip-path="url(#clipPath2)" stroke="none"/>
      <path fill="none" d="M341.593 558.7852 L399.6535 558.7852 L409.3349 557.564 L418.3791 553.9001 L475.1659 522.108" clip-path="url(#clipPath2)"/>
      <path d="M482.1464 518.1999 L469.2331 519.6992 L474.2933 522.5965 L474.1182 528.4248 Z" clip-path="url(#clipPath2)" stroke="none"/>
      <path fill="none" d="M331.3115 554.7852 L338.326 548.8387 L346.0868 544.3789 L355.3405 542.8923 L399.6535 542.8923 L407.1535 541.7754 L409.0285 540.3793 L409.6535 538.4248 L409.6535 533.9574" clip-path="url(#clipPath2)"/>
      <path d="M409.6535 525.9574 L404.6535 537.9574 L409.6535 534.9574 L414.6535 537.9574 Z" clip-path="url(#clipPath2)" stroke="none"/>
      <path fill="none" d="M563.2953 558.7002 L505.2348 558.7002 L495.5515 557.4822 L486.5018 553.8284 L429.7394 522.1626" clip-path="url(#clipPath2)"/>
      <path d="M422.753 518.2651 L430.7967 528.4778 L430.6127 522.6498 L435.6685 519.7448 Z" clip-path="url(#clipPath2)" stroke="none"/>
      <path fill="none" d="M409.6535 495.9574 L409.6535 489.6285 L409.0285 486.8596 L407.1535 484.8818 L404.0285 483.6952 L399.6535 483.2996 L349.593 483.2996" clip-path="url(#clipPath2)"/>
      <path d="M341.593 483.2996 L353.593 488.2996 L350.593 483.2996 L353.593 478.2996 Z" clip-path="url(#clipPath2)" stroke="none"/>
      <path fill="none" d="M422.9366 503.9889 L486.3794 470.706 L495.5209 467.2217 L505.2348 466.0603 L551.8429 466.0603 L560.2277 466.9828 L565.3822 469.7505 L568.9214 473.4408" clip-path="url(#clipPath2)"/>
      <path d="M574.4589 479.2146 L569.7613 467.093 L568.2292 472.7191 L562.5441 474.0149 Z" clip-path="url(#clipPath2)" stroke="none"/>
    </g>
  </g>
</svg>
