<?xml version="1.0" encoding="UTF-8"?><svg xmlns="http://www.w3.org/2000/svg" xmlns:xlink="http://www.w3.org/1999/xlink" fill-opacity="1" color-rendering="auto" color-interpolation="auto" text-rendering="auto" stroke="black" stroke-linecap="square" width="133" stroke-miterlimit="10" shape-rendering="auto" stroke-opacity="1" fill="black" stroke-dasharray="none" font-weight="normal" stroke-width="1" height="129" font-family="'Dialog'" font-style="normal" stroke-linejoin="miter" font-size="12px" stroke-dashoffset="0" image-rendering="auto">
  <!--Generated by ySVG 2.5-->
  <defs id="genericDefs"/>
  <g>
    <defs id="defs1">
      <clipPath clipPathUnits="userSpaceOnUse" id="clipPath1">
        <path d="M0 0 L133 0 L133 129 L0 129 L0 0 Z"/>
      </clipPath>
      <clipPath clipPathUnits="userSpaceOnUse" id="clipPath2">
        <path d="M431 278 L564 278 L564 407 L431 407 L431 278 Z"/>
      </clipPath>
    </defs>
    <g fill="white" text-rendering="geometricPrecision" shape-rendering="geometricPrecision" transform="translate(-431,-278)" stroke="white">
      <rect x="431" width="133" height="129" y="278" clip-path="url(#clipPath2)" stroke="none"/>
    </g>
    <g fill="rgb(235,235,235)" text-rendering="geometricPrecision" shape-rendering="geometricPrecision" transform="matrix(1,0,0,1,-431,-278)" stroke="rgb(235,235,235)">
      <rect x="436.397" width="95.6838" height="19.5497" y="283.0713" clip-path="url(#clipPath2)" stroke="none"/>
    </g>
    <g stroke-linecap="butt" transform="matrix(1,0,0,1,-431,-278)" fill="rgb(64,64,64)" text-rendering="geometricPrecision" font-family="'Fira Sans'" shape-rendering="geometricPrecision" stroke="rgb(64,64,64)" stroke-miterlimit="1.45">
      <text x="440.397" xml:space="preserve" y="296.2882" clip-path="url(#clipPath2)" stroke="none">qAdjacent(T,L,R)</text>
      <rect fill="none" x="436.397" width="121.6246" height="118.0906" y="283.0713" clip-path="url(#clipPath2)"/>
    </g>
    <g fill="rgb(255,170,127)" text-rendering="geometricPrecision" shape-rendering="geometricPrecision" transform="matrix(1,0,0,1,-431,-278)" stroke="rgb(255,170,127)">
      <rect x="483.5424" y="308.9009" clip-path="url(#clipPath2)" width="27.3338" rx="4" ry="4" height="30" stroke="none"/>
    </g>
    <g text-rendering="geometricPrecision" stroke-miterlimit="1.45" shape-rendering="geometricPrecision" transform="matrix(1,0,0,1,-431,-278)" stroke-linecap="butt">
      <rect x="483.5424" y="308.9009" clip-path="url(#clipPath2)" fill="none" width="27.3338" rx="4" ry="4" height="30"/>
      <text x="494.109" xml:space="preserve" y="327.343" clip-path="url(#clipPath2)" font-family="'Fira Sans'" stroke="none">T</text>
      <line y2="329.6758" fill="none" x1="494.109" clip-path="url(#clipPath2)" x2="500.3096" y1="329.6758"/>
    </g>
    <g fill="rgb(17,212,163)" text-rendering="geometricPrecision" shape-rendering="geometricPrecision" transform="matrix(1,0,0,1,-431,-278)" stroke="rgb(17,212,163)">
      <rect x="519.0682" y="361.3849" clip-path="url(#clipPath2)" width="27.3338" rx="4" ry="4" height="30" stroke="none"/>
    </g>
    <g text-rendering="geometricPrecision" stroke-miterlimit="1.45" shape-rendering="geometricPrecision" transform="matrix(1,0,0,1,-431,-278)" stroke-linecap="butt">
      <rect x="519.0682" y="361.3849" clip-path="url(#clipPath2)" fill="none" width="27.3338" rx="4" ry="4" height="30"/>
      <text x="529.1071" xml:space="preserve" y="379.827" clip-path="url(#clipPath2)" font-family="'Fira Sans'" stroke="none">R</text>
      <line y2="382.1597" fill="none" x1="529.107" clip-path="url(#clipPath2)" x2="536.363" y1="382.1597"/>
    </g>
    <g fill="rgb(17,212,163)" text-rendering="geometricPrecision" shape-rendering="geometricPrecision" transform="matrix(1,0,0,1,-431,-278)" stroke="rgb(17,212,163)">
      <rect x="450.9376" y="361.3849" clip-path="url(#clipPath2)" width="27.3338" rx="4" ry="4" height="30" stroke="none"/>
    </g>
    <g text-rendering="geometricPrecision" stroke-miterlimit="1.45" shape-rendering="geometricPrecision" transform="matrix(1,0,0,1,-431,-278)" stroke-linecap="butt">
      <rect x="450.9376" y="361.3849" clip-path="url(#clipPath2)" fill="none" width="27.3338" rx="4" ry="4" height="30"/>
      <text x="461.6181" xml:space="preserve" y="379.827" clip-path="url(#clipPath2)" font-family="'Fira Sans'" stroke="none">L</text>
      <line y2="382.1597" fill="none" x1="461.6181" clip-path="url(#clipPath2)" x2="467.5908" y1="382.1597"/>
      <path fill="none" d="M517.8437 323.9009 L532.735 323.9009 L532.735 361.3932" clip-path="url(#clipPath2)"/>
      <path d="M510.8437 323.9009 L517.8437 318.9009 L524.8437 323.9009 L517.8437 328.9009 Z" clip-path="url(#clipPath2)" stroke="none"/>
      <path fill="none" d="M476.5497 323.9009 L464.6045 323.9009 L464.6045 361.3932" clip-path="url(#clipPath2)"/>
      <path d="M483.5497 323.9009 L476.5497 328.9009 L469.5497 323.9009 L476.5497 318.9009 Z" clip-path="url(#clipPath2)" stroke="none"/>
      <path fill="none" d="M519.0624 387.0594 L515.7024 389.1594 L507.1861 392.353 L498.6698 393.4175 L490.1534 392.353 L485.4554 390.5912 L485.3706 390.5382" clip-path="url(#clipPath2)"/>
      <path d="M478.1879 387.0156 L486.7603 396.7888 L486.2684 390.9786 L491.1635 387.8104 Z" clip-path="url(#clipPath2)" stroke="none"/>
      <text x="485.4727" xml:space="preserve" y="383.3251" clip-path="url(#clipPath2)" font-family="'Fira Sans'" stroke="none">left</text>
      <path fill="none" d="M478.2772 365.7104 L481.6371 363.6104 L490.1534 360.4168 L498.6698 359.3523 L507.1861 360.4168 L511.8842 362.1786 L511.969 362.2316" clip-path="url(#clipPath2)"/>
      <path d="M519.1517 365.7542 L510.5793 355.9811 L511.0712 361.7913 L506.1761 364.9595 Z" clip-path="url(#clipPath2)" stroke="none"/>
      <text x="490.5669" xml:space="preserve" y="353.3942" clip-path="url(#clipPath2)" font-family="'Fira Sans'" stroke="none">right</text>
    </g>
  </g>
</svg>
