<?xml version="1.0" encoding="UTF-8"?><svg xmlns="http://www.w3.org/2000/svg" xmlns:xlink="http://www.w3.org/1999/xlink" fill-opacity="1" color-rendering="auto" color-interpolation="auto" text-rendering="auto" stroke="black" stroke-linecap="square" width="133" stroke-miterlimit="10" shape-rendering="auto" stroke-opacity="1" fill="black" stroke-dasharray="none" font-weight="normal" stroke-width="1" height="129" font-family="'Dialog'" font-style="normal" stroke-linejoin="miter" font-size="12px" stroke-dashoffset="0" image-rendering="auto">
  <!--Generated by ySVG 2.5-->
  <defs id="genericDefs"/>
  <g>
    <defs id="defs1">
      <clipPath clipPathUnits="userSpaceOnUse" id="clipPath1">
        <path d="M0 0 L133 0 L133 129 L0 129 L0 0 Z"/>
      </clipPath>
      <clipPath clipPathUnits="userSpaceOnUse" id="clipPath2">
        <path d="M432 278 L565 278 L565 407 L432 407 L432 278 Z"/>
      </clipPath>
    </defs>
    <g fill="white" text-rendering="geometricPrecision" shape-rendering="geometricPrecision" transform="translate(-432,-278)" stroke="white">
      <rect x="432" width="133" height="129" y="278" clip-path="url(#clipPath2)" stroke="none"/>
    </g>
    <g fill="rgb(235,235,235)" text-rendering="geometricPrecision" shape-rendering="geometricPrecision" transform="matrix(1,0,0,1,-432,-278)" stroke="rgb(235,235,235)">
      <rect x="437.9877" width="59.8235" height="19.5497" y="283.0713" clip-path="url(#clipPath2)" stroke="none"/>
    </g>
    <g stroke-linecap="butt" transform="matrix(1,0,0,1,-432,-278)" fill="rgb(64,64,64)" text-rendering="geometricPrecision" font-family="'Fira Sans'" shape-rendering="geometricPrecision" stroke="rgb(64,64,64)" stroke-miterlimit="1.45">
      <text x="441.9877" xml:space="preserve" y="296.2882" clip-path="url(#clipPath2)" stroke="none">qPhil(T,P)</text>
      <rect fill="none" x="437.9877" width="121.6246" height="118.0906" y="283.0713" clip-path="url(#clipPath2)"/>
    </g>
    <g fill="rgb(255,170,127)" text-rendering="geometricPrecision" shape-rendering="geometricPrecision" transform="matrix(1,0,0,1,-432,-278)" stroke="rgb(255,170,127)">
      <rect x="465.52" y="308.9009" clip-path="url(#clipPath2)" width="66" rx="4" ry="4" height="30" stroke="none"/>
    </g>
    <g text-rendering="geometricPrecision" stroke-miterlimit="1.45" shape-rendering="geometricPrecision" transform="matrix(1,0,0,1,-432,-278)" stroke-linecap="butt">
      <rect x="465.52" y="308.9009" clip-path="url(#clipPath2)" fill="none" width="66" rx="4" ry="4" height="30"/>
      <text x="477.4116" xml:space="preserve" y="327.343" clip-path="url(#clipPath2)" font-family="'Fira Sans'" stroke="none">T: Table</text>
      <line y2="329.6758" fill="none" x1="477.4116" clip-path="url(#clipPath2)" x2="519.6284" y1="329.6758"/>
    </g>
    <g fill="rgb(17,212,163)" text-rendering="geometricPrecision" shape-rendering="geometricPrecision" transform="matrix(1,0,0,1,-432,-278)" stroke="rgb(17,212,163)">
      <rect x="450.16" y="360.4019" clip-path="url(#clipPath2)" width="96.72" rx="4" ry="4" height="30" stroke="none"/>
    </g>
    <g text-rendering="geometricPrecision" stroke-miterlimit="1.45" shape-rendering="geometricPrecision" transform="matrix(1,0,0,1,-432,-278)" stroke-linecap="butt">
      <rect x="450.16" y="360.4019" clip-path="url(#clipPath2)" fill="none" width="96.72" rx="4" ry="4" height="30"/>
      <text x="459.0677" xml:space="preserve" y="378.844" clip-path="url(#clipPath2)" font-family="'Fira Sans'" stroke="none">P: Philosopher</text>
      <line y2="381.1767" fill="none" x1="459.0677" clip-path="url(#clipPath2)" x2="537.9723" y1="381.1767"/>
      <path fill="none" d="M498.52 345.9137 L498.52 360.4004" clip-path="url(#clipPath2)"/>
      <path d="M498.52 338.9137 L503.52 345.9137 L498.52 352.9137 L493.52 345.9137 Z" clip-path="url(#clipPath2)" stroke="none"/>
    </g>
  </g>
</svg>
