<?xml version="1.0" encoding="UTF-8"?><svg xmlns="http://www.w3.org/2000/svg" xmlns:xlink="http://www.w3.org/1999/xlink" fill-opacity="1" color-rendering="auto" color-interpolation="auto" text-rendering="auto" stroke="black" stroke-linecap="square" width="98" stroke-miterlimit="10" shape-rendering="auto" stroke-opacity="1" fill="black" stroke-dasharray="none" font-weight="normal" stroke-width="1" height="75" font-family="'Dialog'" font-style="normal" stroke-linejoin="miter" font-size="12px" stroke-dashoffset="0" image-rendering="auto">
  <!--Generated by ySVG 2.5-->
  <defs id="genericDefs"/>
  <g>
    <defs id="defs1">
      <clipPath clipPathUnits="userSpaceOnUse" id="clipPath1">
        <path d="M0 0 L98 0 L98 75 L0 75 L0 0 Z"/>
      </clipPath>
      <clipPath clipPathUnits="userSpaceOnUse" id="clipPath2">
        <path d="M437 278 L535 278 L535 353 L437 353 L437 278 Z"/>
      </clipPath>
    </defs>
    <g fill="white" text-rendering="geometricPrecision" shape-rendering="geometricPrecision" transform="translate(-437,-278)" stroke="white">
      <rect x="437" width="98" height="75" y="278" clip-path="url(#clipPath2)" stroke="none"/>
    </g>
    <g fill="rgb(235,235,235)" text-rendering="geometricPrecision" shape-rendering="geometricPrecision" transform="matrix(1,0,0,1,-437,-278)" stroke="rgb(235,235,235)">
      <rect x="442.6" width="59.0439" height="19.5497" y="283.0713" clip-path="url(#clipPath2)" stroke="none"/>
    </g>
    <g stroke-linecap="butt" transform="matrix(1,0,0,1,-437,-278)" fill="rgb(64,64,64)" text-rendering="geometricPrecision" font-family="'Fira Sans'" shape-rendering="geometricPrecision" stroke="rgb(64,64,64)" stroke-miterlimit="1.45">
      <text x="446.6" xml:space="preserve" y="296.2882" clip-path="url(#clipPath2)" stroke="none">qTable(T)</text>
      <rect fill="none" x="442.6" width="86.88" height="64.6697" y="283.0713" clip-path="url(#clipPath2)"/>
    </g>
    <g fill="rgb(255,170,127)" text-rendering="geometricPrecision" shape-rendering="geometricPrecision" transform="matrix(1,0,0,1,-437,-278)" stroke="rgb(255,170,127)">
      <rect x="452.72" y="308.9009" clip-path="url(#clipPath2)" width="66" rx="4" ry="4" height="30" stroke="none"/>
    </g>
    <g text-rendering="geometricPrecision" stroke-miterlimit="1.45" shape-rendering="geometricPrecision" transform="matrix(1,0,0,1,-437,-278)" stroke-linecap="butt">
      <rect x="452.72" y="308.9009" clip-path="url(#clipPath2)" fill="none" width="66" rx="4" ry="4" height="30"/>
      <text x="464.6116" xml:space="preserve" y="327.343" clip-path="url(#clipPath2)" font-family="'Fira Sans'" stroke="none">T: Table</text>
      <line y2="329.6758" fill="none" x1="464.6116" clip-path="url(#clipPath2)" x2="506.8284" y1="329.6758"/>
    </g>
  </g>
</svg>
