<?xml version="1.0" encoding="UTF-8"?><svg xmlns="http://www.w3.org/2000/svg" xmlns:xlink="http://www.w3.org/1999/xlink" fill-opacity="1" color-rendering="auto" color-interpolation="auto" text-rendering="auto" stroke="black" stroke-linecap="square" width="603" stroke-miterlimit="10" shape-rendering="auto" stroke-opacity="1" fill="black" stroke-dasharray="none" font-weight="normal" stroke-width="1" height="394" font-family="'Dialog'" font-style="normal" stroke-linejoin="miter" font-size="12px" stroke-dashoffset="0" image-rendering="auto">
  <!--Generated by ySVG 2.5-->
  <defs id="genericDefs"/>
  <g>
    <defs id="defs1">
      <clipPath clipPathUnits="userSpaceOnUse" id="clipPath1">
        <path d="M0 0 L603 0 L603 394 L0 394 L0 0 Z"/>
      </clipPath>
      <clipPath clipPathUnits="userSpaceOnUse" id="clipPath2">
        <path d="M478 158 L1081 158 L1081 552 L478 552 L478 158 Z"/>
      </clipPath>
      <clipPath clipPathUnits="userSpaceOnUse" id="clipPath3">
        <path d="M0 0 L0 15 L93 15 L93 0 Z"/>
      </clipPath>
      <clipPath clipPathUnits="userSpaceOnUse" id="clipPath4">
        <path d="M0 0 L0 15 L87 15 L87 0 Z"/>
      </clipPath>
      <clipPath clipPathUnits="userSpaceOnUse" id="clipPath5">
        <path d="M0 0 L0 26 L38 26 L38 0 Z"/>
      </clipPath>
      <clipPath clipPathUnits="userSpaceOnUse" id="clipPath6">
        <path d="M0 0 L0 39 L90 39 L90 0 Z"/>
      </clipPath>
      <clipPath clipPathUnits="userSpaceOnUse" id="clipPath7">
        <path d="M0 0 L0 39 L65 39 L65 0 Z"/>
      </clipPath>
      <clipPath clipPathUnits="userSpaceOnUse" id="clipPath8">
        <path d="M0 0 L0 39 L75 39 L75 0 Z"/>
      </clipPath>
      <clipPath clipPathUnits="userSpaceOnUse" id="clipPath9">
        <path d="M0 0 L0 39 L81 39 L81 0 Z"/>
      </clipPath>
      <clipPath clipPathUnits="userSpaceOnUse" id="clipPath10">
        <path d="M0 0 L0 39 L85 39 L85 0 Z"/>
      </clipPath>
      <clipPath clipPathUnits="userSpaceOnUse" id="clipPath11">
        <path d="M0 0 L0 15 L91 15 L91 0 Z"/>
      </clipPath>
      <clipPath clipPathUnits="userSpaceOnUse" id="clipPath12">
        <path d="M0 0 L0 15 L94 15 L94 0 Z"/>
      </clipPath>
      <clipPath clipPathUnits="userSpaceOnUse" id="clipPath13">
        <path d="M0 0 L0 15 L88 15 L88 0 Z"/>
      </clipPath>
      <clipPath clipPathUnits="userSpaceOnUse" id="clipPath14">
        <path d="M0 0 L0 26 L39 26 L39 0 Z"/>
      </clipPath>
      <clipPath clipPathUnits="userSpaceOnUse" id="clipPath15">
        <path d="M0 0 L0 39 L91 39 L91 0 Z"/>
      </clipPath>
      <clipPath clipPathUnits="userSpaceOnUse" id="clipPath16">
        <path d="M0 0 L0 39 L66 39 L66 0 Z"/>
      </clipPath>
      <clipPath clipPathUnits="userSpaceOnUse" id="clipPath17">
        <path d="M0 0 L0 39 L76 39 L76 0 Z"/>
      </clipPath>
      <clipPath clipPathUnits="userSpaceOnUse" id="clipPath18">
        <path d="M0 0 L0 39 L119 39 L119 0 Z"/>
      </clipPath>
      <clipPath clipPathUnits="userSpaceOnUse" id="clipPath19">
        <path d="M472 154 L1075 154 L1075 548 L472 548 L472 154 Z"/>
      </clipPath>
      <clipPath clipPathUnits="userSpaceOnUse" id="clipPath20">
        <path d="M0 0 L0 26 L85 26 L85 0 Z"/>
      </clipPath>
    </defs>
    <g fill="white" text-rendering="geometricPrecision" shape-rendering="geometricPrecision" transform="translate(-478,-158)" stroke="white">
      <rect x="478" width="603" height="394" y="158" clip-path="url(#clipPath2)" stroke="none"/>
    </g>
    <g fill="white" text-rendering="geometricPrecision" shape-rendering="geometricPrecision" transform="matrix(1,0,0,1,-478,-158)" stroke="white">
      <rect x="483.3507" y="251.2688" clip-path="url(#clipPath2)" width="287.4309" rx="4" ry="4" height="284.8057" stroke="none"/>
      <rect x="483.3507" y="251.2688" clip-path="url(#clipPath2)" fill="rgb(17,212,163)" width="287.4309" height="15.5497" stroke="none"/>
    </g>
    <g text-rendering="geometricPrecision" stroke-miterlimit="1.45" shape-rendering="geometricPrecision" font-family="'Fira Sans'" transform="matrix(1,0,0,1,-478,-158)" stroke-linecap="butt">
      <text x="591.4518" xml:space="preserve" y="262.4858" clip-path="url(#clipPath2)" stroke="none">philosopher1</text>
      <rect x="483.3507" y="251.2688" clip-path="url(#clipPath2)" fill="none" width="287.4309" rx="4" ry="4" height="284.8057"/>
      <circle fill="none" r="15" clip-path="url(#clipPath2)" cx="637.4032" cy="306.696"/>
    </g>
    <g text-rendering="geometricPrecision" stroke-miterlimit="1.45" shape-rendering="geometricPrecision" font-family="'Fira Sans'" transform="matrix(1,0,0,1,-478,-158) translate(656,299)" stroke-linecap="butt">
      <text x="0" xml:space="preserve" y="12" clip-path="url(#clipPath3)" stroke="none">thinking1 </text>
      <text fill="blue" x="51" xml:space="preserve" y="12" clip-path="url(#clipPath3)" stroke="none">: place</text>
      <text x="86" xml:space="preserve" y="12" clip-path="url(#clipPath3)" font-family="monospace" stroke="none"> </text>
    </g>
    <g text-rendering="geometricPrecision" stroke-miterlimit="1.45" shape-rendering="geometricPrecision" transform="matrix(1,0,0,1,-478,-158)" stroke-linecap="butt">
      <circle fill="none" r="15" clip-path="url(#clipPath2)" cx="637.4032" cy="389.8124"/>
    </g>
    <g text-rendering="geometricPrecision" stroke-miterlimit="1.45" shape-rendering="geometricPrecision" font-family="'Fira Sans'" transform="matrix(1,0,0,1,-478,-158) translate(656,382)" stroke-linecap="butt">
      <text x="0" xml:space="preserve" y="12" clip-path="url(#clipPath4)" stroke="none">waiting1 </text>
      <text fill="blue" x="45" xml:space="preserve" y="12" clip-path="url(#clipPath4)" stroke="none">: place</text>
      <text x="80" xml:space="preserve" y="12" clip-path="url(#clipPath4)" font-family="monospace" stroke="none"> </text>
    </g>
    <g text-rendering="geometricPrecision" stroke-miterlimit="1.45" shape-rendering="geometricPrecision" transform="matrix(1,0,0,1,-478,-158)" stroke-linecap="butt">
      <circle fill="none" r="15" clip-path="url(#clipPath2)" cx="637.4032" cy="465.298"/>
    </g>
    <g text-rendering="geometricPrecision" stroke-miterlimit="1.45" shape-rendering="geometricPrecision" font-family="'Fira Sans'" transform="matrix(1,0,0,1,-478,-158) translate(656,452)" stroke-linecap="butt">
      <text x="0" xml:space="preserve" y="10" clip-path="url(#clipPath5)" stroke="none">eating1</text>
      <text x="38" xml:space="preserve" y="10" clip-path="url(#clipPath5)" stroke="none"> </text>
      <text fill="blue" x="0" xml:space="preserve" y="23" clip-path="url(#clipPath5)" stroke="none">: place</text>
    </g>
    <g text-rendering="geometricPrecision" stroke-miterlimit="1.45" shape-rendering="geometricPrecision" transform="matrix(1,0,0,1,-478,-158)" stroke-linecap="butt">
      <rect fill="none" x="622.4032" width="30" height="15" y="341.0696" clip-path="url(#clipPath2)"/>
    </g>
    <g text-rendering="geometricPrecision" stroke-miterlimit="1.45" shape-rendering="geometricPrecision" font-family="'Fira Sans'" transform="matrix(1,0,0,1,-478,-158) translate(656,329)" stroke-linecap="butt">
      <text x="0" xml:space="preserve" y="10" clip-path="url(#clipPath6)" stroke="none">getHungry1</text>
      <text x="60" xml:space="preserve" y="10" clip-path="url(#clipPath6)" stroke="none"> </text>
      <text x="0" xml:space="preserve" y="23" clip-path="url(#clipPath6)" stroke="none">λ</text>
      <text x="6" xml:space="preserve" y="23" clip-path="url(#clipPath6)" stroke="none"> = hungryRate1</text>
      <text x="85" font-size="8px" y="23" clip-path="url(#clipPath6)" font-family="monospace" stroke="none" xml:space="preserve"> </text>
      <text x="90" xml:space="preserve" y="23" clip-path="url(#clipPath6)" stroke="none"> </text>
      <text fill="blue" x="0" xml:space="preserve" y="36" clip-path="url(#clipPath6)" stroke="none">: tran</text>
    </g>
    <g fill="rgb(153,153,153)" text-rendering="geometricPrecision" shape-rendering="geometricPrecision" transform="matrix(1,0,0,1,-478,-158)" stroke="rgb(153,153,153)">
      <rect x="622.4032" width="30" height="8" y="423.5552" clip-path="url(#clipPath2)" stroke="none"/>
    </g>
    <g text-rendering="geometricPrecision" stroke-miterlimit="1.45" shape-rendering="geometricPrecision" transform="matrix(1,0,0,1,-478,-158)" stroke-linecap="butt">
      <rect fill="none" x="622.4032" width="30" height="8" y="423.5552" clip-path="url(#clipPath2)"/>
    </g>
    <g text-rendering="geometricPrecision" stroke-miterlimit="1.45" shape-rendering="geometricPrecision" font-family="'Fira Sans'" transform="matrix(1,0,0,1,-478,-158) translate(656,408)" stroke-linecap="butt">
      <text x="0" xml:space="preserve" y="10" clip-path="url(#clipPath7)" stroke="none">startEating1</text>
      <text x="60" font-size="8px" y="10" clip-path="url(#clipPath7)" font-family="monospace" stroke="none" xml:space="preserve"> </text>
      <text x="65" xml:space="preserve" y="10" clip-path="url(#clipPath7)" stroke="none"> </text>
      <text x="0" xml:space="preserve" y="23" clip-path="url(#clipPath7)" stroke="none">w = 1, </text>
      <text x="32" xml:space="preserve" y="23" clip-path="url(#clipPath7)" stroke="none">π</text>
      <text x="39" xml:space="preserve" y="23" clip-path="url(#clipPath7)" stroke="none"> = 1</text>
      <text x="57" xml:space="preserve" y="23" clip-path="url(#clipPath7)" stroke="none"> </text>
      <text fill="blue" x="0" xml:space="preserve" y="36" clip-path="url(#clipPath7)" stroke="none">: tran</text>
    </g>
    <g text-rendering="geometricPrecision" stroke-miterlimit="1.45" shape-rendering="geometricPrecision" transform="matrix(1,0,0,1,-478,-158)" stroke-linecap="butt">
      <rect fill="none" x="622.4032" width="30" height="15" y="499.0408" clip-path="url(#clipPath2)"/>
    </g>
    <g text-rendering="geometricPrecision" stroke-miterlimit="1.45" shape-rendering="geometricPrecision" font-family="'Fira Sans'" transform="matrix(1,0,0,1,-478,-158) translate(656,491)" stroke-linecap="butt">
      <text x="0" xml:space="preserve" y="10" clip-path="url(#clipPath6)" stroke="none">getHungry1</text>
      <text x="60" xml:space="preserve" y="10" clip-path="url(#clipPath6)" stroke="none"> </text>
      <text x="0" xml:space="preserve" y="23" clip-path="url(#clipPath6)" stroke="none">λ</text>
      <text x="6" xml:space="preserve" y="23" clip-path="url(#clipPath6)" stroke="none"> = hungryRate1</text>
      <text x="85" font-size="8px" y="23" clip-path="url(#clipPath6)" font-family="monospace" stroke="none" xml:space="preserve"> </text>
      <text x="90" xml:space="preserve" y="23" clip-path="url(#clipPath6)" stroke="none"> </text>
      <text fill="blue" x="0" xml:space="preserve" y="36" clip-path="url(#clipPath6)" stroke="none">: tran</text>
    </g>
    <g stroke-linecap="butt" transform="matrix(1,0,0,1,-478,-158)" fill="rgb(64,64,64)" text-rendering="geometricPrecision" shape-rendering="geometricPrecision" stroke-dasharray="6,2" stroke="rgb(64,64,64)" stroke-miterlimit="1.45">
      <circle fill="none" r="15" clip-path="url(#clipPath2)" cx="736.068" cy="436.0126"/>
      <circle clip-path="url(#clipPath2)" fill="none" r="15" stroke-dasharray="none" cx="538.7384" cy="435.9275" stroke="black"/>
      <path fill="none" stroke-dasharray="none" d="M506.3139 280.2272 L521.3139 310.2272 L491.3139 310.2272 Z" clip-path="url(#clipPath2)" fill-rule="evenodd" stroke="black"/>
    </g>
    <g text-rendering="geometricPrecision" stroke-miterlimit="1.45" shape-rendering="geometricPrecision" font-family="'Fira Sans'" transform="matrix(1,0,0,1,-478,-158) translate(525,275)" stroke-linecap="butt">
      <text x="0" xml:space="preserve" y="10" clip-path="url(#clipPath8)" stroke="none">thinkingTime1</text>
      <text x="75" xml:space="preserve" y="10" clip-path="url(#clipPath8)" stroke="none"> </text>
      <text x="0" xml:space="preserve" y="23" clip-path="url(#clipPath8)" stroke="none">= #thinking1</text>
      <text x="64" xml:space="preserve" y="23" clip-path="url(#clipPath8)" stroke="none"> </text>
      <text fill="blue" x="0" xml:space="preserve" y="36" clip-path="url(#clipPath8)" stroke="none">: marking int</text>
      <text x="65" font-size="8px" y="36" clip-path="url(#clipPath8)" font-family="monospace" stroke="none" xml:space="preserve"> </text>
    </g>
    <g text-rendering="geometricPrecision" stroke-miterlimit="1.45" shape-rendering="geometricPrecision" transform="matrix(1,0,0,1,-478,-158)" stroke-linecap="butt">
      <path fill="none" d="M506.3139 323.7103 L521.3139 353.7103 L491.3139 353.7103 Z" fill-rule="evenodd" clip-path="url(#clipPath2)"/>
    </g>
    <g text-rendering="geometricPrecision" stroke-miterlimit="1.45" shape-rendering="geometricPrecision" font-family="'Fira Sans'" transform="matrix(1,0,0,1,-478,-158) translate(525,319)" stroke-linecap="butt">
      <text x="0" xml:space="preserve" y="10" clip-path="url(#clipPath9)" stroke="none">hungryRate1</text>
      <text x="66" xml:space="preserve" y="10" clip-path="url(#clipPath9)" stroke="none"> </text>
      <text x="0" xml:space="preserve" y="23" clip-path="url(#clipPath9)" stroke="none">= 0.5</text>
      <text x="26" xml:space="preserve" y="23" clip-path="url(#clipPath9)" stroke="none"> </text>
      <text fill="blue" x="0" xml:space="preserve" y="36" clip-path="url(#clipPath9)" stroke="none">: const double</text>
      <text x="76" font-size="8px" y="36" clip-path="url(#clipPath9)" font-family="monospace" stroke="none" xml:space="preserve"> </text>
    </g>
    <g fill="rgb(153,153,153)" text-rendering="geometricPrecision" shape-rendering="geometricPrecision" transform="matrix(1,0,0,1,-478,-158)" stroke="rgb(153,153,153)">
      <path d="M506.6904 367.1934 L521.6904 397.1934 L491.6904 397.1934 Z" fill-rule="evenodd" clip-path="url(#clipPath2)" stroke="none"/>
    </g>
    <g text-rendering="geometricPrecision" stroke-miterlimit="1.45" shape-rendering="geometricPrecision" transform="matrix(1,0,0,1,-478,-158)" stroke-linecap="butt">
      <path fill="none" d="M506.6904 367.1934 L521.6904 397.1934 L491.6904 397.1934 Z" fill-rule="evenodd" clip-path="url(#clipPath2)"/>
    </g>
    <g text-rendering="geometricPrecision" stroke-miterlimit="1.45" shape-rendering="geometricPrecision" font-family="'Fira Sans'" transform="matrix(1,0,0,1,-478,-158) translate(525,362)" stroke-linecap="butt">
      <text x="0" xml:space="preserve" y="10" clip-path="url(#clipPath10)" stroke="none">eatingRate1</text>
      <text x="62" xml:space="preserve" y="10" clip-path="url(#clipPath10)" stroke="none"> </text>
      <text x="0" xml:space="preserve" y="23" clip-path="url(#clipPath10)" stroke="none">= 3.0</text>
      <text x="26" xml:space="preserve" y="23" clip-path="url(#clipPath10)" stroke="none"> </text>
      <text fill="blue" x="0" xml:space="preserve" y="36" clip-path="url(#clipPath10)" stroke="none">: param double</text>
      <text x="80" font-size="8px" y="36" clip-path="url(#clipPath10)" font-family="monospace" stroke="none" xml:space="preserve"> </text>
    </g>
    <g text-rendering="geometricPrecision" shape-rendering="geometricPrecision" transform="matrix(1,0,0,1,-478,-158)">
      <circle r="5" clip-path="url(#clipPath2)" cx="637.4032" cy="306.696" stroke="none"/>
      <circle r="5" clip-path="url(#clipPath2)" cx="538.7384" cy="436.0126" stroke="none"/>
      <path fill="none" stroke-miterlimit="1.45" d="M637.4032 321.696 L637.4032 333.0696" clip-path="url(#clipPath2)" stroke-linecap="butt"/>
      <path stroke-miterlimit="1.45" d="M637.4032 341.0696 L642.4032 329.0696 L637.4032 332.0696 L632.4032 329.0696 Z" clip-path="url(#clipPath2)" stroke-linecap="butt" stroke="none"/>
      <path fill="none" stroke-miterlimit="1.45" d="M637.4032 356.0696 L637.4032 366.8124" clip-path="url(#clipPath2)" stroke-linecap="butt"/>
      <path stroke-miterlimit="1.45" d="M637.4032 374.8124 L642.4032 362.8124 L637.4032 365.8124 L632.4032 362.8124 Z" clip-path="url(#clipPath2)" stroke-linecap="butt" stroke="none"/>
      <path fill="none" stroke-miterlimit="1.45" d="M637.4032 404.8124 L637.4032 415.5552" clip-path="url(#clipPath2)" stroke-linecap="butt"/>
      <path stroke-miterlimit="1.45" d="M637.4032 423.5552 L642.4032 411.5552 L637.4032 414.5552 L632.4032 411.5552 Z" clip-path="url(#clipPath2)" stroke-linecap="butt" stroke="none"/>
      <path fill="none" stroke-miterlimit="1.45" d="M637.4032 431.5552 L637.4032 442.298" clip-path="url(#clipPath2)" stroke-linecap="butt"/>
      <path stroke-miterlimit="1.45" d="M637.4032 450.298 L642.4032 438.298 L637.4032 441.298 L632.4032 438.298 Z" clip-path="url(#clipPath2)" stroke-linecap="butt" stroke="none"/>
      <path fill="none" stroke-miterlimit="1.45" d="M637.4032 480.298 L637.4032 491.0408" clip-path="url(#clipPath2)" stroke-linecap="butt"/>
      <path stroke-miterlimit="1.45" d="M637.4032 499.0408 L642.4032 487.0408 L637.4032 490.0408 L632.4032 487.0408 Z" clip-path="url(#clipPath2)" stroke-linecap="butt" stroke="none"/>
      <path fill="none" stroke-miterlimit="1.45" d="M637.4032 514.0408 L637.4032 519.5932 L636.7782 522.0224 L634.9032 523.7575 L627.4032 525.1456 L620.5363 525.1456 L616.1613 524.5206 L613.0363 522.6456 L611.1613 519.5206 L610.5363 515.1456 L610.5363 283.6512 L611.1613 279.2762 L613.0363 276.1512 L616.1613 274.2762 L620.5363 273.6512 L627.4032 273.6512 L634.9032 274.9068 L636.7782 276.4763 L637.4032 278.6736 L637.4032 283.696" clip-path="url(#clipPath2)" stroke-linecap="butt"/>
      <path stroke-miterlimit="1.45" d="M637.4032 291.696 L642.4032 279.696 L637.4032 282.696 L632.4032 279.696 Z" clip-path="url(#clipPath2)" stroke-linecap="butt" stroke="none"/>
      <path fill="none" stroke-miterlimit="1.45" d="M642.7029 499.0408 L646.649 493.4564 L649.0005 491.0132 L652.1086 489.2681 L660.5952 487.872 L726.068 487.872 L730.443 487.247 L733.568 485.372 L735.443 482.247 L736.068 477.872 L736.068 459.0125" clip-path="url(#clipPath2)" stroke-linecap="butt"/>
      <path stroke-miterlimit="1.45" d="M736.068 451.0125 L731.068 463.0125 L736.068 460.0125 L741.068 463.0125 Z" clip-path="url(#clipPath2)" stroke-linecap="butt" stroke="none"/>
    </g>
    <g stroke-linecap="butt" transform="matrix(1,0,0,1,-478,-158)" fill="white" text-rendering="geometricPrecision" shape-rendering="geometricPrecision" stroke="white" stroke-miterlimit="1.45">
      <rect x="706.5311" width="59.0737" height="15.5856" y="468.0459" clip-path="url(#clipPath2)" stroke="none"/>
    </g>
    <g stroke-linecap="butt" transform="matrix(1,0,0,1,-478,-158)" fill="rgb(64,64,64)" text-rendering="geometricPrecision" font-family="'Fira Sans'" shape-rendering="geometricPrecision" font-style="italic" stroke="rgb(64,64,64)" stroke-miterlimit="1.45">
      <text x="708.5311" xml:space="preserve" y="479.2448" clip-path="url(#clipPath2)" stroke="none">rightFork1</text>
    </g>
    <g stroke-linecap="butt" transform="matrix(1,0,0,1,-478,-158)" fill="white" text-rendering="geometricPrecision" shape-rendering="geometricPrecision" stroke="white" stroke-miterlimit="1.45">
      <rect x="727.2171" width="36.3702" height="15.5497" y="482.4538" clip-path="url(#clipPath2)" stroke="none"/>
      <text x="729.2171" y="493.6707" clip-path="url(#clipPath2)" fill="blue" font-family="'Fira Sans'" stroke="none" xml:space="preserve">:place</text>
      <path fill="none" d="M736.068 421.0125 L736.068 412.3956 L735.443 408.6257 L733.568 405.9329 L730.443 404.3172 L726.068 403.7787 L666.4384 403.7787 L657.5843 405.4701 L654.0166 407.5844 L651.0219 410.5443 L645.6053 417.31" clip-path="url(#clipPath2)" stroke="black"/>
      <path fill="black" d="M640.6055 423.5552 L652.0085 417.3123 L646.2303 416.5294 L644.202 411.0626 Z" clip-path="url(#clipPath2)" stroke="none"/>
      <path fill="none" d="M632.3058 499.0408 L628.6122 493.6063 L626.3713 491.2287 L623.342 489.5305 L614.9186 488.1718 L548.7384 488.1718 L544.3634 487.5468 L541.2384 485.6718 L539.3634 482.5468 L538.7384 478.1718 L538.7384 458.9275" clip-path="url(#clipPath2)" stroke="black"/>
      <path fill="black" d="M538.7384 450.9275 L533.7384 462.9275 L538.7384 459.9275 L543.7384 462.9275 Z" clip-path="url(#clipPath2)" stroke="none"/>
      <rect x="504.5652" width="95" height="19" y="467.2166" clip-path="url(#clipPath2)" stroke="none"/>
    </g>
    <g text-rendering="geometricPrecision" stroke-miterlimit="1.45" shape-rendering="geometricPrecision" font-family="'Fira Sans'" transform="matrix(1,0,0,1,-478,-158) translate(506,469)" stroke-linecap="butt">
      <text x="0" xml:space="preserve" y="12" clip-path="url(#clipPath11)" stroke="none">leftFork1 </text>
      <text fill="blue" x="49" xml:space="preserve" y="12" clip-path="url(#clipPath11)" stroke="none">: place</text>
      <text x="84" xml:space="preserve" y="12" clip-path="url(#clipPath11)" font-family="monospace" stroke="none"> </text>
    </g>
    <g text-rendering="geometricPrecision" stroke-miterlimit="1.45" shape-rendering="geometricPrecision" transform="matrix(1,0,0,1,-478,-158)" stroke-linecap="butt">
      <path fill="none" d="M538.7384 420.9275 L538.7384 412.1988 L539.3634 408.38 L541.2384 405.6523 L544.3634 404.0157 L548.7384 403.4702 L607.8619 403.4702 L616.7689 405.2042 L620.4025 407.3718 L623.4897 410.4065 L629.1174 417.3428" clip-path="url(#clipPath2)"/>
      <path d="M634.1578 423.5552 L630.48 411.0863 L628.4874 416.5662 L622.7145 417.3868 Z" clip-path="url(#clipPath2)" stroke="none"/>
    </g>
    <g fill="white" text-rendering="geometricPrecision" shape-rendering="geometricPrecision" transform="matrix(1,0,0,1,-478,-158)" stroke="white">
      <rect x="788.3408" y="251.2688" clip-path="url(#clipPath2)" width="287.4309" rx="4" ry="4" height="284.8057" stroke="none"/>
      <rect x="788.3408" y="251.2688" clip-path="url(#clipPath2)" fill="rgb(17,212,163)" width="287.4309" height="15.5497" stroke="none"/>
    </g>
    <g text-rendering="geometricPrecision" stroke-miterlimit="1.45" shape-rendering="geometricPrecision" font-family="'Fira Sans'" transform="matrix(1,0,0,1,-478,-158)" stroke-linecap="butt">
      <text x="896.0701" xml:space="preserve" y="262.4858" clip-path="url(#clipPath2)" stroke="none">philosopher2</text>
      <rect x="788.3408" y="251.2688" clip-path="url(#clipPath2)" fill="none" width="287.4309" rx="4" ry="4" height="284.8057"/>
      <circle fill="none" r="15" clip-path="url(#clipPath2)" cx="942.3933" cy="306.696"/>
    </g>
    <g text-rendering="geometricPrecision" stroke-miterlimit="1.45" shape-rendering="geometricPrecision" font-family="'Fira Sans'" transform="matrix(1,0,0,1,-478,-158) translate(961,299)" stroke-linecap="butt">
      <text x="0" xml:space="preserve" y="12" clip-path="url(#clipPath12)" stroke="none">thinking2 </text>
      <text fill="blue" x="52" xml:space="preserve" y="12" clip-path="url(#clipPath12)" stroke="none">: place</text>
      <text x="87" xml:space="preserve" y="12" clip-path="url(#clipPath12)" font-family="monospace" stroke="none"> </text>
    </g>
    <g text-rendering="geometricPrecision" stroke-miterlimit="1.45" shape-rendering="geometricPrecision" transform="matrix(1,0,0,1,-478,-158)" stroke-linecap="butt">
      <circle fill="none" r="15" clip-path="url(#clipPath2)" cx="942.3933" cy="389.8124"/>
    </g>
    <g text-rendering="geometricPrecision" stroke-miterlimit="1.45" shape-rendering="geometricPrecision" font-family="'Fira Sans'" transform="matrix(1,0,0,1,-478,-158) translate(961,382)" stroke-linecap="butt">
      <text x="0" xml:space="preserve" y="12" clip-path="url(#clipPath13)" stroke="none">waiting2 </text>
      <text fill="blue" x="46" xml:space="preserve" y="12" clip-path="url(#clipPath13)" stroke="none">: place</text>
      <text x="81" xml:space="preserve" y="12" clip-path="url(#clipPath13)" font-family="monospace" stroke="none"> </text>
    </g>
    <g text-rendering="geometricPrecision" stroke-miterlimit="1.45" shape-rendering="geometricPrecision" transform="matrix(1,0,0,1,-478,-158)" stroke-linecap="butt">
      <circle fill="none" r="15" clip-path="url(#clipPath2)" cx="942.3933" cy="465.298"/>
    </g>
    <g text-rendering="geometricPrecision" stroke-miterlimit="1.45" shape-rendering="geometricPrecision" font-family="'Fira Sans'" transform="matrix(1,0,0,1,-478,-158) translate(961,452)" stroke-linecap="butt">
      <text x="0" xml:space="preserve" y="10" clip-path="url(#clipPath14)" stroke="none">eating2</text>
      <text x="39" xml:space="preserve" y="10" clip-path="url(#clipPath14)" stroke="none"> </text>
      <text fill="blue" x="0" xml:space="preserve" y="23" clip-path="url(#clipPath14)" stroke="none">: place</text>
    </g>
    <g text-rendering="geometricPrecision" stroke-miterlimit="1.45" shape-rendering="geometricPrecision" transform="matrix(1,0,0,1,-478,-158)" stroke-linecap="butt">
      <rect fill="none" x="927.3933" width="30" height="15" y="341.0696" clip-path="url(#clipPath2)"/>
    </g>
    <g text-rendering="geometricPrecision" stroke-miterlimit="1.45" shape-rendering="geometricPrecision" font-family="'Fira Sans'" transform="matrix(1,0,0,1,-478,-158) translate(961,329)" stroke-linecap="butt">
      <text x="0" xml:space="preserve" y="10" clip-path="url(#clipPath15)" stroke="none">getHungry2</text>
      <text x="61" xml:space="preserve" y="10" clip-path="url(#clipPath15)" stroke="none"> </text>
      <text x="0" xml:space="preserve" y="23" clip-path="url(#clipPath15)" stroke="none">λ</text>
      <text x="6" xml:space="preserve" y="23" clip-path="url(#clipPath15)" stroke="none"> = hungryRate2</text>
      <text x="86" font-size="8px" y="23" clip-path="url(#clipPath15)" font-family="monospace" stroke="none" xml:space="preserve"> </text>
      <text x="91" xml:space="preserve" y="23" clip-path="url(#clipPath15)" stroke="none"> </text>
      <text fill="blue" x="0" xml:space="preserve" y="36" clip-path="url(#clipPath15)" stroke="none">: tran</text>
    </g>
    <g fill="rgb(153,153,153)" text-rendering="geometricPrecision" shape-rendering="geometricPrecision" transform="matrix(1,0,0,1,-478,-158)" stroke="rgb(153,153,153)">
      <rect x="927.3933" width="30" height="8" y="423.5552" clip-path="url(#clipPath2)" stroke="none"/>
    </g>
    <g text-rendering="geometricPrecision" stroke-miterlimit="1.45" shape-rendering="geometricPrecision" transform="matrix(1,0,0,1,-478,-158)" stroke-linecap="butt">
      <rect fill="none" x="927.3933" width="30" height="8" y="423.5552" clip-path="url(#clipPath2)"/>
    </g>
    <g text-rendering="geometricPrecision" stroke-miterlimit="1.45" shape-rendering="geometricPrecision" font-family="'Fira Sans'" transform="matrix(1,0,0,1,-478,-158) translate(961,408)" stroke-linecap="butt">
      <text x="0" xml:space="preserve" y="10" clip-path="url(#clipPath16)" stroke="none">startEating2</text>
      <text x="61" font-size="8px" y="10" clip-path="url(#clipPath16)" font-family="monospace" stroke="none" xml:space="preserve"> </text>
      <text x="66" xml:space="preserve" y="10" clip-path="url(#clipPath16)" stroke="none"> </text>
      <text x="0" xml:space="preserve" y="23" clip-path="url(#clipPath16)" stroke="none">w = 1, </text>
      <text x="32" xml:space="preserve" y="23" clip-path="url(#clipPath16)" stroke="none">π</text>
      <text x="39" xml:space="preserve" y="23" clip-path="url(#clipPath16)" stroke="none"> = 1</text>
      <text x="57" xml:space="preserve" y="23" clip-path="url(#clipPath16)" stroke="none"> </text>
      <text fill="blue" x="0" xml:space="preserve" y="36" clip-path="url(#clipPath16)" stroke="none">: tran</text>
    </g>
    <g text-rendering="geometricPrecision" stroke-miterlimit="1.45" shape-rendering="geometricPrecision" transform="matrix(1,0,0,1,-478,-158)" stroke-linecap="butt">
      <rect fill="none" x="927.3933" width="30" height="15" y="499.0408" clip-path="url(#clipPath2)"/>
    </g>
    <g text-rendering="geometricPrecision" stroke-miterlimit="1.45" shape-rendering="geometricPrecision" font-family="'Fira Sans'" transform="matrix(1,0,0,1,-478,-158) translate(961,492)" stroke-linecap="butt">
      <text x="0" xml:space="preserve" y="10" clip-path="url(#clipPath15)" stroke="none">getHungry2</text>
      <text x="61" xml:space="preserve" y="10" clip-path="url(#clipPath15)" stroke="none"> </text>
      <text x="0" xml:space="preserve" y="23" clip-path="url(#clipPath15)" stroke="none">λ</text>
      <text x="6" xml:space="preserve" y="23" clip-path="url(#clipPath15)" stroke="none"> = hungryRate2</text>
      <text x="86" font-size="8px" y="23" clip-path="url(#clipPath15)" font-family="monospace" stroke="none" xml:space="preserve"> </text>
      <text x="91" xml:space="preserve" y="23" clip-path="url(#clipPath15)" stroke="none"> </text>
      <text fill="blue" x="0" xml:space="preserve" y="36" clip-path="url(#clipPath15)" stroke="none">: tran</text>
    </g>
    <g stroke-linecap="butt" transform="matrix(1,0,0,1,-478,-158)" fill="rgb(64,64,64)" text-rendering="geometricPrecision" shape-rendering="geometricPrecision" stroke-dasharray="6,2" stroke="rgb(64,64,64)" stroke-miterlimit="1.45">
      <circle fill="none" r="15" clip-path="url(#clipPath2)" cx="1041.0581" cy="436.0126"/>
      <circle clip-path="url(#clipPath2)" fill="none" r="15" stroke-dasharray="none" cx="843.7285" cy="436.0126" stroke="black"/>
      <path fill="none" stroke-dasharray="none" d="M811.304 280.2272 L826.304 310.2272 L796.304 310.2272 Z" clip-path="url(#clipPath2)" fill-rule="evenodd" stroke="black"/>
    </g>
    <g text-rendering="geometricPrecision" stroke-miterlimit="1.45" shape-rendering="geometricPrecision" font-family="'Fira Sans'" transform="matrix(1,0,0,1,-478,-158) translate(830,275)" stroke-linecap="butt">
      <text x="0" xml:space="preserve" y="10" clip-path="url(#clipPath17)" stroke="none">thinkingTime2</text>
      <text x="76" xml:space="preserve" y="10" clip-path="url(#clipPath17)" stroke="none"> </text>
      <text x="0" xml:space="preserve" y="23" clip-path="url(#clipPath17)" stroke="none">= #thinking2</text>
      <text x="65" xml:space="preserve" y="23" clip-path="url(#clipPath17)" stroke="none"> </text>
      <text fill="blue" x="0" xml:space="preserve" y="36" clip-path="url(#clipPath17)" stroke="none">: marking int</text>
      <text x="65" font-size="8px" y="36" clip-path="url(#clipPath17)" font-family="monospace" stroke="none" xml:space="preserve"> </text>
    </g>
    <g text-rendering="geometricPrecision" stroke-miterlimit="1.45" shape-rendering="geometricPrecision" transform="matrix(1,0,0,1,-478,-158)" stroke-linecap="butt">
      <path fill="none" d="M811.304 323.7103 L826.304 353.7103 L796.304 353.7103 Z" fill-rule="evenodd" clip-path="url(#clipPath2)"/>
    </g>
    <g text-rendering="geometricPrecision" stroke-miterlimit="1.45" shape-rendering="geometricPrecision" font-family="'Fira Sans'" transform="matrix(1,0,0,1,-478,-158) translate(830,319)" stroke-linecap="butt">
      <text x="0" xml:space="preserve" y="10" clip-path="url(#clipPath9)" stroke="none">hungryRate2</text>
      <text x="67" xml:space="preserve" y="10" clip-path="url(#clipPath9)" stroke="none"> </text>
      <text x="0" xml:space="preserve" y="23" clip-path="url(#clipPath9)" stroke="none">= 0.45</text>
      <text x="32" xml:space="preserve" y="23" clip-path="url(#clipPath9)" stroke="none"> </text>
      <text fill="blue" x="0" xml:space="preserve" y="36" clip-path="url(#clipPath9)" stroke="none">: const double</text>
      <text x="76" font-size="8px" y="36" clip-path="url(#clipPath9)" font-family="monospace" stroke="none" xml:space="preserve"> </text>
    </g>
    <g fill="rgb(153,153,153)" text-rendering="geometricPrecision" shape-rendering="geometricPrecision" transform="matrix(1,0,0,1,-478,-158)" stroke="rgb(153,153,153)">
      <path d="M811.6805 367.1934 L826.6805 397.1934 L796.6805 397.1934 Z" fill-rule="evenodd" clip-path="url(#clipPath2)" stroke="none"/>
    </g>
    <g text-rendering="geometricPrecision" stroke-miterlimit="1.45" shape-rendering="geometricPrecision" transform="matrix(1,0,0,1,-478,-158)" stroke-linecap="butt">
      <path fill="none" d="M811.6805 367.1934 L826.6805 397.1934 L796.6805 397.1934 Z" fill-rule="evenodd" clip-path="url(#clipPath2)"/>
    </g>
    <g text-rendering="geometricPrecision" stroke-miterlimit="1.45" shape-rendering="geometricPrecision" font-family="'Fira Sans'" transform="matrix(1,0,0,1,-478,-158) translate(830,362)" stroke-linecap="butt">
      <text x="0" xml:space="preserve" y="10" clip-path="url(#clipPath10)" stroke="none">eatingRate2</text>
      <text x="63" xml:space="preserve" y="10" clip-path="url(#clipPath10)" stroke="none"> </text>
      <text x="0" xml:space="preserve" y="23" clip-path="url(#clipPath10)" stroke="none">= 2.8</text>
      <text x="26" xml:space="preserve" y="23" clip-path="url(#clipPath10)" stroke="none"> </text>
      <text fill="blue" x="0" xml:space="preserve" y="36" clip-path="url(#clipPath10)" stroke="none">: param double</text>
      <text x="80" font-size="8px" y="36" clip-path="url(#clipPath10)" font-family="monospace" stroke="none" xml:space="preserve"> </text>
    </g>
    <g text-rendering="geometricPrecision" shape-rendering="geometricPrecision" transform="matrix(1,0,0,1,-478,-158)">
      <circle r="5" clip-path="url(#clipPath2)" cx="942.3933" cy="306.696" stroke="none"/>
      <circle r="5" clip-path="url(#clipPath2)" cx="843.7285" cy="436.0126" stroke="none"/>
      <path fill="none" stroke-miterlimit="1.45" d="M942.3933 321.696 L942.3933 333.0696" clip-path="url(#clipPath2)" stroke-linecap="butt"/>
      <path stroke-miterlimit="1.45" d="M942.3933 341.0696 L947.3933 329.0696 L942.3933 332.0696 L937.3933 329.0696 Z" clip-path="url(#clipPath2)" stroke-linecap="butt" stroke="none"/>
      <path fill="none" stroke-miterlimit="1.45" d="M942.3933 356.0696 L942.3933 366.8124" clip-path="url(#clipPath2)" stroke-linecap="butt"/>
      <path stroke-miterlimit="1.45" d="M942.3933 374.8124 L947.3933 362.8124 L942.3933 365.8124 L937.3933 362.8124 Z" clip-path="url(#clipPath2)" stroke-linecap="butt" stroke="none"/>
      <path fill="none" stroke-miterlimit="1.45" d="M942.3933 404.8124 L942.3933 415.5552" clip-path="url(#clipPath2)" stroke-linecap="butt"/>
      <path stroke-miterlimit="1.45" d="M942.3933 423.5552 L947.3933 411.5552 L942.3933 414.5552 L937.3933 411.5552 Z" clip-path="url(#clipPath2)" stroke-linecap="butt" stroke="none"/>
      <path fill="none" stroke-miterlimit="1.45" d="M942.3933 431.5552 L942.3933 442.298" clip-path="url(#clipPath2)" stroke-linecap="butt"/>
      <path stroke-miterlimit="1.45" d="M942.3933 450.298 L947.3933 438.298 L942.3933 441.298 L937.3933 438.298 Z" clip-path="url(#clipPath2)" stroke-linecap="butt" stroke="none"/>
      <path fill="none" stroke-miterlimit="1.45" d="M942.3933 480.298 L942.3933 491.0408" clip-path="url(#clipPath2)" stroke-linecap="butt"/>
      <path stroke-miterlimit="1.45" d="M942.3933 499.0408 L947.3933 487.0408 L942.3933 490.0408 L937.3933 487.0408 Z" clip-path="url(#clipPath2)" stroke-linecap="butt" stroke="none"/>
      <path fill="none" stroke-miterlimit="1.45" d="M942.3933 514.0408 L942.3933 519.5932 L941.7683 522.0224 L939.8933 523.7575 L932.3933 525.1456 L925.5264 525.1456 L921.1514 524.5206 L918.0264 522.6456 L916.1514 519.5206 L915.5264 515.1456 L915.5264 283.6512 L916.1514 279.2762 L918.0264 276.1512 L921.1514 274.2762 L925.5264 273.6512 L932.3933 273.6512 L939.8933 274.9068 L941.7683 276.4763 L942.3933 278.6736 L942.3933 283.696" clip-path="url(#clipPath2)" stroke-linecap="butt"/>
      <path stroke-miterlimit="1.45" d="M942.3933 291.696 L947.3933 279.696 L942.3933 282.696 L937.3933 279.696 Z" clip-path="url(#clipPath2)" stroke-linecap="butt" stroke="none"/>
      <path fill="none" stroke-miterlimit="1.45" d="M947.6931 499.0408 L951.6392 493.4564 L953.9906 491.0132 L957.0988 489.2681 L965.5853 487.872 L1031.0581 487.872 L1035.4331 487.247 L1038.5581 485.372 L1040.4331 482.247 L1041.0581 477.872 L1041.0581 459.0125" clip-path="url(#clipPath2)" stroke-linecap="butt"/>
      <path stroke-miterlimit="1.45" d="M1041.0581 451.0125 L1036.0581 463.0125 L1041.0581 460.0125 L1046.0581 463.0125 Z" clip-path="url(#clipPath2)" stroke-linecap="butt" stroke="none"/>
    </g>
    <g stroke-linecap="butt" transform="matrix(1,0,0,1,-478,-158)" fill="white" text-rendering="geometricPrecision" shape-rendering="geometricPrecision" stroke="white" stroke-miterlimit="1.45">
      <rect x="1002.5412" width="59.8173" height="15.5856" y="466.3795" clip-path="url(#clipPath2)" stroke="none"/>
    </g>
    <g stroke-linecap="butt" transform="matrix(1,0,0,1,-478,-158)" fill="rgb(64,64,64)" text-rendering="geometricPrecision" font-family="'Fira Sans'" shape-rendering="geometricPrecision" font-style="italic" stroke="rgb(64,64,64)" stroke-miterlimit="1.45">
      <text x="1004.5412" xml:space="preserve" y="477.5784" clip-path="url(#clipPath2)" stroke="none">rightFork2</text>
    </g>
    <g stroke-linecap="butt" transform="matrix(1,0,0,1,-478,-158)" fill="white" text-rendering="geometricPrecision" shape-rendering="geometricPrecision" stroke="white" stroke-miterlimit="1.45">
      <rect x="1021.2839" width="39.5485" height="15.5497" y="480.0972" clip-path="url(#clipPath2)" stroke="none"/>
      <text x="1023.2839" y="491.3141" clip-path="url(#clipPath2)" fill="blue" font-family="'Fira Sans'" stroke="none" xml:space="preserve">: place</text>
      <path fill="none" d="M1041.0581 421.0125 L1041.0581 412.3956 L1040.4331 408.6257 L1038.5581 405.9329 L1035.4331 404.3172 L1031.0581 403.7787 L971.4285 403.7787 L962.5743 405.4701 L959.0067 407.5844 L956.012 410.5443 L950.5955 417.31" clip-path="url(#clipPath2)" stroke="black"/>
      <path fill="black" d="M945.5956 423.5552 L956.9986 417.3123 L951.2204 416.5294 L949.1921 411.0626 Z" clip-path="url(#clipPath2)" stroke="none"/>
      <path fill="none" stroke-dasharray="6,2" d="M1051.4232 446.8553 L1065.6282 461.715 L1065.6282 546.7151 L495.7722 546.7151 L495.7722 435.9275 L508.7384 435.9275" clip-path="url(#clipPath2)" stroke="rgb(64,64,64)"/>
      <path stroke-dasharray="6,2" d="M523.7384 435.9275 L507.7384 429.9275 L507.7384 441.9275 Z" clip-path="url(#clipPath2)" stroke="none"/>
      <path fill="none" d="M523.7384 435.9275 L507.7384 429.9275 L507.7384 441.9275 Z" clip-path="url(#clipPath2)" stroke="rgb(64,64,64)"/>
      <path fill="none" d="M937.2959 499.0408 L933.6023 493.6063 L931.3614 491.2287 L928.3322 489.5305 L919.9088 488.1718 L853.7285 488.1718 L849.3535 487.5468 L846.2285 485.6718 L844.3535 482.5468 L843.7285 478.1718 L843.7285 459.0125" clip-path="url(#clipPath2)" stroke="black"/>
      <path fill="black" d="M843.7285 451.0125 L838.7285 463.0125 L843.7285 460.0125 L848.7285 463.0125 Z" clip-path="url(#clipPath2)" stroke="none"/>
      <rect x="796.2285" width="95" height="19" y="467.3422" clip-path="url(#clipPath2)" stroke="none"/>
    </g>
    <g text-rendering="geometricPrecision" stroke-miterlimit="1.45" shape-rendering="geometricPrecision" font-family="'Fira Sans'" transform="matrix(1,0,0,1,-478,-158) translate(798,469)" stroke-linecap="butt">
      <text x="0" xml:space="preserve" y="12" clip-path="url(#clipPath11)" stroke="none">leftFork1 </text>
      <text fill="blue" x="49" xml:space="preserve" y="12" clip-path="url(#clipPath11)" stroke="none">: place</text>
      <text x="84" xml:space="preserve" y="12" clip-path="url(#clipPath11)" font-family="monospace" stroke="none"> </text>
    </g>
    <g stroke-linecap="butt" transform="matrix(1,0,0,1,-478,-158)" fill="rgb(64,64,64)" text-rendering="geometricPrecision" shape-rendering="geometricPrecision" stroke-dasharray="6,2" stroke="rgb(64,64,64)" stroke-miterlimit="1.45">
      <path fill="none" d="M751.068 436.0125 L813.7285 436.0125" clip-path="url(#clipPath2)"/>
      <path fill="white" d="M828.7285 436.0125 L812.7285 430.0125 L812.7285 442.0125 Z" clip-path="url(#clipPath2)" stroke="none"/>
      <path fill="none" stroke-dasharray="none" d="M828.7285 436.0125 L812.7285 430.0125 L812.7285 442.0125 Z" clip-path="url(#clipPath2)"/>
      <path fill="none" stroke-dasharray="none" d="M843.7285 421.0125 L843.7285 412.2413 L844.3535 408.4039 L846.2285 405.663 L849.3535 404.0183 L853.7285 403.4702 L912.8521 403.4702 L921.759 405.2042 L925.3926 407.3718 L928.4797 410.4065 L934.1075 417.3428" clip-path="url(#clipPath2)" stroke="black"/>
      <path fill="black" stroke-dasharray="none" d="M939.1479 423.5552 L935.47 411.0863 L933.4774 416.5662 L927.7045 417.3868 Z" clip-path="url(#clipPath2)" stroke="none"/>
    </g>
    <g fill="white" text-rendering="geometricPrecision" shape-rendering="geometricPrecision" transform="matrix(1,0,0,1,-478,-158)" stroke="white">
      <rect x="627.3635" y="163.3094" clip-path="url(#clipPath2)" width="304.3955" rx="4" ry="4" height="76.7814" stroke="none"/>
      <rect x="627.3635" y="163.3094" clip-path="url(#clipPath2)" fill="rgb(255,170,127)" width="304.3955" height="15.5497" stroke="none"/>
    </g>
    <g text-rendering="geometricPrecision" stroke-miterlimit="1.45" shape-rendering="geometricPrecision" font-family="'Fira Sans'" transform="matrix(1,0,0,1,-478,-158)" stroke-linecap="butt">
      <text x="765.517" xml:space="preserve" y="174.5263" clip-path="url(#clipPath2)" stroke="none">table</text>
      <rect x="627.3635" y="163.3094" clip-path="url(#clipPath2)" fill="none" width="304.3955" rx="4" ry="4" height="76.7814"/>
      <path fill="none" d="M782.6042 189.9887 L797.6042 219.9887 L767.6042 219.9887 Z" clip-path="url(#clipPath2)" fill-rule="evenodd"/>
    </g>
    <g text-rendering="geometricPrecision" stroke-miterlimit="1.45" shape-rendering="geometricPrecision" font-family="'Fira Sans'" transform="matrix(1,0,0,1,-478,-158) translate(801,185)" stroke-linecap="butt">
      <text x="0" xml:space="preserve" y="10" clip-path="url(#clipPath18)" stroke="none">totalThinkingTime</text>
      <text x="97" xml:space="preserve" y="10" clip-path="url(#clipPath18)" stroke="none"> </text>
      <text x="0" xml:space="preserve" y="23" clip-path="url(#clipPath18)" stroke="none">= sum(thinkingTimes)</text>
      <text x="114" font-size="8px" y="23" clip-path="url(#clipPath18)" font-family="monospace" stroke="none" xml:space="preserve"> </text>
      <text x="119" xml:space="preserve" y="23" clip-path="url(#clipPath18)" stroke="none"> </text>
      <text fill="blue" x="0" xml:space="preserve" y="36" clip-path="url(#clipPath18)" stroke="none">: prop double</text>
      <text x="72" font-size="8px" y="36" clip-path="url(#clipPath18)" font-family="monospace" stroke="none" xml:space="preserve"> </text>
    </g>
    <g fill="rgb(153,153,153)" text-rendering="geometricPrecision" shape-rendering="geometricPrecision" transform="matrix(1,0,0,1,-478,-158) translate(6,4)" stroke="rgb(153,153,153)">
      <path d="M652.361 189.9887 L667.361 219.9887 L637.361 219.9887 Z" fill-rule="evenodd" clip-path="url(#clipPath19)" stroke="none"/>
    </g>
    <g fill="white" text-rendering="geometricPrecision" shape-rendering="geometricPrecision" transform="matrix(1,0,0,1,-478,-158)" stroke="white">
      <path d="M652.361 189.9887 L667.361 219.9887 L637.361 219.9887 Z" fill-rule="evenodd" clip-path="url(#clipPath2)" stroke="none"/>
    </g>
    <g text-rendering="geometricPrecision" stroke-miterlimit="1.45" shape-rendering="geometricPrecision" transform="matrix(1,0,0,1,-478,-158)" stroke-linecap="butt">
      <path fill="none" d="M652.361 189.9887 L667.361 219.9887 L637.361 219.9887 Z" fill-rule="evenodd" clip-path="url(#clipPath2)"/>
    </g>
    <g stroke-linecap="butt" transform="matrix(1,0,0,1,-478,-158) translate(673,185)" text-rendering="geometricPrecision" font-family="'Fira Sans'" shape-rendering="geometricPrecision" font-style="italic" stroke-miterlimit="1.45">
      <text x="0" xml:space="preserve" y="10" clip-path="url(#clipPath20)" stroke="none">thinkingTimes</text>
      <text font-style="normal" x="75" xml:space="preserve" y="10" clip-path="url(#clipPath20)" stroke="none"> </text>
      <text x="0" y="23" clip-path="url(#clipPath20)" fill="blue" font-style="normal" stroke="none" xml:space="preserve">: prop double[]</text>
    </g>
    <g stroke-linecap="butt" font-size="8px" transform="matrix(1,0,0,1,-478,-158) translate(673,185)" fill="blue" text-rendering="geometricPrecision" font-family="monospace" shape-rendering="geometricPrecision" stroke="blue" stroke-miterlimit="1.45">
      <text x="80" xml:space="preserve" y="23" clip-path="url(#clipPath20)" stroke="none"> </text>
    </g>
    <g stroke-linecap="butt" transform="matrix(1,0,0,1,-478,-158)" fill="rgb(64,64,64)" text-rendering="geometricPrecision" shape-rendering="geometricPrecision" stroke="rgb(64,64,64)" stroke-miterlimit="1.45">
      <path fill="none" d="M647.2343 220.0081 L647.2343 231.2688 L523.0851 231.2688 L523.0851 271.0549 L519.2157 276.5246" clip-path="url(#clipPath2)"/>
      <path fill="white" d="M510.5529 288.7703 L524.6915 279.1734 L514.895 272.2431 Z" clip-path="url(#clipPath2)" stroke="none"/>
      <path fill="none" d="M510.5529 288.7703 L524.6915 279.1734 L514.895 272.2431 Z" clip-path="url(#clipPath2)"/>
      <text x="568.5781" font-size="15px" y="225.5749" clip-path="url(#clipPath2)" font-family="'DejaVu Sans'" stroke="none" xml:space="preserve">∈</text>
      <path fill="none" d="M659.8373 220.007 L659.8373 231.2688 L795.7883 231.2688 L795.7883 270.9903 L799.0196 276.0378" clip-path="url(#clipPath2)"/>
      <path fill="white" d="M807.1069 288.671 L803.5337 271.9607 L793.4272 278.4305 Z" clip-path="url(#clipPath2)" stroke="none"/>
      <path fill="none" d="M807.1069 288.671 L803.5337 271.9607 L793.4272 278.4305 Z" clip-path="url(#clipPath2)"/>
      <text x="716.2924" font-size="15px" y="225.1468" clip-path="url(#clipPath2)" font-family="'DejaVu Sans'" stroke="none" xml:space="preserve">∈</text>
    </g>
  </g>
</svg>
