<?xml version="1.0" encoding="UTF-8"?><svg xmlns="http://www.w3.org/2000/svg" xmlns:xlink="http://www.w3.org/1999/xlink" fill-opacity="1" color-rendering="auto" color-interpolation="auto" text-rendering="auto" stroke="black" stroke-linecap="square" width="595" stroke-miterlimit="10" shape-rendering="auto" stroke-opacity="1" fill="black" stroke-dasharray="none" font-weight="normal" stroke-width="1" height="383" font-family="'Dialog'" font-style="normal" stroke-linejoin="miter" font-size="12px" stroke-dashoffset="0" image-rendering="auto">
  <!--Generated by ySVG 2.5-->
  <defs id="genericDefs"/>
  <g>
    <defs id="defs1">
      <clipPath clipPathUnits="userSpaceOnUse" id="clipPath1">
        <path d="M0 0 L595 0 L595 383 L0 383 L0 0 Z"/>
      </clipPath>
      <clipPath clipPathUnits="userSpaceOnUse" id="clipPath2">
        <path d="M482 162 L1077 162 L1077 545 L482 545 L482 162 Z"/>
      </clipPath>
      <clipPath clipPathUnits="userSpaceOnUse" id="clipPath3">
        <path d="M0 0 L0 26 L85 26 L85 0 Z"/>
      </clipPath>
      <clipPath clipPathUnits="userSpaceOnUse" id="clipPath4">
        <path d="M0 0 L0 28 L67 28 L67 0 Z"/>
      </clipPath>
      <clipPath clipPathUnits="userSpaceOnUse" id="clipPath5">
        <path d="M0 0 L0 26 L81 26 L81 0 Z"/>
      </clipPath>
      <clipPath clipPathUnits="userSpaceOnUse" id="clipPath6">
        <path d="M0 0 L0 26 L86 26 L86 0 Z"/>
      </clipPath>
      <clipPath clipPathUnits="userSpaceOnUse" id="clipPath7">
        <path d="M0 0 L0 28 L68 28 L68 0 Z"/>
      </clipPath>
    </defs>
    <g fill="white" text-rendering="geometricPrecision" shape-rendering="geometricPrecision" transform="matrix(1,0,0,1,-482,-162)" stroke="white">
      <rect x="483.3507" y="251.2688" clip-path="url(#clipPath2)" width="287.4309" rx="4" ry="4" height="283.8057" stroke="none"/>
    </g>
    <g fill="rgb(217,217,217)" text-rendering="geometricPrecision" shape-rendering="geometricPrecision" transform="matrix(1,0,0,1,-482,-162)" stroke="rgb(217,217,217)">
      <rect x="483.3507" width="287.4309" height="15.5497" y="251.2688" clip-path="url(#clipPath2)" stroke="none"/>
    </g>
    <g text-rendering="geometricPrecision" stroke-miterlimit="1.45" shape-rendering="geometricPrecision" font-family="'Fira Sans'" transform="matrix(1,0,0,1,-482,-162)" stroke-linecap="butt">
      <text x="591.4518" xml:space="preserve" y="262.4858" clip-path="url(#clipPath2)" stroke="none">philosopher1</text>
      <rect x="483.3507" y="251.2688" clip-path="url(#clipPath2)" fill="none" width="287.4309" rx="4" ry="4" height="283.8057"/>
      <circle fill="none" r="15" clip-path="url(#clipPath2)" cx="637.4032" cy="306.696"/>
      <text x="656.4032" xml:space="preserve" y="310.1381" clip-path="url(#clipPath2)" stroke="none">thinking1</text>
      <circle fill="none" r="15" clip-path="url(#clipPath2)" cx="637.4032" cy="389.8124"/>
      <text x="656.4032" xml:space="preserve" y="393.2545" clip-path="url(#clipPath2)" stroke="none">waiting1</text>
      <circle fill="none" r="15" clip-path="url(#clipPath2)" cx="637.4032" cy="465.298"/>
      <text x="656.4032" xml:space="preserve" y="468.7401" clip-path="url(#clipPath2)" stroke="none">eating1</text>
      <rect fill="none" x="622.4032" width="30" height="15" y="341.0696" clip-path="url(#clipPath2)"/>
    </g>
    <g text-rendering="geometricPrecision" stroke-miterlimit="1.45" shape-rendering="geometricPrecision" font-family="'Fira Sans'" transform="matrix(1,0,0,1,-482,-162) translate(656,335)" stroke-linecap="butt">
      <text x="0" xml:space="preserve" y="10" clip-path="url(#clipPath3)" stroke="none">getHungry1</text>
      <text x="60" xml:space="preserve" y="10" clip-path="url(#clipPath3)" stroke="none"> </text>
      <text x="0" xml:space="preserve" y="23" clip-path="url(#clipPath3)" stroke="none">λ</text>
      <text x="6" xml:space="preserve" y="23" clip-path="url(#clipPath3)" stroke="none"> = hungryRate1</text>
    </g>
    <g text-rendering="geometricPrecision" shape-rendering="geometricPrecision" transform="matrix(1,0,0,1,-482,-162)">
      <rect x="622.4032" width="30" height="8" y="423.5552" clip-path="url(#clipPath2)" stroke="none"/>
      <rect stroke-linecap="butt" x="622.4032" y="423.5552" clip-path="url(#clipPath2)" fill="none" width="30" height="8" stroke-miterlimit="1.45"/>
    </g>
    <g text-rendering="geometricPrecision" stroke-miterlimit="1.45" shape-rendering="geometricPrecision" font-family="'Fira Sans'" transform="matrix(1,0,0,1,-482,-162) translate(656,413)" stroke-linecap="butt">
      <text x="0" xml:space="preserve" y="12" clip-path="url(#clipPath4)" stroke="none">startEating1</text>
      <text x="60" xml:space="preserve" y="12" clip-path="url(#clipPath4)" font-family="monospace" stroke="none"> </text>
      <text x="67" xml:space="preserve" y="12" clip-path="url(#clipPath4)" stroke="none"> </text>
      <text x="0" xml:space="preserve" y="25" clip-path="url(#clipPath4)" stroke="none">w = 1, </text>
      <text x="32" xml:space="preserve" y="25" clip-path="url(#clipPath4)" stroke="none">π</text>
      <text x="39" xml:space="preserve" y="25" clip-path="url(#clipPath4)" stroke="none"> = 1</text>
    </g>
    <g text-rendering="geometricPrecision" stroke-miterlimit="1.45" shape-rendering="geometricPrecision" transform="matrix(1,0,0,1,-482,-162)" stroke-linecap="butt">
      <rect fill="none" x="622.4032" width="30" height="15" y="499.0408" clip-path="url(#clipPath2)"/>
    </g>
    <g text-rendering="geometricPrecision" stroke-miterlimit="1.45" shape-rendering="geometricPrecision" font-family="'Fira Sans'" transform="matrix(1,0,0,1,-482,-162) translate(656,493)" stroke-linecap="butt">
      <text x="0" xml:space="preserve" y="10" clip-path="url(#clipPath5)" stroke="none">finishEating1</text>
      <text x="66" xml:space="preserve" y="10" clip-path="url(#clipPath5)" stroke="none"> </text>
      <text x="0" xml:space="preserve" y="23" clip-path="url(#clipPath5)" stroke="none">λ</text>
      <text x="6" xml:space="preserve" y="23" clip-path="url(#clipPath5)" stroke="none"> = eatingRate1</text>
    </g>
    <g stroke-linecap="butt" transform="matrix(1,0,0,1,-482,-162)" fill="rgb(64,64,64)" text-rendering="geometricPrecision" shape-rendering="geometricPrecision" stroke-dasharray="6,2" stroke="rgb(64,64,64)" stroke-miterlimit="1.45">
      <circle fill="none" r="15" clip-path="url(#clipPath2)" cx="736.068" cy="436.0126"/>
      <circle clip-path="url(#clipPath2)" fill="none" r="15" stroke-dasharray="none" cx="538.7384" cy="435.9275" stroke="black"/>
      <path fill="none" stroke-dasharray="none" d="M506.3135 280.2272 L521.3135 310.2272 L491.3135 310.2272 Z" clip-path="url(#clipPath2)" fill-rule="evenodd" stroke="black"/>
    </g>
    <g text-rendering="geometricPrecision" stroke-miterlimit="1.45" shape-rendering="geometricPrecision" font-family="'Fira Sans'" transform="matrix(1,0,0,1,-482,-162)" stroke-linecap="butt">
      <text x="525.3139" xml:space="preserve" y="292.8945" clip-path="url(#clipPath2)" stroke="none">thinkingTime1</text>
      <text x="525.3139" xml:space="preserve" y="304.4441" clip-path="url(#clipPath2)" stroke="none">= #thinking1</text>
      <path fill="none" d="M506.3138 326.0696 L521.3139 356.0696 L491.3139 356.0696 Z" clip-path="url(#clipPath2)" fill-rule="evenodd"/>
      <text x="525.3139" xml:space="preserve" y="338.7369" clip-path="url(#clipPath2)" stroke="none">hungryRate1</text>
      <text x="525.3139" xml:space="preserve" y="350.2865" clip-path="url(#clipPath2)" stroke="none">= 3.0</text>
      <path stroke-miterlimit="10" d="M506.6903 371.912 L521.6904 401.912 L491.6904 401.912 Z" fill-rule="evenodd" clip-path="url(#clipPath2)" stroke-linecap="square" stroke="none"/>
      <path fill="none" d="M506.6903 371.912 L521.6904 401.912 L491.6904 401.912 Z" clip-path="url(#clipPath2)" fill-rule="evenodd"/>
      <text x="525.6904" xml:space="preserve" y="384.5793" clip-path="url(#clipPath2)" stroke="none">eatingRate1</text>
      <text x="525.6904" xml:space="preserve" y="396.1289" clip-path="url(#clipPath2)" stroke="none">= 0.5</text>
      <circle stroke-linecap="square" clip-path="url(#clipPath2)" r="5" cx="637.4032" cy="306.696" stroke="none" stroke-miterlimit="10"/>
      <circle stroke-linecap="square" clip-path="url(#clipPath2)" r="5" cx="538.7384" cy="436.0126" stroke="none" stroke-miterlimit="10"/>
      <path fill="none" d="M637.4032 321.696 L637.4032 333.0696" clip-path="url(#clipPath2)"/>
      <path d="M637.4032 341.0696 L642.4032 329.0696 L637.4032 332.0696 L632.4032 329.0696 Z" clip-path="url(#clipPath2)" stroke="none"/>
      <path fill="none" d="M637.4032 356.0696 L637.4032 366.8124" clip-path="url(#clipPath2)"/>
      <path d="M637.4032 374.8124 L642.4032 362.8124 L637.4032 365.8124 L632.4032 362.8124 Z" clip-path="url(#clipPath2)" stroke="none"/>
      <path fill="none" d="M637.4032 404.8124 L637.4032 415.5552" clip-path="url(#clipPath2)"/>
      <path d="M637.4032 423.5552 L642.4032 411.5552 L637.4032 414.5552 L632.4032 411.5552 Z" clip-path="url(#clipPath2)" stroke="none"/>
      <path fill="none" d="M637.4032 431.5552 L637.4032 442.298" clip-path="url(#clipPath2)"/>
      <path d="M637.4032 450.298 L642.4032 438.298 L637.4032 441.298 L632.4032 438.298 Z" clip-path="url(#clipPath2)" stroke="none"/>
      <path fill="none" d="M637.4032 480.298 L637.4032 491.0408" clip-path="url(#clipPath2)"/>
      <path d="M637.4032 499.0408 L642.4032 487.0408 L637.4032 490.0408 L632.4032 487.0408 Z" clip-path="url(#clipPath2)" stroke="none"/>
      <path fill="none" d="M637.4032 514.0408 L637.4032 519.5932 L636.7782 522.0224 L634.9032 523.7575 L627.4032 525.1456 L620.5363 525.1456 L616.1613 524.5206 L613.0363 522.6456 L611.1613 519.5206 L610.5363 515.1456 L610.5363 283.6512 L611.1613 279.2762 L613.0363 276.1512 L616.1613 274.2762 L620.5363 273.6512 L627.4032 273.6512 L634.9032 274.9068 L636.7782 276.4763 L637.4032 278.6736 L637.4032 283.696" clip-path="url(#clipPath2)"/>
      <path d="M637.4032 291.696 L642.4032 279.696 L637.4032 282.696 L632.4032 279.696 Z" clip-path="url(#clipPath2)" stroke="none"/>
      <path fill="none" d="M642.7029 499.0408 L646.649 493.4564 L649.0005 491.0132 L652.1086 489.2681 L660.5952 487.872 L726.068 487.872 L730.443 487.247 L733.568 485.372 L735.443 482.247 L736.068 477.872 L736.068 459.0125" clip-path="url(#clipPath2)"/>
      <path d="M736.068 451.0125 L731.068 463.0125 L736.068 460.0125 L741.068 463.0125 Z" clip-path="url(#clipPath2)" stroke="none"/>
      <rect x="706.5311" y="468.0459" clip-path="url(#clipPath2)" fill="white" width="59.0737" height="15.5856" stroke="none"/>
      <text x="708.5311" y="479.2448" clip-path="url(#clipPath2)" fill="rgb(64,64,64)" font-style="italic" stroke="none" xml:space="preserve">rightFork1</text>
      <path fill="none" d="M736.068 421.0125 L736.068 412.3956 L735.443 408.6257 L733.568 405.9329 L730.443 404.3172 L726.068 403.7787 L666.4384 403.7787 L657.5843 405.4701 L654.0166 407.5844 L651.0219 410.5443 L645.6053 417.31" clip-path="url(#clipPath2)"/>
      <path d="M640.6055 423.5552 L652.0085 417.3123 L646.2303 416.5294 L644.202 411.0626 Z" clip-path="url(#clipPath2)" stroke="none"/>
      <path fill="none" d="M632.3058 499.0408 L628.6122 493.6063 L626.3713 491.2287 L623.342 489.5305 L614.9186 488.1718 L548.7384 488.1718 L544.3634 487.5468 L541.2384 485.6718 L539.3634 482.5468 L538.7384 478.1718 L538.7384 458.9275" clip-path="url(#clipPath2)"/>
      <path d="M538.7384 450.9275 L533.7384 462.9275 L538.7384 459.9275 L543.7384 462.9275 Z" clip-path="url(#clipPath2)" stroke="none"/>
      <rect x="513.0814" y="468.1622" clip-path="url(#clipPath2)" fill="white" width="51.314" height="15.5497" stroke="none"/>
      <text x="515.0814" xml:space="preserve" y="479.3792" clip-path="url(#clipPath2)" stroke="none">leftFork1</text>
      <path fill="none" d="M538.7384 420.9275 L538.7384 412.1988 L539.3634 408.38 L541.2384 405.6523 L544.3634 404.0157 L548.7384 403.4702 L607.8619 403.4702 L616.7689 405.2042 L620.4025 407.3718 L623.4897 410.4065 L629.1174 417.3428" clip-path="url(#clipPath2)"/>
      <path d="M634.1578 423.5552 L630.48 411.0863 L628.4874 416.5662 L622.7145 417.3868 Z" clip-path="url(#clipPath2)" stroke="none"/>
    </g>
    <g fill="white" text-rendering="geometricPrecision" shape-rendering="geometricPrecision" transform="matrix(1,0,0,1,-482,-162)" stroke="white">
      <rect x="788.3408" y="251.2688" clip-path="url(#clipPath2)" width="287.4309" rx="4" ry="4" height="283.8057" stroke="none"/>
      <rect x="788.3408" y="251.2688" clip-path="url(#clipPath2)" fill="rgb(217,217,217)" width="287.4309" height="15.5497" stroke="none"/>
    </g>
    <g text-rendering="geometricPrecision" stroke-miterlimit="1.45" shape-rendering="geometricPrecision" font-family="'Fira Sans'" transform="matrix(1,0,0,1,-482,-162)" stroke-linecap="butt">
      <text x="896.0701" xml:space="preserve" y="262.4858" clip-path="url(#clipPath2)" stroke="none">philosopher2</text>
      <rect x="788.3408" y="251.2688" clip-path="url(#clipPath2)" fill="none" width="287.4309" rx="4" ry="4" height="283.8057"/>
      <circle fill="none" r="15" clip-path="url(#clipPath2)" cx="942.3933" cy="306.696"/>
      <text x="961.3933" xml:space="preserve" y="310.1381" clip-path="url(#clipPath2)" stroke="none">thinking2</text>
      <circle fill="none" r="15" clip-path="url(#clipPath2)" cx="942.3933" cy="389.8124"/>
      <text x="961.3933" xml:space="preserve" y="393.2545" clip-path="url(#clipPath2)" stroke="none">waiting2</text>
      <circle fill="none" r="15" clip-path="url(#clipPath2)" cx="942.3933" cy="465.298"/>
      <text x="961.3933" xml:space="preserve" y="468.7401" clip-path="url(#clipPath2)" stroke="none">eating2</text>
      <rect fill="none" x="927.3933" width="30" height="15" y="341.0696" clip-path="url(#clipPath2)"/>
    </g>
    <g text-rendering="geometricPrecision" stroke-miterlimit="1.45" shape-rendering="geometricPrecision" font-family="'Fira Sans'" transform="matrix(1,0,0,1,-482,-162) translate(961,335)" stroke-linecap="butt">
      <text x="0" xml:space="preserve" y="10" clip-path="url(#clipPath6)" stroke="none">getHungry2</text>
      <text x="61" xml:space="preserve" y="10" clip-path="url(#clipPath6)" stroke="none"> </text>
      <text x="0" xml:space="preserve" y="23" clip-path="url(#clipPath6)" stroke="none">λ</text>
      <text x="6" xml:space="preserve" y="23" clip-path="url(#clipPath6)" stroke="none"> = hungryRate2</text>
    </g>
    <g text-rendering="geometricPrecision" shape-rendering="geometricPrecision" transform="matrix(1,0,0,1,-482,-162)">
      <rect x="927.3933" width="30" height="8" y="423.5552" clip-path="url(#clipPath2)" stroke="none"/>
      <rect stroke-linecap="butt" x="927.3933" y="423.5552" clip-path="url(#clipPath2)" fill="none" width="30" height="8" stroke-miterlimit="1.45"/>
    </g>
    <g text-rendering="geometricPrecision" stroke-miterlimit="1.45" shape-rendering="geometricPrecision" font-family="'Fira Sans'" transform="matrix(1,0,0,1,-482,-162) translate(961,413)" stroke-linecap="butt">
      <text x="0" xml:space="preserve" y="12" clip-path="url(#clipPath7)" stroke="none">startEating2</text>
      <text x="61" xml:space="preserve" y="12" clip-path="url(#clipPath7)" font-family="monospace" stroke="none"> </text>
      <text x="68" xml:space="preserve" y="12" clip-path="url(#clipPath7)" stroke="none"> </text>
      <text x="0" xml:space="preserve" y="25" clip-path="url(#clipPath7)" stroke="none">w = 1, </text>
      <text x="32" xml:space="preserve" y="25" clip-path="url(#clipPath7)" stroke="none">π</text>
      <text x="39" xml:space="preserve" y="25" clip-path="url(#clipPath7)" stroke="none"> = 1</text>
    </g>
    <g text-rendering="geometricPrecision" stroke-miterlimit="1.45" shape-rendering="geometricPrecision" transform="matrix(1,0,0,1,-482,-162)" stroke-linecap="butt">
      <rect fill="none" x="927.3933" width="30" height="15" y="499.0408" clip-path="url(#clipPath2)"/>
    </g>
    <g text-rendering="geometricPrecision" stroke-miterlimit="1.45" shape-rendering="geometricPrecision" font-family="'Fira Sans'" transform="matrix(1,0,0,1,-482,-162) translate(961,493)" stroke-linecap="butt">
      <text x="0" xml:space="preserve" y="10" clip-path="url(#clipPath6)" stroke="none">getHungry2</text>
      <text x="61" xml:space="preserve" y="10" clip-path="url(#clipPath6)" stroke="none"> </text>
      <text x="0" xml:space="preserve" y="23" clip-path="url(#clipPath6)" stroke="none">λ</text>
      <text x="6" xml:space="preserve" y="23" clip-path="url(#clipPath6)" stroke="none"> = hungryRate2</text>
    </g>
    <g stroke-linecap="butt" transform="matrix(1,0,0,1,-482,-162)" fill="rgb(64,64,64)" text-rendering="geometricPrecision" shape-rendering="geometricPrecision" stroke-dasharray="6,2" stroke="rgb(64,64,64)" stroke-miterlimit="1.45">
      <circle fill="none" r="15" clip-path="url(#clipPath2)" cx="1041.0581" cy="436.0126"/>
      <circle clip-path="url(#clipPath2)" fill="none" r="15" stroke-dasharray="none" cx="843.7285" cy="436.0126" stroke="black"/>
      <path fill="none" stroke-dasharray="none" d="M811.3037 280.2272 L826.3037 310.2272 L796.3037 310.2272 Z" clip-path="url(#clipPath2)" fill-rule="evenodd" stroke="black"/>
    </g>
    <g text-rendering="geometricPrecision" stroke-miterlimit="1.45" shape-rendering="geometricPrecision" font-family="'Fira Sans'" transform="matrix(1,0,0,1,-482,-162)" stroke-linecap="butt">
      <text x="830.304" xml:space="preserve" y="292.8945" clip-path="url(#clipPath2)" stroke="none">thinkingTime2</text>
      <text x="830.304" xml:space="preserve" y="304.4441" clip-path="url(#clipPath2)" stroke="none">= #thinking2</text>
      <path fill="none" d="M811.3037 326.0696 L826.3037 356.0696 L796.3037 356.0696 Z" clip-path="url(#clipPath2)" fill-rule="evenodd"/>
      <text x="830.304" xml:space="preserve" y="338.7369" clip-path="url(#clipPath2)" stroke="none">hungryRate2</text>
      <text x="830.304" xml:space="preserve" y="350.2865" clip-path="url(#clipPath2)" stroke="none">= 2.8</text>
      <path stroke-miterlimit="10" d="M811.6802 371.912 L826.6802 401.912 L796.6802 401.912 Z" fill-rule="evenodd" clip-path="url(#clipPath2)" stroke-linecap="square" stroke="none"/>
      <path fill="none" d="M811.6802 371.912 L826.6802 401.912 L796.6802 401.912 Z" clip-path="url(#clipPath2)" fill-rule="evenodd"/>
      <text x="830.6805" xml:space="preserve" y="384.5793" clip-path="url(#clipPath2)" stroke="none">eatingRate2</text>
      <text x="830.6805" xml:space="preserve" y="396.1289" clip-path="url(#clipPath2)" stroke="none">= 0.45</text>
      <circle stroke-linecap="square" clip-path="url(#clipPath2)" r="5" cx="942.3933" cy="306.696" stroke="none" stroke-miterlimit="10"/>
      <circle stroke-linecap="square" clip-path="url(#clipPath2)" r="5" cx="843.7285" cy="436.0126" stroke="none" stroke-miterlimit="10"/>
      <path fill="none" d="M942.3933 321.696 L942.3933 333.0696" clip-path="url(#clipPath2)"/>
      <path d="M942.3933 341.0696 L947.3933 329.0696 L942.3933 332.0696 L937.3933 329.0696 Z" clip-path="url(#clipPath2)" stroke="none"/>
      <path fill="none" d="M942.3933 356.0696 L942.3933 366.8124" clip-path="url(#clipPath2)"/>
      <path d="M942.3933 374.8124 L947.3933 362.8124 L942.3933 365.8124 L937.3933 362.8124 Z" clip-path="url(#clipPath2)" stroke="none"/>
      <path fill="none" d="M942.3933 404.8124 L942.3933 415.5552" clip-path="url(#clipPath2)"/>
      <path d="M942.3933 423.5552 L947.3933 411.5552 L942.3933 414.5552 L937.3933 411.5552 Z" clip-path="url(#clipPath2)" stroke="none"/>
      <path fill="none" d="M942.3933 431.5552 L942.3933 442.298" clip-path="url(#clipPath2)"/>
      <path d="M942.3933 450.298 L947.3933 438.298 L942.3933 441.298 L937.3933 438.298 Z" clip-path="url(#clipPath2)" stroke="none"/>
      <path fill="none" d="M942.3933 480.298 L942.3933 491.0408" clip-path="url(#clipPath2)"/>
      <path d="M942.3933 499.0408 L947.3933 487.0408 L942.3933 490.0408 L937.3933 487.0408 Z" clip-path="url(#clipPath2)" stroke="none"/>
      <path fill="none" d="M942.3933 514.0408 L942.3933 519.5932 L941.7683 522.0224 L939.8933 523.7575 L932.3933 525.1456 L925.5264 525.1456 L921.1514 524.5206 L918.0264 522.6456 L916.1514 519.5206 L915.5264 515.1456 L915.5264 283.6512 L916.1514 279.2762 L918.0264 276.1512 L921.1514 274.2762 L925.5264 273.6512 L932.3933 273.6512 L939.8933 274.9068 L941.7683 276.4763 L942.3933 278.6736 L942.3933 283.696" clip-path="url(#clipPath2)"/>
      <path d="M942.3933 291.696 L947.3933 279.696 L942.3933 282.696 L937.3933 279.696 Z" clip-path="url(#clipPath2)" stroke="none"/>
      <path fill="none" d="M947.6931 499.0408 L951.6392 493.4564 L953.9906 491.0132 L957.0988 489.2681 L965.5853 487.872 L1031.0581 487.872 L1035.4331 487.247 L1038.5581 485.372 L1040.4331 482.247 L1041.0581 477.872 L1041.0581 459.0125" clip-path="url(#clipPath2)"/>
      <path d="M1041.0581 451.0125 L1036.0581 463.0125 L1041.0581 460.0125 L1046.0581 463.0125 Z" clip-path="url(#clipPath2)" stroke="none"/>
      <rect x="1002.6822" y="468.7659" clip-path="url(#clipPath2)" fill="white" width="59.8173" height="15.5856" stroke="none"/>
      <text x="1004.6823" y="479.9648" clip-path="url(#clipPath2)" fill="rgb(64,64,64)" font-style="italic" stroke="none" xml:space="preserve">rightFork2</text>
      <path fill="none" d="M1041.0581 421.0125 L1041.0581 412.3956 L1040.4331 408.6257 L1038.5581 405.9329 L1035.4331 404.3172 L1031.0581 403.7787 L971.4285 403.7787 L962.5743 405.4701 L959.0067 407.5844 L956.012 410.5443 L950.5955 417.31" clip-path="url(#clipPath2)"/>
      <path d="M945.5956 423.5552 L956.9986 417.3123 L951.2204 416.5294 L949.1921 411.0626 Z" clip-path="url(#clipPath2)" stroke="none"/>
    </g>
    <g stroke-linecap="butt" transform="matrix(1,0,0,1,-482,-162)" fill="rgb(64,64,64)" text-rendering="geometricPrecision" shape-rendering="geometricPrecision" stroke-dasharray="6,2" stroke="rgb(64,64,64)" stroke-miterlimit="1.45">
      <path fill="none" d="M1051.4232 446.8553 L1065.6282 461.715 L1065.6282 543.1311 L495.7722 543.1311 L495.7722 435.9275 L508.7384 435.9275" clip-path="url(#clipPath2)"/>
      <path fill="white" d="M523.7384 435.9275 L507.7384 429.9275 L507.7384 441.9275 Z" clip-path="url(#clipPath2)" stroke="none"/>
      <path fill="none" stroke-dasharray="none" d="M523.7384 435.9275 L507.7384 429.9275 L507.7384 441.9275 Z" clip-path="url(#clipPath2)"/>
      <path fill="none" stroke-dasharray="none" d="M937.2959 499.0408 L933.6023 493.6063 L931.3614 491.2287 L928.3322 489.5305 L919.9088 488.1718 L853.7285 488.1718 L849.3535 487.5468 L846.2285 485.6718 L844.3535 482.5468 L843.7285 478.1718 L843.7285 459.0125" clip-path="url(#clipPath2)" stroke="black"/>
      <path fill="black" stroke-dasharray="none" d="M843.7285 451.0125 L838.7285 463.0125 L843.7285 460.0125 L848.7285 463.0125 Z" clip-path="url(#clipPath2)" stroke="none"/>
      <rect x="817.6997" y="468.2048" clip-path="url(#clipPath2)" fill="white" width="52.0576" stroke-dasharray="none" height="15.5497" stroke="none"/>
    </g>
    <g text-rendering="geometricPrecision" stroke-miterlimit="1.45" shape-rendering="geometricPrecision" font-family="'Fira Sans'" transform="matrix(1,0,0,1,-482,-162)" stroke-linecap="butt">
      <text x="819.6997" xml:space="preserve" y="479.4217" clip-path="url(#clipPath2)" stroke="none">leftFork2</text>
    </g>
    <g stroke-linecap="butt" transform="matrix(1,0,0,1,-482,-162)" fill="rgb(64,64,64)" text-rendering="geometricPrecision" shape-rendering="geometricPrecision" stroke-dasharray="6,2" stroke="rgb(64,64,64)" stroke-miterlimit="1.45">
      <path fill="none" d="M751.068 436.0125 L813.7285 436.0125" clip-path="url(#clipPath2)"/>
      <path fill="white" d="M828.7285 436.0125 L812.7285 430.0125 L812.7285 442.0125 Z" clip-path="url(#clipPath2)" stroke="none"/>
      <path fill="none" stroke-dasharray="none" d="M828.7285 436.0125 L812.7285 430.0125 L812.7285 442.0125 Z" clip-path="url(#clipPath2)"/>
      <path fill="none" stroke-dasharray="none" d="M843.7285 421.0125 L843.7285 412.2413 L844.3535 408.4039 L846.2285 405.663 L849.3535 404.0183 L853.7285 403.4702 L912.8521 403.4702 L921.759 405.2042 L925.3926 407.3718 L928.4797 410.4065 L934.1075 417.3428" clip-path="url(#clipPath2)" stroke="black"/>
      <path fill="black" stroke-dasharray="none" d="M939.1479 423.5552 L935.47 411.0863 L933.4774 416.5662 L927.7045 417.3868 Z" clip-path="url(#clipPath2)" stroke="none"/>
    </g>
    <g fill="white" text-rendering="geometricPrecision" shape-rendering="geometricPrecision" transform="matrix(1,0,0,1,-482,-162)" stroke="white">
      <rect x="627.3635" y="163.3094" clip-path="url(#clipPath2)" width="304.3955" rx="4" ry="4" height="78.9254" stroke="none"/>
      <rect x="627.3635" y="163.3094" clip-path="url(#clipPath2)" fill="rgb(217,217,217)" width="304.3955" height="15.5497" stroke="none"/>
    </g>
    <g text-rendering="geometricPrecision" stroke-miterlimit="1.45" shape-rendering="geometricPrecision" font-family="'Fira Sans'" transform="matrix(1,0,0,1,-482,-162)" stroke-linecap="butt">
      <text x="765.517" xml:space="preserve" y="174.5263" clip-path="url(#clipPath2)" stroke="none">table</text>
      <rect x="627.3635" y="163.3094" clip-path="url(#clipPath2)" fill="none" width="304.3955" rx="4" ry="4" height="78.9254"/>
      <path fill="none" d="M782.6043 189.9888 L797.6043 219.9888 L767.6043 219.9888 Z" clip-path="url(#clipPath2)" fill-rule="evenodd"/>
      <text x="801.6042" xml:space="preserve" y="202.656" clip-path="url(#clipPath2)" stroke="none">totalThinkingTime</text>
      <text x="801.6042" xml:space="preserve" y="214.2057" clip-path="url(#clipPath2)" stroke="none">= sum(thinkingTimes)</text>
      <path fill="none" d="M658.9574 194.3265 L673.9574 224.3265 L643.9574 224.3265 Z" clip-path="url(#clipPath2)" fill-rule="evenodd"/>
    </g>
    <g fill="white" text-rendering="geometricPrecision" shape-rendering="geometricPrecision" transform="matrix(1,0,0,1,-482,-162)" stroke="white">
      <path d="M652.3608 189.9888 L667.3608 219.9888 L637.3608 219.9888 Z" fill-rule="evenodd" clip-path="url(#clipPath2)" stroke="none"/>
    </g>
    <g text-rendering="geometricPrecision" stroke-miterlimit="1.45" shape-rendering="geometricPrecision" transform="matrix(1,0,0,1,-482,-162)" stroke-linecap="butt">
      <path fill="none" d="M652.3608 189.9888 L667.3608 219.9888 L637.3608 219.9888 Z" fill-rule="evenodd" clip-path="url(#clipPath2)"/>
      <text x="671.361" xml:space="preserve" y="208.4308" clip-path="url(#clipPath2)" font-family="'Fira Sans'" stroke="none">thinkingTimes</text>
      <path fill="none" d="M653.1809 224.3597 L653.1809 231.2688 L523.0851 231.2688 L523.0851 271.0549 L519.2157 276.5246" clip-path="url(#clipPath2)" stroke="rgb(64,64,64)"/>
      <path fill="white" d="M510.5529 288.7703 L524.6915 279.1734 L514.895 272.2431 Z" clip-path="url(#clipPath2)" stroke="none"/>
      <path fill="none" d="M510.5529 288.7703 L524.6915 279.1734 L514.895 272.2431 Z" clip-path="url(#clipPath2)" stroke="rgb(64,64,64)"/>
    </g>
    <g stroke-linecap="butt" font-size="15px" transform="matrix(1,0,0,1,-482,-162)" fill="rgb(64,64,64)" text-rendering="geometricPrecision" font-family="'DejaVu Sans'" shape-rendering="geometricPrecision" stroke="rgb(64,64,64)" stroke-miterlimit="1.45">
      <text x="571.0701" xml:space="preserve" y="225.5749" clip-path="url(#clipPath2)" stroke="none">∈</text>
      <path fill="none" d="M665.0701 224.3446 L665.0701 231.2688 L795.7883 231.2688 L795.7883 270.9903 L799.0196 276.0378" clip-path="url(#clipPath2)"/>
    </g>
    <g stroke-linecap="butt" transform="matrix(1,0,0,1,-482,-162)" fill="white" text-rendering="geometricPrecision" shape-rendering="geometricPrecision" stroke="white" stroke-miterlimit="1.45">
      <path d="M807.1069 288.671 L803.5337 271.9607 L793.4272 278.4305 Z" stroke="none" clip-path="url(#clipPath2)"/>
      <path fill="none" d="M807.1069 288.671 L803.5337 271.9607 L793.4272 278.4305 Z" clip-path="url(#clipPath2)" stroke="rgb(64,64,64)"/>
    </g>
    <g stroke-linecap="butt" font-size="15px" transform="matrix(1,0,0,1,-482,-162)" fill="rgb(64,64,64)" text-rendering="geometricPrecision" font-family="'DejaVu Sans'" shape-rendering="geometricPrecision" stroke="rgb(64,64,64)" stroke-miterlimit="1.45">
      <text x="719.1006" xml:space="preserve" y="225.1468" clip-path="url(#clipPath2)" stroke="none">∈</text>
    </g>
  </g>
</svg>
