<?xml version="1.0" encoding="UTF-8"?><svg xmlns="http://www.w3.org/2000/svg" xmlns:xlink="http://www.w3.org/1999/xlink" fill-opacity="1" color-rendering="auto" color-interpolation="auto" text-rendering="auto" stroke="black" stroke-linecap="square" width="261" stroke-miterlimit="10" shape-rendering="auto" stroke-opacity="1" fill="black" stroke-dasharray="none" font-weight="normal" stroke-width="1" height="99" font-family="'Dialog'" font-style="normal" stroke-linejoin="miter" font-size="12px" stroke-dashoffset="0" image-rendering="auto">
  <!--Generated by ySVG 2.5-->
  <defs id="genericDefs"/>
  <g>
    <defs id="defs1">
      <clipPath clipPathUnits="userSpaceOnUse" id="clipPath1">
        <path d="M0 0 L261 0 L261 99 L0 99 L0 0 Z"/>
      </clipPath>
      <clipPath clipPathUnits="userSpaceOnUse" id="clipPath2">
        <path d="M545 419 L806 419 L806 518 L545 518 L545 419 Z"/>
      </clipPath>
      <clipPath clipPathUnits="userSpaceOnUse" id="clipPath3">
        <path d="M539 415 L800 415 L800 514 L539 514 L539 415 Z"/>
      </clipPath>
    </defs>
    <g fill="white" text-rendering="geometricPrecision" shape-rendering="geometricPrecision" transform="translate(-545,-419)" stroke="white">
      <rect x="545" width="261" height="99" y="419" clip-path="url(#clipPath2)" stroke="none"/>
    </g>
    <g fill="white" text-rendering="geometricPrecision" shape-rendering="geometricPrecision" transform="matrix(1,0,0,1,-545,-419)" stroke="white">
      <rect x="550.8432" y="424.5648" clip-path="url(#clipPath2)" width="249.2504" rx="4" ry="4" height="88.0454" stroke="none"/>
      <rect x="550.8432" y="424.5648" clip-path="url(#clipPath2)" fill="rgb(255,170,127)" width="249.2504" height="15.5497" stroke="none"/>
    </g>
    <g text-rendering="geometricPrecision" stroke-miterlimit="1.45" shape-rendering="geometricPrecision" font-family="'Fira Sans'" transform="matrix(1,0,0,1,-545,-419)" stroke-linecap="butt">
      <text x="648.6272" xml:space="preserve" y="435.7817" clip-path="url(#clipPath2)" stroke="none">TableMod</text>
      <rect x="550.8432" y="424.5648" clip-path="url(#clipPath2)" fill="none" width="249.2504" rx="4" ry="4" height="88.0454"/>
      <path fill="none" d="M724.5162 444.5882 L739.5162 474.5882 L709.5162 474.5882 Z" clip-path="url(#clipPath2)" fill-rule="evenodd"/>
      <text x="675.2231" xml:space="preserve" y="494.1393" clip-path="url(#clipPath2)" stroke="none">totalThinkingTime</text>
      <text x="666.306" xml:space="preserve" y="505.6889" clip-path="url(#clipPath2)" stroke="none">= sum(thinkingTimes)</text>
    </g>
    <g fill="rgb(153,153,153)" text-rendering="geometricPrecision" shape-rendering="geometricPrecision" transform="matrix(1,0,0,1,-545,-419) translate(6,4)" stroke="rgb(153,153,153)">
      <path d="M607.5849 444.5881 L622.585 474.588 L592.5849 474.588 Z" fill-rule="evenodd" clip-path="url(#clipPath3)" stroke="none"/>
    </g>
    <g fill="white" text-rendering="geometricPrecision" shape-rendering="geometricPrecision" transform="matrix(1,0,0,1,-545,-419)" stroke="white">
      <path d="M607.5849 444.5881 L622.585 474.588 L592.5849 474.588 Z" fill-rule="evenodd" clip-path="url(#clipPath2)" stroke="none"/>
    </g>
    <g text-rendering="geometricPrecision" stroke-miterlimit="1.45" shape-rendering="geometricPrecision" transform="matrix(1,0,0,1,-545,-419)" stroke-linecap="butt">
      <path fill="none" d="M607.5849 444.5881 L622.585 474.588 L592.5849 474.588 Z" fill-rule="evenodd" clip-path="url(#clipPath2)"/>
      <text x="569.2058" y="499.8781" clip-path="url(#clipPath2)" font-family="'Fira Sans'" font-style="italic" stroke="none" xml:space="preserve">thinkingTimes</text>
    </g>
  </g>
</svg>
