<?xml version="1.0" encoding="UTF-8"?><svg xmlns="http://www.w3.org/2000/svg" xmlns:xlink="http://www.w3.org/1999/xlink" fill-opacity="1" color-rendering="auto" color-interpolation="auto" text-rendering="auto" stroke="black" stroke-linecap="square" width="75" stroke-miterlimit="10" shape-rendering="auto" stroke-opacity="1" fill="black" stroke-dasharray="none" font-weight="normal" stroke-width="1" height="46" font-family="'Dialog'" font-style="normal" stroke-linejoin="miter" font-size="12px" stroke-dashoffset="0" image-rendering="auto">
  <!--Generated by ySVG 2.5-->
  <defs id="genericDefs"/>
  <g>
    <defs id="defs1">
      <clipPath clipPathUnits="userSpaceOnUse" id="clipPath1">
        <path d="M0 0 L75 0 L75 46 L0 46 L0 0 Z"/>
      </clipPath>
      <clipPath clipPathUnits="userSpaceOnUse" id="clipPath2">
        <path d="M536 324 L611 324 L611 370 L536 370 L536 324 Z"/>
      </clipPath>
      <clipPath clipPathUnits="userSpaceOnUse" id="clipPath3">
        <path d="M536 348.5497 L536 370 L611 370 L611 348.5497 Z"/>
      </clipPath>
      <clipPath clipPathUnits="userSpaceOnUse" id="clipPath4">
        <path d="M536 324 L536 348.5497 L611 348.5497 L611 324 Z"/>
      </clipPath>
    </defs>
    <g fill="white" text-rendering="geometricPrecision" shape-rendering="geometricPrecision" transform="translate(-536,-324)" stroke="white">
      <rect x="536" width="75" height="46" y="324" clip-path="url(#clipPath2)" stroke="none"/>
    </g>
    <g fill="white" text-rendering="geometricPrecision" shape-rendering="geometricPrecision" transform="matrix(1,0,0,1,-536,-324)" stroke="white">
      <rect x="541" y="329" clip-path="url(#clipPath3)" width="64.5333" rx="4" ry="4" height="35.1667" stroke="none"/>
      <rect x="541" y="329" clip-path="url(#clipPath4)" fill="rgb(255,170,127)" width="64.5333" rx="4" ry="4" height="35.1667" stroke="none"/>
    </g>
    <g text-rendering="geometricPrecision" stroke-miterlimit="1.45" shape-rendering="geometricPrecision" transform="matrix(1,0,0,1,-536,-324)" stroke-linecap="butt">
      <rect x="541" y="329" clip-path="url(#clipPath2)" fill="none" width="64.5333" rx="4" ry="4" height="35.1667"/>
      <line y2="348.5497" fill="none" x1="541" clip-path="url(#clipPath2)" x2="605.5333" y1="348.5497"/>
      <text x="558.2869" xml:space="preserve" y="342.2169" clip-path="url(#clipPath2)" font-family="'Fira Sans'" stroke="none">Table</text>
    </g>
  </g>
</svg>
