<?xml version="1.0" encoding="UTF-8"?><svg xmlns="http://www.w3.org/2000/svg" xmlns:xlink="http://www.w3.org/1999/xlink" fill-opacity="1" color-rendering="auto" color-interpolation="auto" text-rendering="auto" stroke="black" stroke-linecap="square" width="622" stroke-miterlimit="10" shape-rendering="auto" stroke-opacity="1" fill="black" stroke-dasharray="none" font-weight="normal" stroke-width="1" height="242" font-family="'Dialog'" font-style="normal" stroke-linejoin="miter" font-size="12px" stroke-dashoffset="0" image-rendering="auto">
  <!--Generated by ySVG 2.5-->
  <defs id="genericDefs"/>
  <g>
    <defs id="defs1">
      <clipPath clipPathUnits="userSpaceOnUse" id="clipPath1">
        <path d="M0 0 L622 0 L622 242 L0 242 L0 0 Z"/>
      </clipPath>
      <clipPath clipPathUnits="userSpaceOnUse" id="clipPath2">
        <path d="M448 494 L1070 494 L1070 736 L448 736 L448 494 Z"/>
      </clipPath>
      <clipPath clipPathUnits="userSpaceOnUse" id="clipPath3">
        <path d="M218.4465 -9.5898 L218.4465 612.4102 L-23.5535 612.4102 L-23.5535 -9.5898 L218.4465 -9.5898 Z"/>
      </clipPath>
      <clipPath clipPathUnits="userSpaceOnUse" id="clipPath4">
        <path d="M144.788 -9.5898 L144.788 612.4102 L-97.212 612.4102 L-97.212 -9.5898 L144.788 -9.5898 Z"/>
      </clipPath>
      <clipPath clipPathUnits="userSpaceOnUse" id="clipPath5">
        <path d="M78.7194 -9.5898 L78.7194 612.4102 L-163.2806 612.4102 L-163.2806 -9.5898 L78.7194 -9.5898 Z"/>
      </clipPath>
    </defs>
    <g fill="white" text-rendering="geometricPrecision" shape-rendering="geometricPrecision" transform="translate(-448,-494)" stroke="white">
      <rect x="448" width="622" height="242" y="494" clip-path="url(#clipPath2)" stroke="none"/>
    </g>
    <g fill="rgb(153,153,153)" text-rendering="geometricPrecision" shape-rendering="geometricPrecision" transform="matrix(1,0,0,1,-448,-494)" stroke="rgb(153,153,153)">
      <rect x="454.6846" width="609.7119" height="1" y="659.6047" clip-path="url(#clipPath2)" stroke="none"/>
      <rect stroke-linecap="butt" x="454.6846" y="659.6047" clip-path="url(#clipPath2)" fill="none" width="609.7119" height="1" stroke-miterlimit="1.45"/>
      <rect x="454.6846" width="609.7119" height="1" y="578.138" clip-path="url(#clipPath2)" stroke="none"/>
      <rect stroke-linecap="butt" x="454.6846" y="578.138" clip-path="url(#clipPath2)" fill="none" width="609.7119" height="1" stroke-miterlimit="1.45"/>
      <rect x="726.5864" y="601.138" clip-path="url(#clipPath2)" fill="white" width="93.2" height="41.2" stroke="none"/>
    </g>
    <g text-rendering="geometricPrecision" stroke-miterlimit="1.45" shape-rendering="geometricPrecision" transform="matrix(1,0,0,1,-448,-494)" stroke-linecap="butt">
      <rect fill="none" x="726.5864" width="93.2" height="41.2" y="601.138" clip-path="url(#clipPath2)"/>
      <text x="744.5941" xml:space="preserve" y="619.4053" clip-path="url(#clipPath2)" font-family="'Fira Sans'" stroke="none">3. Abstract</text>
      <text x="732.2769" xml:space="preserve" y="630.955" clip-path="url(#clipPath2)" font-family="'Fira Sans'" stroke="none">analysis model</text>
    </g>
    <g fill="white" text-rendering="geometricPrecision" shape-rendering="geometricPrecision" transform="matrix(1,0,0,1,-448,-494)" stroke="white">
      <rect x="961.5965" width="93.2" height="41.2" y="601.138" clip-path="url(#clipPath2)" stroke="none"/>
    </g>
    <g text-rendering="geometricPrecision" stroke-miterlimit="1.45" shape-rendering="geometricPrecision" transform="matrix(1,0,0,1,-448,-494)" stroke-linecap="butt">
      <rect fill="none" x="961.5965" width="93.2" height="41.2" y="601.138" clip-path="url(#clipPath2)"/>
      <text x="977.8472" xml:space="preserve" y="613.6304" clip-path="url(#clipPath2)" font-family="'Fira Sans'" stroke="none">5. Concrete</text>
      <text x="967.287" xml:space="preserve" y="625.1801" clip-path="url(#clipPath2)" font-family="'Fira Sans'" stroke="none">analysis model</text>
      <text x="987.0701" xml:space="preserve" y="636.7297" clip-path="url(#clipPath2)" font-family="'Fira Sans'" stroke="none">+ errors</text>
    </g>
    <g fill="rgb(255,204,153)" text-rendering="geometricPrecision" shape-rendering="geometricPrecision" transform="matrix(1,0,0,1,-448,-494)" stroke="rgb(255,204,153)">
      <path d="M601.0814 601.138 L699.3614 601.138 L710.2814 621.738 L699.3614 642.338 L601.0814 642.338 L612.0013 621.738 Z" fill-rule="evenodd" clip-path="url(#clipPath2)" stroke="none"/>
    </g>
    <g text-rendering="geometricPrecision" stroke-miterlimit="1.45" shape-rendering="geometricPrecision" transform="matrix(1,0,0,1,-448,-494)" stroke-linecap="butt">
      <path fill="none" d="M601.0814 601.138 L699.3614 601.138 L710.2814 621.738 L699.3614 642.338 L601.0814 642.338 L612.0013 621.738 Z" fill-rule="evenodd" clip-path="url(#clipPath2)"/>
      <text x="637.0616" xml:space="preserve" y="619.4053" clip-path="url(#clipPath2)" font-family="'Fira Sans'" stroke="none">2. View</text>
      <text x="614.526" xml:space="preserve" y="630.955" clip-path="url(#clipPath2)" font-family="'Fira Sans'" stroke="none">transformation</text>
    </g>
    <g fill="rgb(255,204,153)" text-rendering="geometricPrecision" shape-rendering="geometricPrecision" transform="matrix(1,0,0,1,-448,-494)" stroke="rgb(255,204,153)">
      <path d="M836.7581 601.138 L933.8381 601.138 L944.6248 621.738 L933.8381 642.338 L836.7581 642.338 L847.5448 621.738 Z" fill-rule="evenodd" clip-path="url(#clipPath2)" stroke="none"/>
    </g>
    <g text-rendering="geometricPrecision" stroke-miterlimit="1.45" shape-rendering="geometricPrecision" transform="matrix(1,0,0,1,-448,-494)" stroke-linecap="butt">
      <path fill="none" d="M836.7581 601.138 L933.8381 601.138 L944.6248 621.738 L933.8381 642.338 L836.7581 642.338 L847.5448 621.738 Z" fill-rule="evenodd" clip-path="url(#clipPath2)"/>
      <text x="853.5298" xml:space="preserve" y="619.4053" clip-path="url(#clipPath2)" font-family="'Fira Sans'" stroke="none">4. Concretizer</text>
      <text x="849.5361" xml:space="preserve" y="630.955" clip-path="url(#clipPath2)" font-family="'Fira Sans'" stroke="none">transformation</text>
    </g>
    <g fill="silver" text-rendering="geometricPrecision" shape-rendering="geometricPrecision" transform="matrix(1,0,0,1,-448,-494)" stroke="silver">
      <rect x="497.3363" y="591.588" clip-path="url(#clipPath2)" width="87.44" rx="4" ry="4" height="84.1333" stroke="none"/>
    </g>
    <g text-rendering="geometricPrecision" stroke-miterlimit="1.45" shape-rendering="geometricPrecision" transform="matrix(1,0,0,1,-448,-494)" stroke-linecap="butt">
      <rect x="497.3363" y="591.588" clip-path="url(#clipPath2)" fill="none" width="87.44" rx="4" ry="4" height="84.1333"/>
      <text x="508.1584" xml:space="preserve" y="655.839" clip-path="url(#clipPath2)" font-family="'Fira Sans'" stroke="none">Incremental</text>
      <text x="505.4239" xml:space="preserve" y="667.3886" clip-path="url(#clipPath2)" font-family="'Fira Sans'" stroke="none">query engine</text>
    </g>
    <g fill="white" text-rendering="geometricPrecision" shape-rendering="geometricPrecision" transform="matrix(1,0,0,1,-448,-494)" stroke="white">
      <rect x="483.3507" width="93.2" height="41.2" y="601.138" clip-path="url(#clipPath2)" stroke="none"/>
    </g>
    <g text-rendering="geometricPrecision" stroke-miterlimit="1.45" shape-rendering="geometricPrecision" transform="matrix(1,0,0,1,-448,-494)" stroke-linecap="butt">
      <rect fill="none" x="483.3507" width="93.2" height="41.2" y="601.138" clip-path="url(#clipPath2)"/>
      <text x="486.7145" xml:space="preserve" y="625.1801" clip-path="url(#clipPath2)" font-family="'Fira Sans'" stroke="none">1. Source model</text>
    </g>
    <g fill="white" text-rendering="geometricPrecision" shape-rendering="geometricPrecision" transform="matrix(1,0,0,1,-448,-494)" stroke="white">
      <rect x="609.0814" width="93.2" height="41.2" y="675.0047" clip-path="url(#clipPath2)" stroke="none"/>
    </g>
    <g text-rendering="geometricPrecision" stroke-miterlimit="1.45" shape-rendering="geometricPrecision" transform="matrix(1,0,0,1,-448,-494)" stroke-linecap="butt">
      <rect fill="none" x="609.0814" width="93.2" height="41.2" y="675.0047" clip-path="url(#clipPath2)"/>
      <text x="643.0583" xml:space="preserve" y="693.272" clip-path="url(#clipPath2)" font-family="'Fira Sans'" stroke="none">View</text>
      <text x="622.9034" xml:space="preserve" y="704.8216" clip-path="url(#clipPath2)" font-family="'Fira Sans'" stroke="none">trace model</text>
    </g>
    <g fill="white" text-rendering="geometricPrecision" shape-rendering="geometricPrecision" transform="matrix(1,0,0,1,-448,-494)" stroke="white">
      <rect x="844.0914" width="93.2" height="41.2" y="675.0047" clip-path="url(#clipPath2)" stroke="none"/>
    </g>
    <g text-rendering="geometricPrecision" stroke-miterlimit="1.45" shape-rendering="geometricPrecision" transform="matrix(1,0,0,1,-448,-494)" stroke-linecap="butt">
      <rect fill="none" x="844.0914" width="93.2" height="41.2" y="675.0047" clip-path="url(#clipPath2)"/>
      <text x="859.7485" xml:space="preserve" y="693.272" clip-path="url(#clipPath2)" font-family="'Fira Sans'" stroke="none">Concretizer</text>
      <text x="857.9135" xml:space="preserve" y="704.8216" clip-path="url(#clipPath2)" font-family="'Fira Sans'" stroke="none">trace model</text>
    </g>
    <g fill="rgb(153,204,255)" text-rendering="geometricPrecision" shape-rendering="geometricPrecision" transform="matrix(1,0,0,1,-448,-494)" stroke="rgb(153,204,255)">
      <rect x="617.8878" width="75.5872" height="41.2" y="506.45" clip-path="url(#clipPath2)" stroke="none"/>
    </g>
    <g text-rendering="geometricPrecision" stroke-miterlimit="1.45" shape-rendering="geometricPrecision" transform="matrix(1,0,0,1,-448,-494)" stroke-linecap="butt">
      <rect fill="none" x="617.8878" width="75.5872" height="41.2" y="506.45" clip-path="url(#clipPath2)"/>
      <text x="626.2855" xml:space="preserve" y="524.7173" clip-path="url(#clipPath2)" font-family="'Fira Sans'" stroke="none">Transform.</text>
      <text x="642.0209" xml:space="preserve" y="536.2669" clip-path="url(#clipPath2)" font-family="'Fira Sans'" stroke="none">rules</text>
    </g>
    <g fill="rgb(153,204,255)" text-rendering="geometricPrecision" shape-rendering="geometricPrecision" transform="matrix(1,0,0,1,-448,-494)" stroke="rgb(153,204,255)">
      <rect x="542.3006" width="75.5872" height="41.2" y="506.45" clip-path="url(#clipPath2)" stroke="none"/>
    </g>
    <g text-rendering="geometricPrecision" stroke-miterlimit="1.45" shape-rendering="geometricPrecision" transform="matrix(1,0,0,1,-448,-494)" stroke-linecap="butt">
      <rect fill="none" x="542.3006" width="75.5872" height="41.2" y="506.45" clip-path="url(#clipPath2)"/>
      <text x="544.9655" xml:space="preserve" y="524.7173" clip-path="url(#clipPath2)" font-family="'Fira Sans'" stroke="none">Precondition</text>
      <text x="559.6454" xml:space="preserve" y="536.2669" clip-path="url(#clipPath2)" font-family="'Fira Sans'" stroke="none">queries</text>
    </g>
    <g fill="rgb(153,204,255)" text-rendering="geometricPrecision" shape-rendering="geometricPrecision" transform="matrix(1,0,0,1,-448,-494)" stroke="rgb(153,204,255)">
      <rect x="693.475" width="75.5872" height="41.2" y="506.45" clip-path="url(#clipPath2)" stroke="none"/>
    </g>
    <g text-rendering="geometricPrecision" stroke-miterlimit="1.45" shape-rendering="geometricPrecision" transform="matrix(1,0,0,1,-448,-494)" stroke-linecap="butt">
      <rect fill="none" x="693.475" width="75.5872" height="41.2" y="506.45" clip-path="url(#clipPath2)"/>
      <text x="713.0086" xml:space="preserve" y="524.7173" clip-path="url(#clipPath2)" font-family="'Fira Sans'" stroke="none">RGSPN</text>
      <text x="707.6955" xml:space="preserve" y="536.2669" clip-path="url(#clipPath2)" font-family="'Fira Sans'" stroke="none">modules</text>
    </g>
    <g text-rendering="geometricPrecision" stroke-miterlimit="1.45" shape-rendering="geometricPrecision" font-family="'Fira Sans'" transform="matrix(-0,-1,1,-0,9.5898,218.4465)" stroke-linecap="butt">
      <text x="2" xml:space="preserve" y="11.2169" clip-path="url(#clipPath3)" stroke="none">Trace</text>
    </g>
    <g text-rendering="geometricPrecision" stroke-miterlimit="1.45" shape-rendering="geometricPrecision" font-family="'Fira Sans'" transform="matrix(-0,-1,1,-0,9.5898,144.788)" stroke-linecap="butt">
      <text x="2" xml:space="preserve" y="11.2169" clip-path="url(#clipPath4)" stroke="none">Model</text>
    </g>
    <g text-rendering="geometricPrecision" stroke-miterlimit="1.45" shape-rendering="geometricPrecision" font-family="'Fira Sans'" transform="matrix(-0,-1,1,-0,9.5898,78.7194)" stroke-linecap="butt">
      <text x="2" xml:space="preserve" y="11.2169" clip-path="url(#clipPath5)" stroke="none">Parameters</text>
    </g>
    <g fill="rgb(153,204,255)" text-rendering="geometricPrecision" shape-rendering="geometricPrecision" transform="matrix(1,0,0,1,-448,-494)" stroke="rgb(153,204,255)">
      <rect x="1021.3738" width="28.464" height="14.64" y="506.45" clip-path="url(#clipPath2)" stroke="none"/>
    </g>
    <g text-rendering="geometricPrecision" stroke-miterlimit="1.45" shape-rendering="geometricPrecision" transform="matrix(1,0,0,1,-448,-494)" stroke-linecap="butt">
      <rect fill="none" x="1021.3738" width="28.464" height="14.64" y="506.45" clip-path="url(#clipPath2)"/>
      <text x="908.5365" xml:space="preserve" y="517.2121" clip-path="url(#clipPath2)" font-family="'Fira Sans'" stroke="none">Defined by the user</text>
    </g>
    <g fill="rgb(255,204,153)" text-rendering="geometricPrecision" shape-rendering="geometricPrecision" transform="matrix(1,0,0,1,-448,-494)" stroke="rgb(255,204,153)">
      <rect x="1021.3738" width="28.464" height="14.64" y="528.7687" clip-path="url(#clipPath2)" stroke="none"/>
    </g>
    <g text-rendering="geometricPrecision" stroke-miterlimit="1.45" shape-rendering="geometricPrecision" transform="matrix(1,0,0,1,-448,-494)" stroke-linecap="butt">
      <rect fill="none" x="1021.3738" width="28.464" height="14.64" y="528.7687" clip-path="url(#clipPath2)"/>
      <text x="809.8427" xml:space="preserve" y="539.5308" clip-path="url(#clipPath2)" font-family="'Fira Sans'" stroke="none">Part of our framework transformation</text>
    </g>
    <g fill="silver" text-rendering="geometricPrecision" shape-rendering="geometricPrecision" transform="matrix(1,0,0,1,-448,-494)" stroke="silver">
      <rect x="1021.3738" width="28.464" height="14.64" y="551.0874" clip-path="url(#clipPath2)" stroke="none"/>
    </g>
    <g text-rendering="geometricPrecision" stroke-miterlimit="1.45" shape-rendering="geometricPrecision" transform="matrix(1,0,0,1,-448,-494)" stroke-linecap="butt">
      <rect fill="none" x="1021.3738" width="28.464" height="14.64" y="551.0874" clip-path="url(#clipPath2)"/>
      <text x="858.3321" xml:space="preserve" y="561.8495" clip-path="url(#clipPath2)" font-family="'Fira Sans'" stroke="none">External model query engine</text>
      <path fill="none" d="M710.2742 621.738 L718.5864 621.738" clip-path="url(#clipPath2)"/>
      <path d="M726.5864 621.738 L714.5864 616.738 L717.5864 621.738 L714.5864 626.738 Z" clip-path="url(#clipPath2)" stroke="none"/>
      <path fill="none" d="M819.7864 621.738 L839.5183 621.738" clip-path="url(#clipPath2)"/>
      <path d="M847.5183 621.738 L835.5183 616.738 L838.5183 621.738 L835.5183 626.738 Z" clip-path="url(#clipPath2)" stroke="none"/>
      <path fill="none" d="M944.6531 621.738 L953.5965 621.738" clip-path="url(#clipPath2)"/>
      <path d="M961.5965 621.738 L949.5965 616.738 L952.5965 621.738 L949.5965 626.738 Z" clip-path="url(#clipPath2)" stroke="none"/>
      <path fill="none" d="M584.7457 628.6506 L600.3657 628.6506" clip-path="url(#clipPath2)"/>
      <path d="M608.3657 628.6506 L596.3657 623.6506 L599.3657 628.6506 L596.3657 633.6506 Z" clip-path="url(#clipPath2)" stroke="none"/>
      <path fill="none" d="M576.5552 615.1754 L600.5273 615.1754" clip-path="url(#clipPath2)"/>
      <path d="M608.5273 615.1754 L596.5273 610.1754 L599.5273 615.1754 L596.5273 620.1754 Z" clip-path="url(#clipPath2)" stroke="none"/>
      <path fill="none" d="M655.6813 642.3326 L655.6813 667.0046" clip-path="url(#clipPath2)"/>
      <path d="M655.6813 675.0046 L660.6813 663.0046 L655.6813 666.0046 L650.6813 663.0046 Z" clip-path="url(#clipPath2)" stroke="none"/>
      <path fill="none" stroke-dasharray="6,2" d="M702.2814 695.6047 L756.5267 695.6047 L756.5267 650.3578" clip-path="url(#clipPath2)"/>
      <path stroke-dasharray="6,2" d="M756.5267 642.3578 L751.5267 654.3578 L756.5267 651.3578 L761.5267 654.3578 Z" clip-path="url(#clipPath2)" stroke="none"/>
      <path fill="none" stroke-dasharray="6,2" d="M609.0814 695.6047 L490.3898 695.6047 L490.3898 650.3479" clip-path="url(#clipPath2)"/>
      <path stroke-dasharray="6,2" d="M490.3898 642.3479 L485.3898 654.3479 L490.3898 651.3479 L495.3898 654.3479 Z" clip-path="url(#clipPath2)" stroke="none"/>
      <path fill="none" d="M890.6915 642.3326 L890.6915 667.0046" clip-path="url(#clipPath2)"/>
      <path d="M890.6915 675.0046 L895.6915 663.0046 L890.6915 666.0046 L885.6915 663.0046 Z" clip-path="url(#clipPath2)" stroke="none"/>
      <path fill="none" stroke-dasharray="6,2" d="M844.0914 695.6047 L788.9687 695.6047 L788.9687 650.3349" clip-path="url(#clipPath2)"/>
      <path stroke-dasharray="6,2" d="M788.9687 642.3349 L783.9687 654.3349 L788.9687 651.3349 L793.9687 654.3349 Z" clip-path="url(#clipPath2)" stroke="none"/>
      <path fill="none" stroke-dasharray="6,2" d="M937.2914 695.6047 L1008.1965 695.6047 L1008.1965 650.338" clip-path="url(#clipPath2)"/>
      <path stroke-dasharray="6,2" d="M1008.1965 642.338 L1003.1965 654.338 L1008.1965 651.338 L1013.1965 654.338 Z" clip-path="url(#clipPath2)" stroke="none"/>
      <path fill="none" d="M655.6813 547.65 L655.6813 593.154" clip-path="url(#clipPath2)"/>
      <path d="M655.6813 601.154 L660.6813 589.154 L655.6813 592.154 L650.6813 589.154 Z" clip-path="url(#clipPath2)" stroke="none"/>
      <rect x="633.0105" y="559.8697" clip-path="url(#clipPath2)" fill="white" width="45.3418" height="11.6406" stroke="none"/>
      <text x="633.0104" font-size="10px" y="569.1519" clip-path="url(#clipPath2)" font-family="sans-serif" stroke="none" xml:space="preserve">executes</text>
      <path fill="none" d="M580.0942 547.65 L628.9492 595.536" clip-path="url(#clipPath2)"/>
      <path d="M634.6624 601.1359 L629.5925 589.1653 L628.235 594.8361 L622.5926 596.3068 Z" clip-path="url(#clipPath2)" stroke="none"/>
      <rect x="549.7947" y="551.9554" clip-path="url(#clipPath2)" fill="white" width="76.8164" height="23.2812" stroke="none"/>
      <text x="560.1902" font-size="10px" y="561.2376" clip-path="url(#clipPath2)" font-family="sans-serif" stroke="none" xml:space="preserve">subscribes to</text>
      <text x="549.7947" font-size="10px" y="572.8782" clip-path="url(#clipPath2)" font-family="sans-serif" stroke="none" xml:space="preserve">match changes</text>
      <path fill="none" d="M542.3005 527.05 L510.4887 527.05 L510.4887 583.5764" clip-path="url(#clipPath2)"/>
      <path d="M510.4887 591.5764 L515.4887 579.5764 L510.4887 582.5764 L505.4887 579.5764 Z" clip-path="url(#clipPath2)" stroke="none"/>
      <rect x="485.8178" y="545.0885" clip-path="url(#clipPath2)" fill="white" width="49.3418" height="15.6406" stroke="none"/>
      <text x="487.8178" font-size="10px" y="556.3707" clip-path="url(#clipPath2)" font-family="sans-serif" stroke="none" xml:space="preserve">executes</text>
      <path fill="none" d="M731.2686 547.65 L682.4136 595.536" clip-path="url(#clipPath2)"/>
      <path d="M676.7003 601.1359 L688.7701 596.3068 L683.1277 594.8361 L681.7703 589.1653 Z" clip-path="url(#clipPath2)" stroke="none"/>
      <rect x="689.8467" y="555.1684" clip-path="url(#clipPath2)" fill="white" width="58.8232" height="11.6406" stroke="none"/>
      <text x="689.8467" font-size="10px" y="564.4506" clip-path="url(#clipPath2)" font-family="sans-serif" stroke="none" xml:space="preserve">instantiates</text>
    </g>
  </g>
</svg>
