<?xml version="1.0" encoding="UTF-8"?><svg xmlns="http://www.w3.org/2000/svg" xmlns:xlink="http://www.w3.org/1999/xlink" fill-opacity="1" color-rendering="auto" color-interpolation="auto" text-rendering="auto" stroke="black" stroke-linecap="square" width="604" stroke-miterlimit="10" shape-rendering="auto" stroke-opacity="1" fill="black" stroke-dasharray="none" font-weight="normal" stroke-width="1" height="360" font-family="'Dialog'" font-style="normal" stroke-linejoin="miter" font-size="12px" stroke-dashoffset="0" image-rendering="auto">
  <!--Generated by ySVG 2.5-->
  <defs id="genericDefs"/>
  <g>
    <defs id="defs1">
      <clipPath clipPathUnits="userSpaceOnUse" id="clipPath1">
        <path d="M0 0 L604 0 L604 360 L0 360 L0 0 Z"/>
      </clipPath>
      <clipPath clipPathUnits="userSpaceOnUse" id="clipPath2">
        <path d="M478 561 L1082 561 L1082 921 L478 921 L478 561 Z"/>
      </clipPath>
      <clipPath clipPathUnits="userSpaceOnUse" id="clipPath3">
        <path d="M478 667.3256 L478 921 L1082 921 L1082 667.3256 Z"/>
      </clipPath>
      <clipPath clipPathUnits="userSpaceOnUse" id="clipPath4">
        <path d="M478 561 L478 667.3256 L1082 667.3256 L1082 561 Z"/>
      </clipPath>
      <clipPath clipPathUnits="userSpaceOnUse" id="clipPath5">
        <path d="M0 0 L0 52 L61 52 L61 0 Z"/>
      </clipPath>
      <clipPath clipPathUnits="userSpaceOnUse" id="clipPath6">
        <path d="M478 831.4559 L478 921 L1082 921 L1082 831.4559 Z"/>
      </clipPath>
      <clipPath clipPathUnits="userSpaceOnUse" id="clipPath7">
        <path d="M478 561 L478 831.4559 L1082 831.4559 L1082 561 Z"/>
      </clipPath>
      <clipPath clipPathUnits="userSpaceOnUse" id="clipPath8">
        <path d="M472 557 L1076 557 L1076 917 L472 917 L472 557 Z"/>
      </clipPath>
    </defs>
    <g fill="white" text-rendering="geometricPrecision" shape-rendering="geometricPrecision" transform="translate(-478,-561)" stroke="white">
      <rect x="478" width="604" height="360" y="561" clip-path="url(#clipPath2)" stroke="none"/>
    </g>
    <g fill="white" text-rendering="geometricPrecision" shape-rendering="geometricPrecision" transform="matrix(1,0,0,1,-478,-561)" stroke="white">
      <rect x="483.3507" width="127.0124" height="349.4815" y="566.0584" clip-path="url(#clipPath2)" stroke="none"/>
      <rect x="483.3507" y="566.0584" clip-path="url(#clipPath2)" fill="rgb(235,235,235)" width="127.0124" height="15.5497" stroke="none"/>
    </g>
    <g text-rendering="geometricPrecision" stroke-miterlimit="1.45" shape-rendering="geometricPrecision" font-family="'Fira Sans'" transform="matrix(1,0,0,1,-478,-561)" stroke-linecap="butt">
      <text x="509.2456" xml:space="preserve" y="577.2753" clip-path="url(#clipPath2)" stroke="none">Source model</text>
      <rect fill="none" x="483.3507" width="127.0124" height="349.4815" y="566.0584" clip-path="url(#clipPath2)"/>
    </g>
    <g fill="rgb(183,219,255)" text-rendering="geometricPrecision" shape-rendering="geometricPrecision" transform="matrix(1,0,0,1,-478,-561)" stroke="rgb(183,219,255)">
      <rect x="488.1211" width="51.9377" height="15.5497" y="628.3562" clip-path="url(#clipPath2)" stroke="none"/>
    </g>
    <g stroke-linecap="butt" transform="matrix(1,0,0,1,-478,-561)" fill="rgb(0,51,102)" text-rendering="geometricPrecision" font-family="'Fira Sans'" shape-rendering="geometricPrecision" stroke="rgb(0,51,102)" stroke-miterlimit="1.45">
      <text x="490.1211" xml:space="preserve" y="639.5732" clip-path="url(#clipPath2)" stroke="none">qPhil(P1)</text>
      <line y2="641.9059" fill="none" x1="490.1211" clip-path="url(#clipPath2)" x2="538.0588" y1="641.9059"/>
      <rect fill="none" x="488.1211" width="116.7171" height="173.4739" y="628.3562" clip-path="url(#clipPath2)"/>
    </g>
    <g fill="rgb(225,215,253)" text-rendering="geometricPrecision" shape-rendering="geometricPrecision" transform="matrix(1,0,0,1,-478,-561)" stroke="rgb(225,215,253)">
      <rect x="552.157" width="52.6812" height="15.5497" y="895.5089" clip-path="url(#clipPath2)" stroke="none"/>
    </g>
    <g stroke-linecap="butt" transform="matrix(1,0,0,1,-478,-561)" fill="navy" text-rendering="geometricPrecision" font-family="'Fira Sans'" shape-rendering="geometricPrecision" stroke="navy" stroke-miterlimit="1.45">
      <text x="554.157" xml:space="preserve" y="906.7259" clip-path="url(#clipPath2)" stroke="none">qPhil(P2)</text>
      <line y2="909.0586" fill="none" x1="554.157" clip-path="url(#clipPath2)" x2="602.8382" y1="909.0586"/>
      <rect fill="none" x="488.1211" width="116.7171" height="102.96" y="808.0986" clip-path="url(#clipPath2)"/>
    </g>
    <g fill="rgb(255,170,127)" text-rendering="geometricPrecision" shape-rendering="geometricPrecision" transform="matrix(1,0,0,1,-478,-561)" stroke="rgb(255,170,127)">
      <rect x="510.95" y="757.4762" clip-path="url(#clipPath2)" width="58.6938" rx="4" ry="4" height="30" stroke="none"/>
    </g>
    <g text-rendering="geometricPrecision" stroke-miterlimit="1.45" shape-rendering="geometricPrecision" transform="matrix(1,0,0,1,-478,-561)" stroke-linecap="butt">
      <rect x="510.95" y="757.4762" clip-path="url(#clipPath2)" fill="none" width="58.6938" rx="4" ry="4" height="30"/>
      <text x="519.1885" xml:space="preserve" y="775.9183" clip-path="url(#clipPath2)" font-family="'Fira Sans'" stroke="none">T: Table</text>
      <line y2="778.251" fill="none" x1="519.1885" clip-path="url(#clipPath2)" x2="561.4053" y1="778.251"/>
    </g>
    <g fill="white" text-rendering="geometricPrecision" shape-rendering="geometricPrecision" transform="matrix(1,0,0,1,-478,-561)" stroke="white">
      <rect x="495.6995" y="647.776" clip-path="url(#clipPath3)" width="89.1947" rx="4" ry="4" height="79.7003" stroke="none"/>
      <rect x="495.6995" y="647.776" clip-path="url(#clipPath4)" fill="rgb(17,212,163)" width="89.1947" rx="4" ry="4" height="79.7003" stroke="none"/>
    </g>
    <g text-rendering="geometricPrecision" stroke-miterlimit="1.45" shape-rendering="geometricPrecision" transform="matrix(1,0,0,1,-478,-561)" stroke-linecap="butt">
      <rect x="495.6995" y="647.776" clip-path="url(#clipPath2)" fill="none" width="89.1947" rx="4" ry="4" height="79.7003"/>
      <line y2="667.3256" fill="none" x1="495.6995" clip-path="url(#clipPath2)" x2="584.8942" y1="667.3256"/>
      <text x="498.248" xml:space="preserve" y="660.9929" clip-path="url(#clipPath2)" font-family="'Fira Sans'" stroke="none">P1: Philosopher</text>
      <line y2="663.3256" fill="none" x1="498.248" clip-path="url(#clipPath2)" x2="582.3458" y1="663.3256"/>
    </g>
    <g text-rendering="geometricPrecision" stroke-miterlimit="1.45" shape-rendering="geometricPrecision" font-family="'Fira Sans'" transform="matrix(1,0,0,1,-478,-561) translate(499,671)" stroke-linecap="butt">
      <text x="0" xml:space="preserve" y="10" clip-path="url(#clipPath5)" stroke="none">eatingRate</text>
      <text x="57" xml:space="preserve" y="10" clip-path="url(#clipPath5)" stroke="none"> </text>
      <text x="0" xml:space="preserve" y="23" clip-path="url(#clipPath5)" stroke="none">= 3</text>
      <text x="16" xml:space="preserve" y="23" clip-path="url(#clipPath5)" stroke="none"> </text>
      <text x="0" xml:space="preserve" y="36" clip-path="url(#clipPath5)" stroke="none">hungryRate</text>
      <text x="61" xml:space="preserve" y="36" clip-path="url(#clipPath5)" stroke="none"> </text>
      <text x="0" xml:space="preserve" y="49" clip-path="url(#clipPath5)" stroke="none">= 0.75</text>
    </g>
    <g fill="white" text-rendering="geometricPrecision" shape-rendering="geometricPrecision" transform="matrix(1,0,0,1,-478,-561)" stroke="white">
      <rect x="495.6995" y="811.9063" clip-path="url(#clipPath6)" width="89.1947" rx="4" ry="4" height="79.7003" stroke="none"/>
      <rect x="495.6995" y="811.9063" clip-path="url(#clipPath7)" fill="rgb(17,212,163)" width="89.1947" rx="4" ry="4" height="79.7003" stroke="none"/>
    </g>
    <g text-rendering="geometricPrecision" stroke-miterlimit="1.45" shape-rendering="geometricPrecision" transform="matrix(1,0,0,1,-478,-561)" stroke-linecap="butt">
      <rect x="495.6995" y="811.9063" clip-path="url(#clipPath2)" fill="none" width="89.1947" rx="4" ry="4" height="79.7003"/>
      <line y2="831.4559" fill="none" x1="495.6995" clip-path="url(#clipPath2)" x2="584.8942" y1="831.4559"/>
      <text x="497.8762" xml:space="preserve" y="825.1232" clip-path="url(#clipPath2)" font-family="'Fira Sans'" stroke="none">P2: Philosopher</text>
      <line y2="827.4559" fill="none" x1="497.8762" clip-path="url(#clipPath2)" x2="582.7175" y1="827.4559"/>
    </g>
    <g text-rendering="geometricPrecision" stroke-miterlimit="1.45" shape-rendering="geometricPrecision" font-family="'Fira Sans'" transform="matrix(1,0,0,1,-478,-561) translate(499,835)" stroke-linecap="butt">
      <text x="0" xml:space="preserve" y="10" clip-path="url(#clipPath5)" stroke="none">eatingRate</text>
      <text x="57" xml:space="preserve" y="10" clip-path="url(#clipPath5)" stroke="none"> </text>
      <text x="0" xml:space="preserve" y="23" clip-path="url(#clipPath5)" stroke="none">= 2.8</text>
      <text x="26" xml:space="preserve" y="23" clip-path="url(#clipPath5)" stroke="none"> </text>
      <text x="0" xml:space="preserve" y="36" clip-path="url(#clipPath5)" stroke="none">hungryRate</text>
      <text x="61" xml:space="preserve" y="36" clip-path="url(#clipPath5)" stroke="none"> </text>
      <text x="0" xml:space="preserve" y="49" clip-path="url(#clipPath5)" stroke="none">= 0.45</text>
    </g>
    <g fill="rgb(244,186,158)" text-rendering="geometricPrecision" shape-rendering="geometricPrecision" transform="matrix(1,0,0,1,-478,-561)" stroke="rgb(244,186,158)">
      <rect x="507.4383" width="55.0439" height="15.5497" y="737.856" clip-path="url(#clipPath2)" stroke="none"/>
    </g>
    <g stroke-linecap="butt" transform="matrix(1,0,0,1,-478,-561)" fill="rgb(153,51,0)" text-rendering="geometricPrecision" font-family="'Fira Sans'" shape-rendering="geometricPrecision" stroke="rgb(153,51,0)" stroke-miterlimit="1.45">
      <text x="509.4383" xml:space="preserve" y="749.0729" clip-path="url(#clipPath2)" stroke="none">qTable(T)</text>
      <line y2="751.4056" fill="none" x1="509.4383" clip-path="url(#clipPath2)" x2="560.4822" y1="751.4056"/>
      <rect fill="none" x="507.4383" width="68.3386" height="56.24" y="737.856" clip-path="url(#clipPath2)"/>
    </g>
    <g fill="rgb(174,238,206)" text-rendering="geometricPrecision" shape-rendering="geometricPrecision" transform="matrix(1,0,0,1,-478,-561)" stroke="rgb(174,238,206)">
      <rect x="488.1211" width="109.8228" height="17.4866" y="585.7202" clip-path="url(#clipPath2)" stroke="none"/>
    </g>
    <g stroke-linecap="butt" transform="matrix(1,0,0,1,-478,-561)" fill="rgb(0,102,51)" text-rendering="geometricPrecision" font-family="'Fira Sans'" shape-rendering="geometricPrecision" stroke="rgb(0,102,51)" stroke-miterlimit="1.45">
      <text x="490.0936" xml:space="preserve" y="597.9056" clip-path="url(#clipPath2)" stroke="none">qAdjacent(T, P1, P2)</text>
      <line y2="600.2383" fill="none" x1="490.0936" clip-path="url(#clipPath2)" x2="595.9714" y1="600.2383"/>
    </g>
    <g fill="rgb(241,241,176)" text-rendering="geometricPrecision" shape-rendering="geometricPrecision" transform="matrix(1,0,0,1,-478,-561)" stroke="rgb(241,241,176)">
      <rect x="488.1211" width="109.8228" height="17.4866" y="607.0382" clip-path="url(#clipPath2)" stroke="none"/>
    </g>
    <g stroke-linecap="butt" transform="matrix(1,0,0,1,-478,-561)" fill="rgb(102,102,0)" text-rendering="geometricPrecision" font-family="'Fira Sans'" shape-rendering="geometricPrecision" stroke="rgb(102,102,0)" stroke-miterlimit="1.45">
      <text x="490.0936" xml:space="preserve" y="619.2236" clip-path="url(#clipPath2)" stroke="none">qAdjacent(T, P2, P1)</text>
      <line y2="621.5563" fill="none" x1="490.0936" clip-path="url(#clipPath2)" x2="595.9714" y1="621.5563"/>
      <path fill="none" d="M576.6469 772.4762 L593.0701 772.4762 L593.0701 699.5882 L584.8624 699.5882" clip-path="url(#clipPath2)" stroke="black"/>
      <path fill="black" d="M569.6469 772.4762 L576.6469 767.4762 L583.6469 772.4762 L576.6469 777.4762 Z" clip-path="url(#clipPath2)" stroke="none"/>
      <path fill="none" d="M540.2969 794.4574 L540.2969 811.9149" clip-path="url(#clipPath2)" stroke="black"/>
      <path fill="black" d="M540.2969 787.4574 L545.2969 794.4574 L540.2969 801.4574 L535.2969 794.4574 Z" clip-path="url(#clipPath2)" stroke="none"/>
      <path fill="none" d="M592.9014 680.7239 L598.8045 680.7239 L598.8045 851.7564 L592.8918 851.7564" clip-path="url(#clipPath2)" stroke="black"/>
      <path fill="black" d="M584.9014 680.7239 L596.9014 685.7239 L593.9014 680.7239 L596.9014 675.7239 Z" clip-path="url(#clipPath2)" stroke="none"/>
      <path fill="black" d="M584.8918 851.7564 L596.8918 856.7564 L593.8918 851.7564 L596.8918 846.7564 Z" clip-path="url(#clipPath2)" stroke="none"/>
      <path fill="none" d="M501.3519 735.4871 L501.3519 803.8738" clip-path="url(#clipPath2)" stroke="black"/>
      <path fill="black" d="M501.3519 727.4871 L496.3519 739.4871 L501.3519 736.4871 L506.3519 739.4871 Z" clip-path="url(#clipPath2)" stroke="none"/>
      <path fill="black" d="M501.3519 811.8738 L506.3519 799.8738 L501.3519 802.8738 L496.3519 799.8738 Z" clip-path="url(#clipPath2)" stroke="none"/>
    </g>
    <g fill="rgb(235,235,235)" text-rendering="geometricPrecision" shape-rendering="geometricPrecision" transform="matrix(1,0,0,1,-478,-561)" stroke="rgb(235,235,235)">
      <rect x="624.9632" width="451.1437" height="15.5497" y="566.0584" clip-path="url(#clipPath2)" stroke="none"/>
    </g>
    <g text-rendering="geometricPrecision" stroke-miterlimit="1.45" shape-rendering="geometricPrecision" font-family="'Fira Sans'" transform="matrix(1,0,0,1,-478,-561)" stroke-linecap="butt">
      <text x="785.4648" xml:space="preserve" y="577.2753" clip-path="url(#clipPath2)" stroke="none">Abstract analysis model</text>
      <rect fill="none" x="624.9632" width="451.1437" height="349.4815" y="566.0584" clip-path="url(#clipPath2)"/>
    </g>
    <g fill="rgb(183,219,255)" text-rendering="geometricPrecision" shape-rendering="geometricPrecision" transform="matrix(1,0,0,1,-478,-561)" stroke="rgb(183,219,255)">
      <rect x="630.5712" width="208.6797" height="15.5497" y="687.6041" clip-path="url(#clipPath2)" stroke="none"/>
    </g>
    <g stroke-linecap="butt" transform="matrix(1,0,0,1,-478,-561)" fill="rgb(0,51,102)" text-rendering="geometricPrecision" font-family="'Fira Sans'" shape-rendering="geometricPrecision" stroke="rgb(0,51,102)" stroke-miterlimit="1.45">
      <text x="659.4485" xml:space="preserve" y="698.821" clip-path="url(#clipPath2)" stroke="none">qPhil(T, P1) =&gt; PM1: PhilMod</text>
      <line y2="701.1537" fill="none" x1="632.5712" clip-path="url(#clipPath2)" x2="837.2509" y1="701.1537"/>
      <rect x="630.5712" y="687.6041" clip-path="url(#clipPath2)" fill="none" width="208.6797" rx="4" ry="4" height="150.4556"/>
      <path fill="none" d="M706.068 711.2324 L721.068 741.2324 L691.068 741.2324 Z" fill-rule="evenodd" clip-path="url(#clipPath2)" stroke="black"/>
      <text fill="black" x="693.7748" xml:space="preserve" y="754.4493" clip-path="url(#clipPath2)" stroke="none">PM1.</text>
      <text fill="black" x="670.5615" xml:space="preserve" y="765.999" clip-path="url(#clipPath2)" stroke="none">thinkingTime</text>
    </g>
    <g stroke-linecap="butt" transform="matrix(1,0,0,1,-478,-561)" fill="rgb(64,64,64)" text-rendering="geometricPrecision" shape-rendering="geometricPrecision" stroke-dasharray="6,2" stroke="rgb(64,64,64)" stroke-miterlimit="1.45">
      <path fill="none" d="M670.0387 777.8884 L685.0387 807.8884 L655.0387 807.8884 Z" fill-rule="evenodd" clip-path="url(#clipPath2)"/>
      <text x="657.8534" y="821.0873" clip-path="url(#clipPath2)" font-family="'Fira Sans'" font-style="italic" stroke-dasharray="none" stroke="none" xml:space="preserve">PM1.</text>
      <text x="638.6819" y="832.673" clip-path="url(#clipPath2)" font-family="'Fira Sans'" font-style="italic" stroke-dasharray="none" stroke="none" xml:space="preserve">hungryRate</text>
      <path fill="none" d="M736.068 777.8884 L751.068 807.8884 L721.068 807.8884 Z" clip-path="url(#clipPath2)" fill-rule="evenodd"/>
      <text x="723.8827" y="821.0873" clip-path="url(#clipPath2)" font-family="'Fira Sans'" font-style="italic" stroke-dasharray="none" stroke="none" xml:space="preserve">PM1.</text>
      <text x="706.5043" y="832.673" clip-path="url(#clipPath2)" font-family="'Fira Sans'" font-style="italic" stroke-dasharray="none" stroke="none" xml:space="preserve">eatingRate</text>
      <circle clip-path="url(#clipPath2)" fill="none" r="15" stroke-dasharray="none" cx="802.0973" cy="792.8884" stroke="black"/>
    </g>
    <g text-rendering="geometricPrecision" stroke-miterlimit="1.45" shape-rendering="geometricPrecision" font-family="'Fira Sans'" transform="matrix(1,0,0,1,-478,-561)" stroke-linecap="butt">
      <text x="789.8041" xml:space="preserve" y="821.1053" clip-path="url(#clipPath2)" stroke="none">PM1.</text>
      <text x="777.4628" xml:space="preserve" y="832.655" clip-path="url(#clipPath2)" stroke="none">rightFork</text>
    </g>
    <g stroke-linecap="butt" transform="matrix(1,0,0,1,-478,-561)" fill="rgb(64,64,64)" text-rendering="geometricPrecision" shape-rendering="geometricPrecision" stroke-dasharray="6,2" stroke="rgb(64,64,64)" stroke-miterlimit="1.45">
      <circle fill="none" r="15" clip-path="url(#clipPath2)" cx="805.112" cy="726.2324"/>
      <text x="792.9266" y="756.4313" clip-path="url(#clipPath2)" font-family="'Fira Sans'" font-style="italic" stroke-dasharray="none" stroke="none" xml:space="preserve">PM1.</text>
      <text x="784.2255" y="768.017" clip-path="url(#clipPath2)" font-family="'Fira Sans'" font-style="italic" stroke-dasharray="none" stroke="none" xml:space="preserve">leftFork</text>
    </g>
    <g text-rendering="geometricPrecision" shape-rendering="geometricPrecision" transform="matrix(1,0,0,1,-478,-561)">
      <circle r="5" clip-path="url(#clipPath2)" cx="802.0973" cy="792.8884" stroke="none"/>
      <rect x="862.9759" y="687.482" clip-path="url(#clipPath2)" fill="rgb(225,215,253)" width="207.3776" height="15.5497" stroke="none"/>
    </g>
    <g stroke-linecap="butt" transform="matrix(1,0,0,1,-478,-561)" fill="navy" text-rendering="geometricPrecision" font-family="'Fira Sans'" shape-rendering="geometricPrecision" stroke="navy" stroke-miterlimit="1.45">
      <text x="890.4586" xml:space="preserve" y="698.6989" clip-path="url(#clipPath2)" stroke="none">qPhil(T, P2) =&gt; PM2: PhilMod</text>
      <line y2="701.0316" fill="none" x1="864.9759" clip-path="url(#clipPath2)" x2="1068.3535" y1="701.0316"/>
      <rect x="862.9759" y="687.482" clip-path="url(#clipPath2)" fill="none" width="207.3776" rx="4" ry="4" height="152.4556"/>
      <path fill="none" d="M1003.1999 711.1103 L1018.1999 741.1103 L988.1999 741.1103 Z" fill-rule="evenodd" clip-path="url(#clipPath2)" stroke="black"/>
      <text fill="black" x="990.5349" xml:space="preserve" y="754.3272" clip-path="url(#clipPath2)" stroke="none">PM2.</text>
      <text fill="black" x="967.6934" xml:space="preserve" y="765.8769" clip-path="url(#clipPath2)" stroke="none">thinkingTime</text>
    </g>
    <g stroke-linecap="butt" transform="matrix(1,0,0,1,-478,-561)" fill="rgb(64,64,64)" text-rendering="geometricPrecision" shape-rendering="geometricPrecision" stroke-dasharray="6,2" stroke="rgb(64,64,64)" stroke-miterlimit="1.45">
      <path fill="none" d="M967.1706 777.7663 L982.1706 807.7663 L952.1706 807.7663 Z" fill-rule="evenodd" clip-path="url(#clipPath2)"/>
      <text x="954.6135" y="820.9652" clip-path="url(#clipPath2)" font-family="'Fira Sans'" font-style="italic" stroke-dasharray="none" stroke="none" xml:space="preserve">PM2.</text>
      <text x="935.8138" y="832.5508" clip-path="url(#clipPath2)" font-family="'Fira Sans'" font-style="italic" stroke-dasharray="none" stroke="none" xml:space="preserve">hungryRate</text>
      <path fill="none" d="M1033.2 777.7663 L1048.2 807.7663 L1018.1999 807.7663 Z" clip-path="url(#clipPath2)" fill-rule="evenodd"/>
      <text x="1020.6428" y="820.9652" clip-path="url(#clipPath2)" font-family="'Fira Sans'" font-style="italic" stroke-dasharray="none" stroke="none" xml:space="preserve">PM2.</text>
      <text x="1003.6362" y="832.5508" clip-path="url(#clipPath2)" font-family="'Fira Sans'" font-style="italic" stroke-dasharray="none" stroke="none" xml:space="preserve">eatingRate</text>
      <circle clip-path="url(#clipPath2)" fill="none" r="15" stroke-dasharray="none" cx="904.1559" cy="726.1103" stroke="black"/>
    </g>
    <g text-rendering="geometricPrecision" stroke-miterlimit="1.45" shape-rendering="geometricPrecision" font-family="'Fira Sans'" transform="matrix(1,0,0,1,-478,-561)" stroke-linecap="butt">
      <text x="891.4909" xml:space="preserve" y="754.3272" clip-path="url(#clipPath2)" stroke="none">PM2.</text>
      <text x="879.5215" xml:space="preserve" y="765.8769" clip-path="url(#clipPath2)" stroke="none">rightFork</text>
    </g>
    <g stroke-linecap="butt" transform="matrix(1,0,0,1,-478,-561)" fill="rgb(64,64,64)" text-rendering="geometricPrecision" shape-rendering="geometricPrecision" stroke-dasharray="6,2" stroke="rgb(64,64,64)" stroke-miterlimit="1.45">
      <circle fill="none" r="15" clip-path="url(#clipPath2)" cx="901.1413" cy="792.7663"/>
      <text x="888.5842" y="822.9652" clip-path="url(#clipPath2)" font-family="'Fira Sans'" font-style="italic" stroke-dasharray="none" stroke="none" xml:space="preserve">PM2.</text>
      <text x="880.2548" y="834.5508" clip-path="url(#clipPath2)" font-family="'Fira Sans'" font-style="italic" stroke-dasharray="none" stroke="none" xml:space="preserve">leftFork</text>
    </g>
    <g text-rendering="geometricPrecision" shape-rendering="geometricPrecision" transform="matrix(1,0,0,1,-478,-561)">
      <circle r="5" clip-path="url(#clipPath2)" cx="904.1559" cy="726.1103" stroke="none"/>
      <path fill="none" stroke-miterlimit="1.45" d="M687.2904 862.9948 L702.2904 892.9948 L672.2904 892.9948 Z" fill-rule="evenodd" clip-path="url(#clipPath2)" stroke-linecap="butt"/>
      <text stroke-linecap="butt" x="706.2904" y="869.8873" clip-path="url(#clipPath2)" font-family="'Fira Sans'" stroke="none" stroke-miterlimit="1.45" xml:space="preserve">P1.</text>
      <text stroke-linecap="butt" x="706.2904" y="881.4369" clip-path="url(#clipPath2)" font-family="'Fira Sans'" stroke="none" stroke-miterlimit="1.45" xml:space="preserve">hungryRate</text>
      <text stroke-linecap="butt" x="706.2904" y="892.9866" clip-path="url(#clipPath2)" font-family="'Fira Sans'" stroke="none" stroke-miterlimit="1.45" xml:space="preserve">= 0.75</text>
      <path fill="rgb(153,153,153)" d="M786.7371 866.0668 L801.7371 896.0668 L771.7371 896.0668 Z" clip-path="url(#clipPath2)" fill-rule="evenodd" stroke="none"/>
      <path fill="none" stroke-miterlimit="1.45" d="M786.7371 866.0668 L801.7371 896.0668 L771.7371 896.0668 Z" fill-rule="evenodd" clip-path="url(#clipPath2)" stroke-linecap="butt"/>
      <text stroke-linecap="butt" x="805.7371" y="872.9592" clip-path="url(#clipPath2)" font-family="'Fira Sans'" stroke="none" stroke-miterlimit="1.45" xml:space="preserve">P1.</text>
      <text stroke-linecap="butt" x="805.7371" y="884.5089" clip-path="url(#clipPath2)" font-family="'Fira Sans'" stroke="none" stroke-miterlimit="1.45" xml:space="preserve">eatingRate</text>
      <text stroke-linecap="butt" x="805.7371" y="896.0585" clip-path="url(#clipPath2)" font-family="'Fira Sans'" stroke="none" stroke-miterlimit="1.45" xml:space="preserve">= 3.0</text>
      <path fill="none" stroke-miterlimit="1.45" d="M886.1838 866.0668 L901.1838 896.0668 L871.1838 896.0668 Z" fill-rule="evenodd" clip-path="url(#clipPath2)" stroke-linecap="butt"/>
      <text stroke-linecap="butt" x="905.1838" y="872.9592" clip-path="url(#clipPath2)" font-family="'Fira Sans'" stroke="none" stroke-miterlimit="1.45" xml:space="preserve">P2.</text>
      <text stroke-linecap="butt" x="905.1838" y="884.5089" clip-path="url(#clipPath2)" font-family="'Fira Sans'" stroke="none" stroke-miterlimit="1.45" xml:space="preserve">hungryRate</text>
      <text stroke-linecap="butt" x="905.1838" y="896.0585" clip-path="url(#clipPath2)" font-family="'Fira Sans'" stroke="none" stroke-miterlimit="1.45" xml:space="preserve">= 0.45</text>
      <path fill="rgb(153,153,153)" d="M985.6305 866.0668 L1000.6305 896.0668 L970.6305 896.0668 Z" clip-path="url(#clipPath2)" fill-rule="evenodd" stroke="none"/>
      <path fill="none" stroke-miterlimit="1.45" d="M985.6305 866.0668 L1000.6305 896.0668 L970.6305 896.0668 Z" fill-rule="evenodd" clip-path="url(#clipPath2)" stroke-linecap="butt"/>
      <text stroke-linecap="butt" x="1004.6305" y="872.9592" clip-path="url(#clipPath2)" font-family="'Fira Sans'" stroke="none" stroke-miterlimit="1.45" xml:space="preserve">P2.</text>
      <text stroke-linecap="butt" x="1004.6305" y="884.5089" clip-path="url(#clipPath2)" font-family="'Fira Sans'" stroke="none" stroke-miterlimit="1.45" xml:space="preserve">eatingRate</text>
      <text stroke-linecap="butt" x="1004.6305" y="896.0585" clip-path="url(#clipPath2)" font-family="'Fira Sans'" stroke="none" stroke-miterlimit="1.45" xml:space="preserve">= 2.8</text>
    </g>
    <g stroke-linecap="butt" transform="matrix(1,0,0,1,-478,-561)" fill="rgb(102,102,0)" text-rendering="geometricPrecision" shape-rendering="geometricPrecision" stroke-dasharray="6,2" stroke="rgb(102,102,0)" stroke-miterlimit="1.45">
      <path fill="none" d="M820.1119 726.2139 L874.1559 726.1473" clip-path="url(#clipPath2)"/>
      <path fill="white" d="M889.1559 726.1288 L873.1486 720.1485 L873.1633 732.1485 Z" clip-path="url(#clipPath2)" stroke="none"/>
      <path fill="none" stroke-dasharray="none" d="M889.1559 726.1288 L873.1486 720.1485 L873.1633 732.1485 Z" clip-path="url(#clipPath2)"/>
      <rect x="820.918" y="731.2595" clip-path="url(#clipPath2)" fill="rgb(241,241,176)" width="49.6049" height="23.2494" stroke="none"/>
      <text x="822.918" font-size="10px" y="740.9402" clip-path="url(#clipPath2)" font-family="'Fira Sans'" stroke-dasharray="none" stroke="none" xml:space="preserve">qAdjacent</text>
      <line clip-path="url(#clipPath2)" fill="none" x1="822.918" x2="868.5229" y1="742.8842" y2="742.8842" stroke-dasharray="none"/>
      <text x="824.4072" font-size="10px" y="750.5649" clip-path="url(#clipPath2)" font-family="'Fira Sans'" stroke-dasharray="none" stroke="none" xml:space="preserve">(T, P2, P1)</text>
      <line clip-path="url(#clipPath2)" fill="none" x1="822.918" x2="868.5229" y1="752.5089" y2="752.5089" stroke-dasharray="none"/>
      <path fill="none" d="M886.1413 792.7848 L832.0973 792.8514" clip-path="url(#clipPath2)" stroke="rgb(0,102,51)"/>
      <path fill="white" d="M817.0973 792.8699 L833.1047 798.8502 L833.0899 786.8502 Z" clip-path="url(#clipPath2)" stroke="none"/>
      <path fill="none" stroke-dasharray="none" d="M817.0973 792.8699 L833.1047 798.8502 L833.0899 786.8502 Z" clip-path="url(#clipPath2)" stroke="rgb(0,102,51)"/>
      <rect x="835.0983" y="796.9405" clip-path="url(#clipPath2)" fill="rgb(174,238,206)" width="49.6049" height="23.2494" stroke="none"/>
    </g>
    <g stroke-linecap="butt" font-size="10px" transform="matrix(1,0,0,1,-478,-561)" fill="rgb(0,102,51)" text-rendering="geometricPrecision" font-family="'Fira Sans'" shape-rendering="geometricPrecision" stroke="rgb(0,102,51)" stroke-miterlimit="1.45">
      <text x="837.0983" xml:space="preserve" y="806.6213" clip-path="url(#clipPath2)" stroke="none">qAdjacent</text>
      <line y2="808.5652" fill="none" x1="837.0983" clip-path="url(#clipPath2)" x2="882.7032" y1="808.5652"/>
      <text x="838.5875" xml:space="preserve" y="816.246" clip-path="url(#clipPath2)" stroke="none">(T, P1, P2)</text>
      <line y2="818.1899" fill="none" x1="837.0983" clip-path="url(#clipPath2)" x2="882.7032" y1="818.1899"/>
    </g>
    <g stroke-linecap="butt" transform="matrix(1,0,0,1,-478,-561)" fill="rgb(0,51,102)" text-rendering="geometricPrecision" shape-rendering="geometricPrecision" stroke-dasharray="6,2" stroke="rgb(0,51,102)" stroke-miterlimit="1.45">
      <path fill="none" d="M662.5173 792.8884 L636.1094 792.8884 L636.1094 854.6988 L667.5154 868.9938" clip-path="url(#clipPath2)"/>
      <path fill="white" d="M681.1677 875.2079 L669.0909 863.1187 L664.1196 874.0405 Z" clip-path="url(#clipPath2)" stroke="none"/>
      <path fill="none" stroke-dasharray="none" d="M681.1677 875.2079 L669.0909 863.1187 L664.1196 874.0405 Z" clip-path="url(#clipPath2)"/>
      <rect x="653.2537" y="843.5098" clip-path="url(#clipPath2)" fill="rgb(183,219,255)" width="54.1624" height="13.6247" stroke="none"/>
      <text x="655.2537" font-size="10px" y="853.1906" clip-path="url(#clipPath2)" font-family="'Fira Sans'" stroke-dasharray="none" stroke="none" xml:space="preserve">qPhil(T, P1)</text>
      <line clip-path="url(#clipPath2)" fill="none" x1="655.2537" x2="705.4161" y1="855.1345" y2="855.1345" stroke-dasharray="none"/>
      <path fill="none" d="M743.5412 792.8884 L769.4854 792.8884 L769.4854 848.7278 L775.8188 860.6002" clip-path="url(#clipPath2)"/>
      <path fill="white" d="M782.879 873.8347 L780.642 856.8938 L770.0543 862.5419 Z" clip-path="url(#clipPath2)" stroke="none"/>
      <path fill="none" stroke-dasharray="none" d="M782.879 873.8347 L780.642 856.8938 L770.0543 862.5419 Z" clip-path="url(#clipPath2)"/>
      <rect x="782.5916" y="842.7502" clip-path="url(#clipPath2)" fill="rgb(183,219,255)" width="54.1624" height="13.6247" stroke="none"/>
      <text x="784.5916" font-size="10px" y="852.431" clip-path="url(#clipPath2)" font-family="'Fira Sans'" stroke-dasharray="none" stroke="none" xml:space="preserve">qPhil(T, P1)</text>
      <line clip-path="url(#clipPath2)" fill="none" x1="784.5916" x2="834.754" y1="854.375" y2="854.375" stroke-dasharray="none"/>
      <path fill="none" d="M959.6605 792.7663 L932.055 792.7663 L932.055 849.607 L902.3016 849.607 L896.8167 860.3128" clip-path="url(#clipPath2)" stroke="navy"/>
      <path fill="white" d="M889.9772 873.6627 L902.6127 862.1586 L891.9327 856.687 Z" clip-path="url(#clipPath2)" stroke="none"/>
      <path fill="none" stroke-dasharray="none" d="M889.9772 873.6627 L902.6127 862.1586 L891.9327 856.687 Z" clip-path="url(#clipPath2)" stroke="navy"/>
      <rect x="924.1659" y="853.7881" clip-path="url(#clipPath2)" fill="rgb(225,215,253)" width="54.7821" height="13.6247" stroke="none"/>
    </g>
    <g stroke-linecap="butt" font-size="10px" transform="matrix(1,0,0,1,-478,-561)" fill="navy" text-rendering="geometricPrecision" font-family="'Fira Sans'" shape-rendering="geometricPrecision" stroke="navy" stroke-miterlimit="1.45">
      <text x="926.1659" xml:space="preserve" y="863.4689" clip-path="url(#clipPath2)" stroke="none">qPhil(T, P2)</text>
      <line y2="865.4128" fill="none" x1="926.1659" clip-path="url(#clipPath2)" x2="976.948" y1="865.4128"/>
      <path fill="none" stroke-dasharray="6,2" d="M1025.7253 792.7663 L1001.175 792.7663 L1001.175 850.9408 L996.3188 860.3523" clip-path="url(#clipPath2)"/>
    </g>
    <g stroke-linecap="butt" transform="matrix(1,0,0,1,-478,-561)" fill="white" text-rendering="geometricPrecision" shape-rendering="geometricPrecision" stroke-dasharray="6,2" stroke="white" stroke-miterlimit="1.45">
      <path d="M989.4407 873.6824 L1002.1094 862.2148 L991.4453 856.7123 Z" stroke="none" clip-path="url(#clipPath2)"/>
      <path fill="none" stroke-dasharray="none" d="M989.4407 873.6824 L1002.1094 862.2148 L991.4453 856.7123 Z" clip-path="url(#clipPath2)" stroke="navy"/>
      <rect x="1006.0597" y="844.1284" clip-path="url(#clipPath2)" fill="rgb(225,215,253)" width="54.7821" height="13.6247" stroke="none"/>
    </g>
    <g stroke-linecap="butt" font-size="10px" transform="matrix(1,0,0,1,-478,-561)" fill="navy" text-rendering="geometricPrecision" font-family="'Fira Sans'" shape-rendering="geometricPrecision" stroke="navy" stroke-miterlimit="1.45">
      <text x="1008.0598" xml:space="preserve" y="853.8092" clip-path="url(#clipPath2)" stroke="none">qPhil(T, P2)</text>
      <line y2="855.7531" fill="none" x1="1008.0597" clip-path="url(#clipPath2)" x2="1058.8418" y1="855.7531"/>
    </g>
    <g fill="rgb(244,186,158)" text-rendering="geometricPrecision" shape-rendering="geometricPrecision" transform="matrix(1,0,0,1,-478,-561)" stroke="rgb(244,186,158)">
      <rect x="630.5712" width="305.1871" height="15.5497" y="591.6174" clip-path="url(#clipPath2)" stroke="none"/>
    </g>
    <g stroke-linecap="butt" transform="matrix(1,0,0,1,-478,-561)" fill="rgb(153,51,0)" text-rendering="geometricPrecision" font-family="'Fira Sans'" shape-rendering="geometricPrecision" stroke="rgb(153,51,0)" stroke-miterlimit="1.45">
      <text x="710.7246" xml:space="preserve" y="602.8343" clip-path="url(#clipPath2)" stroke="none">qTable(T) =&gt; TM: TableMod</text>
      <line y2="605.167" fill="none" x1="632.5712" clip-path="url(#clipPath2)" x2="933.7583" y1="605.167"/>
      <rect x="630.5712" y="591.6174" clip-path="url(#clipPath2)" fill="none" width="305.1871" rx="4" ry="4" height="64.4729"/>
      <path fill="none" d="M772.5 617.7642 L787.5 647.7642 L757.5 647.7642 Z" fill-rule="evenodd" clip-path="url(#clipPath2)" stroke="black"/>
      <text fill="black" x="798.3729" xml:space="preserve" y="630.9812" clip-path="url(#clipPath2)" stroke="none">TM.totalThinkingTime</text>
      <text fill="black" x="798.3729" xml:space="preserve" y="642.5308" clip-path="url(#clipPath2)" stroke="none">= sum(thinkingTimes)</text>
    </g>
    <g fill="rgb(153,153,153)" text-rendering="geometricPrecision" shape-rendering="geometricPrecision" transform="matrix(1,0,0,1,-478,-561) translate(6,4)" stroke="rgb(153,153,153)">
      <path d="M655.5687 617.7642 L670.5687 647.7642 L640.5687 647.7642 Z" fill-rule="evenodd" clip-path="url(#clipPath8)" stroke="none"/>
    </g>
    <g fill="white" text-rendering="geometricPrecision" shape-rendering="geometricPrecision" transform="matrix(1,0,0,1,-478,-561)" stroke="white">
      <path d="M655.5687 617.7642 L670.5687 647.7642 L640.5687 647.7642 Z" fill-rule="evenodd" clip-path="url(#clipPath2)" stroke="none"/>
    </g>
    <g text-rendering="geometricPrecision" stroke-miterlimit="1.45" shape-rendering="geometricPrecision" transform="matrix(1,0,0,1,-478,-561)" stroke-linecap="butt">
      <path fill="none" d="M655.5687 617.7642 L670.5687 647.7642 L640.5687 647.7642 Z" fill-rule="evenodd" clip-path="url(#clipPath2)"/>
      <text x="674.5687" y="630.3776" clip-path="url(#clipPath2)" font-family="'Fira Sans'" font-style="italic" stroke="none" xml:space="preserve">TM.</text>
      <text x="674.5687" y="641.9632" clip-path="url(#clipPath2)" font-family="'Fira Sans'" font-style="italic" stroke="none" xml:space="preserve">thinkingTimes</text>
      <path fill="none" stroke-dasharray="6,2" d="M1001.8978 595.9447 L1016.8978 625.9447 L986.8978 625.9447 Z" clip-path="url(#clipPath2)" fill-rule="evenodd" stroke="rgb(64,64,64)"/>
    </g>
    <g stroke-linecap="butt" transform="matrix(1,0,0,1,-478,-561)" fill="rgb(64,64,64)" text-rendering="geometricPrecision" font-family="'Fira Sans'" shape-rendering="geometricPrecision" font-style="italic" stroke="rgb(64,64,64)" stroke-miterlimit="1.45">
      <text x="947.9814" xml:space="preserve" y="639.1437" clip-path="url(#clipPath2)" stroke="none">T.totalThinkingTime</text>
    </g>
    <g stroke-linecap="butt" transform="matrix(1,0,0,1,-478,-561)" fill="rgb(0,51,102)" text-rendering="geometricPrecision" shape-rendering="geometricPrecision" stroke="rgb(0,51,102)" stroke-miterlimit="1.45">
      <path fill="none" d="M650.266 647.7934 L650.266 726.2324 L683.5751 726.2324" clip-path="url(#clipPath2)"/>
      <path fill="white" d="M698.5751 726.2324 L682.5751 720.2324 L682.5751 732.2324 Z" clip-path="url(#clipPath2)" stroke="none"/>
      <path fill="none" d="M698.5751 726.2324 L682.5751 720.2324 L682.5751 732.2324 Z" clip-path="url(#clipPath2)"/>
      <text x="657.3672" font-size="15px" y="719.4584" clip-path="url(#clipPath2)" font-family="'DejaVu Sans'" stroke="none" xml:space="preserve">∈</text>
      <rect x="654.7886" y="667.9703" clip-path="url(#clipPath2)" fill="rgb(183,219,255)" width="54.1624" height="13.6247" stroke="none"/>
      <text x="656.7886" font-size="10px" y="677.6511" clip-path="url(#clipPath2)" font-family="'Fira Sans'" stroke="none" xml:space="preserve">qPhil(T, P1)</text>
      <line y2="679.595" fill="none" x1="656.7886" clip-path="url(#clipPath2)" x2="706.951" y1="679.595"/>
      <path fill="none" d="M661.8787 647.7887 L661.8787 662.0533 L1052.951 662.0533 L1052.951 726.1103 L1025.7306 726.1103" clip-path="url(#clipPath2)" stroke="navy"/>
      <path fill="white" d="M1010.7306 726.1103 L1026.7306 732.1103 L1026.7306 720.1103 Z" clip-path="url(#clipPath2)" stroke="none"/>
      <path fill="none" d="M1010.7306 726.1103 L1026.7306 732.1103 L1026.7306 720.1103 Z" clip-path="url(#clipPath2)" stroke="navy"/>
    </g>
    <g stroke-linecap="butt" font-size="15px" transform="matrix(1,0,0,1,-478,-561)" fill="navy" text-rendering="geometricPrecision" font-family="'DejaVu Sans'" shape-rendering="geometricPrecision" stroke="navy" stroke-miterlimit="1.45">
      <text x="1035.8088" xml:space="preserve" y="721.9268" clip-path="url(#clipPath2)" stroke="none">∈</text>
    </g>
    <g stroke-linecap="butt" transform="matrix(1,0,0,1,-478,-561)" fill="rgb(225,215,253)" text-rendering="geometricPrecision" shape-rendering="geometricPrecision" stroke="rgb(225,215,253)" stroke-miterlimit="1.45">
      <rect x="968.2125" width="54.7821" height="13.6247" y="667.2335" clip-path="url(#clipPath2)" stroke="none"/>
    </g>
    <g stroke-linecap="butt" font-size="10px" transform="matrix(1,0,0,1,-478,-561)" fill="navy" text-rendering="geometricPrecision" font-family="'Fira Sans'" shape-rendering="geometricPrecision" stroke="navy" stroke-miterlimit="1.45">
      <text x="970.2125" xml:space="preserve" y="676.9142" clip-path="url(#clipPath2)" stroke="none">qPhil(T, P2)</text>
      <line y2="678.8582" fill="none" x1="970.2125" clip-path="url(#clipPath2)" x2="1020.9946" y1="678.8582"/>
    </g>
    <g stroke-linecap="butt" transform="matrix(1,0,0,1,-478,-561)" fill="rgb(153,51,0)" text-rendering="geometricPrecision" shape-rendering="geometricPrecision" stroke-dasharray="6,2" stroke="rgb(153,51,0)" stroke-miterlimit="1.45">
      <path fill="none" d="M994.3958 610.9447 L987.0676 610.9447 L795.0471 610.9447 L788.3214 617.4534" clip-path="url(#clipPath2)"/>
      <path fill="white" d="M777.5423 627.8847 L793.2125 621.0696 L784.8675 612.4464 Z" clip-path="url(#clipPath2)" stroke="none"/>
      <path fill="none" stroke-dasharray="none" d="M777.5423 627.8847 L793.2125 621.0696 L784.8675 612.4464 Z" clip-path="url(#clipPath2)"/>
      <rect x="943.0937" y="592.7601" clip-path="url(#clipPath2)" fill="rgb(244,186,158)" width="46.5366" height="13.6247" stroke="none"/>
      <text x="945.0936" font-size="10px" y="602.4409" clip-path="url(#clipPath2)" font-family="'Fira Sans'" stroke-dasharray="none" stroke="none" xml:space="preserve">qTable(T)</text>
      <line clip-path="url(#clipPath2)" fill="none" x1="945.0937" x2="987.6303" y1="604.3848" y2="604.3848" stroke-dasharray="none"/>
    </g>
  </g>
</svg>
