<?xml version="1.0" encoding="UTF-8"?><svg xmlns="http://www.w3.org/2000/svg" xmlns:xlink="http://www.w3.org/1999/xlink" fill-opacity="1" color-rendering="auto" color-interpolation="auto" text-rendering="auto" stroke="black" stroke-linecap="square" width="604" stroke-miterlimit="10" shape-rendering="auto" stroke-opacity="1" fill="black" stroke-dasharray="none" font-weight="normal" stroke-width="1" height="211" font-family="'Dialog'" font-style="normal" stroke-linejoin="miter" font-size="12px" stroke-dashoffset="0" image-rendering="auto">
  <!--Generated by ySVG 2.5-->
  <defs id="genericDefs"/>
  <g>
    <defs id="defs1">
      <clipPath clipPathUnits="userSpaceOnUse" id="clipPath1">
        <path d="M0 0 L604 0 L604 211 L0 211 L0 0 Z"/>
      </clipPath>
      <clipPath clipPathUnits="userSpaceOnUse" id="clipPath2">
        <path d="M478 602 L1082 602 L1082 813 L478 813 L478 602 Z"/>
      </clipPath>
      <clipPath clipPathUnits="userSpaceOnUse" id="clipPath3">
        <path d="M478 667.3256 L478 813 L1082 813 L1082 667.3256 Z"/>
      </clipPath>
      <clipPath clipPathUnits="userSpaceOnUse" id="clipPath4">
        <path d="M478 602 L478 667.3256 L1082 667.3256 L1082 602 Z"/>
      </clipPath>
      <clipPath clipPathUnits="userSpaceOnUse" id="clipPath5">
        <path d="M0 0 L0 52 L61 52 L61 0 Z"/>
      </clipPath>
      <clipPath clipPathUnits="userSpaceOnUse" id="clipPath6">
        <path d="M472 598 L1076 598 L1076 809 L472 809 L472 598 Z"/>
      </clipPath>
    </defs>
    <g fill="white" text-rendering="geometricPrecision" shape-rendering="geometricPrecision" transform="translate(-478,-602)" stroke="white">
      <rect x="478" width="604" height="211" y="602" clip-path="url(#clipPath2)" stroke="none"/>
    </g>
    <g fill="white" text-rendering="geometricPrecision" shape-rendering="geometricPrecision" transform="matrix(1,0,0,1,-478,-602)" stroke="white">
      <rect x="483.3507" width="127.0124" height="200.2359" y="607.5304" clip-path="url(#clipPath2)" stroke="none"/>
      <rect x="483.3507" y="607.5304" clip-path="url(#clipPath2)" fill="rgb(235,235,235)" width="127.0124" height="15.5497" stroke="none"/>
    </g>
    <g text-rendering="geometricPrecision" stroke-miterlimit="1.45" shape-rendering="geometricPrecision" font-family="'Fira Sans'" transform="matrix(1,0,0,1,-478,-602)" stroke-linecap="butt">
      <text x="509.2456" xml:space="preserve" y="618.7473" clip-path="url(#clipPath2)" stroke="none">Source model</text>
      <rect fill="none" x="483.3507" width="127.0124" height="200.2359" y="607.5304" clip-path="url(#clipPath2)"/>
    </g>
    <g fill="rgb(183,219,255)" text-rendering="geometricPrecision" shape-rendering="geometricPrecision" transform="matrix(1,0,0,1,-478,-602)" stroke="rgb(183,219,255)">
      <rect x="488.1211" width="51.9377" height="15.5497" y="628.3562" clip-path="url(#clipPath2)" stroke="none"/>
    </g>
    <g stroke-linecap="butt" transform="matrix(1,0,0,1,-478,-602)" fill="rgb(0,51,102)" text-rendering="geometricPrecision" font-family="'Fira Sans'" shape-rendering="geometricPrecision" stroke="rgb(0,51,102)" stroke-miterlimit="1.45">
      <text x="490.1211" xml:space="preserve" y="639.5732" clip-path="url(#clipPath2)" stroke="none">qPhil(P1)</text>
      <line y2="641.9059" fill="none" x1="490.1211" clip-path="url(#clipPath2)" x2="538.0588" y1="641.9059"/>
      <rect fill="none" x="488.1211" width="116.7171" height="173.4739" y="628.3562" clip-path="url(#clipPath2)"/>
    </g>
    <g fill="rgb(255,170,127)" text-rendering="geometricPrecision" shape-rendering="geometricPrecision" transform="matrix(1,0,0,1,-478,-602)" stroke="rgb(255,170,127)">
      <rect x="510.95" y="757.4762" clip-path="url(#clipPath2)" width="58.6938" rx="4" ry="4" height="30" stroke="none"/>
    </g>
    <g text-rendering="geometricPrecision" stroke-miterlimit="1.45" shape-rendering="geometricPrecision" transform="matrix(1,0,0,1,-478,-602)" stroke-linecap="butt">
      <rect x="510.95" y="757.4762" clip-path="url(#clipPath2)" fill="none" width="58.6938" rx="4" ry="4" height="30"/>
      <text x="519.1885" xml:space="preserve" y="775.9183" clip-path="url(#clipPath2)" font-family="'Fira Sans'" stroke="none">T: Table</text>
      <line y2="778.251" fill="none" x1="519.1885" clip-path="url(#clipPath2)" x2="561.4053" y1="778.251"/>
    </g>
    <g fill="white" text-rendering="geometricPrecision" shape-rendering="geometricPrecision" transform="matrix(1,0,0,1,-478,-602)" stroke="white">
      <rect x="495.6995" y="647.776" clip-path="url(#clipPath3)" width="89.1947" rx="4" ry="4" height="79.7003" stroke="none"/>
      <rect x="495.6995" y="647.776" clip-path="url(#clipPath4)" fill="rgb(17,212,163)" width="89.1947" rx="4" ry="4" height="79.7003" stroke="none"/>
    </g>
    <g text-rendering="geometricPrecision" stroke-miterlimit="1.45" shape-rendering="geometricPrecision" transform="matrix(1,0,0,1,-478,-602)" stroke-linecap="butt">
      <rect x="495.6995" y="647.776" clip-path="url(#clipPath2)" fill="none" width="89.1947" rx="4" ry="4" height="79.7003"/>
      <line y2="667.3256" fill="none" x1="495.6995" clip-path="url(#clipPath2)" x2="584.8942" y1="667.3256"/>
      <text x="498.248" xml:space="preserve" y="660.9929" clip-path="url(#clipPath2)" font-family="'Fira Sans'" stroke="none">P1: Philosopher</text>
      <line y2="663.3256" fill="none" x1="498.248" clip-path="url(#clipPath2)" x2="582.3458" y1="663.3256"/>
    </g>
    <g text-rendering="geometricPrecision" stroke-miterlimit="1.45" shape-rendering="geometricPrecision" font-family="'Fira Sans'" transform="matrix(1,0,0,1,-478,-602) translate(499,671)" stroke-linecap="butt">
      <text x="0" xml:space="preserve" y="10" clip-path="url(#clipPath5)" stroke="none">eatingRate</text>
      <text x="57" xml:space="preserve" y="10" clip-path="url(#clipPath5)" stroke="none"> </text>
      <text x="0" xml:space="preserve" y="23" clip-path="url(#clipPath5)" stroke="none">= 3</text>
      <text x="16" xml:space="preserve" y="23" clip-path="url(#clipPath5)" stroke="none"> </text>
      <text x="0" xml:space="preserve" y="36" clip-path="url(#clipPath5)" stroke="none">hungryRate</text>
      <text x="61" xml:space="preserve" y="36" clip-path="url(#clipPath5)" stroke="none"> </text>
      <text x="0" xml:space="preserve" y="49" clip-path="url(#clipPath5)" stroke="none">= 0.5</text>
    </g>
    <g fill="rgb(244,186,158)" text-rendering="geometricPrecision" shape-rendering="geometricPrecision" transform="matrix(1,0,0,1,-478,-602)" stroke="rgb(244,186,158)">
      <rect x="507.4383" width="55.0439" height="15.5497" y="737.856" clip-path="url(#clipPath2)" stroke="none"/>
    </g>
    <g stroke-linecap="butt" transform="matrix(1,0,0,1,-478,-602)" fill="rgb(153,51,0)" text-rendering="geometricPrecision" font-family="'Fira Sans'" shape-rendering="geometricPrecision" stroke="rgb(153,51,0)" stroke-miterlimit="1.45">
      <text x="509.4383" xml:space="preserve" y="749.0729" clip-path="url(#clipPath2)" stroke="none">qTable(T)</text>
      <line y2="751.4056" fill="none" x1="509.4383" clip-path="url(#clipPath2)" x2="560.4822" y1="751.4056"/>
      <rect fill="none" x="507.4383" width="68.3386" height="56.24" y="737.856" clip-path="url(#clipPath2)"/>
      <path fill="none" d="M576.6469 772.4762 L593.0701 772.4762 L593.0701 699.5882 L584.8624 699.5882" clip-path="url(#clipPath2)" stroke="black"/>
      <path fill="black" d="M569.6469 772.4762 L576.6469 767.4762 L583.6469 772.4762 L576.6469 777.4762 Z" clip-path="url(#clipPath2)" stroke="none"/>
    </g>
    <g fill="rgb(235,235,235)" text-rendering="geometricPrecision" shape-rendering="geometricPrecision" transform="matrix(1,0,0,1,-478,-602)" stroke="rgb(235,235,235)">
      <rect x="624.9632" width="451.1437" height="15.5497" y="607.5304" clip-path="url(#clipPath2)" stroke="none"/>
    </g>
    <g text-rendering="geometricPrecision" stroke-miterlimit="1.45" shape-rendering="geometricPrecision" font-family="'Fira Sans'" transform="matrix(1,0,0,1,-478,-602)" stroke-linecap="butt">
      <text x="785.4648" xml:space="preserve" y="618.7473" clip-path="url(#clipPath2)" stroke="none">Abstract analysis model</text>
      <rect fill="none" x="624.9632" width="451.1437" height="200.2359" y="607.5304" clip-path="url(#clipPath2)"/>
    </g>
    <g fill="rgb(183,219,255)" text-rendering="geometricPrecision" shape-rendering="geometricPrecision" transform="matrix(1,0,0,1,-478,-602)" stroke="rgb(183,219,255)">
      <rect x="837.7583" width="227.2397" height="15.5497" y="634.9047" clip-path="url(#clipPath2)" stroke="none"/>
    </g>
    <g stroke-linecap="butt" transform="matrix(1,0,0,1,-478,-602)" fill="rgb(0,51,102)" text-rendering="geometricPrecision" font-family="'Fira Sans'" shape-rendering="geometricPrecision" stroke="rgb(0,51,102)" stroke-miterlimit="1.45">
      <text x="875.9156" xml:space="preserve" y="646.1216" clip-path="url(#clipPath2)" stroke="none">qPhil(T, P1) =&gt; PM1: PhilMod</text>
      <line y2="648.4544" fill="none" x1="839.7583" clip-path="url(#clipPath2)" x2="1062.998" y1="648.4544"/>
      <rect x="837.7583" y="634.9047" clip-path="url(#clipPath2)" fill="none" width="227.2397" rx="4" ry="4" height="84.4076"/>
      <path fill="none" d="M877.2258 658.533 L892.2258 688.533 L862.2258 688.533 Z" fill-rule="evenodd" clip-path="url(#clipPath2)" stroke="black"/>
      <text fill="black" x="864.9326" xml:space="preserve" y="701.7499" clip-path="url(#clipPath2)" stroke="none">PM1.</text>
      <text fill="black" x="841.7193" xml:space="preserve" y="713.2996" clip-path="url(#clipPath2)" stroke="none">thinkingTime</text>
    </g>
    <g stroke-linecap="butt" transform="matrix(1,0,0,1,-478,-602)" fill="rgb(64,64,64)" text-rendering="geometricPrecision" shape-rendering="geometricPrecision" stroke-dasharray="6,2" stroke="rgb(64,64,64)" stroke-miterlimit="1.45">
      <path fill="none" d="M952.0324 658.533 L967.0324 688.533 L937.0324 688.533 Z" fill-rule="evenodd" clip-path="url(#clipPath2)"/>
      <text x="939.8471" y="701.732" clip-path="url(#clipPath2)" font-family="'Fira Sans'" font-style="italic" stroke-dasharray="none" stroke="none" xml:space="preserve">PM1.</text>
      <text x="920.6757" y="713.3176" clip-path="url(#clipPath2)" font-family="'Fira Sans'" font-style="italic" stroke-dasharray="none" stroke="none" xml:space="preserve">hungryRate</text>
      <path fill="none" d="M1026.8391 658.533 L1041.8391 688.533 L1011.8391 688.533 Z" clip-path="url(#clipPath2)" fill-rule="evenodd"/>
      <text x="1014.6538" y="701.732" clip-path="url(#clipPath2)" font-family="'Fira Sans'" font-style="italic" stroke-dasharray="none" stroke="none" xml:space="preserve">PM1.</text>
      <text x="997.2753" y="713.3176" clip-path="url(#clipPath2)" font-family="'Fira Sans'" font-style="italic" stroke-dasharray="none" stroke="none" xml:space="preserve">eatingRate</text>
      <path fill="none" stroke-dasharray="none" d="M862.2465 759.936 L877.2465 789.936 L847.2465 789.936 Z" clip-path="url(#clipPath2)" fill-rule="evenodd" stroke="black"/>
    </g>
    <g text-rendering="geometricPrecision" stroke-miterlimit="1.45" shape-rendering="geometricPrecision" font-family="'Fira Sans'" transform="matrix(1,0,0,1,-478,-602)" stroke-linecap="butt">
      <text x="881.2465" xml:space="preserve" y="766.8284" clip-path="url(#clipPath2)" stroke="none">P1.</text>
      <text x="881.2465" xml:space="preserve" y="778.3781" clip-path="url(#clipPath2)" stroke="none">hungryRate</text>
      <text x="881.2465" xml:space="preserve" y="789.9277" clip-path="url(#clipPath2)" stroke="none">= 0.5</text>
    </g>
    <g fill="rgb(153,153,153)" text-rendering="geometricPrecision" shape-rendering="geometricPrecision" transform="matrix(1,0,0,1,-478,-602)" stroke="rgb(153,153,153)">
      <path d="M961.6932 759.936 L976.6932 789.936 L946.6932 789.936 Z" fill-rule="evenodd" clip-path="url(#clipPath2)" stroke="none"/>
    </g>
    <g text-rendering="geometricPrecision" stroke-miterlimit="1.45" shape-rendering="geometricPrecision" transform="matrix(1,0,0,1,-478,-602)" stroke-linecap="butt">
      <path fill="none" d="M961.6932 759.936 L976.6932 789.936 L946.6932 789.936 Z" fill-rule="evenodd" clip-path="url(#clipPath2)"/>
      <text x="980.6932" xml:space="preserve" y="766.8284" clip-path="url(#clipPath2)" font-family="'Fira Sans'" stroke="none">P1.</text>
      <text x="980.6932" xml:space="preserve" y="778.3781" clip-path="url(#clipPath2)" font-family="'Fira Sans'" stroke="none">eatingRate</text>
      <text x="980.6932" xml:space="preserve" y="789.9277" clip-path="url(#clipPath2)" font-family="'Fira Sans'" stroke="none">= 3.0</text>
      <path fill="none" stroke-dasharray="6,2" d="M944.5138 673.533 L917.1949 673.533 L917.1949 747.0779 L879.587 747.0779 L874.3221 755.5362" clip-path="url(#clipPath2)" stroke="rgb(0,51,102)"/>
      <path fill="white" stroke-dasharray="6,2" d="M866.3954 768.2707 L879.9443 757.8579 L869.7567 751.5165 Z" clip-path="url(#clipPath2)" stroke="none"/>
      <path fill="none" d="M866.3954 768.2707 L879.9443 757.8579 L869.7567 751.5165 Z" clip-path="url(#clipPath2)" stroke="rgb(0,51,102)"/>
      <rect x="930.0447" y="731.5441" clip-path="url(#clipPath2)" fill="rgb(183,219,255)" width="54.1624" stroke-dasharray="6,2" height="13.6247" stroke="none"/>
    </g>
    <g stroke-linecap="butt" font-size="10px" transform="matrix(1,0,0,1,-478,-602)" fill="rgb(0,51,102)" text-rendering="geometricPrecision" font-family="'Fira Sans'" shape-rendering="geometricPrecision" stroke="rgb(0,51,102)" stroke-miterlimit="1.45">
      <text x="932.0447" xml:space="preserve" y="741.2249" clip-path="url(#clipPath2)" stroke="none">qPhil(T, P1)</text>
      <line y2="743.1688" fill="none" x1="932.0447" clip-path="url(#clipPath2)" x2="982.2071" y1="743.1688"/>
      <path fill="none" stroke-dasharray="6,2" d="M1019.3257 673.533 L990.027 673.533 L990.027 752.2388 L976.6725 752.2388 L974.2123 755.9665" clip-path="url(#clipPath2)"/>
    </g>
    <g stroke-linecap="butt" transform="matrix(1,0,0,1,-478,-602)" fill="white" text-rendering="geometricPrecision" shape-rendering="geometricPrecision" stroke-dasharray="6,2" stroke="white" stroke-miterlimit="1.45">
      <path d="M965.9501 768.4858 L979.7709 758.4368 L969.7554 751.8269 Z" stroke="none" clip-path="url(#clipPath2)"/>
      <path fill="none" stroke-dasharray="none" d="M965.9501 768.4858 L979.7709 758.4368 L969.7554 751.8269 Z" clip-path="url(#clipPath2)" stroke="rgb(0,51,102)"/>
      <rect x="856.5956" y="727.5874" clip-path="url(#clipPath2)" fill="rgb(183,219,255)" width="54.1624" height="13.6247" stroke="none"/>
    </g>
    <g stroke-linecap="butt" font-size="10px" transform="matrix(1,0,0,1,-478,-602)" fill="rgb(0,51,102)" text-rendering="geometricPrecision" font-family="'Fira Sans'" shape-rendering="geometricPrecision" stroke="rgb(0,51,102)" stroke-miterlimit="1.45">
      <text x="858.5956" xml:space="preserve" y="737.2681" clip-path="url(#clipPath2)" stroke="none">qPhil(T, P1)</text>
      <line y2="739.2121" fill="none" x1="858.5956" clip-path="url(#clipPath2)" x2="908.758" y1="739.2121"/>
    </g>
    <g fill="rgb(244,186,158)" text-rendering="geometricPrecision" shape-rendering="geometricPrecision" transform="matrix(1,0,0,1,-478,-602)" stroke="rgb(244,186,158)">
      <rect x="630.5712" width="177.1871" height="15.5497" y="634.9047" clip-path="url(#clipPath2)" stroke="none"/>
    </g>
    <g stroke-linecap="butt" transform="matrix(1,0,0,1,-478,-602)" fill="rgb(153,51,0)" text-rendering="geometricPrecision" font-family="'Fira Sans'" shape-rendering="geometricPrecision" stroke="rgb(153,51,0)" stroke-miterlimit="1.45">
      <text x="646.7246" xml:space="preserve" y="646.1216" clip-path="url(#clipPath2)" stroke="none">qTable(T) =&gt; TM: TableMod</text>
      <line y2="648.4544" fill="none" x1="632.5712" clip-path="url(#clipPath2)" x2="805.7583" y1="648.4544"/>
      <rect x="630.5712" y="634.9047" clip-path="url(#clipPath2)" fill="none" width="177.1871" rx="4" ry="4" height="113.3356"/>
      <path fill="none" d="M655.3632 706.4362 L670.3632 736.4362 L640.3632 736.4362 Z" fill-rule="evenodd" clip-path="url(#clipPath2)" stroke="black"/>
      <text fill="black" x="681.236" xml:space="preserve" y="719.6531" clip-path="url(#clipPath2)" stroke="none">TM.totalThinkingTime</text>
      <text fill="black" x="681.236" xml:space="preserve" y="731.2028" clip-path="url(#clipPath2)" stroke="none">= sum(thinkingTimes)</text>
    </g>
    <g fill="rgb(153,153,153)" text-rendering="geometricPrecision" shape-rendering="geometricPrecision" transform="matrix(1,0,0,1,-478,-602) translate(6,4)" stroke="rgb(153,153,153)">
      <path d="M655.5687 661.0516 L670.5687 691.0516 L640.5687 691.0516 Z" fill-rule="evenodd" clip-path="url(#clipPath6)" stroke="none"/>
    </g>
    <g fill="white" text-rendering="geometricPrecision" shape-rendering="geometricPrecision" transform="matrix(1,0,0,1,-478,-602)" stroke="white">
      <path d="M655.5687 661.0516 L670.5687 691.0516 L640.5687 691.0516 Z" fill-rule="evenodd" clip-path="url(#clipPath2)" stroke="none"/>
    </g>
    <g text-rendering="geometricPrecision" stroke-miterlimit="1.45" shape-rendering="geometricPrecision" transform="matrix(1,0,0,1,-478,-602)" stroke-linecap="butt">
      <path fill="none" d="M655.5687 661.0516 L670.5687 691.0516 L640.5687 691.0516 Z" fill-rule="evenodd" clip-path="url(#clipPath2)"/>
      <text x="674.5687" y="673.6649" clip-path="url(#clipPath2)" font-family="'Fira Sans'" font-style="italic" stroke="none" xml:space="preserve">TM.</text>
      <text x="674.5687" y="685.2505" clip-path="url(#clipPath2)" font-family="'Fira Sans'" font-style="italic" stroke="none" xml:space="preserve">thinkingTimes</text>
      <path fill="none" stroke-dasharray="6,2" d="M703.6711 759.936 L718.6711 789.936 L688.6711 789.936 Z" clip-path="url(#clipPath2)" fill-rule="evenodd" stroke="rgb(64,64,64)"/>
    </g>
    <g stroke-linecap="butt" transform="matrix(1,0,0,1,-478,-602)" fill="rgb(64,64,64)" text-rendering="geometricPrecision" font-family="'Fira Sans'" shape-rendering="geometricPrecision" font-style="italic" stroke="rgb(64,64,64)" stroke-miterlimit="1.45">
      <text x="718.3492" xml:space="preserve" y="778.3421" clip-path="url(#clipPath2)" stroke="none">T.totalThinkingTime</text>
    </g>
    <g stroke-linecap="butt" transform="matrix(1,0,0,1,-478,-602)" fill="rgb(0,51,102)" text-rendering="geometricPrecision" shape-rendering="geometricPrecision" stroke="rgb(0,51,102)" stroke-miterlimit="1.45">
      <path fill="none" d="M660.3434 670.5843 L666.8832 657.3079 L850.384 657.3079 L858.6482 662.3034" clip-path="url(#clipPath2)"/>
      <path fill="white" d="M871.4852 670.063 L860.8962 656.6513 L854.6885 666.9209 Z" clip-path="url(#clipPath2)" stroke="none"/>
      <path fill="none" d="M871.4852 670.063 L860.8962 656.6513 L854.6885 666.9209 Z" clip-path="url(#clipPath2)"/>
      <text x="815.5586" font-size="15px" y="651.6707" clip-path="url(#clipPath2)" font-family="'DejaVu Sans'" stroke="none" xml:space="preserve">∈</text>
      <rect x="744.3058" y="661.8402" clip-path="url(#clipPath2)" fill="rgb(183,219,255)" width="54.1624" height="13.6247" stroke="none"/>
      <text x="746.3057" font-size="10px" y="671.5209" clip-path="url(#clipPath2)" font-family="'Fira Sans'" stroke="none" xml:space="preserve">qPhil(T, P1)</text>
      <line y2="673.4649" fill="none" x1="746.3058" clip-path="url(#clipPath2)" x2="796.4682" y1="673.4649"/>
      <path fill="none" stroke-dasharray="6,2" d="M696.1702 774.936 L655.3632 774.936 L655.3632 751.4569" clip-path="url(#clipPath2)" stroke="rgb(153,51,0)"/>
      <path fill="white" stroke-dasharray="6,2" d="M655.3632 736.4569 L649.3632 752.4569 L661.3632 752.4569 Z" clip-path="url(#clipPath2)" stroke="none"/>
      <path fill="none" d="M655.3632 736.4569 L649.3632 752.4569 L661.3632 752.4569 Z" clip-path="url(#clipPath2)" stroke="rgb(153,51,0)"/>
      <rect x="636.9333" y="777.0747" clip-path="url(#clipPath2)" fill="rgb(244,186,158)" width="46.5366" stroke-dasharray="6,2" height="13.6247" stroke="none"/>
    </g>
    <g stroke-linecap="butt" font-size="10px" transform="matrix(1,0,0,1,-478,-602)" fill="rgb(153,51,0)" text-rendering="geometricPrecision" font-family="'Fira Sans'" shape-rendering="geometricPrecision" stroke="rgb(153,51,0)" stroke-miterlimit="1.45">
      <text x="638.9333" xml:space="preserve" y="786.7555" clip-path="url(#clipPath2)" stroke="none">qTable(T)</text>
      <line y2="788.6994" fill="none" x1="638.9333" clip-path="url(#clipPath2)" x2="681.4699" y1="788.6994"/>
    </g>
  </g>
</svg>
